<?xml version="1.0" standalone="no"?>
<!DOCTYPE svg PUBLIC "-//W3C//DTD SVG 1.1//EN" "http://www.w3.org/Graphics/SVG/1.1/DTD/svg11.dtd" >
<svg xmlns="http://www.w3.org/2000/svg" xmlns:xlink="http://www.w3.org/1999/xlink" version="1.1">
<metadata>
Created by FontForge 20190801 at Mon Nov 23 01:43:53 2015
 By Jimmy Wärting
\(c\) Fabian Fohrer &#38; Fabian Huber 2015
</metadata>
<defs>
<font id="Moderat-Regular" horiz-adv-x="830" >
  <font-face 
    font-family="Moderat"
    font-weight="400"
    font-stretch="normal"
    units-per-em="1000"
    panose-1="0 0 5 0 0 0 0 0 0 0"
    ascent="800"
    descent="-200"
    x-height="500"
    cap-height="700"
    bbox="-188 -278 1166 909"
    underline-thickness="50"
    underline-position="-100"
    unicode-range="U+0020-FB02"
  />
<missing-glyph 
d="M666 601c67 -67 104 -156 104 -251s-37 -184 -104 -251s-157 -104 -251 -104c-95 0 -184 37 -251 104s-104 156 -104 251s37 184 104 251s156 104 251 104c94 0 184 -37 251 -104zM646 119c62 62 96 144 96 231c0 88 -34 170 -96 232s-144 96 -231 96
c-88 0 -170 -34 -232 -96s-96 -144 -96 -232c0 -87 34 -169 96 -231s144 -96 232 -96c87 0 169 34 231 96zM290 383v95h-30v27h87v-27h-30v-95h-27zM512 383v95h-30v27h87v-27h-29v-95h-28zM591 291l5 14l26 -9l-4 -13c-14 -43 -41 -79 -77 -106c-37 -27 -80 -41 -126 -41
s-90 14 -127 41c-36 27 -63 63 -76 106l-5 13l27 9l4 -14c12 -37 35 -68 66 -92c32 -23 71 -36 111 -36s78 13 110 36c31 24 54 55 66 92z" />
    <glyph glyph-name="f_f" unicode="ff" horiz-adv-x="693" 
d="M506 541v-41h120v-70h-120v-430h-84v430h-94h-120v-430h-84v430h-74v70h74v49c0 91 47 156 134 156c46 0 73 -19 88 -32l-38 -62c-10 8 -21 14 -40 14c-33 0 -60 -18 -60 -84v-41h140h74v49c0 91 47 156 134 156c46 0 73 -19 88 -32l-38 -62c-10 8 -21 14 -40 14
c-33 0 -60 -18 -60 -84z" />
    <glyph glyph-name="f_f_i" unicode="ffi" horiz-adv-x="895" 
d="M771 715c35 0 64 -28 64 -64c0 -35 -29 -64 -64 -64c-36 0 -65 29 -65 64c0 36 29 64 65 64zM814 500v-500h-88v430h-220v-430h-84v430h-94h-120v-430h-84v430h-74v70h74v49c0 91 47 156 134 156c46 0 73 -19 88 -32l-38 -62c-10 8 -21 14 -40 14c-33 0 -60 -18 -60 -84
v-41h140h74v49c0 91 47 156 134 156c46 0 73 -19 88 -32l-38 -62c-10 8 -21 14 -40 14c-33 0 -60 -18 -60 -84v-41h308z" />
    <glyph glyph-name="f_f_j" unicode="ffj" horiz-adv-x="896" 
d="M772 715c35 0 64 -28 64 -64c0 -35 -29 -64 -64 -64c-36 0 -65 29 -65 64c0 36 29 64 65 64zM813 500v-549c0 -91 -53 -156 -140 -156c-46 0 -73 19 -88 32l38 61c9 -7 20 -14 40 -14c34 0 63 21 63 85v471h-220v-430h-84v430h-94h-120v-430h-84v430h-74v70h74v49
c0 91 47 156 134 156c46 0 73 -19 88 -32l-38 -62c-10 8 -21 14 -40 14c-33 0 -60 -18 -60 -84v-41h140h74v49c0 91 47 156 134 156c46 0 73 -19 88 -32l-38 -62c-10 8 -21 14 -40 14c-33 0 -60 -18 -60 -84v-41h307z" />
    <glyph glyph-name="f_f_l" unicode="ffl" horiz-adv-x="903" 
d="M625 705c143 0 198 -85 198 -85v-620h-87v590c-8 12 -35 38 -109 38c-64 0 -121 -26 -121 -113v-15h120v-70h-120v-430h-84v430h-94h-120v-430h-84v430h-74v70h74v49c0 91 47 156 134 156c46 0 73 -19 88 -32l-38 -62c-10 8 -21 14 -40 14c-33 0 -60 -18 -60 -84v-41h140
h74v23c0 111 72 182 203 182zM738 585v2v-2z" />
    <glyph glyph-name="f_j" unicode="fj" horiz-adv-x="598" 
d="M474 715c35 0 64 -28 64 -64c0 -35 -29 -64 -64 -64c-36 0 -65 29 -65 64c0 36 29 64 65 64zM515 500v-549c0 -91 -53 -156 -140 -156c-46 0 -73 19 -88 32l38 61c9 -7 20 -14 40 -14c34 0 63 21 63 85v471h-220v-430h-84v430h-74v70h74v49c0 91 47 156 134 156
c46 0 73 -19 88 -32l-38 -62c-10 8 -21 14 -40 14c-33 0 -60 -18 -60 -84v-41h307z" />
    <glyph glyph-name="fi" unicode="fi" horiz-adv-x="597" 
d="M473 715c35 0 64 -28 64 -64c0 -35 -29 -64 -64 -64c-36 0 -65 29 -65 64c0 36 29 64 65 64zM516 500v-500h-88v430h-220v-430h-84v430h-74v70h74v49c0 91 47 156 134 156c46 0 73 -19 88 -32l-38 -62c-10 8 -21 14 -40 14c-33 0 -60 -18 -60 -84v-41h308z" />
    <glyph glyph-name="fl" unicode="fl" horiz-adv-x="605" 
d="M327 705c143 0 198 -85 198 -85v-620h-87v590c-8 12 -35 38 -109 38c-64 0 -121 -26 -121 -113v-15h120v-70h-120v-430h-84v430h-74v70h74v23c0 111 72 182 203 182zM440 585v2v-2z" />
    <glyph glyph-name="onehalf" unicode="&#x31;&#x2044;&#x32;" horiz-adv-x="847" 
d="M139 255v258h-89v56h55c22 0 38 16 38 39v32h66l1 -385h-71zM689 640l-498 -640h-81l498 640h81zM681 147c-52 -31 -84 -52 -84 -81h191v-66h-269v36c0 83 62 122 113 152c43 26 90 48 90 87c0 29 -25 48 -61 48c-44 0 -71 -27 -71 -69h-70c0 57 40 134 138 134
c74 0 133 -44 133 -111c0 -66 -56 -98 -110 -130z" />
    <glyph glyph-name="uni2153" unicode="&#x31;&#x2044;&#x33;" horiz-adv-x="842" 
d="M139 255v258h-89v56h55c22 0 38 16 38 39v32h66l1 -385h-71zM689 640l-498 -640h-81l498 640h81zM728 203c36 -11 64 -44 64 -90c0 -63 -52 -116 -135 -116c-85 0 -138 55 -138 128h67c3 -35 26 -66 72 -66c42 0 65 25 65 57s-22 58 -75 58h-26v57h23c54 0 67 27 67 50
c0 29 -22 44 -56 44c-36 0 -56 -16 -59 -40h-66c0 58 54 103 127 103c67 0 121 -38 121 -98c0 -35 -18 -64 -51 -81v-6z" />
    <glyph glyph-name="uni2154" unicode="&#x32;&#x2044;&#x33;" horiz-adv-x="930" 
d="M212 402c-52 -31 -84 -52 -84 -81h191v-66h-269v36c0 83 62 122 113 152c43 26 90 48 90 87c0 29 -25 48 -61 48c-44 0 -71 -27 -71 -69h-70c0 57 40 134 138 134c74 0 133 -44 133 -111c0 -66 -56 -98 -110 -130zM777 640l-498 -640h-81l498 640h81zM816 203
c36 -11 64 -44 64 -90c0 -63 -52 -116 -135 -116c-85 0 -138 55 -138 128h67c3 -35 26 -66 72 -66c42 0 65 25 65 57s-22 58 -75 58h-26v57h23c54 0 67 27 67 50c0 29 -22 44 -56 44c-36 0 -56 -16 -59 -40h-66c0 58 54 103 127 103c67 0 121 -38 121 -98
c0 -35 -18 -64 -51 -81v-6z" />
    <glyph glyph-name="onequarter" unicode="&#x31;&#x2044;&#x34;" horiz-adv-x="799" 
d="M139 255v258h-89v56h55c22 0 38 16 38 39v32h66l1 -385h-71zM689 640l-498 -640h-81l498 640h81zM690 140h59v-59h-59v-81h-64v81h-187v47l159 257h92v-245zM521 140h105v156h-9z" />
    <glyph glyph-name="threequarters" unicode="&#x33;&#x2044;&#x34;" horiz-adv-x="852" 
d="M259 458c36 -11 64 -44 64 -90c0 -63 -52 -116 -135 -116c-85 0 -138 55 -138 128h67c3 -35 26 -66 72 -66c42 0 65 25 65 57s-22 58 -75 58h-26v57h23c54 0 67 27 67 50c0 29 -22 44 -56 44c-36 0 -56 -16 -59 -40h-66c0 58 54 103 127 103c67 0 121 -38 121 -98
c0 -35 -18 -64 -51 -81v-6zM742 640l-498 -640h-81l498 640h81zM743 140h59v-59h-59v-81h-64v81h-187v47l159 257h92v-245zM574 140h105v156h-9z" />
    <glyph glyph-name="arrowright" unicode="&#x2014;&#x3e;" horiz-adv-x="863" 
d="M538 609l285 -285v-26l-285 -285l-58 58l202 200h-622v79h623l-203 201z" />
    <glyph glyph-name="arrowleft" unicode="&#x3c;&#x2014;" horiz-adv-x="863" 
d="M803 350v-79h-622l202 -200l-58 -58l-285 285v26l285 285l58 -58l-203 -201h623z" />
    <glyph glyph-name="smileface" unicode="&#x3a;&#x29;" 
d="M666 601c67 -67 104 -156 104 -251s-37 -184 -104 -251s-157 -104 -251 -104c-95 0 -184 37 -251 104s-104 156 -104 251s37 184 104 251s156 104 251 104c94 0 184 -37 251 -104zM646 119c62 62 96 144 96 231c0 88 -34 170 -96 232s-144 96 -231 96
c-88 0 -170 -34 -232 -96s-96 -144 -96 -232c0 -87 34 -169 96 -231s144 -96 232 -96c87 0 169 34 231 96zM290 383v95h-30v27h87v-27h-30v-95h-27zM512 383v95h-30v27h87v-27h-29v-95h-28zM591 291l5 14l26 -9l-4 -13c-14 -43 -41 -79 -77 -106c-37 -27 -80 -41 -126 -41
s-90 14 -127 41c-36 27 -63 63 -76 106l-5 13l27 9l4 -14c12 -37 35 -68 66 -92c32 -23 71 -36 111 -36s78 13 110 36c31 24 54 55 66 92z" />
    <glyph glyph-name=".notdef" 
d="M666 601c67 -67 104 -156 104 -251s-37 -184 -104 -251s-157 -104 -251 -104c-95 0 -184 37 -251 104s-104 156 -104 251s37 184 104 251s156 104 251 104c94 0 184 -37 251 -104zM646 119c62 62 96 144 96 231c0 88 -34 170 -96 232s-144 96 -231 96
c-88 0 -170 -34 -232 -96s-96 -144 -96 -232c0 -87 34 -169 96 -231s144 -96 232 -96c87 0 169 34 231 96zM290 383v95h-30v27h87v-27h-30v-95h-27zM512 383v95h-30v27h87v-27h-29v-95h-28zM591 291l5 14l26 -9l-4 -13c-14 -43 -41 -79 -77 -106c-37 -27 -80 -41 -126 -41
s-90 14 -127 41c-36 27 -63 63 -76 106l-5 13l27 9l4 -14c12 -37 35 -68 66 -92c32 -23 71 -36 111 -36s78 13 110 36c31 24 54 55 66 92z" />
    <glyph glyph-name="A" unicode="A" horiz-adv-x="638" 
d="M521 0l-59 183h-286l-59 -183h-97l236 700h126l236 -700h-97zM313 606l-109 -338h230l-109 338h-12z" />
    <glyph glyph-name="Aacute" unicode="&#xc1;" horiz-adv-x="638" 
d="M454 880l-125 -125h-73l70 125h128zM521 0l-59 183h-286l-59 -183h-97l236 700h126l236 -700h-97zM313 606l-109 -338h230l-109 338h-12z" />
    <glyph glyph-name="Abreve" unicode="&#x102;" horiz-adv-x="638" 
d="M320 747c-84 0 -139 70 -139 133h76c0 -23 21 -60 62 -60c40 0 59 37 59 60h77c0 -63 -51 -133 -135 -133zM521 0l-59 183h-286l-59 -183h-97l236 700h126l236 -700h-97zM313 606l-109 -338h230l-109 338h-12z" />
    <glyph glyph-name="uni01CD" unicode="&#x1cd;" horiz-adv-x="638" 
d="M362 755h-91l-109 154h89l59 -90h13l59 90h89zM521 0l-59 183h-286l-59 -183h-97l236 700h126l236 -700h-97zM313 606l-109 -338h230l-109 338h-12z" />
    <glyph glyph-name="Acircumflex" unicode="&#xc2;" horiz-adv-x="638" 
d="M310 845l-59 -90h-89l109 154h91l109 -154h-89l-59 90h-13zM521 0l-59 183h-286l-59 -183h-97l236 700h126l236 -700h-97zM313 606l-109 -338h230l-109 338h-12z" />
    <glyph glyph-name="Adieresis" unicode="&#xc4;" horiz-adv-x="638" 
d="M199 749c-34 0 -62 28 -62 62c0 35 28 61 62 61s61 -26 61 -61c0 -34 -27 -62 -61 -62zM439 749c-34 0 -62 28 -62 62c0 35 28 61 62 61s61 -26 61 -61c0 -34 -27 -62 -61 -62zM521 0l-59 183h-286l-59 -183h-97l236 700h126l236 -700h-97zM313 606l-109 -338h230
l-109 338h-12z" />
    <glyph glyph-name="uni0226" unicode="&#x226;" horiz-adv-x="638" 
d="M320 746c-36 0 -65 29 -65 64c0 36 29 64 65 64c35 0 64 -28 64 -64c0 -35 -29 -64 -64 -64zM521 0l-59 183h-286l-59 -183h-97l236 700h126l236 -700h-97zM313 606l-109 -338h230l-109 338h-12z" />
    <glyph glyph-name="Agrave" unicode="&#xc0;" horiz-adv-x="638" 
d="M391 755h-73l-125 125h128zM521 0l-59 183h-286l-59 -183h-97l236 700h126l236 -700h-97zM313 606l-109 -338h230l-109 338h-12z" />
    <glyph glyph-name="Amacron" unicode="&#x100;" horiz-adv-x="638" 
d="M484 857v-73h-330v73h330zM521 0l-59 183h-286l-59 -183h-97l236 700h126l236 -700h-97zM313 606l-109 -338h230l-109 338h-12z" />
    <glyph glyph-name="Aogonek" unicode="&#x104;" horiz-adv-x="638" 
d="M641 -131l3 -63s-23 -11 -54 -11c-54 0 -114 38 -114 109c0 45 23 77 45 97l-59 182h-286l-59 -183h-97l236 700h126l236 -700h-23c-19 -14 -47 -42 -47 -79c0 -57 67 -63 93 -52zM313 606l-109 -338h230l-109 338h-12z" />
    <glyph glyph-name="Aring" unicode="&#xc5;" horiz-adv-x="638" 
d="M521 0l-59 183h-286l-59 -183h-97l226 669c-21 19 -33 46 -33 75c0 57 47 105 106 105c57 0 105 -48 105 -105c0 -29 -12 -55 -32 -74l226 -670h-97zM319 787c-25 0 -42 -20 -42 -43s17 -43 42 -43c23 0 41 20 41 43s-18 43 -41 43zM313 606l-109 -338h230l-109 338h-12z
" />
    <glyph glyph-name="Atilde" unicode="&#xc3;" horiz-adv-x="638" 
d="M255 791c-42 5 -60 -38 -60 -38l-58 25s45 110 138 94c46 -9 72 -43 106 -48c42 -5 61 39 61 39l58 -26s-42 -112 -137 -93c-48 9 -74 43 -108 47zM521 0l-59 183h-286l-59 -183h-97l236 700h126l236 -700h-97zM313 606l-109 -338h230l-109 338h-12z" />
    <glyph glyph-name="AE" unicode="&#xc6;" horiz-adv-x="1036" 
d="M598 88h358v-88h-451v183h-265l-116 -183h-104l443 700h106h377v-87h-348v-215h318v-87h-318v-223zM294 268h211v312h-12z" />
    <glyph glyph-name="AEacute" unicode="&#x1fc;" horiz-adv-x="1036" 
d="M837 880l-125 -125h-73l70 125h128zM598 88h358v-88h-451v183h-265l-116 -183h-104l443 700h106h377v-87h-348v-215h318v-87h-318v-223zM294 268h211v312h-12z" />
    <glyph glyph-name="uni01E2" unicode="&#x1e2;" horiz-adv-x="1036" 
d="M873 857v-73h-330v73h330zM598 88h358v-88h-451v183h-265l-116 -183h-104l443 700h106h377v-87h-348v-215h318v-87h-318v-223zM294 268h211v312h-12z" />
    <glyph glyph-name="B" unicode="B" horiz-adv-x="614" 
d="M437 364c61 -22 117 -82 117 -171c0 -104 -77 -193 -232 -193h-242v700h221c125 0 220 -67 220 -177c0 -68 -36 -123 -84 -147v-12zM165 618v-215h131c95 0 135 46 135 109c0 74 -55 106 -140 106h-126zM312 82c94 0 151 37 151 120c0 85 -61 121 -151 121h-147v-241h147
z" />
    <glyph glyph-name="uni1E02" unicode="&#x1e02;" horiz-adv-x="614" 
d="M280 746c-36 0 -65 29 -65 64c0 36 29 64 65 64c35 0 64 -28 64 -64c0 -35 -29 -64 -64 -64zM437 364c61 -22 117 -82 117 -171c0 -104 -77 -193 -232 -193h-242v700h221c125 0 220 -67 220 -177c0 -68 -36 -123 -84 -147v-12zM165 618v-215h131c95 0 135 46 135 109
c0 74 -55 106 -140 106h-126zM312 82c94 0 151 37 151 120c0 85 -61 121 -151 121h-147v-241h147z" />
    <glyph glyph-name="C" unicode="C" horiz-adv-x="713" 
d="M663 200c-42 -118 -154 -205 -286 -205c-170 0 -317 145 -317 355s147 355 316 355c128 0 243 -83 287 -205h-103c-33 74 -102 116 -184 116c-131 0 -221 -107 -221 -266s90 -266 222 -266c84 0 151 44 183 116h103z" />
    <glyph glyph-name="Cacute" unicode="&#x106;" horiz-adv-x="713" 
d="M399 880h128l-125 -125h-73zM663 200c-42 -118 -154 -205 -286 -205c-170 0 -317 145 -317 355s147 355 316 355c128 0 243 -83 287 -205h-103c-33 74 -102 116 -184 116c-131 0 -221 -107 -221 -266s90 -266 222 -266c84 0 151 44 183 116h103z" />
    <glyph glyph-name="Ccaron" unicode="&#x10c;" horiz-adv-x="713" 
d="M415 755h-91l-109 154h89l59 -90h13l59 90h89zM377 84c84 0 151 44 183 116h103c-42 -118 -154 -205 -286 -205c-170 0 -317 145 -317 355s147 355 316 355c128 0 243 -83 287 -205h-103c-33 74 -102 116 -184 116c-131 0 -221 -107 -221 -266s90 -266 222 -266z" />
    <glyph glyph-name="Ccedilla" unicode="&#xc7;" horiz-adv-x="713" 
d="M377 84c84 0 151 44 183 116h103c-39 -109 -138 -192 -258 -204l-19 -28c49 11 108 -18 108 -79c0 -52 -46 -94 -112 -94c-82 0 -111 64 -111 64l50 28s19 -32 60 -32c31 0 45 16 45 34c0 17 -13 34 -45 34c-25 0 -44 -11 -44 -11l-29 38l31 47
c-154 20 -279 159 -279 353c0 210 147 355 316 355c128 0 243 -83 287 -205h-103c-33 74 -102 116 -184 116c-131 0 -221 -107 -221 -266s90 -266 222 -266z" />
    <glyph glyph-name="Ccircumflex" unicode="&#x108;" horiz-adv-x="713" 
d="M363 845l-59 -90h-89l109 154h91l109 -154h-89l-59 90h-13zM377 84c84 0 151 44 183 116h103c-42 -118 -154 -205 -286 -205c-170 0 -317 145 -317 355s147 355 316 355c128 0 243 -83 287 -205h-103c-33 74 -102 116 -184 116c-131 0 -221 -107 -221 -266
s90 -266 222 -266z" />
    <glyph glyph-name="Cdotaccent" unicode="&#x10a;" horiz-adv-x="713" 
d="M363 746c-36 0 -65 29 -65 64c0 36 29 64 65 64c35 0 64 -28 64 -64c0 -35 -29 -64 -64 -64zM663 200c-42 -118 -154 -205 -286 -205c-170 0 -317 145 -317 355s147 355 316 355c128 0 243 -83 287 -205h-103c-33 74 -102 116 -184 116c-131 0 -221 -107 -221 -266
s90 -266 222 -266c84 0 151 44 183 116h103z" />
    <glyph glyph-name="D" unicode="D" horiz-adv-x="687" 
d="M302 700c183 0 325 -143 325 -350s-140 -350 -325 -350h-222v700h222zM302 88c147 0 228 108 228 262s-82 262 -228 262h-129v-524h129z" />
    <glyph glyph-name="Eth" unicode="&#xd0;" horiz-adv-x="747" 
d="M362 700c183 0 325 -143 325 -350s-140 -350 -325 -350h-222v326h-100v76h100v298h222zM362 88c147 0 228 108 228 262s-82 262 -228 262h-129v-210h177v-76h-177v-238h129z" />
    <glyph glyph-name="Dcaron" unicode="&#x10e;" horiz-adv-x="687" 
d="M356 755h-91l-109 154h89l59 -90h13l59 90h89zM302 700c183 0 325 -143 325 -350s-140 -350 -325 -350h-222v700h222zM302 88c147 0 228 108 228 262s-82 262 -228 262h-129v-524h129z" />
    <glyph glyph-name="uni1E10" unicode="&#x1e10;" horiz-adv-x="687" 
d="M627 350c0 -189 -117 -325 -278 -347l-24 -35c49 11 108 -18 108 -79c0 -52 -46 -94 -112 -94c-82 0 -111 64 -111 64l50 28s19 -32 60 -32c31 0 45 16 45 34c0 17 -13 34 -45 34c-25 0 -44 -11 -44 -11l-29 38l32 50h-199v700h222c183 0 325 -143 325 -350zM173 612
v-524h129c147 0 228 108 228 262s-82 262 -228 262h-129z" />
    <glyph glyph-name="Dcroat" unicode="&#x110;" horiz-adv-x="747" 
d="M362 700c183 0 325 -143 325 -350s-140 -350 -325 -350h-222v326h-100v76h100v298h222zM362 88c147 0 228 108 228 262s-82 262 -228 262h-129v-210h177v-76h-177v-238h129z" />
    <glyph glyph-name="uni1E0A" unicode="&#x1e0a;" horiz-adv-x="687" 
d="M321 746c-36 0 -65 29 -65 64c0 36 29 64 65 64c35 0 64 -28 64 -64c0 -35 -29 -64 -64 -64zM302 700c183 0 325 -143 325 -350s-140 -350 -325 -350h-222v700h222zM302 88c147 0 228 108 228 262s-82 262 -228 262h-129v-524h129z" />
    <glyph glyph-name="E" unicode="E" horiz-adv-x="611" 
d="M173 88h358v-88h-451v613v87h441v-87h-348v-215h318v-87h-318v-223z" />
    <glyph glyph-name="Eacute" unicode="&#xc9;" horiz-adv-x="611" 
d="M311 880h128l-125 -125h-73zM173 88h358v-88h-451v613v87h441v-87h-348v-215h318v-87h-318v-223z" />
    <glyph glyph-name="Ebreve" unicode="&#x114;" horiz-adv-x="611" 
d="M439 880c0 -63 -51 -133 -135 -133s-139 70 -139 133h76c0 -23 21 -60 62 -60c40 0 59 37 59 60h77zM173 88h358v-88h-451v613v87h441v-87h-348v-215h318v-87h-318v-223z" />
    <glyph glyph-name="Ecaron" unicode="&#x11a;" horiz-adv-x="611" 
d="M347 755h-91l-109 154h89l59 -90h13l59 90h89zM173 88h358v-88h-451v613v87h441v-87h-348v-215h318v-87h-318v-223z" />
    <glyph glyph-name="uni0228" unicode="&#x228;" horiz-adv-x="611" 
d="M531 0h-199l-22 -32c49 11 108 -18 108 -79c0 -52 -46 -94 -112 -94c-82 0 -111 64 -111 64l50 28s19 -32 60 -32c31 0 45 16 45 34c0 17 -13 34 -45 34c-25 0 -44 -11 -44 -11l-29 38l32 50h-184v613v87h441v-87h-348v-215h318v-87h-318v-223h358v-88z" />
    <glyph glyph-name="Ecircumflex" unicode="&#xca;" horiz-adv-x="611" 
d="M295 845l-59 -90h-89l109 154h91l109 -154h-89l-59 90h-13zM173 88h358v-88h-451v613v87h441v-87h-348v-215h318v-87h-318v-223z" />
    <glyph glyph-name="Edieresis" unicode="&#xcb;" horiz-adv-x="611" 
d="M183 749c-34 0 -62 28 -62 62c0 35 28 61 62 61s61 -26 61 -61c0 -34 -27 -62 -61 -62zM423 749c-34 0 -62 28 -62 62c0 35 28 61 62 61s61 -26 61 -61c0 -34 -27 -62 -61 -62zM173 88h358v-88h-451v613v87h441v-87h-348v-215h318v-87h-318v-223z" />
    <glyph glyph-name="Edotaccent" unicode="&#x116;" horiz-adv-x="611" 
d="M306 746c-36 0 -65 29 -65 64c0 36 29 64 65 64c35 0 64 -28 64 -64c0 -35 -29 -64 -64 -64zM173 88h358v-88h-451v613v87h441v-87h-348v-215h318v-87h-318v-223z" />
    <glyph glyph-name="Egrave" unicode="&#xc8;" horiz-adv-x="611" 
d="M292 880l70 -125h-73l-125 125h128zM173 88h358v-88h-451v613v87h441v-87h-348v-215h318v-87h-318v-223z" />
    <glyph glyph-name="Emacron" unicode="&#x112;" horiz-adv-x="611" 
d="M138 857h330v-73h-330v73zM173 88h358v-88h-451v613v87h441v-87h-348v-215h318v-87h-318v-223z" />
    <glyph glyph-name="Eogonek" unicode="&#x118;" horiz-adv-x="611" 
d="M349 0c-19 -14 -47 -42 -47 -79c0 -57 67 -63 93 -52l3 -63s-23 -11 -54 -11c-54 0 -114 38 -114 109c0 44 23 76 44 96h-194v613v87h441v-87h-348v-215h318v-87h-318v-223h358v-88h-182z" />
    <glyph glyph-name="uni1EBC" unicode="&#x1ebc;" horiz-adv-x="611" 
d="M487 837c0 0 -42 -112 -137 -93c-48 9 -74 43 -108 47c-42 5 -60 -38 -60 -38l-58 25s45 110 138 94c46 -9 72 -43 106 -48c42 -5 61 39 61 39zM173 88h358v-88h-451v613v87h441v-87h-348v-215h318v-87h-318v-223z" />
    <glyph glyph-name="F" unicode="F" horiz-adv-x="531" 
d="M501 615h-329v-218h279v-85h-279v-312h-92v700h421v-85z" />
    <glyph glyph-name="uni1E1E" unicode="&#x1e1e;" horiz-adv-x="531" 
d="M291 746c-36 0 -65 29 -65 64c0 36 29 64 65 64c35 0 64 -28 64 -64c0 -35 -29 -64 -64 -64zM501 615h-329v-218h279v-85h-279v-312h-92v700h421v-85z" />
    <glyph glyph-name="G" unicode="G" horiz-adv-x="731" 
d="M374 280v82h287v-218v-144h-55l-18 65h-13c-49 -43 -109 -70 -190 -70c-188 0 -325 150 -325 355s138 355 323 355c181 0 268 -145 278 -205h-98c-19 49 -81 121 -187 121c-136 0 -221 -117 -221 -271c0 -153 83 -271 225 -271c79 0 154 37 193 93v108h-199z" />
    <glyph glyph-name="uni01F4" unicode="&#x1f4;" horiz-adv-x="731" 
d="M514 880l-125 -125h-73l70 125h128zM374 280v82h287v-218v-144h-55l-18 65h-13c-49 -43 -109 -70 -190 -70c-188 0 -325 150 -325 355s138 355 323 355c181 0 268 -145 278 -205h-98c-19 49 -81 121 -187 121c-136 0 -221 -117 -221 -271c0 -153 83 -271 225 -271
c79 0 154 37 193 93v108h-199z" />
    <glyph glyph-name="Gbreve" unicode="&#x11e;" horiz-adv-x="731" 
d="M374 747c-84 0 -139 70 -139 133h76c0 -23 21 -60 62 -60c40 0 59 37 59 60h77c0 -63 -51 -133 -135 -133zM374 280v82h287v-218v-144h-55l-18 65h-13c-49 -43 -109 -70 -190 -70c-188 0 -325 150 -325 355s138 355 323 355c181 0 268 -145 278 -205h-98
c-19 49 -81 121 -187 121c-136 0 -221 -117 -221 -271c0 -153 83 -271 225 -271c79 0 154 37 193 93v108h-199z" />
    <glyph glyph-name="Gcaron" unicode="&#x1e6;" horiz-adv-x="731" 
d="M423 755h-91l-109 154h89l59 -90h13l59 90h89zM374 280v82h287v-218v-144h-55l-18 65h-13c-49 -43 -109 -70 -190 -70c-188 0 -325 150 -325 355s138 355 323 355c181 0 268 -145 278 -205h-98c-19 49 -81 121 -187 121c-136 0 -221 -117 -221 -271
c0 -153 83 -271 225 -271c79 0 154 37 193 93v108h-199z" />
    <glyph glyph-name="Gcircumflex" unicode="&#x11c;" horiz-adv-x="731" 
d="M362 845l-59 -90h-89l109 154h91l109 -154h-89l-59 90h-13zM374 280v82h287v-218v-144h-55l-18 65h-13c-49 -43 -109 -70 -190 -70c-188 0 -325 150 -325 355s138 355 323 355c181 0 268 -145 278 -205h-98c-19 49 -81 121 -187 121c-136 0 -221 -117 -221 -271
c0 -153 83 -271 225 -271c79 0 154 37 193 93v108h-199z" />
    <glyph glyph-name="Gcommaaccent" unicode="&#x122;" horiz-adv-x="731" 
d="M374 280v82h287v-218v-144h-55l-18 65h-13c-49 -43 -109 -70 -190 -70c-188 0 -325 150 -325 355s138 355 323 355c181 0 268 -145 278 -205h-98c-19 49 -81 121 -187 121c-136 0 -221 -117 -221 -271c0 -153 83 -271 225 -271c79 0 154 37 193 93v108h-199zM356 -47
c38 0 58 -31 58 -76c0 -91 -83 -145 -83 -145l-26 26c30 26 42 59 47 85c-29 2 -51 26 -51 55c0 31 23 55 55 55z" />
    <glyph glyph-name="Gdotaccent" unicode="&#x120;" horiz-adv-x="731" 
d="M385 746c-36 0 -65 29 -65 64c0 36 29 64 65 64c35 0 64 -28 64 -64c0 -35 -29 -64 -64 -64zM374 280v82h287v-218v-144h-55l-18 65h-13c-49 -43 -109 -70 -190 -70c-188 0 -325 150 -325 355s138 355 323 355c181 0 268 -145 278 -205h-98c-19 49 -81 121 -187 121
c-136 0 -221 -117 -221 -271c0 -153 83 -271 225 -271c79 0 154 37 193 93v108h-199z" />
    <glyph glyph-name="uni1E20" unicode="&#x1e20;" horiz-adv-x="731" 
d="M543 857v-73h-330v73h330zM374 280v82h287v-218v-144h-55l-18 65h-13c-49 -43 -109 -70 -190 -70c-188 0 -325 150 -325 355s138 355 323 355c181 0 268 -145 278 -205h-98c-19 49 -81 121 -187 121c-136 0 -221 -117 -221 -271c0 -153 83 -271 225 -271
c79 0 154 37 193 93v108h-199z" />
    <glyph glyph-name="H" unicode="H" horiz-adv-x="680" 
d="M507 700h93v-700h-93v310h-334v-310h-93v700h93v-303h334v303z" />
    <glyph glyph-name="Hbar" unicode="&#x126;" horiz-adv-x="680" 
d="M507 700h93v-700h-93v310h-334v-310h-93v700h93v-122h334v122zM173 397h334v108h-334v-108z" />
    <glyph glyph-name="uni021E" unicode="&#x21e;" horiz-adv-x="680" 
d="M385 755h-91l-109 154h89l59 -90h13l59 90h89zM507 700h93v-700h-93v310h-334v-310h-93v700h93v-303h334v303z" />
    <glyph glyph-name="uni1E28" unicode="&#x1e28;" horiz-adv-x="680" 
d="M507 700h93v-700h-93v310h-334v-310h-26l-22 -32c49 11 108 -18 108 -79c0 -52 -46 -94 -112 -94c-82 0 -111 64 -111 64l50 28s19 -32 60 -32c31 0 45 16 45 34c0 17 -13 34 -45 34c-25 0 -44 -11 -44 -11l-29 38l33 51v699h93v-303h334v303z" />
    <glyph glyph-name="Hcircumflex" unicode="&#x124;" horiz-adv-x="680" 
d="M331 845l-59 -90h-89l109 154h91l109 -154h-89l-59 90h-13zM507 700h93v-700h-93v310h-334v-310h-93v700h93v-303h334v303z" />
    <glyph glyph-name="uni1E26" unicode="&#x1e26;" horiz-adv-x="680" 
d="M240 749c-34 0 -62 28 -62 62c0 35 28 61 62 61s61 -26 61 -61c0 -34 -27 -62 -61 -62zM480 749c-34 0 -62 28 -62 62c0 35 28 61 62 61s61 -26 61 -61c0 -34 -27 -62 -61 -62zM507 700h93v-700h-93v310h-334v-310h-93v700h93v-303h334v303z" />
    <glyph glyph-name="uni1E22" unicode="&#x1e22;" horiz-adv-x="680" 
d="M341 746c-36 0 -65 29 -65 64c0 36 29 64 65 64c35 0 64 -28 64 -64c0 -35 -29 -64 -64 -64zM507 700h93v-700h-93v310h-334v-310h-93v700h93v-303h334v303z" />
    <glyph glyph-name="I" unicode="I" horiz-adv-x="253" 
d="M173 700v-700h-93v700h93z" />
    <glyph glyph-name="IJ" unicode="&#x132;" horiz-adv-x="810" 
d="M173 700v-700h-93v700h93zM393 200c0 -80 64 -119 128 -119c63 0 115 37 115 149v470h94v-460c0 -173 -94 -245 -210 -245c-117 0 -217 72 -217 205h90z" />
    <glyph glyph-name="Iacute" unicode="&#xcd;" horiz-adv-x="253" 
d="M134 880h128l-125 -125h-73zM173 700v-700h-93v700h93z" />
    <glyph glyph-name="Ibreve" unicode="&#x12c;" horiz-adv-x="253" 
d="M263 880c0 -63 -51 -133 -135 -133s-139 70 -139 133h76c0 -23 21 -60 62 -60c40 0 59 37 59 60h77zM173 700v-700h-93v700h93z" />
    <glyph glyph-name="uni01CF" unicode="&#x1cf;" horiz-adv-x="253" 
d="M279 909l-109 -154h-91l-109 154h89l59 -90h13l59 90h89zM80 0v700h93v-700h-93z" />
    <glyph glyph-name="Icircumflex" unicode="&#xce;" horiz-adv-x="253" 
d="M170 909l109 -154h-89l-59 90h-13l-59 -90h-89l109 154h91zM80 0v700h93v-700h-93z" />
    <glyph glyph-name="Idieresis" unicode="&#xcf;" horiz-adv-x="253" 
d="M28 749c-34 0 -62 28 -62 62c0 35 28 61 62 61s61 -26 61 -61c0 -34 -27 -62 -61 -62zM228 749c-34 0 -62 28 -62 62c0 35 28 61 62 61s61 -26 61 -61c0 -34 -27 -62 -61 -62zM173 700v-700h-93v700h93z" />
    <glyph glyph-name="Idotaccent" unicode="&#x130;" horiz-adv-x="253" 
d="M127 746c-36 0 -65 29 -65 64c0 36 29 64 65 64c35 0 64 -28 64 -64c0 -35 -29 -64 -64 -64zM173 700v-700h-93v700h93z" />
    <glyph glyph-name="Igrave" unicode="&#xcc;" horiz-adv-x="253" 
d="M120 880l70 -125h-73l-125 125h128zM173 700v-700h-93v700h93z" />
    <glyph glyph-name="Imacron" unicode="&#x12a;" horiz-adv-x="253" 
d="M-40 857h330v-73h-330v73zM173 700v-700h-93v700h93z" />
    <glyph glyph-name="Iogonek" unicode="&#x12e;" horiz-adv-x="253" 
d="M200 -131l3 -63s-23 -11 -54 -11c-54 0 -114 38 -114 109c0 45 23 77 45 97v699h93v-700h-19c-19 -14 -47 -42 -47 -79c0 -57 67 -63 93 -52z" />
    <glyph glyph-name="Itilde" unicode="&#x128;" horiz-adv-x="253" 
d="M308 837c0 0 -42 -112 -137 -93c-48 9 -74 43 -108 47c-42 5 -60 -38 -60 -38l-58 25s45 110 138 94c46 -9 72 -43 106 -48c42 -5 61 39 61 39zM173 700v-700h-93v700h93z" />
    <glyph glyph-name="J" unicode="J" horiz-adv-x="567" 
d="M150 200c0 -80 64 -119 128 -119c63 0 115 37 115 149v470h94v-460c0 -173 -94 -245 -210 -245c-117 0 -217 72 -217 205h90z" />
    <glyph glyph-name="Jcircumflex" unicode="&#x134;" horiz-adv-x="567" 
d="M483 909l109 -154h-89l-59 90h-13l-59 -90h-89l109 154h91zM393 230v470h94v-460c0 -173 -94 -245 -210 -245c-117 0 -217 72 -217 205h90c0 -80 64 -119 128 -119c63 0 115 37 115 149z" />
    <glyph glyph-name="K" unicode="K" horiz-adv-x="626" 
d="M586 0h-110l-248 317h-59v-317h-89v700h89v-297h59l219 297h109l-248 -340z" />
    <glyph glyph-name="uni01E8" unicode="&#x1e8;" horiz-adv-x="626" 
d="M354 755h-91l-109 154h89l59 -90h13l59 90h89zM586 0h-110l-248 317h-59v-317h-89v700h89v-297h59l219 297h109l-248 -340z" />
    <glyph glyph-name="Kcommaaccent" unicode="&#x136;" horiz-adv-x="626" 
d="M308 360l278 -360h-110l-248 317h-59v-317h-89v700h89v-297h59l219 297h109zM292 -47c38 0 58 -31 58 -76c0 -91 -83 -145 -83 -145l-26 26c30 26 42 59 47 85c-29 2 -51 26 -51 55c0 31 23 55 55 55z" />
    <glyph glyph-name="L" unicode="L" horiz-adv-x="591" 
d="M172 88h359v-88h-451v700h92v-612z" />
    <glyph glyph-name="Lacute" unicode="&#x139;" horiz-adv-x="591" 
d="M134 880h128l-125 -125h-73zM172 88h359v-88h-451v700h92v-612z" />
    <glyph glyph-name="Lcaron" unicode="&#x13d;" horiz-adv-x="591" 
d="M298 730h99l-66 -175h-61zM172 88h359v-88h-451v700h92v-612z" />
    <glyph glyph-name="Lcommaaccent" unicode="&#x13b;" horiz-adv-x="591" 
d="M172 88h359v-88h-451v700h92v-612zM304 -47c38 0 58 -31 58 -76c0 -91 -83 -145 -83 -145l-26 26c30 26 42 59 47 85c-29 2 -51 26 -51 55c0 31 23 55 55 55z" />
    <glyph glyph-name="Ldot" unicode="&#x13f;" horiz-adv-x="591" 
d="M172 88h359v-88h-451v700h92v-612zM365 302c-36 0 -65 29 -65 64c0 36 29 64 65 64c35 0 64 -28 64 -64c0 -35 -29 -64 -64 -64z" />
    <glyph glyph-name="Lslash" unicode="&#x141;" horiz-adv-x="671" 
d="M252 88h359v-88h-451v291l-110 -65v86l110 65v323h92v-269l188 111v-86l-188 -111v-257z" />
    <glyph glyph-name="M" unicode="M" horiz-adv-x="840" 
d="M624 700h136v-700h-87v567h-11l-187 -517h-111l-186 517h-11v-567h-87v700h136l198 -549h12z" />
    <glyph glyph-name="uni1E40" unicode="&#x1e40;" horiz-adv-x="840" 
d="M421 746c-36 0 -65 29 -65 64c0 36 29 64 65 64c35 0 64 -28 64 -64c0 -35 -29 -64 -64 -64zM624 700h136v-700h-87v567h-11l-187 -517h-111l-186 517h-11v-567h-87v700h136l198 -549h12z" />
    <glyph glyph-name="N" unicode="N" horiz-adv-x="712" 
d="M544 700h88v-700h-125l-329 557h-11v-557h-87v700h112l340 -570h12v570z" />
    <glyph glyph-name="Nacute" unicode="&#x143;" horiz-adv-x="712" 
d="M491 880l-125 -125h-73l70 125h128zM544 700h88v-700h-125l-329 557h-11v-557h-87v700h112l340 -570h12v570z" />
    <glyph glyph-name="Ncaron" unicode="&#x147;" horiz-adv-x="712" 
d="M399 755h-91l-109 154h89l59 -90h13l59 90h89zM544 700h88v-700h-125l-329 557h-11v-557h-87v700h112l340 -570h12v570z" />
    <glyph glyph-name="Ncommaaccent" unicode="&#x145;" horiz-adv-x="712" 
d="M544 700h88v-700h-125l-329 557h-11v-557h-87v700h112l340 -570h12v570zM332 -47c38 0 58 -31 58 -76c0 -91 -83 -145 -83 -145l-26 26c30 26 42 59 47 85c-29 2 -51 26 -51 55c0 31 23 55 55 55z" />
    <glyph glyph-name="uni1E44" unicode="&#x1e44;" horiz-adv-x="712" 
d="M357 746c-36 0 -65 29 -65 64c0 36 29 64 65 64c35 0 64 -28 64 -64c0 -35 -29 -64 -64 -64zM544 700h88v-700h-125l-329 557h-11v-557h-87v700h112l340 -570h12v570z" />
    <glyph glyph-name="uni01F8" unicode="&#x1f8;" horiz-adv-x="712" 
d="M414 755h-73l-125 125h128zM544 700h88v-700h-125l-329 557h-11v-557h-87v700h112l340 -570h12v570z" />
    <glyph glyph-name="Eng" unicode="&#x14a;" horiz-adv-x="712" 
d="M544 700h88v-700v-8c0 -147 -65 -195 -140 -195c-46 0 -80 15 -80 15l3 75s113 -40 124 58l-210 357l-151 255h-11v-557h-87v700h72h40l340 -570h12v570z" />
    <glyph glyph-name="Ntilde" unicode="&#xd1;" horiz-adv-x="712" 
d="M292 791c-42 5 -60 -38 -60 -38l-58 25s45 110 138 94c46 -9 72 -43 106 -48c42 -5 61 39 61 39l58 -26s-42 -112 -137 -93c-48 9 -74 43 -108 47zM544 700h88v-700h-125l-329 557h-11v-557h-87v700h112l340 -570h12v570z" />
    <glyph glyph-name="O" unicode="O" horiz-adv-x="804" 
d="M403 -5c-184 0 -343 150 -343 355s159 355 342 355s342 -150 342 -355s-158 -355 -341 -355zM403 83c146 0 247 113 247 267s-102 267 -248 267c-145 0 -247 -113 -247 -267s102 -267 248 -267z" />
    <glyph glyph-name="Oacute" unicode="&#xd3;" horiz-adv-x="804" 
d="M420 880h128l-125 -125h-73zM403 -5c-184 0 -343 150 -343 355s159 355 342 355s342 -150 342 -355s-158 -355 -341 -355zM403 83c146 0 247 113 247 267s-102 267 -248 267c-145 0 -247 -113 -247 -267s102 -267 248 -267z" />
    <glyph glyph-name="Obreve" unicode="&#x14e;" horiz-adv-x="804" 
d="M538 880c0 -63 -51 -133 -135 -133s-139 70 -139 133h76c0 -23 21 -60 62 -60c40 0 59 37 59 60h77zM403 -5c-184 0 -343 150 -343 355s159 355 342 355s342 -150 342 -355s-158 -355 -341 -355zM403 83c146 0 247 113 247 267s-102 267 -248 267
c-145 0 -247 -113 -247 -267s102 -267 248 -267z" />
    <glyph glyph-name="uni01D1" unicode="&#x1d1;" horiz-adv-x="804" 
d="M447 755h-91l-109 154h89l59 -90h13l59 90h89zM402 705c183 0 342 -150 342 -355s-158 -355 -341 -355c-184 0 -343 150 -343 355s159 355 342 355zM403 83c146 0 247 113 247 267s-102 267 -248 267c-145 0 -247 -113 -247 -267s102 -267 248 -267z" />
    <glyph glyph-name="Ocircumflex" unicode="&#xd4;" horiz-adv-x="804" 
d="M395 845l-59 -90h-89l109 154h91l109 -154h-89l-59 90h-13zM402 705c183 0 342 -150 342 -355s-158 -355 -341 -355c-184 0 -343 150 -343 355s159 355 342 355zM403 83c146 0 247 113 247 267s-102 267 -248 267c-145 0 -247 -113 -247 -267s102 -267 248 -267z" />
    <glyph glyph-name="Odieresis" unicode="&#xd6;" horiz-adv-x="804" 
d="M274 749c-34 0 -62 28 -62 62c0 35 28 61 62 61s61 -26 61 -61c0 -34 -27 -62 -61 -62zM514 749c-34 0 -62 28 -62 62c0 35 28 61 62 61s61 -26 61 -61c0 -34 -27 -62 -61 -62zM403 -5c-184 0 -343 150 -343 355s159 355 342 355s342 -150 342 -355s-158 -355 -341 -355z
M403 83c146 0 247 113 247 267s-102 267 -248 267c-145 0 -247 -113 -247 -267s102 -267 248 -267z" />
    <glyph glyph-name="uni022E" unicode="&#x22e;" horiz-adv-x="804" 
d="M403 746c-36 0 -65 29 -65 64c0 36 29 64 65 64c35 0 64 -28 64 -64c0 -35 -29 -64 -64 -64zM403 -5c-184 0 -343 150 -343 355s159 355 342 355s342 -150 342 -355s-158 -355 -341 -355zM403 83c146 0 247 113 247 267s-102 267 -248 267c-145 0 -247 -113 -247 -267
s102 -267 248 -267z" />
    <glyph glyph-name="Ograve" unicode="&#xd2;" horiz-adv-x="804" 
d="M413 880l70 -125h-73l-125 125h128zM403 -5c-184 0 -343 150 -343 355s159 355 342 355s342 -150 342 -355s-158 -355 -341 -355zM403 83c146 0 247 113 247 267s-102 267 -248 267c-145 0 -247 -113 -247 -267s102 -267 248 -267z" />
    <glyph glyph-name="Ohungarumlaut" unicode="&#x150;" horiz-adv-x="804" 
d="M355 880h102l-103 -125h-74zM498 880h102l-103 -125h-74zM403 -5c-184 0 -343 150 -343 355s159 355 342 355s342 -150 342 -355s-158 -355 -341 -355zM403 83c146 0 247 113 247 267s-102 267 -248 267c-145 0 -247 -113 -247 -267s102 -267 248 -267z" />
    <glyph glyph-name="Omacron" unicode="&#x14c;" horiz-adv-x="804" 
d="M237 857h330v-73h-330v73zM403 -5c-184 0 -343 150 -343 355s159 355 342 355s342 -150 342 -355s-158 -355 -341 -355zM403 83c146 0 247 113 247 267s-102 267 -248 267c-145 0 -247 -113 -247 -267s102 -267 248 -267z" />
    <glyph glyph-name="uni01EA" unicode="&#x1ea;" horiz-adv-x="804" 
d="M442 -3c-18 -15 -43 -41 -43 -76c0 -57 67 -63 93 -52l3 -63s-23 -11 -54 -11c-54 0 -114 38 -114 109c0 42 20 73 41 93c-169 17 -308 161 -308 353c0 205 159 355 342 355s342 -150 342 -355c0 -190 -136 -333 -302 -353zM155 350c0 -154 102 -267 248 -267
s247 113 247 267s-102 267 -248 267c-145 0 -247 -113 -247 -267z" />
    <glyph glyph-name="Oslash" unicode="&#xd8;" horiz-adv-x="804" 
d="M635 611c66 -64 109 -155 109 -261c0 -205 -158 -355 -341 -355c-60 0 -118 16 -168 45l-42 -59l-60 43l42 60c-70 63 -115 157 -115 266c0 205 159 355 342 355c62 0 121 -17 173 -48l41 59l62 -44zM155 350c0 -78 26 -145 71 -193l299 429c-35 20 -77 31 -123 31
c-145 0 -247 -113 -247 -267zM403 83c146 0 247 113 247 267c0 75 -24 141 -66 188l-299 -426c34 -19 74 -29 118 -29z" />
    <glyph glyph-name="Otilde" unicode="&#xd5;" horiz-adv-x="804" 
d="M583 837c0 0 -42 -112 -137 -93c-48 9 -74 43 -108 47c-42 5 -60 -38 -60 -38l-58 25s45 110 138 94c46 -9 72 -43 106 -48c42 -5 61 39 61 39zM403 -5c-184 0 -343 150 -343 355s159 355 342 355s342 -150 342 -355s-158 -355 -341 -355zM403 83c146 0 247 113 247 267
s-102 267 -248 267c-145 0 -247 -113 -247 -267s102 -267 248 -267z" />
    <glyph glyph-name="OE" unicode="&#x152;" horiz-adv-x="1181" 
d="M743 88h358v-88h-451v110c-61 -72 -149 -115 -247 -115c-184 0 -343 150 -343 355s159 355 342 355c98 0 187 -43 248 -116v111h441v-87h-348v-215h318v-87h-318v-223zM403 83c146 0 247 113 247 267s-102 267 -248 267c-145 0 -247 -113 -247 -267s102 -267 248 -267z
" />
    <glyph glyph-name="P" unicode="P" horiz-adv-x="594" 
d="M322 700c115 0 222 -72 222 -205s-107 -215 -222 -215h-157v-280h-85v700h242zM312 362c70 0 144 40 144 133s-75 123 -144 123h-147v-256h147z" />
    <glyph glyph-name="uni1E56" unicode="&#x1e56;" horiz-adv-x="594" 
d="M295 746c-36 0 -65 29 -65 64c0 36 29 64 65 64c35 0 64 -28 64 -64c0 -35 -29 -64 -64 -64zM322 700c115 0 222 -72 222 -205s-107 -215 -222 -215h-157v-280h-85v700h242zM312 362c70 0 144 40 144 133s-75 123 -144 123h-147v-256h147z" />
    <glyph glyph-name="Thorn" unicode="&#xde;" horiz-adv-x="594" 
d="M322 582c115 0 222 -72 222 -205s-107 -215 -222 -215h-157v-162h-85v700h85v-118h157zM312 244c70 0 144 40 144 133s-75 123 -144 123h-147v-256h147z" />
    <glyph glyph-name="Q" unicode="Q" horiz-adv-x="804" 
d="M685 -11l32 -47l12 -18c-23 -18 -63 -44 -138 -44c-107 0 -176 53 -199 117c-179 6 -332 152 -332 353c0 205 159 353 342 353s342 -148 342 -353c0 -174 -113 -306 -259 -343c19 -27 59 -43 112 -43c65 0 88 25 88 25zM403 85c146 0 247 111 247 265s-102 265 -248 265
c-145 0 -247 -111 -247 -265s102 -265 248 -265z" />
    <glyph glyph-name="R" unicode="R" horiz-adv-x="637" 
d="M577 0h-101l-185 280h-126v-280h-85v700h242c115 0 222 -72 222 -205c0 -107 -69 -181 -156 -206zM165 618v-256h147c70 0 144 40 144 133s-75 123 -144 123h-147z" />
    <glyph glyph-name="Racute" unicode="&#x154;" horiz-adv-x="637" 
d="M424 880l-125 -125h-73l70 125h128zM577 0h-101l-185 280h-126v-280h-85v700h242c115 0 222 -72 222 -205c0 -107 -69 -181 -156 -206zM165 618v-256h147c70 0 144 40 144 133s-75 123 -144 123h-147z" />
    <glyph glyph-name="Rcaron" unicode="&#x158;" horiz-adv-x="637" 
d="M345 755h-91l-109 154h89l59 -90h13l59 90h89zM577 0h-101l-185 280h-126v-280h-85v700h242c115 0 222 -72 222 -205c0 -107 -69 -181 -156 -206zM165 618v-256h147c70 0 144 40 144 133s-75 123 -144 123h-147z" />
    <glyph glyph-name="Rcommaaccent" unicode="&#x156;" horiz-adv-x="637" 
d="M388 289l189 -289h-101l-185 280h-126v-280h-85v700h242c115 0 222 -72 222 -205c0 -107 -69 -181 -156 -206zM165 618v-256h147c70 0 144 40 144 133s-75 123 -144 123h-147zM298 -47c38 0 58 -31 58 -76c0 -91 -83 -145 -83 -145l-26 26c30 26 42 59 47 85
c-29 2 -51 26 -51 55c0 31 23 55 55 55z" />
    <glyph glyph-name="uni1E58" unicode="&#x1e58;" horiz-adv-x="637" 
d="M301 746c-36 0 -65 29 -65 64c0 36 29 64 65 64c35 0 64 -28 64 -64c0 -35 -29 -64 -64 -64zM577 0h-101l-185 280h-126v-280h-85v700h242c115 0 222 -72 222 -205c0 -107 -69 -181 -156 -206zM165 618v-256h147c70 0 144 40 144 133s-75 123 -144 123h-147z" />
    <glyph glyph-name="S" unicode="S" horiz-adv-x="613" 
d="M553 182c0 -120 -109 -187 -232 -187c-155 0 -261 105 -261 216h90c6 -79 87 -130 172 -130c61 0 138 27 138 100c0 64 -60 92 -154 130c-100 40 -227 89 -227 211c0 110 104 184 226 184c143 0 228 -102 228 -191h-90c-6 54 -54 105 -141 105c-78 0 -130 -41 -130 -92
c0 -68 94 -102 152 -126c104 -43 229 -92 229 -220z" />
    <glyph glyph-name="Sacute" unicode="&#x15a;" horiz-adv-x="613" 
d="M329 880h128l-125 -125h-73zM553 182c0 -120 -109 -187 -232 -187c-155 0 -261 105 -261 216h90c6 -79 87 -130 172 -130c61 0 138 27 138 100c0 64 -60 92 -154 130c-100 40 -227 89 -227 211c0 110 104 184 226 184c143 0 228 -102 228 -191h-90
c-6 54 -54 105 -141 105c-78 0 -130 -41 -130 -92c0 -68 94 -102 152 -126c104 -43 229 -92 229 -220z" />
    <glyph glyph-name="Scaron" unicode="&#x160;" horiz-adv-x="613" 
d="M348 755h-91l-109 154h89l59 -90h13l59 90h89zM324 402c104 -43 229 -92 229 -220c0 -120 -109 -187 -232 -187c-155 0 -261 105 -261 216h90c6 -79 87 -130 172 -130c61 0 138 27 138 100c0 64 -60 92 -154 130c-100 40 -227 89 -227 211c0 110 104 184 226 184
c143 0 228 -102 228 -191h-90c-6 54 -54 105 -141 105c-78 0 -130 -41 -130 -92c0 -68 94 -102 152 -126z" />
    <glyph glyph-name="Scedilla" unicode="&#x15e;" horiz-adv-x="613" 
d="M553 182c0 -110 -91 -175 -201 -186l-19 -28c49 11 108 -18 108 -79c0 -52 -46 -94 -112 -94c-82 0 -111 64 -111 64l50 28s19 -32 60 -32c31 0 45 16 45 34c0 17 -13 34 -45 34c-25 0 -44 -11 -44 -11l-29 38l30 47c-135 15 -225 112 -225 214h90
c6 -79 87 -130 172 -130c61 0 138 27 138 100c0 64 -60 92 -154 130c-100 40 -227 89 -227 211c0 110 104 184 226 184c143 0 228 -102 228 -191h-90c-6 54 -54 105 -141 105c-78 0 -130 -41 -130 -92c0 -68 94 -102 152 -126c104 -43 229 -92 229 -220z" />
    <glyph glyph-name="Scircumflex" unicode="&#x15c;" horiz-adv-x="613" 
d="M298 845l-59 -90h-89l109 154h91l109 -154h-89l-59 90h-13zM324 402c104 -43 229 -92 229 -220c0 -120 -109 -187 -232 -187c-155 0 -261 105 -261 216h90c6 -79 87 -130 172 -130c61 0 138 27 138 100c0 64 -60 92 -154 130c-100 40 -227 89 -227 211
c0 110 104 184 226 184c143 0 228 -102 228 -191h-90c-6 54 -54 105 -141 105c-78 0 -130 -41 -130 -92c0 -68 94 -102 152 -126z" />
    <glyph glyph-name="Scommaaccent" unicode="&#x218;" horiz-adv-x="613" 
d="M553 182c0 -120 -109 -187 -232 -187c-155 0 -261 105 -261 216h90c6 -79 87 -130 172 -130c61 0 138 27 138 100c0 64 -60 92 -154 130c-100 40 -227 89 -227 211c0 110 104 184 226 184c143 0 228 -102 228 -191h-90c-6 54 -54 105 -141 105c-78 0 -130 -41 -130 -92
c0 -68 94 -102 152 -126c104 -43 229 -92 229 -220zM316 -57c38 0 58 -31 58 -76c0 -91 -83 -145 -83 -145l-26 26c30 26 42 59 47 85c-29 2 -51 26 -51 55c0 31 23 55 55 55z" />
    <glyph glyph-name="uni1E60" unicode="&#x1e60;" horiz-adv-x="613" 
d="M306 746c-36 0 -65 29 -65 64c0 36 29 64 65 64c35 0 64 -28 64 -64c0 -35 -29 -64 -64 -64zM553 182c0 -120 -109 -187 -232 -187c-155 0 -261 105 -261 216h90c6 -79 87 -130 172 -130c61 0 138 27 138 100c0 64 -60 92 -154 130c-100 40 -227 89 -227 211
c0 110 104 184 226 184c143 0 228 -102 228 -191h-90c-6 54 -54 105 -141 105c-78 0 -130 -41 -130 -92c0 -68 94 -102 152 -126c104 -43 229 -92 229 -220z" />
    <glyph glyph-name="uni1E9E" unicode="&#x1e9e;" horiz-adv-x="1226" 
d="M553 182c0 -120 -109 -187 -232 -187c-155 0 -261 105 -261 216h90c6 -79 87 -130 172 -130c61 0 138 27 138 100c0 64 -60 92 -154 130c-100 40 -227 89 -227 211c0 110 104 184 226 184c143 0 228 -102 228 -191h-90c-6 54 -54 105 -141 105c-78 0 -130 -41 -130 -92
c0 -68 94 -102 152 -126c104 -43 229 -92 229 -220zM1166 182c0 -120 -109 -187 -232 -187c-155 0 -261 105 -261 216h90c6 -79 87 -130 172 -130c61 0 138 27 138 100c0 64 -60 92 -154 130c-100 40 -227 89 -227 211c0 110 104 184 226 184c143 0 228 -102 228 -191h-90
c-6 54 -54 105 -141 105c-78 0 -130 -41 -130 -92c0 -68 94 -102 152 -126c104 -43 229 -92 229 -220z" />
    <glyph glyph-name="T" unicode="T" horiz-adv-x="532" 
d="M502 700v-87h-189v-613h-94v613h-189v87h472z" />
    <glyph glyph-name="Tbar" unicode="&#x166;" horiz-adv-x="532" 
d="M502 613h-189v-114h128v-73h-128v-426h-94v426h-128v73h128v114h-189v87h472v-87z" />
    <glyph glyph-name="Tcaron" unicode="&#x164;" horiz-adv-x="532" 
d="M309 755h-91l-109 154h89l59 -90h13l59 90h89zM30 700h472v-87h-189v-613h-94v613h-189v87z" />
    <glyph glyph-name="uni0162" unicode="&#x162;" horiz-adv-x="532" 
d="M313 0h-27l-22 -32c49 11 108 -18 108 -79c0 -52 -46 -94 -112 -94c-82 0 -111 64 -111 64l50 28s19 -32 60 -32c31 0 45 16 45 34c0 17 -13 34 -45 34c-25 0 -44 -11 -44 -11l-29 38l33 51v612h-189v87h472v-87h-189v-613z" />
    <glyph glyph-name="uni021A" unicode="&#x21a;" horiz-adv-x="532" 
d="M502 700v-87h-189v-613h-94v613h-189v87h472zM263 -47c38 0 58 -31 58 -76c0 -91 -83 -145 -83 -145l-26 26c30 26 42 59 47 85c-29 2 -51 26 -51 55c0 31 23 55 55 55z" />
    <glyph glyph-name="U" unicode="U" horiz-adv-x="704" 
d="M634 700v-400c0 -215 -127 -305 -281 -305s-283 90 -283 305v400h94v-390c0 -164 83 -227 189 -227s187 63 187 227v390h94z" />
    <glyph glyph-name="Uacute" unicode="&#xda;" horiz-adv-x="704" 
d="M359 880h128l-125 -125h-73zM634 700v-400c0 -215 -127 -305 -281 -305s-283 90 -283 305v400h94v-390c0 -164 83 -227 189 -227s187 63 187 227v390h94z" />
    <glyph glyph-name="Ubreve" unicode="&#x16c;" horiz-adv-x="704" 
d="M489 880c0 -63 -51 -133 -135 -133s-139 70 -139 133h76c0 -23 21 -60 62 -60c40 0 59 37 59 60h77zM634 700v-400c0 -215 -127 -305 -281 -305s-283 90 -283 305v400h94v-390c0 -164 83 -227 189 -227s187 63 187 227v390h94z" />
    <glyph glyph-name="uni01D3" unicode="&#x1d3;" horiz-adv-x="704" 
d="M397 755h-91l-109 154h89l59 -90h13l59 90h89zM540 700h94v-400c0 -215 -127 -305 -281 -305s-283 90 -283 305v400h94v-390c0 -164 83 -227 189 -227s187 63 187 227v390z" />
    <glyph glyph-name="Ucircumflex" unicode="&#xdb;" horiz-adv-x="704" 
d="M345 845l-59 -90h-89l109 154h91l109 -154h-89l-59 90h-13zM540 700h94v-400c0 -215 -127 -305 -281 -305s-283 90 -283 305v400h94v-390c0 -164 83 -227 189 -227s187 63 187 227v390z" />
    <glyph glyph-name="Udieresis" unicode="&#xdc;" horiz-adv-x="704" 
d="M229 749c-34 0 -62 28 -62 62c0 35 28 61 62 61s61 -26 61 -61c0 -34 -27 -62 -61 -62zM469 749c-34 0 -62 28 -62 62c0 35 28 61 62 61s61 -26 61 -61c0 -34 -27 -62 -61 -62zM634 700v-400c0 -215 -127 -305 -281 -305s-283 90 -283 305v400h94v-390
c0 -164 83 -227 189 -227s187 63 187 227v390h94z" />
    <glyph glyph-name="Ugrave" unicode="&#xd9;" horiz-adv-x="704" 
d="M328 880l70 -125h-73l-125 125h128zM634 700v-400c0 -215 -127 -305 -281 -305s-283 90 -283 305v400h94v-390c0 -164 83 -227 189 -227s187 63 187 227v390h94z" />
    <glyph glyph-name="Uhungarumlaut" unicode="&#x170;" horiz-adv-x="704" 
d="M302 880h102l-103 -125h-74zM445 880h102l-103 -125h-74zM634 700v-400c0 -215 -127 -305 -281 -305s-283 90 -283 305v400h94v-390c0 -164 83 -227 189 -227s187 63 187 227v390h94z" />
    <glyph glyph-name="Umacron" unicode="&#x16a;" horiz-adv-x="704" 
d="M187 857h330v-73h-330v73zM634 700v-400c0 -215 -127 -305 -281 -305s-283 90 -283 305v400h94v-390c0 -164 83 -227 189 -227s187 63 187 227v390h94z" />
    <glyph glyph-name="Uogonek" unicode="&#x172;" horiz-adv-x="704" 
d="M540 700h94v-400c0 -191 -100 -283 -231 -302c-18 -14 -44 -41 -44 -77c0 -57 67 -63 93 -52l3 -63s-23 -11 -54 -11c-54 0 -114 38 -114 109c0 41 20 72 40 92c-142 10 -257 101 -257 304v400h94v-390c0 -164 83 -227 189 -227s187 63 187 227v390z" />
    <glyph glyph-name="Uring" unicode="&#x16e;" horiz-adv-x="704" 
d="M352 680c-59 0 -106 47 -106 104s47 105 106 105c57 0 105 -48 105 -105s-48 -104 -105 -104zM352 741c23 0 41 20 41 43s-18 43 -41 43c-25 0 -42 -20 -42 -43s17 -43 42 -43zM634 700v-400c0 -215 -127 -305 -281 -305s-283 90 -283 305v400h94v-390
c0 -164 83 -227 189 -227s187 63 187 227v390h94z" />
    <glyph glyph-name="Utilde" unicode="&#x168;" horiz-adv-x="704" 
d="M533 837c0 0 -42 -112 -137 -93c-48 9 -74 43 -108 47c-42 5 -60 -38 -60 -38l-58 25s45 110 138 94c46 -9 72 -43 106 -48c42 -5 61 39 61 39zM634 700v-400c0 -215 -127 -305 -281 -305s-283 90 -283 305v400h94v-390c0 -164 83 -227 189 -227s187 63 187 227v390h94z
" />
    <glyph glyph-name="V" unicode="V" horiz-adv-x="678" 
d="M541 700h97l-224 -700h-150l-224 700h98l194 -613h14z" />
    <glyph glyph-name="uni1E7C" unicode="&#x1e7c;" horiz-adv-x="678" 
d="M275 791c-42 5 -60 -38 -60 -38l-58 25s45 110 138 94c46 -9 72 -43 106 -48c42 -5 61 39 61 39l58 -26s-42 -112 -137 -93c-48 9 -74 43 -108 47zM541 700h97l-224 -700h-150l-224 700h98l194 -613h14z" />
    <glyph glyph-name="W" unicode="W" horiz-adv-x="952" 
d="M812 700h95l-172 -700h-136l-117 527h-12l-117 -527h-136l-172 700h95l141 -597h12l121 547h124l121 -547h12z" />
    <glyph glyph-name="Wacute" unicode="&#x1e82;" horiz-adv-x="952" 
d="M602 880l-125 -125h-73l70 125h128zM812 700h95l-172 -700h-136l-117 527h-12l-117 -527h-136l-172 700h95l141 -597h12l121 547h124l121 -547h12z" />
    <glyph glyph-name="Wcircumflex" unicode="&#x174;" horiz-adv-x="952" 
d="M462 845l-59 -90h-89l109 154h91l109 -154h-89l-59 90h-13zM812 700h95l-172 -700h-136l-117 527h-12l-117 -527h-136l-172 700h95l141 -597h12l121 547h124l121 -547h12z" />
    <glyph glyph-name="Wdieresis" unicode="&#x1e84;" horiz-adv-x="952" 
d="M349 749c-34 0 -62 28 -62 62c0 35 28 61 62 61s61 -26 61 -61c0 -34 -27 -62 -61 -62zM589 749c-34 0 -62 28 -62 62c0 35 28 61 62 61s61 -26 61 -61c0 -34 -27 -62 -61 -62zM812 700h95l-172 -700h-136l-117 527h-12l-117 -527h-136l-172 700h95l141 -597h12l121 547
h124l121 -547h12z" />
    <glyph glyph-name="Wgrave" unicode="&#x1e80;" horiz-adv-x="952" 
d="M535 755h-73l-125 125h128zM812 700h95l-172 -700h-136l-117 527h-12l-117 -527h-136l-172 700h95l141 -597h12l121 547h124l121 -547h12z" />
    <glyph glyph-name="X" unicode="X" horiz-adv-x="661" 
d="M512 0l-173 273h-16l-174 -273h-109l234 361l-220 339h105l163 -253h16l163 253h106l-220 -339l234 -361h-109z" />
    <glyph glyph-name="uni1E8C" unicode="&#x1e8c;" horiz-adv-x="661" 
d="M210 749c-34 0 -62 28 -62 62c0 35 28 61 62 61s61 -26 61 -61c0 -34 -27 -62 -61 -62zM450 749c-34 0 -62 28 -62 62c0 35 28 61 62 61s61 -26 61 -61c0 -34 -27 -62 -61 -62zM512 0l-173 273h-16l-174 -273h-109l234 361l-220 339h105l163 -253h16l163 253h106
l-220 -339l234 -361h-109z" />
    <glyph glyph-name="Y" unicode="Y" horiz-adv-x="653" 
d="M502 700h111l-240 -349v-351h-93v351l-240 349h110l169 -254h14z" />
    <glyph glyph-name="Yacute" unicode="&#xdd;" horiz-adv-x="653" 
d="M475 880l-125 -125h-73l70 125h128zM502 700h111l-240 -349v-351h-93v351l-240 349h110l169 -254h14z" />
    <glyph glyph-name="Ycircumflex" unicode="&#x176;" horiz-adv-x="653" 
d="M320 845l-59 -90h-89l109 154h91l109 -154h-89l-59 90h-13zM502 700h111l-240 -349v-351h-93v351l-240 349h110l169 -254h14z" />
    <glyph glyph-name="Ydieresis" unicode="&#x178;" horiz-adv-x="653" 
d="M204 749c-34 0 -62 28 -62 62c0 35 28 61 62 61s61 -26 61 -61c0 -34 -27 -62 -61 -62zM444 749c-34 0 -62 28 -62 62c0 35 28 61 62 61s61 -26 61 -61c0 -34 -27 -62 -61 -62zM502 700h111l-240 -349v-351h-93v351l-240 349h110l169 -254h14z" />
    <glyph glyph-name="Ygrave" unicode="&#x1ef2;" horiz-adv-x="653" 
d="M371 755h-73l-125 125h128zM503 700h110l-240 -349v-351h-93v351l-240 349h111l169 -254h14z" />
    <glyph glyph-name="uni1EF8" unicode="&#x1ef8;" horiz-adv-x="653" 
d="M263 791c-42 5 -60 -38 -60 -38l-58 25s45 110 138 94c46 -9 72 -43 106 -48c42 -5 61 39 61 39l58 -26s-42 -112 -137 -93c-48 9 -74 43 -108 47zM502 700h111l-240 -349v-351h-93v351l-240 349h110l169 -254h14z" />
    <glyph glyph-name="Z" unicode="Z" horiz-adv-x="601" 
d="M189 88h352v-88h-481v52l347 561h-327v87h451v-51z" />
    <glyph glyph-name="Zacute" unicode="&#x179;" horiz-adv-x="601" 
d="M442 880l-125 -125h-73l70 125h128zM189 88h352v-88h-481v52l347 561h-327v87h451v-51z" />
    <glyph glyph-name="Zcaron" unicode="&#x17d;" horiz-adv-x="601" 
d="M346 755h-91l-109 154h89l59 -90h13l59 90h89zM189 88h352v-88h-481v52l347 561h-327v87h451v-51z" />
    <glyph glyph-name="uni1E90" unicode="&#x1e90;" horiz-adv-x="601" 
d="M294 845l-59 -90h-89l109 154h91l109 -154h-89l-59 90h-13zM189 88h352v-88h-481v52l347 561h-327v87h451v-51z" />
    <glyph glyph-name="Zdotaccent" unicode="&#x17b;" horiz-adv-x="601" 
d="M303 746c-36 0 -65 29 -65 64c0 36 29 64 65 64c35 0 64 -28 64 -64c0 -35 -29 -64 -64 -64zM189 88h352v-88h-481v52l347 561h-327v87h451v-51z" />
    <glyph glyph-name="a" unicode="a" horiz-adv-x="539" 
d="M445 128c0 -48 16 -62 54 -62v-66h-35c-46 0 -75 18 -89 60c-31 -41 -82 -65 -146 -65c-100 0 -169 59 -169 146c0 147 191 160 306 174c-3 62 -27 111 -106 111c-88 0 -101 -62 -101 -62h-86c9 69 74 141 190 141c105 0 182 -59 182 -204v-173zM143 138
c0 -107 218 -86 222 49v52c-118 -12 -222 -28 -222 -101z" />
    <glyph glyph-name="aacute" unicode="&#xe1;" horiz-adv-x="539" 
d="M391 680l-104 -125h-61l58 125h107zM445 128c0 -48 16 -62 54 -62v-66h-35c-46 0 -75 18 -89 60c-31 -41 -82 -65 -146 -65c-100 0 -169 59 -169 146c0 147 191 160 306 174c-3 62 -27 111 -106 111c-88 0 -101 -62 -101 -62h-86c9 69 74 141 190 141
c105 0 182 -59 182 -204v-173zM143 138c0 -107 218 -86 222 49v52c-118 -12 -222 -28 -222 -101z" />
    <glyph glyph-name="abreve" unicode="&#x103;" horiz-adv-x="539" 
d="M265 573c-80 0 -132 67 -132 127h72c0 -22 20 -57 59 -57s57 35 57 57h73c0 -60 -49 -127 -129 -127zM445 128c0 -48 16 -62 54 -62v-66h-35c-46 0 -75 18 -89 60c-31 -41 -82 -65 -146 -65c-100 0 -169 59 -169 146c0 147 191 160 306 174c-3 62 -27 111 -106 111
c-88 0 -101 -62 -101 -62h-86c9 69 74 141 190 141c105 0 182 -59 182 -204v-173zM143 138c0 -107 218 -86 222 49v52c-118 -12 -222 -28 -222 -101z" />
    <glyph glyph-name="uni01CE" unicode="&#x1ce;" horiz-adv-x="539" 
d="M304 556h-83l-99 154h81l53 -90h13l53 90h81zM445 128c0 -48 16 -62 54 -62v-66h-35c-46 0 -75 18 -89 60c-31 -41 -82 -65 -146 -65c-100 0 -169 59 -169 146c0 147 191 160 306 174c-3 62 -27 111 -106 111c-88 0 -101 -62 -101 -62h-86c9 69 74 141 190 141
c105 0 182 -59 182 -204v-173zM143 138c0 -107 218 -86 222 49v52c-118 -12 -222 -28 -222 -101z" />
    <glyph glyph-name="acircumflex" unicode="&#xe2;" horiz-adv-x="539" 
d="M256 646l-53 -90h-81l99 154h83l99 -154h-81l-53 90h-13zM445 128c0 -48 16 -62 54 -62v-66h-35c-46 0 -75 18 -89 60c-31 -41 -82 -65 -146 -65c-100 0 -169 59 -169 146c0 147 191 160 306 174c-3 62 -27 111 -106 111c-88 0 -101 -62 -101 -62h-86
c9 69 74 141 190 141c105 0 182 -59 182 -204v-173zM143 138c0 -107 218 -86 222 49v52c-118 -12 -222 -28 -222 -101z" />
    <glyph glyph-name="adieresis" unicode="&#xe4;" horiz-adv-x="539" 
d="M177 551c-30 0 -55 25 -55 55c0 31 25 55 55 55s55 -24 55 -55c0 -30 -25 -55 -55 -55zM347 551c-30 0 -55 25 -55 55c0 31 25 55 55 55s55 -24 55 -55c0 -30 -25 -55 -55 -55zM445 128c0 -48 16 -62 54 -62v-66h-35c-46 0 -75 18 -89 60c-31 -41 -82 -65 -146 -65
c-100 0 -169 59 -169 146c0 147 191 160 306 174c-3 62 -27 111 -106 111c-88 0 -101 -62 -101 -62h-86c9 69 74 141 190 141c105 0 182 -59 182 -204v-173zM143 138c0 -107 218 -86 222 49v52c-118 -12 -222 -28 -222 -101z" />
    <glyph glyph-name="agrave" unicode="&#xe0;" horiz-adv-x="539" 
d="M315 555h-61l-104 125h107zM445 128c0 -48 16 -62 54 -62v-66h-35c-46 0 -75 18 -89 60c-31 -41 -82 -65 -146 -65c-100 0 -169 59 -169 146c0 147 191 160 306 174c-3 62 -27 111 -106 111c-88 0 -101 -62 -101 -62h-86c9 69 74 141 190 141c105 0 182 -59 182 -204
v-173zM143 138c0 -107 218 -86 222 49v52c-118 -12 -222 -28 -222 -101z" />
    <glyph glyph-name="amacron" unicode="&#x101;" horiz-adv-x="539" 
d="M423 650v-70h-330v70h330zM445 128c0 -48 16 -62 54 -62v-66h-35c-46 0 -75 18 -89 60c-31 -41 -82 -65 -146 -65c-100 0 -169 59 -169 146c0 147 191 160 306 174c-3 62 -27 111 -106 111c-88 0 -101 -62 -101 -62h-86c9 69 74 141 190 141c105 0 182 -59 182 -204v-173
zM143 138c0 -107 218 -86 222 49v52c-118 -12 -222 -28 -222 -101z" />
    <glyph glyph-name="aogonek" unicode="&#x105;" horiz-adv-x="539" 
d="M527 -135l3 -60s-22 -11 -51 -11c-52 0 -109 36 -109 104c0 55 37 90 60 106c-27 7 -45 25 -55 56c-31 -41 -82 -65 -146 -65c-100 0 -169 59 -169 146c0 147 191 160 306 174c-3 62 -27 111 -106 111c-88 0 -101 -62 -101 -62h-86c9 69 74 141 190 141
c105 0 182 -59 182 -204v-173c0 -48 16 -62 54 -62v-66s-60 -32 -60 -86s63 -60 88 -49zM143 138c0 -107 218 -86 222 49v52c-118 -12 -222 -28 -222 -101z" />
    <glyph glyph-name="aring" unicode="&#xe5;" horiz-adv-x="539" 
d="M273 535c-53 0 -96 43 -96 95s43 95 96 95c52 0 96 -43 96 -95s-44 -95 -96 -95zM273 669c-22 0 -38 -18 -38 -39s16 -39 38 -39c21 0 38 18 38 39s-17 39 -38 39zM445 128c0 -48 16 -62 54 -62v-66h-35c-46 0 -75 18 -89 60c-31 -41 -82 -65 -146 -65
c-100 0 -169 59 -169 146c0 147 191 160 306 174c-3 62 -27 111 -106 111c-88 0 -101 -62 -101 -62h-86c9 69 74 141 190 141c105 0 182 -59 182 -204v-173zM143 138c0 -107 218 -86 222 49v52c-118 -12 -222 -28 -222 -101z" />
    <glyph glyph-name="atilde" unicode="&#xe3;" horiz-adv-x="539" 
d="M202 594c-38 4 -54 -35 -54 -35l-53 23s41 100 125 85c42 -8 66 -39 97 -43c38 -5 55 35 55 35l53 -24s-38 -101 -125 -84c-43 8 -67 39 -98 43zM445 128c0 -48 16 -62 54 -62v-66h-35c-46 0 -75 18 -89 60c-31 -41 -82 -65 -146 -65c-100 0 -169 59 -169 146
c0 147 191 160 306 174c-3 62 -27 111 -106 111c-88 0 -101 -62 -101 -62h-86c9 69 74 141 190 141c105 0 182 -59 182 -204v-173zM143 138c0 -107 218 -86 222 49v52c-118 -12 -222 -28 -222 -101z" />
    <glyph glyph-name="ae" unicode="&#xe6;" horiz-adv-x="891" 
d="M603 505c120 0 237 -89 227 -278h-378c8 -93 66 -151 152 -151c57 0 99 25 123 64h92c-38 -91 -124 -145 -215 -145c-75 0 -145 37 -190 99c-29 -62 -97 -99 -177 -99c-101 0 -177 58 -177 148c0 145 194 161 306 162c0 68 -27 118 -100 118c-89 0 -102 -72 -102 -72h-81
c11 89 74 154 184 154c71 0 126 -26 155 -84c45 54 111 84 181 84zM602 431c-74 0 -130 -51 -146 -131h283c-12 77 -62 131 -137 131zM143 137c0 -104 212 -86 222 44v50c-119 -2 -222 -21 -222 -94z" />
    <glyph glyph-name="aeacute" unicode="&#x1fd;" horiz-adv-x="891" 
d="M566 680l-104 -125h-61l58 125h107zM603 505c120 0 237 -89 227 -278h-378c8 -93 66 -151 152 -151c57 0 99 25 123 64h92c-38 -91 -124 -145 -215 -145c-75 0 -145 37 -190 99c-29 -62 -97 -99 -177 -99c-101 0 -177 58 -177 148c0 145 194 161 306 162
c0 68 -27 118 -100 118c-89 0 -102 -72 -102 -72h-81c11 89 74 154 184 154c71 0 126 -26 155 -84c45 54 111 84 181 84zM602 431c-74 0 -130 -51 -146 -131h283c-12 77 -62 131 -137 131zM143 137c0 -104 212 -86 222 44v50c-119 -2 -222 -21 -222 -94z" />
    <glyph glyph-name="uni01E3" unicode="&#x1e3;" horiz-adv-x="891" 
d="M603 650v-70h-330v70h330zM603 505c120 0 237 -89 227 -278h-378c8 -93 66 -151 152 -151c57 0 99 25 123 64h92c-38 -91 -124 -145 -215 -145c-75 0 -145 37 -190 99c-29 -62 -97 -99 -177 -99c-101 0 -177 58 -177 148c0 145 194 161 306 162c0 68 -27 118 -100 118
c-89 0 -102 -72 -102 -72h-81c11 89 74 154 184 154c71 0 126 -26 155 -84c45 54 111 84 181 84zM602 431c-74 0 -130 -51 -146 -131h283c-12 77 -62 131 -137 131zM143 137c0 -104 212 -86 222 44v50c-119 -2 -222 -21 -222 -94z" />
    <glyph glyph-name="a.fina" horiz-adv-x="580" 
d="M508 98l52 -27s-18 -76 -97 -76c-44 0 -73 23 -88 65c-31 -41 -82 -65 -146 -65c-100 0 -169 59 -169 146c0 147 191 160 306 174c-3 62 -27 111 -106 111c-88 0 -101 -62 -101 -62h-86c9 69 74 141 190 141c105 0 182 -59 182 -204v-173c0 -47 12 -62 31 -62
c26 0 32 32 32 32zM143 138c0 -107 218 -86 222 49v52c-118 -12 -222 -28 -222 -101z" />
    <glyph glyph-name="aacute.fina" horiz-adv-x="578" 
d="M391 680l-104 -125h-61l58 125h107zM508 98l52 -27s-18 -76 -97 -76c-44 0 -73 23 -88 65c-31 -41 -82 -65 -146 -65c-100 0 -169 59 -169 146c0 147 191 160 306 174c-3 62 -27 111 -106 111c-88 0 -101 -62 -101 -62h-86c9 69 74 141 190 141c105 0 182 -59 182 -204
v-173c0 -47 12 -62 31 -62c26 0 32 32 32 32zM143 138c0 -107 218 -86 222 49v52c-118 -12 -222 -28 -222 -101z" />
    <glyph glyph-name="abreve.fina" horiz-adv-x="578" 
d="M265 573c-80 0 -132 67 -132 127h72c0 -22 20 -57 59 -57s57 35 57 57h73c0 -60 -49 -127 -129 -127zM508 98l52 -27s-18 -76 -97 -76c-44 0 -73 23 -88 65c-31 -41 -82 -65 -146 -65c-100 0 -169 59 -169 146c0 147 191 160 306 174c-3 62 -27 111 -106 111
c-88 0 -101 -62 -101 -62h-86c9 69 74 141 190 141c105 0 182 -59 182 -204v-173c0 -47 12 -62 31 -62c26 0 32 32 32 32zM143 138c0 -107 218 -86 222 49v52c-118 -12 -222 -28 -222 -101z" />
    <glyph glyph-name="uni01CE.fina" horiz-adv-x="578" 
d="M304 556h-83l-99 154h81l53 -90h13l53 90h81zM508 98l52 -27s-18 -76 -97 -76c-44 0 -73 23 -88 65c-31 -41 -82 -65 -146 -65c-100 0 -169 59 -169 146c0 147 191 160 306 174c-3 62 -27 111 -106 111c-88 0 -101 -62 -101 -62h-86c9 69 74 141 190 141
c105 0 182 -59 182 -204v-173c0 -47 12 -62 31 -62c26 0 32 32 32 32zM143 138c0 -107 218 -86 222 49v52c-118 -12 -222 -28 -222 -101z" />
    <glyph glyph-name="acircumflex.fina" horiz-adv-x="578" 
d="M256 646l-53 -90h-81l99 154h83l99 -154h-81l-53 90h-13zM508 98l52 -27s-18 -76 -97 -76c-44 0 -73 23 -88 65c-31 -41 -82 -65 -146 -65c-100 0 -169 59 -169 146c0 147 191 160 306 174c-3 62 -27 111 -106 111c-88 0 -101 -62 -101 -62h-86c9 69 74 141 190 141
c105 0 182 -59 182 -204v-173c0 -47 12 -62 31 -62c26 0 32 32 32 32zM143 138c0 -107 218 -86 222 49v52c-118 -12 -222 -28 -222 -101z" />
    <glyph glyph-name="adieresis.fina" horiz-adv-x="578" 
d="M177 551c-30 0 -55 25 -55 55c0 31 25 55 55 55s55 -24 55 -55c0 -30 -25 -55 -55 -55zM347 551c-30 0 -55 25 -55 55c0 31 25 55 55 55s55 -24 55 -55c0 -30 -25 -55 -55 -55zM508 98l52 -27s-18 -76 -97 -76c-44 0 -73 23 -88 65c-31 -41 -82 -65 -146 -65
c-100 0 -169 59 -169 146c0 147 191 160 306 174c-3 62 -27 111 -106 111c-88 0 -101 -62 -101 -62h-86c9 69 74 141 190 141c105 0 182 -59 182 -204v-173c0 -47 12 -62 31 -62c26 0 32 32 32 32zM143 138c0 -107 218 -86 222 49v52c-118 -12 -222 -28 -222 -101z" />
    <glyph glyph-name="agrave.fina" horiz-adv-x="578" 
d="M315 555h-61l-104 125h107zM508 98l52 -27s-18 -76 -97 -76c-44 0 -73 23 -88 65c-31 -41 -82 -65 -146 -65c-100 0 -169 59 -169 146c0 147 191 160 306 174c-3 62 -27 111 -106 111c-88 0 -101 -62 -101 -62h-86c9 69 74 141 190 141c105 0 182 -59 182 -204v-173
c0 -47 12 -62 31 -62c26 0 32 32 32 32zM143 138c0 -107 218 -86 222 49v52c-118 -12 -222 -28 -222 -101z" />
    <glyph glyph-name="amacron.fina" horiz-adv-x="578" 
d="M423 650v-70h-330v70h330zM508 98l52 -27s-18 -76 -97 -76c-44 0 -73 23 -88 65c-31 -41 -82 -65 -146 -65c-100 0 -169 59 -169 146c0 147 191 160 306 174c-3 62 -27 111 -106 111c-88 0 -101 -62 -101 -62h-86c9 69 74 141 190 141c105 0 182 -59 182 -204v-173
c0 -47 12 -62 31 -62c26 0 32 32 32 32zM143 138c0 -107 218 -86 222 49v52c-118 -12 -222 -28 -222 -101z" />
    <glyph glyph-name="aogonek.fina" horiz-adv-x="578" 
d="M484 -3c-15 -9 -55 -39 -55 -83c0 -54 63 -60 88 -49l3 -60s-22 -11 -51 -11c-52 0 -109 36 -109 104c0 56 37 90 61 106c-21 10 -36 29 -46 56c-31 -41 -82 -65 -146 -65c-100 0 -169 59 -169 146c0 147 191 160 306 174c-3 62 -27 111 -106 111
c-88 0 -101 -62 -101 -62h-86c9 69 74 141 190 141c105 0 182 -59 182 -204v-173c0 -47 12 -62 31 -62c26 0 32 32 32 32l52 -27s-15 -62 -76 -74zM143 138c0 -107 218 -86 222 49v52c-118 -12 -222 -28 -222 -101z" />
    <glyph glyph-name="aring.fina" horiz-adv-x="578" 
d="M273 535c-53 0 -96 43 -96 95s43 95 96 95c52 0 96 -43 96 -95s-44 -95 -96 -95zM273 669c-22 0 -38 -18 -38 -39s16 -39 38 -39c21 0 38 18 38 39s-17 39 -38 39zM508 98l52 -27s-18 -76 -97 -76c-44 0 -73 23 -88 65c-31 -41 -82 -65 -146 -65c-100 0 -169 59 -169 146
c0 147 191 160 306 174c-3 62 -27 111 -106 111c-88 0 -101 -62 -101 -62h-86c9 69 74 141 190 141c105 0 182 -59 182 -204v-173c0 -47 12 -62 31 -62c26 0 32 32 32 32zM143 138c0 -107 218 -86 222 49v52c-118 -12 -222 -28 -222 -101z" />
    <glyph glyph-name="atilde.fina" horiz-adv-x="578" 
d="M202 594c-38 4 -54 -35 -54 -35l-53 23s41 100 125 85c42 -8 66 -39 97 -43c38 -5 55 35 55 35l53 -24s-38 -101 -125 -84c-43 8 -67 39 -98 43zM508 98l52 -27s-18 -76 -97 -76c-44 0 -73 23 -88 65c-31 -41 -82 -65 -146 -65c-100 0 -169 59 -169 146
c0 147 191 160 306 174c-3 62 -27 111 -106 111c-88 0 -101 -62 -101 -62h-86c9 69 74 141 190 141c105 0 182 -59 182 -204v-173c0 -47 12 -62 31 -62c26 0 32 32 32 32zM143 138c0 -107 218 -86 222 49v52c-118 -12 -222 -28 -222 -101z" />
    <glyph glyph-name="a.ss02" horiz-adv-x="607" 
d="M442 500h85v-500h-58l-18 61h-17c-32 -40 -79 -66 -144 -66c-125 0 -230 104 -230 255s105 255 230 255c71 0 120 -31 152 -78v73zM295 77c71 0 147 50 147 173s-77 173 -147 173s-147 -65 -147 -173s77 -173 147 -173z" />
    <glyph glyph-name="aacute.ss02" horiz-adv-x="607" 
d="M441 680l-104 -125h-61l58 125h107zM442 500h85v-500h-58l-18 61h-17c-32 -40 -79 -66 -144 -66c-125 0 -230 104 -230 255s105 255 230 255c71 0 120 -31 152 -78v73zM295 77c71 0 147 50 147 173s-77 173 -147 173s-147 -65 -147 -173s77 -173 147 -173z" />
    <glyph glyph-name="abreve.ss02" horiz-adv-x="607" 
d="M311 573c-80 0 -132 67 -132 127h72c0 -22 20 -57 59 -57s57 35 57 57h73c0 -60 -49 -127 -129 -127zM442 500h85v-500h-58l-18 61h-17c-32 -40 -79 -66 -144 -66c-125 0 -230 104 -230 255s105 255 230 255c71 0 120 -31 152 -78v73zM295 77c71 0 147 50 147 173
s-77 173 -147 173s-147 -65 -147 -173s77 -173 147 -173z" />
    <glyph glyph-name="uni01CE.ss02" horiz-adv-x="607" 
d="M357 556h-83l-99 154h81l53 -90h13l53 90h81zM442 500h85v-500h-58l-18 61h-17c-32 -40 -79 -66 -144 -66c-125 0 -230 104 -230 255s105 255 230 255c71 0 120 -31 152 -78v73zM295 77c71 0 147 50 147 173s-77 173 -147 173s-147 -65 -147 -173s77 -173 147 -173z" />
    <glyph glyph-name="acircumflex.ss02" horiz-adv-x="607" 
d="M296 646l-53 -90h-81l99 154h83l99 -154h-81l-53 90h-13zM442 500h85v-500h-58l-18 61h-17c-32 -40 -79 -66 -144 -66c-125 0 -230 104 -230 255s105 255 230 255c71 0 120 -31 152 -78v73zM295 77c71 0 147 50 147 173s-77 173 -147 173s-147 -65 -147 -173
s77 -173 147 -173z" />
    <glyph glyph-name="adieresis.ss02" horiz-adv-x="607" 
d="M221 551c-30 0 -55 25 -55 55c0 31 25 55 55 55s55 -24 55 -55c0 -30 -25 -55 -55 -55zM391 551c-30 0 -55 25 -55 55c0 31 25 55 55 55s55 -24 55 -55c0 -30 -25 -55 -55 -55zM442 500h85v-500h-58l-18 61h-17c-32 -40 -79 -66 -144 -66c-125 0 -230 104 -230 255
s105 255 230 255c71 0 120 -31 152 -78v73zM295 77c71 0 147 50 147 173s-77 173 -147 173s-147 -65 -147 -173s77 -173 147 -173z" />
    <glyph glyph-name="agrave.ss02" horiz-adv-x="607" 
d="M363 555h-61l-104 125h107zM442 500h85v-500h-58l-18 61h-17c-32 -40 -79 -66 -144 -66c-125 0 -230 104 -230 255s105 255 230 255c71 0 120 -31 152 -78v73zM295 77c71 0 147 50 147 173s-77 173 -147 173s-147 -65 -147 -173s77 -173 147 -173z" />
    <glyph glyph-name="amacron.ss02" horiz-adv-x="607" 
d="M469 650v-70h-330v70h330zM442 500h85v-500h-58l-18 61h-17c-32 -40 -79 -66 -144 -66c-125 0 -230 104 -230 255s105 255 230 255c71 0 120 -31 152 -78v73zM295 77c71 0 147 50 147 173s-77 173 -147 173s-147 -65 -147 -173s77 -173 147 -173z" />
    <glyph glyph-name="aogonek.ss02" horiz-adv-x="608" 
d="M555 -135l3 -60s-22 -11 -51 -11c-52 0 -109 36 -109 104c0 62 47 98 68 111l-15 52h-17c-32 -40 -79 -66 -144 -66c-125 0 -230 104 -230 255s105 255 230 255c71 0 120 -31 152 -78v73h85v-500s-60 -32 -60 -86s63 -60 88 -49zM295 77c71 0 147 50 147 173
s-77 173 -147 173s-147 -65 -147 -173s77 -173 147 -173z" />
    <glyph glyph-name="aring.ss02" horiz-adv-x="607" 
d="M310 535c-53 0 -96 43 -96 95s43 95 96 95c52 0 96 -43 96 -95s-44 -95 -96 -95zM310 669c-22 0 -38 -18 -38 -39s16 -39 38 -39c21 0 38 18 38 39s-17 39 -38 39zM442 500h85v-500h-58l-18 61h-17c-32 -40 -79 -66 -144 -66c-125 0 -230 104 -230 255s105 255 230 255
c71 0 120 -31 152 -78v73zM295 77c71 0 147 50 147 173s-77 173 -147 173s-147 -65 -147 -173s77 -173 147 -173z" />
    <glyph glyph-name="atilde.ss02" horiz-adv-x="607" 
d="M235 594c-38 4 -54 -35 -54 -35l-53 23s41 100 125 85c42 -8 66 -39 97 -43c38 -5 55 35 55 35l53 -24s-38 -101 -125 -84c-43 8 -67 39 -98 43zM442 500h85v-500h-58l-18 61h-17c-32 -40 -79 -66 -144 -66c-125 0 -230 104 -230 255s105 255 230 255
c71 0 120 -31 152 -78v73zM295 77c71 0 147 50 147 173s-77 173 -147 173s-147 -65 -147 -173s77 -173 147 -173z" />
    <glyph glyph-name="a.fina.ss02" horiz-adv-x="662" 
d="M591 98l52 -27s-16 -76 -97 -76c-44 0 -75 23 -88 68h-19c-31 -41 -83 -68 -148 -68c-127 0 -231 104 -231 255s104 255 231 255c70 0 119 -31 151 -78v73h85v-372c0 -47 13 -62 31 -62c27 0 33 32 33 32zM298 77c66 0 144 50 144 173s-78 173 -144 173
c-75 0 -150 -65 -150 -173s75 -173 150 -173z" />
    <glyph glyph-name="aacute.fina.ss02" horiz-adv-x="663" 
d="M432 680l-104 -125h-61l58 125h107zM591 98l52 -27s-16 -76 -97 -76c-44 0 -75 23 -88 68h-19c-31 -41 -83 -68 -148 -68c-127 0 -231 104 -231 255s104 255 231 255c70 0 119 -31 151 -78v73h85v-372c0 -47 13 -62 31 -62c27 0 33 32 33 32zM298 77c66 0 144 50 144 173
s-78 173 -144 173c-75 0 -150 -65 -150 -173s75 -173 150 -173z" />
    <glyph glyph-name="abreve.fina.ss02" horiz-adv-x="663" 
d="M311 573c-80 0 -132 67 -132 127h72c0 -22 20 -57 59 -57s57 35 57 57h73c0 -60 -49 -127 -129 -127zM591 98l52 -27s-16 -76 -97 -76c-44 0 -75 23 -88 68h-19c-31 -41 -83 -68 -148 -68c-127 0 -231 104 -231 255s104 255 231 255c70 0 119 -31 151 -78v73h85v-372
c0 -47 13 -62 31 -62c27 0 33 32 33 32zM298 77c66 0 144 50 144 173s-78 173 -144 173c-75 0 -150 -65 -150 -173s75 -173 150 -173z" />
    <glyph glyph-name="uni01CE.fina.ss02" horiz-adv-x="663" 
d="M345 556h-83l-99 154h81l53 -90h13l53 90h81zM591 98l52 -27s-16 -76 -97 -76c-44 0 -75 23 -88 68h-19c-31 -41 -83 -68 -148 -68c-127 0 -231 104 -231 255s104 255 231 255c70 0 119 -31 151 -78v73h85v-372c0 -47 13 -62 31 -62c27 0 33 32 33 32zM298 77
c66 0 144 50 144 173s-78 173 -144 173c-75 0 -150 -65 -150 -173s75 -173 150 -173z" />
    <glyph glyph-name="acircumflex.fina.ss02" horiz-adv-x="663" 
d="M301 646l-53 -90h-81l99 154h83l99 -154h-81l-53 90h-13zM591 98l52 -27s-16 -76 -97 -76c-44 0 -75 23 -88 68h-19c-31 -41 -83 -68 -148 -68c-127 0 -231 104 -231 255s104 255 231 255c70 0 119 -31 151 -78v73h85v-372c0 -47 13 -62 31 -62c27 0 33 32 33 32zM298 77
c66 0 144 50 144 173s-78 173 -144 173c-75 0 -150 -65 -150 -173s75 -173 150 -173z" />
    <glyph glyph-name="adieresis.fina.ss02" horiz-adv-x="663" 
d="M215 551c-30 0 -55 25 -55 55c0 31 25 55 55 55s55 -24 55 -55c0 -30 -25 -55 -55 -55zM385 551c-30 0 -55 25 -55 55c0 31 25 55 55 55s55 -24 55 -55c0 -30 -25 -55 -55 -55zM591 98l52 -27s-16 -76 -97 -76c-44 0 -75 23 -88 68h-19c-31 -41 -83 -68 -148 -68
c-127 0 -231 104 -231 255s104 255 231 255c70 0 119 -31 151 -78v73h85v-372c0 -47 13 -62 31 -62c27 0 33 32 33 32zM298 77c66 0 144 50 144 173s-78 173 -144 173c-75 0 -150 -65 -150 -173s75 -173 150 -173z" />
    <glyph glyph-name="agrave.fina.ss02" horiz-adv-x="663" 
d="M347 555h-61l-104 125h107zM591 98l52 -27s-16 -76 -97 -76c-44 0 -75 23 -88 68h-19c-31 -41 -83 -68 -148 -68c-127 0 -231 104 -231 255s104 255 231 255c70 0 119 -31 151 -78v73h85v-372c0 -47 13 -62 31 -62c27 0 33 32 33 32zM298 77c66 0 144 50 144 173
s-78 173 -144 173c-75 0 -150 -65 -150 -173s75 -173 150 -173z" />
    <glyph glyph-name="amacron.fina.ss02" horiz-adv-x="663" 
d="M458 650v-70h-330v70h330zM591 98l52 -27s-16 -76 -97 -76c-44 0 -75 23 -88 68h-19c-31 -41 -83 -68 -148 -68c-127 0 -231 104 -231 255s104 255 231 255c70 0 119 -31 151 -78v73h85v-372c0 -47 13 -62 31 -62c27 0 33 32 33 32zM298 77c66 0 144 50 144 173
s-78 173 -144 173c-75 0 -150 -65 -150 -173s75 -173 150 -173z" />
    <glyph glyph-name="aogonek.fina.ss02" horiz-adv-x="663" 
d="M568 -3c-14 -9 -55 -39 -55 -83c0 -54 63 -60 88 -49l3 -60s-22 -11 -51 -11c-52 0 -109 36 -109 104c0 55 37 89 60 106c-22 10 -38 30 -46 59h-19c-31 -41 -83 -68 -148 -68c-127 0 -231 104 -231 255s104 255 231 255c70 0 119 -31 151 -78v73h85v-372
c0 -47 13 -62 31 -62c27 0 33 32 33 32l52 -27s-13 -62 -75 -74zM298 77c66 0 144 50 144 173s-78 173 -144 173c-75 0 -150 -65 -150 -173s75 -173 150 -173z" />
    <glyph glyph-name="aring.fina.ss02" horiz-adv-x="663" 
d="M307 535c-53 0 -96 43 -96 95s43 95 96 95c52 0 96 -43 96 -95s-44 -95 -96 -95zM307 669c-22 0 -38 -18 -38 -39s16 -39 38 -39c21 0 38 18 38 39s-17 39 -38 39zM591 98l52 -27s-16 -76 -97 -76c-44 0 -75 23 -88 68h-19c-31 -41 -83 -68 -148 -68
c-127 0 -231 104 -231 255s104 255 231 255c70 0 119 -31 151 -78v73h85v-372c0 -47 13 -62 31 -62c27 0 33 32 33 32zM298 77c66 0 144 50 144 173s-78 173 -144 173c-75 0 -150 -65 -150 -173s75 -173 150 -173z" />
    <glyph glyph-name="atilde.fina.ss02" horiz-adv-x="663" 
d="M240 594c-38 4 -54 -35 -54 -35l-53 23s41 100 125 85c42 -8 66 -39 97 -43c38 -5 55 35 55 35l53 -24s-38 -101 -125 -84c-43 8 -67 39 -98 43zM591 98l52 -27s-16 -76 -97 -76c-44 0 -75 23 -88 68h-19c-31 -41 -83 -68 -148 -68c-127 0 -231 104 -231 255
s104 255 231 255c70 0 119 -31 151 -78v73h85v-372c0 -47 13 -62 31 -62c27 0 33 32 33 32zM298 77c66 0 144 50 144 173s-78 173 -144 173c-75 0 -150 -65 -150 -173s75 -173 150 -173z" />
    <glyph glyph-name="b" unicode="b" horiz-adv-x="607" 
d="M316 505c127 0 231 -104 231 -255s-104 -255 -231 -255c-66 0 -113 27 -145 69h-14l-19 -64h-58v710h85v-283c32 47 81 78 151 78zM309 77c75 0 150 65 150 173s-75 173 -150 173c-66 0 -144 -50 -144 -173s78 -173 144 -173z" />
    <glyph glyph-name="uni1E03" unicode="&#x1e03;" horiz-adv-x="607" 
d="M314 746c-36 0 -65 29 -65 64c0 36 29 64 65 64c35 0 64 -28 64 -64c0 -35 -29 -64 -64 -64zM316 505c127 0 231 -104 231 -255s-104 -255 -231 -255c-66 0 -113 27 -145 69h-14l-19 -64h-58v710h85v-283c32 47 81 78 151 78zM309 77c75 0 150 65 150 173
s-75 173 -150 173c-66 0 -144 -50 -144 -173s78 -173 144 -173z" />
    <glyph glyph-name="c" unicode="c" horiz-adv-x="581" 
d="M528 176c-23 -108 -124 -181 -228 -181c-125 0 -240 107 -240 255s115 255 240 255c105 0 213 -76 231 -188h-90c-21 63 -73 106 -141 106c-90 0 -152 -75 -152 -173s62 -173 152 -173c66 0 116 40 139 99h89z" />
    <glyph glyph-name="cacute" unicode="&#x107;" horiz-adv-x="581" 
d="M328 680h107l-104 -125h-61zM528 176c-23 -108 -124 -181 -228 -181c-125 0 -240 107 -240 255s115 255 240 255c105 0 213 -76 231 -188h-90c-21 63 -73 106 -141 106c-90 0 -152 -75 -152 -173s62 -173 152 -173c66 0 116 40 139 99h89z" />
    <glyph glyph-name="ccaron" unicode="&#x10d;" horiz-adv-x="581" 
d="M337 556h-83l-99 154h81l53 -90h13l53 90h81zM300 77c66 0 116 40 139 99h89c-23 -108 -124 -181 -228 -181c-125 0 -240 107 -240 255s115 255 240 255c105 0 213 -76 231 -188h-90c-21 63 -73 106 -141 106c-90 0 -152 -75 -152 -173s62 -173 152 -173z" />
    <glyph glyph-name="ccedilla" unicode="&#xe7;" horiz-adv-x="581" 
d="M300 77c66 0 116 40 139 99h89c-21 -97 -104 -166 -196 -179l-25 -37c46 10 102 -17 102 -75c0 -50 -43 -90 -106 -90c-78 0 -106 61 -106 61l48 27s18 -31 57 -31c29 0 43 16 43 33c0 16 -13 32 -43 32c-24 0 -42 -10 -42 -10l-28 36l35 54c-111 17 -207 118 -207 253
c0 148 115 255 240 255c105 0 213 -76 231 -188h-90c-21 63 -73 106 -141 106c-90 0 -152 -75 -152 -173s62 -173 152 -173z" />
    <glyph glyph-name="ccircumflex" unicode="&#x109;" horiz-adv-x="581" 
d="M289 646l-53 -90h-81l99 154h83l99 -154h-81l-53 90h-13zM300 77c66 0 116 40 139 99h89c-23 -108 -124 -181 -228 -181c-125 0 -240 107 -240 255s115 255 240 255c105 0 213 -76 231 -188h-90c-21 63 -73 106 -141 106c-90 0 -152 -75 -152 -173s62 -173 152 -173z" />
    <glyph glyph-name="cdotaccent" unicode="&#x10b;" horiz-adv-x="581" 
d="M296 577c-36 0 -65 29 -65 64c0 36 29 64 65 64c35 0 64 -28 64 -64c0 -35 -29 -64 -64 -64zM528 176c-23 -108 -124 -181 -228 -181c-125 0 -240 107 -240 255s115 255 240 255c105 0 213 -76 231 -188h-90c-21 63 -73 106 -141 106c-90 0 -152 -75 -152 -173
s62 -173 152 -173c66 0 116 40 139 99h89z" />
    <glyph glyph-name="d" unicode="d" horiz-adv-x="609" 
d="M442 710h85v-710h-58l-19 64h-16c-31 -41 -78 -69 -143 -69c-127 0 -231 107 -231 255s104 255 231 255c70 0 119 -33 151 -80v285zM148 250c0 -108 75 -173 150 -173c66 0 144 50 144 173s-78 173 -144 173c-75 0 -150 -65 -150 -173z" />
    <glyph glyph-name="eth" unicode="&#xf0;" horiz-adv-x="659" 
d="M452 612c67 -66 108 -165 108 -311c0 -230 -106 -306 -240 -306c-125 0 -240 107 -240 255s115 255 240 255c90 0 143 -59 143 -59c-12 51 -42 96 -86 131l-104 -49l-23 49l75 35c-36 19 -74 33 -113 41l34 67c59 -15 114 -37 161 -69l139 65l23 -49zM320 77
c91 0 152 75 152 173s-62 173 -152 173s-152 -75 -152 -173s62 -173 152 -173z" />
    <glyph glyph-name="dcaron" unicode="&#x10f;" horiz-adv-x="752" 
d="M442 425v285h85v-710h-58l-19 64h-16c-31 -41 -78 -69 -143 -69c-127 0 -231 107 -231 255s104 255 231 255c70 0 119 -33 151 -80zM611 710h81l-36 -185h-59zM148 250c0 -108 75 -173 150 -173c66 0 144 50 144 173s-78 173 -144 173c-75 0 -150 -65 -150 -173z" />
    <glyph glyph-name="uni1E11" unicode="&#x1e11;" horiz-adv-x="609" 
d="M442 710h85v-710h-58l-19 64h-16c-23 -31 -55 -54 -97 -64l-27 -40c46 10 102 -17 102 -75c0 -50 -43 -90 -106 -90c-78 0 -106 61 -106 61l48 27s18 -31 57 -31c29 0 43 16 43 33c0 16 -13 32 -43 32c-24 0 -42 -10 -42 -10l-28 36l34 53c-117 12 -209 115 -209 254
c0 148 104 255 231 255c70 0 119 -33 151 -80v285zM148 250c0 -108 75 -173 150 -173c66 0 144 50 144 173s-78 173 -144 173c-75 0 -150 -65 -150 -173z" />
    <glyph glyph-name="dcroat" unicode="&#x111;" horiz-adv-x="609" 
d="M617 630v-70h-90v-560h-58l-19 64h-16c-31 -41 -78 -69 -143 -69c-127 0 -231 107 -231 255s104 255 231 255c70 0 119 -33 151 -80v135h-155v70h155v80h85v-80h90zM148 250c0 -108 75 -173 150 -173c66 0 144 50 144 173s-78 173 -144 173c-75 0 -150 -65 -150 -173z
" />
    <glyph glyph-name="uni1E0B" unicode="&#x1e0b;" horiz-adv-x="609" 
d="M291 746c-36 0 -65 29 -65 64c0 36 29 64 65 64c35 0 64 -28 64 -64c0 -35 -29 -64 -64 -64zM442 710h85v-710h-58l-19 64h-16c-31 -41 -78 -69 -143 -69c-127 0 -231 107 -231 255s104 255 231 255c70 0 119 -33 151 -80v285zM148 250c0 -108 75 -173 150 -173
c66 0 144 50 144 173s-78 173 -144 173c-75 0 -150 -65 -150 -173z" />
    <glyph glyph-name="e" unicode="e" horiz-adv-x="585" 
d="M297 505c120 0 237 -89 227 -278h-378c8 -93 66 -151 152 -151c57 0 99 25 123 64h92c-38 -91 -124 -145 -215 -145c-126 0 -238 103 -238 259c0 155 112 251 237 251zM296 431c-74 0 -130 -51 -146 -131h283c-12 77 -62 131 -137 131z" />
    <glyph glyph-name="eacute" unicode="&#xe9;" horiz-adv-x="585" 
d="M421 680l-104 -125h-61l58 125h107zM297 505c120 0 237 -89 227 -278h-378c8 -93 66 -151 152 -151c57 0 99 25 123 64h92c-38 -91 -124 -145 -215 -145c-126 0 -238 103 -238 259c0 155 112 251 237 251zM296 431c-74 0 -130 -51 -146 -131h283c-12 77 -62 131 -137 131
z" />
    <glyph glyph-name="ebreve" unicode="&#x115;" horiz-adv-x="585" 
d="M294 573c-80 0 -132 67 -132 127h72c0 -22 20 -57 59 -57s57 35 57 57h73c0 -60 -49 -127 -129 -127zM297 505c120 0 237 -89 227 -278h-378c8 -93 66 -151 152 -151c57 0 99 25 123 64h92c-38 -91 -124 -145 -215 -145c-126 0 -238 103 -238 259c0 155 112 251 237 251z
M296 431c-74 0 -130 -51 -146 -131h283c-12 77 -62 131 -137 131z" />
    <glyph glyph-name="ecaron" unicode="&#x11b;" horiz-adv-x="585" 
d="M334 556h-83l-99 154h81l53 -90h13l53 90h81zM297 505c120 0 237 -89 227 -278h-378c8 -93 66 -151 152 -151c57 0 99 25 123 64h92c-38 -91 -124 -145 -215 -145c-126 0 -238 103 -238 259c0 155 112 251 237 251zM296 431c-74 0 -130 -51 -146 -131h283
c-12 77 -62 131 -137 131z" />
    <glyph glyph-name="uni0229" unicode="&#x229;" horiz-adv-x="585" 
d="M297 505c120 0 237 -89 227 -278h-378c8 -93 66 -151 152 -151c57 0 99 25 123 64h92c-33 -78 -100 -129 -177 -142l-25 -38c46 10 102 -17 102 -75c0 -50 -43 -90 -106 -90c-78 0 -106 61 -106 61l48 27s18 -31 57 -31c29 0 43 16 43 33c0 16 -13 32 -43 32
c-24 0 -42 -10 -42 -10l-28 36l35 54c-115 13 -211 112 -211 257c0 155 112 251 237 251zM296 431c-74 0 -130 -51 -146 -131h283c-12 77 -62 131 -137 131z" />
    <glyph glyph-name="ecircumflex" unicode="&#xea;" horiz-adv-x="585" 
d="M286 646l-53 -90h-81l99 154h83l99 -154h-81l-53 90h-13zM297 505c120 0 237 -89 227 -278h-378c8 -93 66 -151 152 -151c57 0 99 25 123 64h92c-38 -91 -124 -145 -215 -145c-126 0 -238 103 -238 259c0 155 112 251 237 251zM296 431c-74 0 -130 -51 -146 -131h283
c-12 77 -62 131 -137 131z" />
    <glyph glyph-name="edieresis" unicode="&#xeb;" horiz-adv-x="585" 
d="M207 551c-30 0 -55 25 -55 55c0 31 25 55 55 55s55 -24 55 -55c0 -30 -25 -55 -55 -55zM377 551c-30 0 -55 25 -55 55c0 31 25 55 55 55s55 -24 55 -55c0 -30 -25 -55 -55 -55zM297 505c120 0 237 -89 227 -278h-378c8 -93 66 -151 152 -151c57 0 99 25 123 64h92
c-38 -91 -124 -145 -215 -145c-126 0 -238 103 -238 259c0 155 112 251 237 251zM296 431c-74 0 -130 -51 -146 -131h283c-12 77 -62 131 -137 131z" />
    <glyph glyph-name="edotaccent" unicode="&#x117;" horiz-adv-x="585" 
d="M293 577c-36 0 -65 29 -65 64c0 36 29 64 65 64c35 0 64 -28 64 -64c0 -35 -29 -64 -64 -64zM297 505c120 0 237 -89 227 -278h-378c8 -93 66 -151 152 -151c57 0 99 25 123 64h92c-38 -91 -124 -145 -215 -145c-126 0 -238 103 -238 259c0 155 112 251 237 251zM296 431
c-74 0 -130 -51 -146 -131h283c-12 77 -62 131 -137 131z" />
    <glyph glyph-name="egrave" unicode="&#xe8;" horiz-adv-x="585" 
d="M325 555h-61l-104 125h107zM297 505c120 0 237 -89 227 -278h-378c8 -93 66 -151 152 -151c57 0 99 25 123 64h92c-38 -91 -124 -145 -215 -145c-126 0 -238 103 -238 259c0 155 112 251 237 251zM296 431c-74 0 -130 -51 -146 -131h283c-12 77 -62 131 -137 131z" />
    <glyph glyph-name="emacron" unicode="&#x113;" horiz-adv-x="585" 
d="M457 650v-70h-330v70h330zM297 505c120 0 237 -89 227 -278h-378c8 -93 66 -151 152 -151c57 0 99 25 123 64h92c-38 -91 -124 -145 -215 -145c-126 0 -238 103 -238 259c0 155 112 251 237 251zM296 431c-74 0 -130 -51 -146 -131h283c-12 77 -62 131 -137 131z" />
    <glyph glyph-name="eogonek" unicode="&#x119;" horiz-adv-x="585" 
d="M297 505c120 0 237 -89 227 -278h-378c8 -93 66 -151 152 -151c57 0 99 25 123 64h92c-32 -76 -97 -126 -170 -141c-8 -4 -59 -35 -59 -85c0 -54 63 -60 88 -49l3 -60s-22 -11 -51 -11c-52 0 -109 36 -109 104c0 49 28 81 51 99c-112 16 -206 114 -206 257
c0 155 112 251 237 251zM296 431c-74 0 -130 -51 -146 -131h283c-12 77 -62 131 -137 131z" />
    <glyph glyph-name="uni1EBD" unicode="&#x1ebd;" horiz-adv-x="585" 
d="M234 594c-38 4 -54 -35 -54 -35l-53 23s41 100 125 85c42 -8 66 -39 97 -43c38 -5 55 35 55 35l53 -24s-38 -101 -125 -84c-43 8 -67 39 -98 43zM297 505c120 0 237 -89 227 -278h-378c8 -93 66 -151 152 -151c57 0 99 25 123 64h92c-38 -91 -124 -145 -215 -145
c-126 0 -238 103 -238 259c0 155 112 251 237 251zM296 431c-74 0 -130 -51 -146 -131h283c-12 77 -62 131 -137 131z" />
    <glyph glyph-name="f" unicode="f" horiz-adv-x="395" 
d="M308 611c-10 8 -21 14 -40 14c-33 0 -60 -18 -60 -84v-41h120v-70h-120v-430h-84v430h-74v70h74v49c0 91 47 156 134 156c46 0 73 -19 88 -32z" />
    <glyph glyph-name="uni1E1F" unicode="&#x1e1f;" horiz-adv-x="395" 
d="M232 746c-36 0 -65 29 -65 64c0 36 29 64 65 64c35 0 64 -28 64 -64c0 -35 -29 -64 -64 -64zM308 611c-10 8 -21 14 -40 14c-33 0 -60 -18 -60 -84v-41h120v-70h-120v-430h-84v430h-74v70h74v49c0 91 47 156 134 156c46 0 73 -19 88 -32z" />
    <glyph glyph-name="g" unicode="g" horiz-adv-x="563" 
d="M343 97c111 0 157 -61 157 -137c0 -112 -101 -165 -216 -165c-150 0 -231 90 -211 197l76 53c-39 14 -67 39 -67 84c0 41 23 74 63 94c-27 30 -42 70 -42 113c0 94 73 170 185 170c41 0 76 -10 105 -27c50 23 74 61 74 61l51 -71s-28 -20 -75 -36c19 -28 30 -61 30 -97
c0 -95 -72 -171 -185 -171c-33 0 -63 7 -89 19c-18 -10 -32 -25 -32 -45c0 -24 20 -42 105 -42h71zM289 434c-62 0 -101 -44 -101 -99c0 -54 38 -98 100 -98c63 0 100 44 100 99c0 54 -37 98 -99 98zM284 -126c65 0 131 30 131 88c0 59 -67 62 -111 63c-27 1 -56 2 -84 5
l-67 -63c-8 -58 61 -93 131 -93z" />
    <glyph glyph-name="uni01F5" unicode="&#x1f5;" horiz-adv-x="563" 
d="M420 680l-104 -125h-61l58 125h107zM343 97c111 0 157 -61 157 -137c0 -112 -101 -165 -216 -165c-150 0 -231 90 -211 197l76 53c-39 14 -67 39 -67 84c0 41 23 74 63 94c-27 30 -42 70 -42 113c0 94 73 170 185 170c41 0 76 -10 105 -27c50 23 74 61 74 61l51 -71
s-28 -20 -75 -36c19 -28 30 -61 30 -97c0 -95 -72 -171 -185 -171c-33 0 -63 7 -89 19c-18 -10 -32 -25 -32 -45c0 -24 20 -42 105 -42h71zM289 434c-62 0 -101 -44 -101 -99c0 -54 38 -98 100 -98c63 0 100 44 100 99c0 54 -37 98 -99 98zM284 -126c65 0 131 30 131 88
c0 59 -67 62 -111 63c-27 1 -56 2 -84 5l-67 -63c-8 -58 61 -93 131 -93z" />
    <glyph glyph-name="gbreve" unicode="&#x11f;" horiz-adv-x="563" 
d="M286 573c-80 0 -132 67 -132 127h72c0 -22 20 -57 59 -57s57 35 57 57h73c0 -60 -49 -127 -129 -127zM343 97c111 0 157 -61 157 -137c0 -112 -101 -165 -216 -165c-150 0 -231 90 -211 197l76 53c-39 14 -67 39 -67 84c0 41 23 74 63 94c-27 30 -42 70 -42 113
c0 94 73 170 185 170c41 0 76 -10 105 -27c50 23 74 61 74 61l51 -71s-28 -20 -75 -36c19 -28 30 -61 30 -97c0 -95 -72 -171 -185 -171c-33 0 -63 7 -89 19c-18 -10 -32 -25 -32 -45c0 -24 20 -42 105 -42h71zM289 434c-62 0 -101 -44 -101 -99c0 -54 38 -98 100 -98
c63 0 100 44 100 99c0 54 -37 98 -99 98zM284 -126c65 0 131 30 131 88c0 59 -67 62 -111 63c-27 1 -56 2 -84 5l-67 -63c-8 -58 61 -93 131 -93z" />
    <glyph glyph-name="gcaron" unicode="&#x1e7;" horiz-adv-x="563" 
d="M336 556h-83l-99 154h81l53 -90h13l53 90h81zM343 97c111 0 157 -61 157 -137c0 -112 -101 -165 -216 -165c-150 0 -231 90 -211 197l76 53c-39 14 -67 39 -67 84c0 41 23 74 63 94c-27 30 -42 70 -42 113c0 94 73 170 185 170c41 0 76 -10 105 -27c50 23 74 61 74 61
l51 -71s-28 -20 -75 -36c19 -28 30 -61 30 -97c0 -95 -72 -171 -185 -171c-33 0 -63 7 -89 19c-18 -10 -32 -25 -32 -45c0 -24 20 -42 105 -42h71zM289 434c-62 0 -101 -44 -101 -99c0 -54 38 -98 100 -98c63 0 100 44 100 99c0 54 -37 98 -99 98zM284 -126
c65 0 131 30 131 88c0 59 -67 62 -111 63c-27 1 -56 2 -84 5l-67 -63c-8 -58 61 -93 131 -93z" />
    <glyph glyph-name="gcircumflex" unicode="&#x11d;" horiz-adv-x="563" 
d="M279 646l-53 -90h-81l99 154h83l99 -154h-81l-53 90h-13zM343 97c111 0 157 -61 157 -137c0 -112 -101 -165 -216 -165c-150 0 -231 90 -211 197l76 53c-39 14 -67 39 -67 84c0 41 23 74 63 94c-27 30 -42 70 -42 113c0 94 73 170 185 170c41 0 76 -10 105 -27
c50 23 74 61 74 61l51 -71s-28 -20 -75 -36c19 -28 30 -61 30 -97c0 -95 -72 -171 -185 -171c-33 0 -63 7 -89 19c-18 -10 -32 -25 -32 -45c0 -24 20 -42 105 -42h71zM289 434c-62 0 -101 -44 -101 -99c0 -54 38 -98 100 -98c63 0 100 44 100 99c0 54 -37 98 -99 98z
M284 -126c65 0 131 30 131 88c0 59 -67 62 -111 63c-27 1 -56 2 -84 5l-67 -63c-8 -58 61 -93 131 -93z" />
    <glyph glyph-name="gcommaaccent" unicode="&#x123;" horiz-adv-x="563" 
d="M285 551c-36 0 -55 30 -55 72c0 88 79 139 79 139l25 -25c-28 -25 -40 -56 -45 -81c27 -2 49 -25 49 -52c0 -30 -22 -53 -53 -53zM343 97c111 0 157 -61 157 -137c0 -112 -101 -165 -216 -165c-150 0 -231 90 -211 197l76 53c-39 14 -67 39 -67 84c0 41 23 74 63 94
c-27 30 -42 70 -42 113c0 94 73 170 185 170c41 0 76 -10 105 -27c50 23 74 61 74 61l51 -71s-28 -20 -75 -36c19 -28 30 -61 30 -97c0 -95 -72 -171 -185 -171c-33 0 -63 7 -89 19c-18 -10 -32 -25 -32 -45c0 -24 20 -42 105 -42h71zM289 434c-62 0 -101 -44 -101 -99
c0 -54 38 -98 100 -98c63 0 100 44 100 99c0 54 -37 98 -99 98zM284 -126c65 0 131 30 131 88c0 59 -67 62 -111 63c-27 1 -56 2 -84 5l-67 -63c-8 -58 61 -93 131 -93z" />
    <glyph glyph-name="gdotaccent" unicode="&#x121;" horiz-adv-x="563" 
d="M281 577c-36 0 -65 29 -65 64c0 36 29 64 65 64c35 0 64 -28 64 -64c0 -35 -29 -64 -64 -64zM343 97c111 0 157 -61 157 -137c0 -112 -101 -165 -216 -165c-150 0 -231 90 -211 197l76 53c-39 14 -67 39 -67 84c0 41 23 74 63 94c-27 30 -42 70 -42 113
c0 94 73 170 185 170c41 0 76 -10 105 -27c50 23 74 61 74 61l51 -71s-28 -20 -75 -36c19 -28 30 -61 30 -97c0 -95 -72 -171 -185 -171c-33 0 -63 7 -89 19c-18 -10 -32 -25 -32 -45c0 -24 20 -42 105 -42h71zM289 434c-62 0 -101 -44 -101 -99c0 -54 38 -98 100 -98
c63 0 100 44 100 99c0 54 -37 98 -99 98zM284 -126c65 0 131 30 131 88c0 59 -67 62 -111 63c-27 1 -56 2 -84 5l-67 -63c-8 -58 61 -93 131 -93z" />
    <glyph glyph-name="g.ss02" horiz-adv-x="609" 
d="M471 500h58v-480c0 -95 -58 -225 -239 -225c-155 0 -230 95 -230 164h83s27 -84 142 -84c85 0 161 45 161 145v56c-32 -48 -82 -81 -153 -81c-127 0 -231 104 -231 255s104 255 231 255c65 0 111 -27 144 -68h15zM300 77c66 0 144 50 144 173s-78 173 -144 173
c-75 0 -150 -65 -150 -173s75 -173 150 -173z" />
    <glyph glyph-name="uni01F5.ss02" horiz-adv-x="609" 
d="M410 680l-104 -125h-61l58 125h107zM471 500h58v-480c0 -95 -58 -225 -239 -225c-155 0 -230 95 -230 164h83s27 -84 142 -84c85 0 161 45 161 145v56c-32 -48 -82 -81 -153 -81c-127 0 -231 104 -231 255s104 255 231 255c65 0 111 -27 144 -68h15zM300 77
c66 0 144 50 144 173s-78 173 -144 173c-75 0 -150 -65 -150 -173s75 -173 150 -173z" />
    <glyph glyph-name="gbreve.ss02" horiz-adv-x="609" 
d="M303 573c-80 0 -132 67 -132 127h72c0 -22 20 -57 59 -57s57 35 57 57h73c0 -60 -49 -127 -129 -127zM471 500h58v-480c0 -95 -58 -225 -239 -225c-155 0 -230 95 -230 164h83s27 -84 142 -84c85 0 161 45 161 145v56c-32 -48 -82 -81 -153 -81c-127 0 -231 104 -231 255
s104 255 231 255c65 0 111 -27 144 -68h15zM300 77c66 0 144 50 144 173s-78 173 -144 173c-75 0 -150 -65 -150 -173s75 -173 150 -173z" />
    <glyph glyph-name="gcaron.ss02" horiz-adv-x="609" 
d="M334 556h-83l-99 154h81l53 -90h13l53 90h81zM471 500h58v-480c0 -95 -58 -225 -239 -225c-155 0 -230 95 -230 164h83s27 -84 142 -84c85 0 161 45 161 145v56c-32 -48 -82 -81 -153 -81c-127 0 -231 104 -231 255s104 255 231 255c65 0 111 -27 144 -68h15zM300 77
c66 0 144 50 144 173s-78 173 -144 173c-75 0 -150 -65 -150 -173s75 -173 150 -173z" />
    <glyph glyph-name="gcircumflex.ss02" horiz-adv-x="609" 
d="M280 646l-53 -90h-81l99 154h83l99 -154h-81l-53 90h-13zM471 500h58v-480c0 -95 -58 -225 -239 -225c-155 0 -230 95 -230 164h83s27 -84 142 -84c85 0 161 45 161 145v56c-32 -48 -82 -81 -153 -81c-127 0 -231 104 -231 255s104 255 231 255c65 0 111 -27 144 -68h15z
M300 77c66 0 144 50 144 173s-78 173 -144 173c-75 0 -150 -65 -150 -173s75 -173 150 -173z" />
    <glyph glyph-name="gcommaaccent.ss02" horiz-adv-x="609" 
d="M293 551c-36 0 -55 30 -55 72c0 88 79 139 79 139l25 -25c-28 -25 -40 -56 -45 -81c27 -2 49 -25 49 -52c0 -30 -22 -53 -53 -53zM471 500h58v-480c0 -95 -58 -225 -239 -225c-155 0 -230 95 -230 164h83s27 -84 142 -84c85 0 161 45 161 145v56
c-32 -48 -82 -81 -153 -81c-127 0 -231 104 -231 255s104 255 231 255c65 0 111 -27 144 -68h15zM300 77c66 0 144 50 144 173s-78 173 -144 173c-75 0 -150 -65 -150 -173s75 -173 150 -173z" />
    <glyph glyph-name="gdotaccent.ss02" horiz-adv-x="609" 
d="M301 577c-36 0 -65 29 -65 64c0 36 29 64 65 64c35 0 64 -28 64 -64c0 -35 -29 -64 -64 -64zM471 500h58v-480c0 -95 -58 -225 -239 -225c-155 0 -230 95 -230 164h83s27 -84 142 -84c85 0 161 45 161 145v56c-32 -48 -82 -81 -153 -81c-127 0 -231 104 -231 255
s104 255 231 255c65 0 111 -27 144 -68h15zM300 77c66 0 144 50 144 173s-78 173 -144 173c-75 0 -150 -65 -150 -173s75 -173 150 -173z" />
    <glyph glyph-name="h" unicode="h" horiz-adv-x="580" 
d="M317 505c124 0 188 -95 188 -234v-271h-88v241c0 89 -15 188 -114 188c-75 0 -135 -56 -135 -144v-285h-88v710h88v-263h10c22 25 66 58 139 58z" />
    <glyph glyph-name="hbar" unicode="&#x127;" horiz-adv-x="580" 
d="M317 505c124 0 188 -95 188 -234v-271h-88v241c0 89 -15 188 -114 188c-75 0 -135 -56 -135 -144v-285h-88v560h-98v70h98v80h88v-80h144v-70h-144v-113h10c22 25 66 58 139 58z" />
    <glyph glyph-name="uni1E29" unicode="&#x1e29;" horiz-adv-x="580" 
d="M317 505c124 0 188 -95 188 -234v-271h-88v241c0 89 -15 188 -114 188c-75 0 -135 -56 -135 -144v-285h-23l-27 -40c46 10 102 -17 102 -75c0 -50 -43 -90 -106 -90c-78 0 -106 61 -106 61l48 27s18 -31 57 -31c29 0 43 16 43 33c0 16 -13 32 -43 32
c-24 0 -42 -10 -42 -10l-28 36l37 57v710h88v-263h10c22 25 66 58 139 58z" />
    <glyph glyph-name="uni1E27" unicode="&#x1e27;" horiz-adv-x="580" 
d="M208 760c-30 0 -55 25 -55 55c0 31 25 55 55 55s55 -24 55 -55c0 -30 -25 -55 -55 -55zM378 760c-30 0 -55 25 -55 55c0 31 25 55 55 55s55 -24 55 -55c0 -30 -25 -55 -55 -55zM317 505c124 0 188 -95 188 -234v-271h-88v241c0 89 -15 188 -114 188
c-75 0 -135 -56 -135 -144v-285h-88v710h88v-263h10c22 25 66 58 139 58z" />
    <glyph glyph-name="uni1E23" unicode="&#x1e23;" horiz-adv-x="580" 
d="M294 746c-36 0 -65 29 -65 64c0 36 29 64 65 64c35 0 64 -28 64 -64c0 -35 -29 -64 -64 -64zM317 505c124 0 188 -95 188 -234v-271h-88v241c0 89 -15 188 -114 188c-75 0 -135 -56 -135 -144v-285h-88v710h88v-263h10c22 25 66 58 139 58z" />
    <glyph glyph-name="i" unicode="i" horiz-adv-x="269" 
d="M145 587c-36 0 -65 29 -65 64c0 36 29 64 65 64c35 0 64 -28 64 -64c0 -35 -29 -64 -64 -64zM188 500v-500h-88v500h88z" />
    <glyph glyph-name="dotlessi" unicode="&#x131;" horiz-adv-x="228" 
d="M168 500v-500h-88v500h88z" />
    <glyph glyph-name="iacute" unicode="&#xed;" horiz-adv-x="228" 
d="M128 680h107l-104 -125h-61zM168 500v-500h-88v500h88z" />
    <glyph glyph-name="ibreve" unicode="&#x12d;" horiz-adv-x="228" 
d="M254 700c0 -60 -49 -127 -129 -127s-132 67 -132 127h72c0 -22 20 -57 59 -57s57 35 57 57h73zM168 500v-500h-88v500h88z" />
    <glyph glyph-name="uni01D0" unicode="&#x1d0;" horiz-adv-x="228" 
d="M166 556h-83l-99 154h81l53 -90h13l53 90h81zM80 0v500h88v-500h-88z" />
    <glyph glyph-name="icircumflex" unicode="&#xee;" horiz-adv-x="228" 
d="M166 710l99 -154h-81l-53 90h-13l-53 -90h-81l99 154h83zM80 0v500h88v-500h-88z" />
    <glyph glyph-name="idieresis" unicode="&#xef;" horiz-adv-x="228" 
d="M39 561c-30 0 -55 25 -55 55c0 31 25 55 55 55s55 -24 55 -55c0 -30 -25 -55 -55 -55zM209 561c-30 0 -55 25 -55 55c0 31 25 55 55 55s55 -24 55 -55c0 -30 -25 -55 -55 -55zM168 500v-500h-88v500h88z" />
    <glyph glyph-name="i.loclTRK" horiz-adv-x="269" 
d="M145 587c-36 0 -65 29 -65 64c0 36 29 64 65 64c35 0 64 -28 64 -64c0 -35 -29 -64 -64 -64zM188 500v-500h-88v500h88z" />
    <glyph glyph-name="igrave" unicode="&#xec;" horiz-adv-x="228" 
d="M120 680l58 -125h-61l-104 125h107zM168 500v-500h-88v500h88z" />
    <glyph glyph-name="ij" unicode="&#x133;" horiz-adv-x="487" 
d="M145 587c-36 0 -65 29 -65 64c0 36 29 64 65 64c35 0 64 -28 64 -64c0 -35 -29 -64 -64 -64zM363 587c-36 0 -65 29 -65 64c0 36 29 64 65 64c35 0 64 -28 64 -64c0 -35 -29 -64 -64 -64zM188 500v-500h-88v500h88zM317 500h87v-549c0 -91 -53 -156 -140 -156
c-46 0 -73 19 -88 32l38 61c9 -7 20 -14 40 -14c34 0 63 21 63 85v541z" />
    <glyph glyph-name="imacron" unicode="&#x12b;" horiz-adv-x="228" 
d="M-41 650h330v-70h-330v70zM168 500v-500h-88v500h88z" />
    <glyph glyph-name="iogonek" unicode="&#x12f;" horiz-adv-x="228" 
d="M125 587c-36 0 -65 29 -65 64c0 36 29 64 65 64c35 0 64 -28 64 -64c0 -35 -29 -64 -64 -64zM94 -86c0 -54 63 -60 88 -49l3 -60s-22 -11 -51 -11c-52 0 -109 36 -109 104c0 51 32 85 55 102v500h88v-500h-14s-60 -32 -60 -86z" />
    <glyph glyph-name="itilde" unicode="&#x129;" horiz-adv-x="228" 
d="M286 635c0 0 -38 -101 -125 -84c-43 8 -67 39 -98 43c-38 4 -54 -35 -54 -35l-53 23s41 100 125 85c42 -8 66 -39 97 -43c38 -5 55 35 55 35zM168 500v-500h-88v500h88z" />
    <glyph glyph-name="j" unicode="j" horiz-adv-x="321" 
d="M197 587c-36 0 -65 29 -65 64c0 36 29 64 65 64c35 0 64 -28 64 -64c0 -35 -29 -64 -64 -64zM151 500h87v-549c0 -91 -53 -156 -140 -156c-46 0 -73 19 -88 32l38 61c9 -7 20 -14 40 -14c34 0 63 21 63 85v541z" />
    <glyph glyph-name="uni0237" unicode="&#x237;" horiz-adv-x="338" 
d="M171 500h87v-549c0 -91 -53 -156 -140 -156c-46 0 -73 19 -88 32l38 61c9 -7 20 -14 40 -14c34 0 63 21 63 85v541z" />
    <glyph glyph-name="jcircumflex" unicode="&#x135;" horiz-adv-x="425" 
d="M256 710l99 -154h-81l-53 90h-13l-53 -90h-81l99 154h83zM171 -41v541h87v-549c0 -91 -53 -156 -140 -156c-46 0 -73 19 -88 32l38 61c9 -7 20 -14 40 -14c34 0 63 21 63 85z" />
    <glyph glyph-name="k" unicode="k" horiz-adv-x="549" 
d="M499 500l-199 -214l199 -286h-98l-160 224l-75 -81v-143h-86v710h86v-432h16l210 222h107z" />
    <glyph glyph-name="kcommaaccent" unicode="&#x137;" horiz-adv-x="549" 
d="M499 500l-199 -214l199 -286h-98l-160 224l-75 -81v-143h-86v710h86v-432h16l210 222h107zM272 -45c36 0 55 -30 55 -72c0 -88 -79 -139 -79 -139l-25 25c28 25 40 56 45 81c-27 2 -49 25 -49 52c0 30 22 53 53 53z" />
    <glyph glyph-name="l" unicode="l" horiz-adv-x="247" 
d="M80 710h87v-710h-87v710z" />
    <glyph glyph-name="lacute" unicode="&#x13a;" horiz-adv-x="247" 
d="M232 890l-104 -125h-61l58 125h107zM80 0v710h87v-710h-87z" />
    <glyph glyph-name="lcaron" unicode="&#x13e;" horiz-adv-x="392" 
d="M80 0v710h87v-710h-87zM251 710h81l-36 -185h-59z" />
    <glyph glyph-name="lcommaaccent" unicode="&#x13c;" horiz-adv-x="247" 
d="M167 710v-710h-87v710h87zM121 -45c36 0 55 -30 55 -72c0 -88 -79 -139 -79 -139l-25 25c28 25 40 56 45 81c-27 2 -49 25 -49 52c0 30 22 53 53 53z" />
    <glyph glyph-name="ldot" unicode="&#x140;" horiz-adv-x="247" 
d="M80 0v710h87v-710h-87zM296 430c35 0 64 -28 64 -64c0 -35 -29 -64 -64 -64c-36 0 -65 29 -65 64c0 36 29 64 65 64z" />
    <glyph glyph-name="lslash" unicode="&#x142;" horiz-adv-x="310" 
d="M280 500v-86l-81 -49v-365h-87v313l-82 -49v86l82 49v311h87v-259z" />
    <glyph glyph-name="m" unicode="m" horiz-adv-x="853" 
d="M607 505c115 0 175 -96 175 -234v-271h-88v241c0 97 -12 188 -98 188c-63 0 -118 -49 -121 -137v-292h-88v241c0 97 -12 188 -98 188c-65 0 -121 -52 -121 -144v-285h-88v500h58l17 -56h14c19 22 62 61 128 61s111 -39 140 -80h17c27 37 76 80 153 80z" />
    <glyph glyph-name="uni1E41" unicode="&#x1e41;" horiz-adv-x="853" 
d="M432 577c-36 0 -65 29 -65 64c0 36 29 64 65 64c35 0 64 -28 64 -64c0 -35 -29 -64 -64 -64zM607 505c115 0 175 -96 175 -234v-271h-88v241c0 97 -12 188 -98 188c-63 0 -118 -49 -121 -137v-292h-88v241c0 97 -12 188 -98 188c-65 0 -121 -52 -121 -144v-285h-88v500
h58l17 -56h14c19 22 62 61 128 61s111 -39 140 -80h17c27 37 76 80 153 80z" />
    <glyph glyph-name="n" unicode="n" horiz-adv-x="576" 
d="M315 505c127 0 190 -95 190 -234v-271h-88v241c0 89 -15 188 -114 188c-75 0 -135 -56 -135 -144v-285h-88v500h58l18 -57h12c19 22 64 62 147 62z" />
    <glyph glyph-name="nacute" unicode="&#x144;" horiz-adv-x="576" 
d="M416 680l-104 -125h-61l58 125h107zM315 505c127 0 190 -95 190 -234v-271h-88v241c0 89 -15 188 -114 188c-75 0 -135 -56 -135 -144v-285h-88v500h58l18 -57h12c19 22 64 62 147 62z" />
    <glyph glyph-name="ncaron" unicode="&#x148;" horiz-adv-x="576" 
d="M335 556h-83l-99 154h81l53 -90h13l53 90h81zM315 505c127 0 190 -95 190 -234v-271h-88v241c0 89 -15 188 -114 188c-75 0 -135 -56 -135 -144v-285h-88v500h58l18 -57h12c19 22 64 62 147 62z" />
    <glyph glyph-name="ncommaaccent" unicode="&#x146;" horiz-adv-x="576" 
d="M315 505c127 0 190 -95 190 -234v-271h-88v241c0 89 -15 188 -114 188c-75 0 -135 -56 -135 -144v-285h-88v500h58l18 -57h12c19 22 64 62 147 62zM292 -45c36 0 55 -30 55 -72c0 -88 -79 -139 -79 -139l-25 25c28 25 40 56 45 81c-27 2 -49 25 -49 52c0 30 22 53 53 53z
" />
    <glyph glyph-name="uni1E45" unicode="&#x1e45;" horiz-adv-x="576" 
d="M294 577c-36 0 -65 29 -65 64c0 36 29 64 65 64c35 0 64 -28 64 -64c0 -35 -29 -64 -64 -64zM315 505c127 0 190 -95 190 -234v-271h-88v241c0 89 -15 188 -114 188c-75 0 -135 -56 -135 -144v-285h-88v500h58l18 -57h12c19 22 64 62 147 62z" />
    <glyph glyph-name="uni01F9" unicode="&#x1f9;" horiz-adv-x="576" 
d="M329 555h-61l-104 125h107zM315 505c127 0 190 -95 190 -234v-271h-88v241c0 89 -15 188 -114 188c-75 0 -135 -56 -135 -144v-285h-88v500h58l18 -57h12c19 22 64 62 147 62z" />
    <glyph glyph-name="eng" unicode="&#x14b;" horiz-adv-x="576" 
d="M315 505c127 0 190 -95 190 -234v-271v-15c0 -147 -73 -188 -142 -188c-41 0 -77 15 -77 15v69s131 -57 131 104v27v229c0 89 -15 188 -114 188c-75 0 -135 -56 -135 -144v-285h-88v500h58l18 -57h12c19 22 64 62 147 62z" />
    <glyph glyph-name="ntilde" unicode="&#xf1;" horiz-adv-x="576" 
d="M209 594c-38 4 -54 -35 -54 -35l-53 23s41 100 125 85c42 -8 66 -39 97 -43c38 -5 55 35 55 35l53 -24s-38 -101 -125 -84c-43 8 -67 39 -98 43zM315 505c127 0 190 -95 190 -234v-271h-88v241c0 89 -15 188 -114 188c-75 0 -135 -56 -135 -144v-285h-88v500h58l18 -57
h12c19 22 64 62 147 62z" />
    <glyph glyph-name="o" unicode="o" horiz-adv-x="600" 
d="M300 -5c-125 0 -240 107 -240 255s115 255 240 255s240 -107 240 -255s-114 -255 -240 -255zM300 77c91 0 152 75 152 173s-62 173 -152 173s-152 -75 -152 -173s62 -173 152 -173z" />
    <glyph glyph-name="oacute" unicode="&#xf3;" horiz-adv-x="600" 
d="M320 680h107l-104 -125h-61zM300 -5c-125 0 -240 107 -240 255s115 255 240 255s240 -107 240 -255s-114 -255 -240 -255zM300 77c91 0 152 75 152 173s-62 173 -152 173s-152 -75 -152 -173s62 -173 152 -173z" />
    <glyph glyph-name="obreve" unicode="&#x14f;" horiz-adv-x="600" 
d="M431 700c0 -60 -49 -127 -129 -127s-132 67 -132 127h72c0 -22 20 -57 59 -57s57 35 57 57h73zM300 -5c-125 0 -240 107 -240 255s115 255 240 255s240 -107 240 -255s-114 -255 -240 -255zM300 77c91 0 152 75 152 173s-62 173 -152 173s-152 -75 -152 -173
s62 -173 152 -173z" />
    <glyph glyph-name="uni01D2" unicode="&#x1d2;" horiz-adv-x="600" 
d="M342 556h-83l-99 154h81l53 -90h13l53 90h81zM300 505c125 0 240 -107 240 -255s-114 -255 -240 -255c-125 0 -240 107 -240 255s115 255 240 255zM300 77c91 0 152 75 152 173s-62 173 -152 173s-152 -75 -152 -173s62 -173 152 -173z" />
    <glyph glyph-name="ocircumflex" unicode="&#xf4;" horiz-adv-x="600" 
d="M294 646l-53 -90h-81l99 154h83l99 -154h-81l-53 90h-13zM300 505c125 0 240 -107 240 -255s-114 -255 -240 -255c-125 0 -240 107 -240 255s115 255 240 255zM300 77c91 0 152 75 152 173s-62 173 -152 173s-152 -75 -152 -173s62 -173 152 -173z" />
    <glyph glyph-name="odieresis" unicode="&#xf6;" horiz-adv-x="600" 
d="M215 551c-30 0 -55 25 -55 55c0 31 25 55 55 55s55 -24 55 -55c0 -30 -25 -55 -55 -55zM385 551c-30 0 -55 25 -55 55c0 31 25 55 55 55s55 -24 55 -55c0 -30 -25 -55 -55 -55zM300 -5c-125 0 -240 107 -240 255s115 255 240 255s240 -107 240 -255s-114 -255 -240 -255z
M300 77c91 0 152 75 152 173s-62 173 -152 173s-152 -75 -152 -173s62 -173 152 -173z" />
    <glyph glyph-name="uni022F" unicode="&#x22f;" horiz-adv-x="600" 
d="M301 577c-36 0 -65 29 -65 64c0 36 29 64 65 64c35 0 64 -28 64 -64c0 -35 -29 -64 -64 -64zM300 -5c-125 0 -240 107 -240 255s115 255 240 255s240 -107 240 -255s-114 -255 -240 -255zM300 77c91 0 152 75 152 173s-62 173 -152 173s-152 -75 -152 -173
s62 -173 152 -173z" />
    <glyph glyph-name="ograve" unicode="&#xf2;" horiz-adv-x="600" 
d="M275 680l58 -125h-61l-104 125h107zM300 -5c-125 0 -240 107 -240 255s115 255 240 255s240 -107 240 -255s-114 -255 -240 -255zM300 77c91 0 152 75 152 173s-62 173 -152 173s-152 -75 -152 -173s62 -173 152 -173z" />
    <glyph glyph-name="ohungarumlaut" unicode="&#x151;" horiz-adv-x="600" 
d="M261 680h93l-94 -125h-67zM391 680h93l-94 -125h-67zM300 -5c-125 0 -240 107 -240 255s115 255 240 255s240 -107 240 -255s-114 -255 -240 -255zM300 77c91 0 152 75 152 173s-62 173 -152 173s-152 -75 -152 -173s62 -173 152 -173z" />
    <glyph glyph-name="omacron" unicode="&#x14d;" horiz-adv-x="600" 
d="M135 650h330v-70h-330v70zM300 -5c-125 0 -240 107 -240 255s115 255 240 255s240 -107 240 -255s-114 -255 -240 -255zM300 77c91 0 152 75 152 173s-62 173 -152 173s-152 -75 -152 -173s62 -173 152 -173z" />
    <glyph glyph-name="uni01EB" unicode="&#x1eb;" horiz-adv-x="600" 
d="M347 0c-1 -1 -60 -32 -60 -86s63 -60 88 -49l3 -60s-22 -11 -51 -11c-52 0 -109 36 -109 104c0 49 28 81 51 99c-112 16 -209 117 -209 253c0 148 115 255 240 255s240 -107 240 -255c0 -129 -87 -227 -193 -250zM148 250c0 -98 62 -173 152 -173c91 0 152 75 152 173
s-62 173 -152 173s-152 -75 -152 -173z" />
    <glyph glyph-name="oslash" unicode="&#xf8;" horiz-adv-x="590" 
d="M466 434c45 -46 74 -110 74 -184c0 -148 -114 -255 -240 -255c-42 0 -82 12 -118 33l-33 -47l-44 31l34 49c-48 46 -79 112 -79 189c0 148 115 255 240 255c44 0 86 -13 123 -37l32 46l45 -32zM148 250c0 -47 14 -89 39 -120l190 272c-22 13 -48 21 -77 21
c-90 0 -152 -75 -152 -173zM300 77c91 0 152 75 152 173c0 44 -13 84 -35 114l-188 -269c21 -12 45 -18 71 -18z" />
    <glyph glyph-name="otilde" unicode="&#xf5;" horiz-adv-x="600" 
d="M465 635c0 0 -38 -101 -125 -84c-43 8 -67 39 -98 43c-38 4 -54 -35 -54 -35l-53 23s41 100 125 85c42 -8 66 -39 97 -43c38 -5 55 35 55 35zM300 -5c-125 0 -240 107 -240 255s115 255 240 255s240 -107 240 -255s-114 -255 -240 -255zM300 77c91 0 152 75 152 173
s-62 173 -152 173s-152 -75 -152 -173s62 -173 152 -173z" />
    <glyph glyph-name="oe" unicode="&#x153;" horiz-adv-x="977" 
d="M689 505c120 0 237 -89 227 -278h-378c8 -93 66 -151 152 -151c57 0 99 25 123 64h92c-38 -91 -124 -145 -215 -145c-78 0 -152 40 -195 108c-45 -67 -117 -108 -195 -108c-125 0 -240 107 -240 255s115 255 240 255c78 0 149 -41 191 -108c44 69 118 108 198 108z
M688 431c-74 0 -130 -51 -146 -131h283c-12 77 -62 131 -137 131zM300 77c91 0 152 75 152 173s-62 173 -152 173s-152 -75 -152 -173s62 -173 152 -173z" />
    <glyph glyph-name="p" unicode="p" horiz-adv-x="607" 
d="M316 505c127 0 231 -107 231 -255s-104 -255 -231 -255c-70 0 -119 33 -151 80v-275h-85v700h58l19 -63h16c32 41 79 68 143 68zM309 77c75 0 150 65 150 173s-75 173 -150 173c-66 0 -144 -50 -144 -173s78 -173 144 -173z" />
    <glyph glyph-name="uni1E57" unicode="&#x1e57;" horiz-adv-x="607" 
d="M314 577c-36 0 -65 29 -65 64c0 36 29 64 65 64c35 0 64 -28 64 -64c0 -35 -29 -64 -64 -64zM316 505c127 0 231 -107 231 -255s-104 -255 -231 -255c-70 0 -119 33 -151 80v-275h-85v700h58l19 -63h16c32 41 79 68 143 68zM309 77c75 0 150 65 150 173s-75 173 -150 173
c-66 0 -144 -50 -144 -173s78 -173 144 -173z" />
    <glyph glyph-name="thorn" unicode="&#xfe;" horiz-adv-x="607" 
d="M316 505c127 0 231 -107 231 -255s-104 -255 -231 -255c-70 0 -119 33 -151 80v-275h-85v700v210h85v-263h16c32 35 76 58 135 58zM309 77c75 0 150 65 150 173s-75 173 -150 173c-66 0 -144 -50 -144 -173s78 -173 144 -173z" />
    <glyph glyph-name="q" unicode="q" horiz-adv-x="607" 
d="M469 500h58v-700h-85v273c-32 -47 -81 -78 -151 -78c-127 0 -231 104 -231 255s104 255 231 255c65 0 111 -27 144 -68h15zM298 77c66 0 144 50 144 173s-78 173 -144 173c-75 0 -150 -65 -150 -173s75 -173 150 -173z" />
    <glyph glyph-name="r" unicode="r" horiz-adv-x="386" 
d="M305 505h31v-86c-10 2 -28 4 -41 4c-64 0 -127 -36 -127 -128v-295h-88v500h58l17 -56h14c19 22 60 61 136 61z" />
    <glyph glyph-name="racute" unicode="&#x155;" horiz-adv-x="386" 
d="M313 680l-104 -125h-61l58 125h107zM305 505h31v-86c-10 2 -28 4 -41 4c-64 0 -127 -36 -127 -128v-295h-88v500h58l17 -56h14c19 22 60 61 136 61z" />
    <glyph glyph-name="rcaron" unicode="&#x159;" horiz-adv-x="386" 
d="M247 556h-83l-99 154h81l53 -90h13l53 90h81zM169 444c19 22 60 61 136 61h31v-86c-10 2 -28 4 -41 4c-64 0 -127 -36 -127 -128v-295h-88v500h58l17 -56h14z" />
    <glyph glyph-name="rcommaaccent" unicode="&#x157;" horiz-adv-x="386" 
d="M305 505h31v-86c-10 2 -28 4 -41 4c-64 0 -127 -36 -127 -128v-295h-88v500h58l17 -56h14c19 22 60 61 136 61zM124 -45c36 0 55 -30 55 -72c0 -88 -79 -139 -79 -139l-25 25c28 25 40 56 45 81c-27 2 -49 25 -49 52c0 30 22 53 53 53z" />
    <glyph glyph-name="uni1E59" unicode="&#x1e59;" horiz-adv-x="386" 
d="M205 577c-36 0 -65 29 -65 64c0 36 29 64 65 64c35 0 64 -28 64 -64c0 -35 -29 -64 -64 -64zM305 505h31v-86c-10 2 -28 4 -41 4c-64 0 -127 -36 -127 -128v-295h-88v500h58l17 -56h14c19 22 60 61 136 61z" />
    <glyph glyph-name="s" unicode="s" horiz-adv-x="503" 
d="M433 143c0 -93 -75 -148 -173 -148c-115 0 -190 75 -190 166h81c0 -62 53 -94 108 -94c47 0 91 23 91 72c0 51 -49 67 -104 82c-68 18 -161 45 -161 145c0 89 73 139 165 139c112 0 173 -73 173 -142h-81c0 37 -39 71 -92 71c-46 0 -82 -26 -82 -67c0 -46 47 -62 96 -75
c76 -20 169 -46 169 -149z" />
    <glyph glyph-name="sacute" unicode="&#x15b;" horiz-adv-x="503" 
d="M268 680h107l-104 -125h-61zM433 143c0 -93 -75 -148 -173 -148c-115 0 -190 75 -190 166h81c0 -62 53 -94 108 -94c47 0 91 23 91 72c0 51 -49 67 -104 82c-68 18 -161 45 -161 145c0 89 73 139 165 139c112 0 173 -73 173 -142h-81c0 37 -39 71 -92 71
c-46 0 -82 -26 -82 -67c0 -46 47 -62 96 -75c76 -20 169 -46 169 -149z" />
    <glyph glyph-name="scaron" unicode="&#x161;" horiz-adv-x="503" 
d="M288 556h-83l-99 154h81l53 -90h13l53 90h81zM264 292c76 -20 169 -46 169 -149c0 -93 -75 -148 -173 -148c-115 0 -190 75 -190 166h81c0 -62 53 -94 108 -94c47 0 91 23 91 72c0 51 -49 67 -104 82c-68 18 -161 45 -161 145c0 89 73 139 165 139
c112 0 173 -73 173 -142h-81c0 37 -39 71 -92 71c-46 0 -82 -26 -82 -67c0 -46 47 -62 96 -75z" />
    <glyph glyph-name="scedilla" unicode="&#x15f;" horiz-adv-x="503" 
d="M433 143c0 -82 -59 -135 -140 -146l-25 -37c46 10 102 -17 102 -75c0 -50 -43 -90 -106 -90c-78 0 -106 61 -106 61l48 27s18 -31 57 -31c29 0 43 16 43 33c0 16 -13 32 -43 32c-24 0 -42 -10 -42 -10l-28 36l35 54c-97 13 -158 82 -158 164h81c0 -62 53 -94 108 -94
c47 0 91 23 91 72c0 51 -49 67 -104 82c-68 18 -161 45 -161 145c0 89 73 139 165 139c112 0 173 -73 173 -142h-81c0 37 -39 71 -92 71c-46 0 -82 -26 -82 -67c0 -46 47 -62 96 -75c76 -20 169 -46 169 -149z" />
    <glyph glyph-name="scircumflex" unicode="&#x15d;" horiz-adv-x="503" 
d="M240 646l-53 -90h-81l99 154h83l99 -154h-81l-53 90h-13zM264 292c76 -20 169 -46 169 -149c0 -93 -75 -148 -173 -148c-115 0 -190 75 -190 166h81c0 -62 53 -94 108 -94c47 0 91 23 91 72c0 51 -49 67 -104 82c-68 18 -161 45 -161 145c0 89 73 139 165 139
c112 0 173 -73 173 -142h-81c0 37 -39 71 -92 71c-46 0 -82 -26 -82 -67c0 -46 47 -62 96 -75z" />
    <glyph glyph-name="scommaaccent" unicode="&#x219;" horiz-adv-x="503" 
d="M433 143c0 -93 -75 -148 -173 -148c-115 0 -190 75 -190 166h81c0 -62 53 -94 108 -94c47 0 91 23 91 72c0 51 -49 67 -104 82c-68 18 -161 45 -161 145c0 89 73 139 165 139c112 0 173 -73 173 -142h-81c0 37 -39 71 -92 71c-46 0 -82 -26 -82 -67c0 -46 47 -62 96 -75
c76 -20 169 -46 169 -149zM264 -45c36 0 55 -30 55 -72c0 -88 -79 -139 -79 -139l-25 25c28 25 40 56 45 81c-27 2 -49 25 -49 52c0 30 22 53 53 53z" />
    <glyph glyph-name="uni1E61" unicode="&#x1e61;" horiz-adv-x="503" 
d="M246 577c-36 0 -65 29 -65 64c0 36 29 64 65 64c35 0 64 -28 64 -64c0 -35 -29 -64 -64 -64zM433 143c0 -93 -75 -148 -173 -148c-115 0 -190 75 -190 166h81c0 -62 53 -94 108 -94c47 0 91 23 91 72c0 51 -49 67 -104 82c-68 18 -161 45 -161 145c0 89 73 139 165 139
c112 0 173 -73 173 -142h-81c0 37 -39 71 -92 71c-46 0 -82 -26 -82 -67c0 -46 47 -62 96 -75c76 -20 169 -46 169 -149z" />
    <glyph glyph-name="germandbls" unicode="&#xdf;" horiz-adv-x="582" 
d="M389 384c77 -19 133 -95 133 -187c0 -118 -94 -202 -196 -202c-52 0 -99 22 -119 39l38 54s36 -17 72 -17c59 0 119 47 119 133c0 85 -57 140 -173 140h-22v76h22c65 0 127 28 127 103c0 62 -43 100 -109 100c-60 0 -118 -32 -118 -123v-500h-83v500
c0 113 64 205 197 205c118 0 201 -71 201 -174c0 -69 -37 -114 -89 -136v-11z" />
    <glyph glyph-name="t" unicode="t" horiz-adv-x="435" 
d="M337 88l38 -61c-15 -13 -42 -32 -88 -32c-87 0 -140 65 -140 156v275h-87v65h31c39 0 67 28 67 69v90h74v-150h121v-73h-120v-268c0 -64 30 -85 64 -85c20 0 31 7 40 14z" />
    <glyph glyph-name="tbar" unicode="&#x167;" horiz-adv-x="435" 
d="M337 88l38 -61c-15 -13 -42 -32 -88 -32c-87 0 -140 65 -140 156v118h-87v70h87v87h-87v65h31c39 0 67 28 67 69v90h74v-150h121v-73h-120v-88h122v-70h-122v-110c0 -64 30 -85 64 -85c20 0 31 7 40 14z" />
    <glyph glyph-name="tcaron" unicode="&#x165;" horiz-adv-x="468" 
d="M327 710h81l-56 -145h-59zM337 88l38 -61c-15 -13 -42 -32 -88 -32c-87 0 -140 65 -140 156v275h-87v65h31c39 0 67 28 67 69v90h74v-150h121v-73h-120v-268c0 -64 30 -85 64 -85c20 0 31 7 40 14z" />
    <glyph glyph-name="uni0163" unicode="&#x163;" horiz-adv-x="435" 
d="M276 -40c46 10 102 -17 102 -75c0 -50 -43 -90 -106 -90c-78 0 -106 61 -106 61l48 27s18 -31 57 -31c29 0 43 16 43 33c0 16 -13 32 -43 32c-24 0 -42 -10 -42 -10l-28 36l38 59c-58 20 -92 76 -92 149v275h-87v65h31c39 0 67 28 67 69v90h74v-150h121v-73h-120v-268
c0 -64 30 -85 64 -85c20 0 31 7 40 14l38 -61c-14 -12 -37 -28 -75 -32z" />
    <glyph glyph-name="uni021B" unicode="&#x21b;" horiz-adv-x="435" 
d="M337 88l38 -61c-15 -13 -42 -32 -88 -32c-87 0 -140 65 -140 156v275h-87v65h31c39 0 67 28 67 69v90h74v-150h121v-73h-120v-268c0 -64 30 -85 64 -85c20 0 31 7 40 14zM263 -45c36 0 55 -30 55 -72c0 -88 -79 -139 -79 -139l-25 25c28 25 40 56 45 81
c-27 2 -49 25 -49 52c0 30 22 53 53 53z" />
    <glyph glyph-name="uni1E97" unicode="&#x1e97;" horiz-adv-x="435" 
d="M108 690c-30 0 -55 25 -55 55c0 31 25 55 55 55s55 -24 55 -55c0 -30 -25 -55 -55 -55zM278 690c-30 0 -55 25 -55 55c0 31 25 55 55 55s55 -24 55 -55c0 -30 -25 -55 -55 -55zM337 88l38 -61c-15 -13 -42 -32 -88 -32c-87 0 -140 65 -140 156v275h-87v65h31
c39 0 67 28 67 69v90h74v-150h121v-73h-120v-268c0 -64 30 -85 64 -85c20 0 31 7 40 14z" />
    <glyph glyph-name="u" unicode="u" horiz-adv-x="579" 
d="M411 500h88v-500h-58l-16 53h-13c-22 -25 -65 -58 -140 -58c-129 0 -192 95 -192 234v271h88v-241c0 -92 18 -188 121 -188c76 0 122 52 122 164v265z" />
    <glyph glyph-name="uacute" unicode="&#xfa;" horiz-adv-x="579" 
d="M408 680l-104 -125h-61l58 125h107zM411 500h88v-500h-58l-16 53h-13c-22 -25 -65 -58 -140 -58c-129 0 -192 95 -192 234v271h88v-241c0 -92 18 -188 121 -188c76 0 122 52 122 164v265z" />
    <glyph glyph-name="ubreve" unicode="&#x16d;" horiz-adv-x="579" 
d="M291 573c-80 0 -132 67 -132 127h72c0 -22 20 -57 59 -57s57 35 57 57h73c0 -60 -49 -127 -129 -127zM411 500h88v-500h-58l-16 53h-13c-22 -25 -65 -58 -140 -58c-129 0 -192 95 -192 234v271h88v-241c0 -92 18 -188 121 -188c76 0 122 52 122 164v265z" />
    <glyph glyph-name="uni01D4" unicode="&#x1d4;" horiz-adv-x="579" 
d="M331 556h-83l-99 154h81l53 -90h13l53 90h81zM411 500h88v-500h-58l-16 53h-13c-22 -25 -65 -58 -140 -58c-129 0 -192 95 -192 234v271h88v-241c0 -92 18 -188 121 -188c76 0 122 52 122 164v265z" />
    <glyph glyph-name="ucircumflex" unicode="&#xfb;" horiz-adv-x="579" 
d="M283 646l-53 -90h-81l99 154h83l99 -154h-81l-53 90h-13zM411 500h88v-500h-58l-16 53h-13c-22 -25 -65 -58 -140 -58c-129 0 -192 95 -192 234v271h88v-241c0 -92 18 -188 121 -188c76 0 122 52 122 164v265z" />
    <glyph glyph-name="udieresis" unicode="&#xfc;" horiz-adv-x="579" 
d="M205 551c-30 0 -55 25 -55 55c0 31 25 55 55 55s55 -24 55 -55c0 -30 -25 -55 -55 -55zM375 551c-30 0 -55 25 -55 55c0 31 25 55 55 55s55 -24 55 -55c0 -30 -25 -55 -55 -55zM411 500h88v-500h-58l-16 53h-13c-22 -25 -65 -58 -140 -58c-129 0 -192 95 -192 234v271h88
v-241c0 -92 18 -188 121 -188c76 0 122 52 122 164v265z" />
    <glyph glyph-name="ugrave" unicode="&#xf9;" horiz-adv-x="579" 
d="M337 555h-61l-104 125h107zM411 500h88v-500h-58l-16 53h-13c-22 -25 -65 -58 -140 -58c-129 0 -192 95 -192 234v271h88v-241c0 -92 18 -188 121 -188c76 0 122 52 122 164v265z" />
    <glyph glyph-name="uhungarumlaut" unicode="&#x171;" horiz-adv-x="579" 
d="M345 680l-94 -125h-67l68 125h93zM381 555h-67l68 125h93zM411 500h88v-500h-58l-16 53h-13c-22 -25 -65 -58 -140 -58c-129 0 -192 95 -192 234v271h88v-241c0 -92 18 -188 121 -188c76 0 122 52 122 164v265z" />
    <glyph glyph-name="umacron" unicode="&#x16b;" horiz-adv-x="579" 
d="M455 650v-70h-330v70h330zM411 500h88v-500h-58l-16 53h-13c-22 -25 -65 -58 -140 -58c-129 0 -192 95 -192 234v271h88v-241c0 -92 18 -188 121 -188c76 0 122 52 122 164v265z" />
    <glyph glyph-name="uogonek" unicode="&#x173;" horiz-adv-x="579" 
d="M527 -135l3 -60s-22 -11 -51 -11c-52 0 -109 36 -109 104c0 62 47 98 68 111l-13 44h-13c-22 -25 -65 -58 -140 -58c-129 0 -192 95 -192 234v271h88v-241c0 -92 18 -188 121 -188c76 0 122 52 122 164v265h88v-500s-60 -32 -60 -86s63 -60 88 -49z" />
    <glyph glyph-name="uring" unicode="&#x16f;" horiz-adv-x="579" 
d="M290 535c-53 0 -96 43 -96 95s43 95 96 95c52 0 96 -43 96 -95s-44 -95 -96 -95zM290 669c-22 0 -38 -18 -38 -39s16 -39 38 -39c21 0 38 18 38 39s-17 39 -38 39zM411 500h88v-500h-58l-16 53h-13c-22 -25 -65 -58 -140 -58c-129 0 -192 95 -192 234v271h88v-241
c0 -92 18 -188 121 -188c76 0 122 52 122 164v265z" />
    <glyph glyph-name="utilde" unicode="&#x169;" horiz-adv-x="579" 
d="M232 594c-38 4 -54 -35 -54 -35l-53 23s41 100 125 85c42 -8 66 -39 97 -43c38 -5 55 35 55 35l53 -24s-38 -101 -125 -84c-43 8 -67 39 -98 43zM411 500h88v-500h-58l-16 53h-13c-22 -25 -65 -58 -140 -58c-129 0 -192 95 -192 234v271h88v-241c0 -92 18 -188 121 -188
c76 0 122 52 122 164v265z" />
    <glyph glyph-name="v" unicode="v" horiz-adv-x="576" 
d="M424 500h92l-162 -500h-132l-162 500h92l130 -428h12z" />
    <glyph glyph-name="uni1E7D" unicode="&#x1e7d;" horiz-adv-x="576" 
d="M230 594c-38 4 -54 -35 -54 -35l-53 23s41 100 125 85c42 -8 66 -39 97 -43c38 -5 55 35 55 35l53 -24s-38 -101 -125 -84c-43 8 -67 39 -98 43zM424 500h92l-162 -500h-132l-162 500h92l130 -428h12z" />
    <glyph glyph-name="w" unicode="w" horiz-adv-x="792" 
d="M645 500h87l-119 -500h-132l-79 340h-12l-79 -340h-132l-119 500h87l93 -421h12l89 381h110l90 -381h11z" />
    <glyph glyph-name="wacute" unicode="&#x1e83;" horiz-adv-x="792" 
d="M534 680l-104 -125h-61l58 125h107zM645 500h87l-119 -500h-132l-79 340h-12l-79 -340h-132l-119 500h87l93 -421h12l89 381h110l90 -381h11z" />
    <glyph glyph-name="wcircumflex" unicode="&#x175;" horiz-adv-x="792" 
d="M400 646l-53 -90h-81l99 154h83l99 -154h-81l-53 90h-13zM645 500h87l-119 -500h-132l-79 340h-12l-79 -340h-132l-119 500h87l93 -421h12l89 381h110l90 -381h11z" />
    <glyph glyph-name="wdieresis" unicode="&#x1e85;" horiz-adv-x="792" 
d="M321 551c-30 0 -55 25 -55 55c0 31 25 55 55 55s55 -24 55 -55c0 -30 -25 -55 -55 -55zM491 551c-30 0 -55 25 -55 55c0 31 25 55 55 55s55 -24 55 -55c0 -30 -25 -55 -55 -55zM645 500h87l-119 -500h-132l-79 340h-12l-79 -340h-132l-119 500h87l93 -421h12l89 381h110
l90 -381h11z" />
    <glyph glyph-name="wgrave" unicode="&#x1e81;" horiz-adv-x="792" 
d="M456 555h-61l-104 125h107zM645 500h87l-119 -500h-132l-79 340h-12l-79 -340h-132l-119 500h87l93 -421h12l89 381h110l90 -381h11z" />
    <glyph glyph-name="uni1E98" unicode="&#x1e98;" horiz-adv-x="792" 
d="M406 535c-53 0 -96 43 -96 95s43 95 96 95c52 0 96 -43 96 -95s-44 -95 -96 -95zM406 669c-22 0 -38 -18 -38 -39s16 -39 38 -39c21 0 38 18 38 39s-17 39 -38 39zM645 500h87l-119 -500h-132l-79 340h-12l-79 -340h-132l-119 500h87l93 -421h12l89 381h110l90 -381h11z
" />
    <glyph glyph-name="x" unicode="x" horiz-adv-x="587" 
d="M420 0l-119 189h-14l-120 -189h-103l170 260l-155 240h100l109 -170h12l108 170h100l-155 -240l170 -260h-103z" />
    <glyph glyph-name="uni1E8D" unicode="&#x1e8d;" horiz-adv-x="587" 
d="M209 551c-30 0 -55 25 -55 55c0 31 25 55 55 55s55 -24 55 -55c0 -30 -25 -55 -55 -55zM379 551c-30 0 -55 25 -55 55c0 31 25 55 55 55s55 -24 55 -55c0 -30 -25 -55 -55 -55zM420 0l-119 189h-14l-120 -189h-103l170 260l-155 240h100l109 -170h12l108 170h100
l-155 -240l170 -260h-103z" />
    <glyph glyph-name="y" unicode="y" horiz-adv-x="590" 
d="M450 500h90l-184 -519c-25 -74 -56 -186 -178 -186c-47 0 -89 17 -103 34l39 61c7 -5 29 -19 60 -19c53 0 67 42 84 88l15 41h-41l-182 500h91l151 -414h11z" />
    <glyph glyph-name="yacute" unicode="&#xfd;" horiz-adv-x="590" 
d="M413 680l-104 -125h-61l58 125h107zM450 500h90l-184 -519c-25 -74 -56 -186 -178 -186c-47 0 -89 17 -103 34l39 61c7 -5 29 -19 60 -19c53 0 67 42 84 88l15 41h-41l-182 500h91l151 -414h11z" />
    <glyph glyph-name="ycircumflex" unicode="&#x177;" horiz-adv-x="590" 
d="M283 646l-53 -90h-81l99 154h83l99 -154h-81l-53 90h-13zM450 500h90l-184 -519c-25 -74 -56 -186 -178 -186c-47 0 -89 17 -103 34l39 61c7 -5 29 -19 60 -19c53 0 67 42 84 88l15 41h-41l-182 500h91l151 -414h11z" />
    <glyph glyph-name="ydieresis" unicode="&#xff;" horiz-adv-x="590" 
d="M207 551c-30 0 -55 25 -55 55c0 31 25 55 55 55s55 -24 55 -55c0 -30 -25 -55 -55 -55zM377 551c-30 0 -55 25 -55 55c0 31 25 55 55 55s55 -24 55 -55c0 -30 -25 -55 -55 -55zM450 500h90l-184 -519c-25 -74 -56 -186 -178 -186c-47 0 -89 17 -103 34l39 61
c7 -5 29 -19 60 -19c53 0 67 42 84 88l15 41h-41l-182 500h91l151 -414h11z" />
    <glyph glyph-name="ygrave" unicode="&#x1ef3;" horiz-adv-x="590" 
d="M341 555h-61l-104 125h107zM450 500h90l-184 -519c-25 -74 -56 -186 -178 -186c-47 0 -89 17 -103 34l39 61c7 -5 29 -19 60 -19c53 0 67 42 84 88l15 41h-41l-182 500h91l151 -414h11z" />
    <glyph glyph-name="uni0233" unicode="&#x233;" horiz-adv-x="590" 
d="M458 650v-70h-330v70h330zM450 500h90l-184 -519c-25 -74 -56 -186 -178 -186c-47 0 -89 17 -103 34l39 61c7 -5 29 -19 60 -19c53 0 67 42 84 88l15 41h-41l-182 500h91l151 -414h11z" />
    <glyph glyph-name="uni1E99" unicode="&#x1e99;" horiz-adv-x="590" 
d="M290 535c-53 0 -96 43 -96 95s43 95 96 95c52 0 96 -43 96 -95s-44 -95 -96 -95zM290 669c-22 0 -38 -18 -38 -39s16 -39 38 -39c21 0 38 18 38 39s-17 39 -38 39zM450 500h90l-184 -519c-25 -74 -56 -186 -178 -186c-47 0 -89 17 -103 34l39 61c7 -5 29 -19 60 -19
c53 0 67 42 84 88l15 41h-41l-182 500h91l151 -414h11z" />
    <glyph glyph-name="uni1EF9" unicode="&#x1ef9;" horiz-adv-x="590" 
d="M236 594c-38 4 -54 -35 -54 -35l-53 23s41 100 125 85c42 -8 66 -39 97 -43c38 -5 55 35 55 35l53 -24s-38 -101 -125 -84c-43 8 -67 39 -98 43zM450 500h90l-184 -519c-25 -74 -56 -186 -178 -186c-47 0 -89 17 -103 34l39 61c7 -5 29 -19 60 -19c53 0 67 42 84 88
l15 41h-41l-182 500h91l151 -414h11z" />
    <glyph glyph-name="y.ss02" horiz-adv-x="589" 
d="M431 500h88v-480c0 -96 -44 -225 -228 -225c-157 0 -221 95 -221 164h83s16 -84 134 -84c87 0 149 45 149 145v42c-12 -20 -54 -67 -151 -67c-139 0 -195 95 -195 234v271h88v-241c0 -133 28 -184 119 -184c79 0 134 38 134 140v285z" />
    <glyph glyph-name="yacute.ss02" horiz-adv-x="589" 
d="M426 680l-104 -125h-61l58 125h107zM431 500h88v-480c0 -96 -44 -225 -228 -225c-157 0 -221 95 -221 164h83s16 -84 134 -84c87 0 149 45 149 145v42c-12 -20 -54 -67 -151 -67c-139 0 -195 95 -195 234v271h88v-241c0 -133 28 -184 119 -184c79 0 134 38 134 140v285z
" />
    <glyph glyph-name="ycircumflex.ss02" horiz-adv-x="589" 
d="M295 646l-53 -90h-81l99 154h83l99 -154h-81l-53 90h-13zM431 500h88v-480c0 -96 -44 -225 -228 -225c-157 0 -221 95 -221 164h83s16 -84 134 -84c87 0 149 45 149 145v42c-12 -20 -54 -67 -151 -67c-139 0 -195 95 -195 234v271h88v-241c0 -133 28 -184 119 -184
c79 0 134 38 134 140v285z" />
    <glyph glyph-name="ydieresis.ss02" horiz-adv-x="589" 
d="M219 551c-30 0 -55 25 -55 55c0 31 25 55 55 55s55 -24 55 -55c0 -30 -25 -55 -55 -55zM389 551c-30 0 -55 25 -55 55c0 31 25 55 55 55s55 -24 55 -55c0 -30 -25 -55 -55 -55zM431 500h88v-480c0 -96 -44 -225 -228 -225c-157 0 -221 95 -221 164h83s16 -84 134 -84
c87 0 149 45 149 145v42c-12 -20 -54 -67 -151 -67c-139 0 -195 95 -195 234v271h88v-241c0 -133 28 -184 119 -184c79 0 134 38 134 140v285z" />
    <glyph glyph-name="ygrave.ss02" horiz-adv-x="589" 
d="M349 555h-61l-104 125h107zM431 500h88v-480c0 -96 -44 -225 -228 -225c-157 0 -221 95 -221 164h83s16 -84 134 -84c87 0 149 45 149 145v42c-12 -20 -54 -67 -151 -67c-139 0 -195 95 -195 234v271h88v-241c0 -133 28 -184 119 -184c79 0 134 38 134 140v285z" />
    <glyph glyph-name="uni0233.ss02" horiz-adv-x="589" 
d="M463 650v-70h-330v70h330zM431 500h88v-480c0 -96 -44 -225 -228 -225c-157 0 -221 95 -221 164h83s16 -84 134 -84c87 0 149 45 149 145v42c-12 -20 -54 -67 -151 -67c-139 0 -195 95 -195 234v271h88v-241c0 -133 28 -184 119 -184c79 0 134 38 134 140v285z" />
    <glyph glyph-name="uni1E99.ss02" horiz-adv-x="589" 
d="M304 535c-53 0 -96 43 -96 95s43 95 96 95c52 0 96 -43 96 -95s-44 -95 -96 -95zM304 669c-22 0 -38 -18 -38 -39s16 -39 38 -39c21 0 38 18 38 39s-17 39 -38 39zM431 500h88v-480c0 -96 -44 -225 -228 -225c-157 0 -221 95 -221 164h83s16 -84 134 -84
c87 0 149 45 149 145v42c-12 -20 -54 -67 -151 -67c-139 0 -195 95 -195 234v271h88v-241c0 -133 28 -184 119 -184c79 0 134 38 134 140v285z" />
    <glyph glyph-name="uni1EF9.ss02" horiz-adv-x="589" 
d="M240 594c-38 4 -54 -35 -54 -35l-53 23s41 100 125 85c42 -8 66 -39 97 -43c38 -5 55 35 55 35l53 -24s-38 -101 -125 -84c-43 8 -67 39 -98 43zM431 500h88v-480c0 -96 -44 -225 -228 -225c-157 0 -221 95 -221 164h83s16 -84 134 -84c87 0 149 45 149 145v42
c-12 -20 -54 -67 -151 -67c-139 0 -195 95 -195 234v271h88v-241c0 -133 28 -184 119 -184c79 0 134 38 134 140v285z" />
    <glyph glyph-name="z" unicode="z" horiz-adv-x="520" 
d="M184 75h266v-75h-380v46l256 379h-246v75h360v-46z" />
    <glyph glyph-name="zacute" unicode="&#x17a;" horiz-adv-x="520" 
d="M379 680l-104 -125h-61l58 125h107zM184 75h266v-75h-380v46l256 379h-246v75h360v-46z" />
    <glyph glyph-name="zcaron" unicode="&#x17e;" horiz-adv-x="520" 
d="M300 556h-83l-99 154h81l53 -90h13l53 90h81zM184 75h266v-75h-380v46l256 379h-246v75h360v-46z" />
    <glyph glyph-name="zdotaccent" unicode="&#x17c;" horiz-adv-x="520" 
d="M259 577c-36 0 -65 29 -65 64c0 36 29 64 65 64c35 0 64 -28 64 -64c0 -35 -29 -64 -64 -64zM184 75h266v-75h-380v46l256 379h-246v75h360v-46z" />
    <glyph glyph-name="zero" unicode="0" horiz-adv-x="604" 
d="M303 -5c-139 0 -235 131 -235 326s96 325 234 325s239 -130 239 -326c0 -195 -100 -325 -238 -325zM302 81c97 0 153 106 153 238c0 135 -57 241 -153 241c-95 0 -147 -106 -147 -240c0 -135 52 -239 147 -239z" />
    <glyph glyph-name="one" unicode="1" horiz-adv-x="361" 
d="M187 0v468h-122v71h73c32 0 55 23 55 56v45h82l1 -640h-89z" />
    <glyph glyph-name="two" unicode="2" horiz-adv-x="570" 
d="M322 238c-88 -55 -148 -95 -148 -154h311v-84h-405v51c0 150 90 195 169 240c81 46 151 87 151 164c0 59 -40 105 -106 105c-83 0 -124 -73 -124 -125h-89c0 87 62 211 212 211c112 0 197 -69 197 -186c0 -124 -97 -177 -168 -222z" />
    <glyph glyph-name="three" unicode="3" horiz-adv-x="549" 
d="M380 339c54 -22 94 -81 94 -152c0 -100 -79 -192 -211 -192c-127 0 -208 85 -208 184h85c4 -45 42 -102 122 -102c81 0 120 58 120 116c0 54 -35 109 -119 109h-33v75h29c61 0 105 38 105 94c0 50 -35 92 -100 92c-53 0 -96 -28 -102 -73h-83c0 92 87 156 187 156
c106 0 184 -70 184 -164c0 -59 -31 -107 -70 -131v-12z" />
    <glyph glyph-name="four" unicode="4" horiz-adv-x="580" 
d="M413 209h107v-79h-107v-130h-86v130h-282v61l233 450h135v-432zM148 209h179v337h-9z" />
    <glyph glyph-name="five" unicode="5" horiz-adv-x="563" 
d="M278 427c124 0 210 -81 210 -217c0 -139 -91 -215 -211 -215c-146 0 -212 113 -212 200h87c0 -52 46 -118 128 -118c71 0 122 49 122 134c0 73 -38 139 -133 139c-75 0 -108 -41 -120 -64l-71 23l30 332h350v-84h-278l-18 -164c28 23 70 34 116 34z" />
    <glyph glyph-name="six" unicode="6" horiz-adv-x="550" 
d="M282 409c97 0 198 -80 198 -208s-99 -206 -210 -206c-110 0 -210 76 -210 209c0 44 11 77 24 105c31 67 142 255 188 332h105l-157 -247s20 15 62 15zM270 77c71 0 122 49 122 124s-52 125 -122 125s-122 -50 -122 -125s52 -124 122 -124z" />
    <glyph glyph-name="seven" unicode="7" horiz-adv-x="505" 
d="M50 641h405v-51c-184 -170 -223 -353 -233 -590h-89c10 299 100 474 194 557h-277v84z" />
    <glyph glyph-name="eight" unicode="8" horiz-adv-x="582" 
d="M393 347c63 -19 114 -80 114 -164c0 -111 -87 -188 -217 -188s-215 77 -215 187c0 88 54 146 114 165v8c-50 21 -85 73 -85 133c0 94 87 158 187 158s187 -64 187 -158c0 -60 -35 -112 -85 -133v-8zM291 573c-58 0 -101 -36 -101 -91c0 -61 52 -95 100 -95s102 34 102 95
c0 55 -43 91 -101 91zM289 69c83 0 127 64 127 116c0 50 -40 115 -126 115c-87 0 -124 -66 -124 -116c0 -51 39 -115 123 -115z" />
    <glyph glyph-name="nine" unicode="9" horiz-adv-x="530" 
d="M258 232c-97 0 -198 80 -198 208s99 206 210 206c110 0 210 -76 210 -209c0 -44 -11 -77 -24 -105c-31 -67 -142 -255 -188 -332h-105l157 247s-20 -15 -62 -15zM270 564c-71 0 -122 -49 -122 -124s52 -125 122 -125s122 50 122 125s-52 124 -122 124z" />
    <glyph glyph-name="zero.lf" horiz-adv-x="604" 
d="M303 -5c-139 0 -235 131 -235 326s96 325 234 325s239 -130 239 -326c0 -195 -100 -325 -238 -325zM302 81c97 0 153 106 153 238c0 135 -57 241 -153 241c-95 0 -147 -106 -147 -240c0 -135 52 -239 147 -239z" />
    <glyph glyph-name="one.lf" horiz-adv-x="361" 
d="M187 0v468h-122v71h73c32 0 55 23 55 56v45h82l1 -640h-89z" />
    <glyph glyph-name="two.lf" horiz-adv-x="570" 
d="M322 238c-88 -55 -148 -95 -148 -154h311v-84h-405v51c0 150 90 195 169 240c81 46 151 87 151 164c0 59 -40 105 -106 105c-83 0 -124 -73 -124 -125h-89c0 87 62 211 212 211c112 0 197 -69 197 -186c0 -124 -97 -177 -168 -222z" />
    <glyph glyph-name="three.lf" horiz-adv-x="549" 
d="M380 339c54 -22 94 -81 94 -152c0 -100 -79 -192 -211 -192c-127 0 -208 85 -208 184h85c4 -45 42 -102 122 -102c81 0 120 58 120 116c0 54 -35 109 -119 109h-33v75h29c61 0 105 38 105 94c0 50 -35 92 -100 92c-53 0 -96 -28 -102 -73h-83c0 92 87 156 187 156
c106 0 184 -70 184 -164c0 -59 -31 -107 -70 -131v-12z" />
    <glyph glyph-name="four.lf" horiz-adv-x="580" 
d="M413 209h107v-79h-107v-130h-86v130h-282v61l233 450h135v-432zM148 209h179v337h-9z" />
    <glyph glyph-name="five.lf" horiz-adv-x="563" 
d="M278 427c124 0 210 -81 210 -217c0 -139 -91 -215 -211 -215c-146 0 -212 113 -212 200h87c0 -52 46 -118 128 -118c71 0 122 49 122 134c0 73 -38 139 -133 139c-75 0 -108 -41 -120 -64l-71 23l30 332h350v-84h-278l-18 -164c28 23 70 34 116 34z" />
    <glyph glyph-name="six.lf" horiz-adv-x="550" 
d="M282 409c97 0 198 -80 198 -208s-99 -206 -210 -206c-110 0 -210 76 -210 209c0 44 11 77 24 105c31 67 142 255 188 332h105l-157 -247s20 15 62 15zM270 77c71 0 122 49 122 124s-52 125 -122 125s-122 -50 -122 -125s52 -124 122 -124z" />
    <glyph glyph-name="seven.lf" horiz-adv-x="505" 
d="M50 641h405v-51c-184 -170 -223 -353 -233 -590h-89c10 299 100 474 194 557h-277v84z" />
    <glyph glyph-name="eight.lf" horiz-adv-x="582" 
d="M393 347c63 -19 114 -80 114 -164c0 -111 -87 -188 -217 -188s-215 77 -215 187c0 88 54 146 114 165v8c-50 21 -85 73 -85 133c0 94 87 158 187 158s187 -64 187 -158c0 -60 -35 -112 -85 -133v-8zM291 573c-58 0 -101 -36 -101 -91c0 -61 52 -95 100 -95s102 34 102 95
c0 55 -43 91 -101 91zM289 69c83 0 127 64 127 116c0 50 -40 115 -126 115c-87 0 -124 -66 -124 -116c0 -51 39 -115 123 -115z" />
    <glyph glyph-name="nine.lf" horiz-adv-x="530" 
d="M258 232c-97 0 -198 80 -198 208s99 206 210 206c110 0 210 -76 210 -209c0 -44 -11 -77 -24 -105c-31 -67 -142 -255 -188 -332h-105l157 247s-20 -15 -62 -15zM270 564c-71 0 -122 -49 -122 -124s52 -125 122 -125s122 50 122 125s-52 124 -122 124z" />
    <glyph glyph-name="zero.case" horiz-adv-x="624" 
d="M313 -5c-159 0 -253 151 -253 356s94 354 252 354s252 -149 252 -355c0 -205 -93 -355 -251 -355zM312 82c107 0 161 135 161 267c0 135 -55 269 -161 269c-105 0 -160 -134 -160 -268c0 -135 55 -268 160 -268z" />
    <glyph glyph-name="one.case" horiz-adv-x="376" 
d="M202 0v516h-137v73h88c32 0 55 23 55 56v55h82l1 -700h-89z" />
    <glyph glyph-name="two.case" horiz-adv-x="590" 
d="M332 278c-82 -62 -155 -117 -155 -193h328v-85h-425v51c0 149 99 230 198 296c53 36 141 87 141 166c0 55 -42 106 -117 106c-83 0 -132 -63 -132 -119h-89c0 91 70 205 218 205c120 0 211 -74 211 -189c0 -122 -101 -180 -178 -238z" />
    <glyph glyph-name="three.case" horiz-adv-x="572" 
d="M396 374c65 -29 101 -99 101 -172c0 -114 -91 -207 -221 -207c-123 0 -221 82 -221 190h86c3 -53 59 -106 134 -106c70 0 130 46 130 128c0 78 -53 130 -137 130h-33v79h29c61 0 123 38 123 105c0 54 -39 101 -105 101c-55 0 -104 -33 -109 -87h-81c0 108 88 170 192 170
c110 0 189 -69 189 -176c0 -75 -38 -123 -77 -146v-9z" />
    <glyph glyph-name="four.case" horiz-adv-x="590" 
d="M423 239h107v-79h-107v-160h-86v160h-292v61l243 479h135v-461zM148 239h189v363h-10z" />
    <glyph glyph-name="five.case" horiz-adv-x="586" 
d="M297 476c134 0 214 -118 214 -245c0 -136 -88 -236 -219 -236c-143 0 -227 113 -227 200h87c5 -51 56 -116 142 -116c83 0 131 67 131 155c0 69 -33 159 -134 159c-81 0 -121 -51 -132 -86l-71 23l30 370h350v-84h-275l-16 -177c28 23 70 37 120 37z" />
    <glyph glyph-name="six.case" horiz-adv-x="570" 
d="M292 448c103 0 208 -93 208 -225c0 -131 -102 -228 -225 -228c-125 0 -215 100 -215 225c0 46 12 106 36 154c28 56 144 239 196 326h105l-171 -267s25 15 66 15zM280 79c74 0 130 60 130 144c0 82 -54 141 -128 141s-133 -58 -133 -142c0 -83 57 -143 131 -143z" />
    <glyph glyph-name="seven.case" horiz-adv-x="525" 
d="M50 700h425v-51c-200 -185 -243 -412 -253 -649h-89c10 302 87 512 204 616h-287v84z" />
    <glyph glyph-name="eight.case" horiz-adv-x="602" 
d="M418 372c63 -20 109 -89 109 -171c0 -113 -87 -206 -227 -206s-225 93 -225 205c0 85 49 152 109 173v9c-50 24 -80 87 -80 146c0 99 87 177 197 177s197 -78 197 -177c0 -58 -30 -121 -80 -146v-10zM301 628c-60 0 -108 -43 -108 -105c0 -61 47 -107 107 -107
s109 46 109 108c0 61 -48 104 -108 104zM299 76c88 0 137 67 137 127c0 62 -54 125 -136 125c-84 0 -134 -65 -134 -127c0 -58 45 -125 133 -125z" />
    <glyph glyph-name="nine.case" horiz-adv-x="550" 
d="M268 247c-103 0 -208 93 -208 225c0 131 102 228 225 228c125 0 215 -100 215 -225c0 -46 -12 -106 -36 -154c-28 -56 -144 -239 -196 -326h-105l171 267s-25 -15 -66 -15zM280 616c-74 0 -130 -60 -130 -144c0 -82 54 -141 128 -141s133 58 133 142
c0 83 -57 143 -131 143z" />
    <glyph glyph-name="zero.lf.case" horiz-adv-x="624" 
d="M313 -5c-159 0 -253 151 -253 356s94 354 252 354s252 -149 252 -355c0 -205 -93 -355 -251 -355zM312 82c107 0 161 135 161 267c0 135 -55 269 -161 269c-105 0 -160 -134 -160 -268c0 -135 55 -268 160 -268z" />
    <glyph glyph-name="one.lf.case" horiz-adv-x="376" 
d="M202 0v516h-137v73h88c32 0 55 23 55 56v55h82l1 -700h-89z" />
    <glyph glyph-name="two.lf.case" horiz-adv-x="590" 
d="M332 278c-82 -62 -155 -117 -155 -193h328v-85h-425v51c0 149 99 230 198 296c53 36 141 87 141 166c0 55 -42 106 -117 106c-83 0 -132 -63 -132 -119h-89c0 91 70 205 218 205c120 0 211 -74 211 -189c0 -122 -101 -180 -178 -238z" />
    <glyph glyph-name="three.lf.case" horiz-adv-x="572" 
d="M396 374c65 -29 101 -99 101 -172c0 -114 -91 -207 -221 -207c-123 0 -221 82 -221 190h86c3 -53 59 -106 134 -106c70 0 130 46 130 128c0 78 -53 130 -137 130h-33v79h29c61 0 123 38 123 105c0 54 -39 101 -105 101c-55 0 -104 -33 -109 -87h-81c0 108 88 170 192 170
c110 0 189 -69 189 -176c0 -75 -38 -123 -77 -146v-9z" />
    <glyph glyph-name="four.lf.case" horiz-adv-x="590" 
d="M423 239h107v-79h-107v-160h-86v160h-292v61l243 479h135v-461zM148 239h189v363h-10z" />
    <glyph glyph-name="five.lf.case" horiz-adv-x="586" 
d="M297 476c134 0 214 -118 214 -245c0 -136 -88 -236 -219 -236c-143 0 -227 113 -227 200h87c5 -51 56 -116 142 -116c83 0 131 67 131 155c0 69 -33 159 -134 159c-81 0 -121 -51 -132 -86l-71 23l30 370h350v-84h-275l-16 -177c28 23 70 37 120 37z" />
    <glyph glyph-name="six.lf.case" horiz-adv-x="570" 
d="M292 448c103 0 208 -93 208 -225c0 -131 -102 -228 -225 -228c-125 0 -215 100 -215 225c0 46 12 106 36 154c28 56 144 239 196 326h105l-171 -267s25 15 66 15zM280 79c74 0 130 60 130 144c0 82 -54 141 -128 141s-133 -58 -133 -142c0 -83 57 -143 131 -143z" />
    <glyph glyph-name="seven.lf.case" horiz-adv-x="525" 
d="M50 700h425v-51c-200 -185 -243 -412 -253 -649h-89c10 302 87 512 204 616h-287v84z" />
    <glyph glyph-name="eight.lf.case" horiz-adv-x="602" 
d="M418 372c63 -20 109 -89 109 -171c0 -113 -87 -206 -227 -206s-225 93 -225 205c0 85 49 152 109 173v9c-50 24 -80 87 -80 146c0 99 87 177 197 177s197 -78 197 -177c0 -58 -30 -121 -80 -146v-10zM301 628c-60 0 -108 -43 -108 -105c0 -61 47 -107 107 -107
s109 46 109 108c0 61 -48 104 -108 104zM299 76c88 0 137 67 137 127c0 62 -54 125 -136 125c-84 0 -134 -65 -134 -127c0 -58 45 -125 133 -125z" />
    <glyph glyph-name="nine.lf.case" horiz-adv-x="550" 
d="M268 247c-103 0 -208 93 -208 225c0 131 102 228 225 228c125 0 215 -100 215 -225c0 -46 -12 -106 -36 -154c-28 -56 -144 -239 -196 -326h-105l171 267s-25 -15 -66 -15zM280 616c-74 0 -130 -60 -130 -144c0 -82 54 -141 128 -141s133 58 133 142
c0 83 -57 143 -131 143z" />
    <glyph glyph-name="zero.osf" horiz-adv-x="584" 
d="M293 -5c-134 0 -233 110 -233 280s99 280 232 280s232 -110 232 -281c0 -170 -98 -279 -231 -279zM293 74c94 0 147 82 147 199s-53 203 -148 203c-94 0 -147 -86 -147 -202c0 -117 53 -200 148 -200z" />
    <glyph glyph-name="one.osf" horiz-adv-x="336" 
d="M177 0v383h-112v66h63c32 0 55 23 55 56v45h77l1 -550h-84z" />
    <glyph glyph-name="two.osf" horiz-adv-x="529" 
d="M302 218c-84 -35 -145 -61 -145 -141h298v-77h-385v51c0 127 74 177 161 215c84 36 146 63 146 125c0 52 -44 87 -105 87c-67 0 -117 -43 -117 -115h-84c0 82 60 192 197 192c105 0 191 -65 191 -162c0 -93 -78 -142 -157 -175z" />
    <glyph glyph-name="three.osf" horiz-adv-x="508" 
d="M357 290c54 -19 91 -70 91 -134c0 -90 -74 -161 -188 -161c-126 0 -200 86 -200 184h78c6 -49 38 -109 122 -109c65 0 105 36 105 90c0 47 -30 94 -122 94h-23v70h19c75 0 112 36 112 81c0 44 -36 74 -95 74c-65 0 -99 -38 -103 -72h-76c0 75 76 148 182 148
c89 0 171 -52 171 -142c0 -54 -30 -92 -73 -115v-8z" />
    <glyph glyph-name="four.osf" horiz-adv-x="543" 
d="M394 189h99v-73h-99v-116h-77v116h-267v55l227 379h117v-361zM148 189h169v278h-7z" />
    <glyph glyph-name="five.osf" horiz-adv-x="543" 
d="M281 370c104 0 192 -71 192 -185c0 -111 -84 -190 -202 -190c-131 0 -211 97 -211 180h80c4 -59 60 -105 130 -105c73 0 124 49 124 117c0 63 -45 113 -120 113c-62 0 -103 -34 -120 -64l-71 23l31 291h329v-77h-260l-17 -142c26 25 68 39 115 39z" />
    <glyph glyph-name="six.osf" horiz-adv-x="498" 
d="M257 364c91 0 181 -63 181 -182c0 -121 -94 -187 -193 -187c-102 0 -195 70 -195 189c0 61 25 112 71 182c40 61 129 184 129 184h93l-155 -204s20 18 69 18zM244 70c67 0 114 41 114 111s-48 112 -114 112s-114 -42 -114 -112s48 -111 114 -111z" />
    <glyph glyph-name="seven.osf" horiz-adv-x="485" 
d="M50 550h385v-51c-184 -170 -203 -312 -213 -499h-82c10 249 81 389 177 474h-267v76z" />
    <glyph glyph-name="eight.osf" horiz-adv-x="528" 
d="M359 297c60 -19 99 -74 99 -140c0 -84 -65 -162 -195 -162s-193 78 -193 162c0 66 38 121 98 140v7c-49 21 -76 62 -76 111c0 85 82 140 172 140s172 -55 172 -139c0 -50 -28 -91 -77 -112v-7zM264 489c-56 0 -93 -30 -93 -79c0 -54 44 -81 92 -81c46 0 94 26 94 81
c0 48 -36 79 -93 79zM265 62c78 0 113 50 113 98c0 52 -42 98 -116 98s-112 -47 -112 -97c0 -52 40 -99 115 -99z" />
    <glyph glyph-name="nine.osf" horiz-adv-x="508" 
d="M241 186c-91 0 -181 63 -181 182c0 121 94 187 193 187c102 0 195 -70 195 -189c0 -61 -25 -112 -71 -182c-40 -61 -129 -184 -129 -184h-93l155 204s-20 -18 -69 -18zM254 480c-67 0 -114 -41 -114 -111s48 -112 114 -112s114 42 114 112s-48 111 -114 111z" />
    <glyph glyph-name="zero.tf" horiz-adv-x="550" 
d="M275 646c138 0 239 -130 239 -326c0 -195 -100 -325 -238 -325c-139 0 -235 131 -235 326s96 325 234 325zM275 565c-95 0 -152 -111 -152 -245c0 -57 10 -109 29 -150l215 353c-25 27 -56 42 -92 42zM275 76c97 0 158 111 158 243c0 57 -11 110 -31 152l-216 -355
c24 -25 54 -40 89 -40z" />
    <glyph glyph-name="one.tf" horiz-adv-x="550" 
d="M341 83h130v-83h-219h-148v83h148v385h-122v71h73c32 0 55 23 55 56v45h82z" />
    <glyph glyph-name="two.tf" horiz-adv-x="550" 
d="M313 238c-88 -55 -148 -95 -148 -154h311v-84h-405v51c0 150 90 195 169 240c81 46 151 87 151 164c0 59 -40 105 -106 105c-83 0 -124 -73 -124 -125h-89c0 87 62 211 212 211c112 0 197 -69 197 -186c0 -124 -97 -177 -168 -222z" />
    <glyph glyph-name="three.tf" horiz-adv-x="551" 
d="M384 339c54 -22 94 -81 94 -152c0 -100 -79 -192 -211 -192c-127 0 -208 85 -208 184h85c4 -45 42 -102 122 -102c81 0 120 58 120 116c0 54 -35 109 -119 109h-33v75h29c61 0 105 38 105 94c0 50 -35 92 -100 92c-53 0 -96 -28 -102 -73h-83c0 92 87 156 187 156
c106 0 184 -70 184 -164c0 -59 -31 -107 -70 -131v-12z" />
    <glyph glyph-name="four.tf" horiz-adv-x="550" 
d="M403 209h107v-79h-107v-130h-86v130h-282v61l233 450h135v-432zM138 209h179v337h-9z" />
    <glyph glyph-name="five.tf" horiz-adv-x="550" 
d="M283 427c124 0 210 -81 210 -217c0 -139 -91 -215 -211 -215c-146 0 -212 113 -212 200h87c0 -52 46 -118 128 -118c71 0 122 49 122 134c0 73 -38 139 -133 139c-75 0 -108 -41 -120 -64l-71 23l30 332h350v-84h-278l-18 -164c28 23 70 34 116 34z" />
    <glyph glyph-name="six.tf" horiz-adv-x="551" 
d="M295 409c97 0 198 -80 198 -208s-99 -206 -210 -206c-110 0 -210 76 -210 209c0 44 11 77 24 105c31 67 142 255 188 332h105l-157 -247s20 15 62 15zM283 77c71 0 122 49 122 124s-52 125 -122 125s-122 -50 -122 -125s52 -124 122 -124z" />
    <glyph glyph-name="seven.tf" horiz-adv-x="550" 
d="M82 641h405v-51c-184 -170 -223 -353 -233 -590h-89c10 299 100 474 194 557h-277v84z" />
    <glyph glyph-name="eight.tf" horiz-adv-x="550" 
d="M382 347c63 -19 114 -80 114 -164c0 -111 -87 -188 -217 -188s-215 77 -215 187c0 88 54 146 114 165v8c-50 21 -85 73 -85 133c0 94 87 158 187 158s187 -64 187 -158c0 -60 -35 -112 -85 -133v-8zM280 573c-58 0 -101 -36 -101 -91c0 -61 52 -95 100 -95s102 34 102 95
c0 55 -43 91 -101 91zM278 69c83 0 127 64 127 116c0 50 -40 115 -126 115c-87 0 -124 -66 -124 -116c0 -51 39 -115 123 -115z" />
    <glyph glyph-name="nine.tf" horiz-adv-x="550" 
d="M260 232c-97 0 -198 80 -198 208s99 206 210 206c110 0 210 -76 210 -209c0 -44 -11 -77 -24 -105c-31 -67 -142 -255 -188 -332h-105l157 247s-20 -15 -62 -15zM272 564c-71 0 -122 -49 -122 -124s52 -125 122 -125s122 50 122 125s-52 124 -122 124z" />
    <glyph glyph-name="zero.tf.case" horiz-adv-x="600" 
d="M300 705c158 0 252 -149 252 -355c0 -205 -93 -355 -251 -355c-159 0 -253 151 -253 356s94 354 252 354zM300 618c-105 0 -160 -134 -160 -268c0 -57 10 -113 29 -160l229 378c-25 31 -58 50 -98 50zM300 82c107 0 161 135 161 267c0 58 -10 115 -30 162l-229 -378
c25 -31 58 -51 98 -51z" />
    <glyph glyph-name="one.tf.case" horiz-adv-x="600" 
d="M356 83h129v-83h-218h-159v83h159v433h-137v73h88c32 0 55 23 55 56v55h82z" />
    <glyph glyph-name="two.tf.case" horiz-adv-x="600" 
d="M327 278c-82 -62 -155 -117 -155 -193h328v-85h-425v51c0 149 99 230 198 296c53 36 141 87 141 166c0 55 -42 106 -117 106c-83 0 -132 -63 -132 -119h-89c0 91 70 205 218 205c120 0 211 -74 211 -189c0 -122 -101 -180 -178 -238z" />
    <glyph glyph-name="three.tf.case" horiz-adv-x="600" 
d="M404 374c65 -29 101 -99 101 -172c0 -114 -91 -207 -221 -207c-123 0 -221 82 -221 190h86c3 -53 59 -106 134 -106c70 0 130 46 130 128c0 78 -53 130 -137 130h-33v79h29c61 0 123 38 123 105c0 54 -39 101 -105 101c-55 0 -104 -33 -109 -87h-81c0 108 88 170 192 170
c110 0 189 -69 189 -176c0 -75 -38 -123 -77 -146v-9z" />
    <glyph glyph-name="four.tf.case" horiz-adv-x="600" 
d="M429 239h107v-79h-107v-160h-86v160h-292v61l243 479h135v-461zM154 239h189v363h-10z" />
    <glyph glyph-name="five.tf.case" horiz-adv-x="600" 
d="M307 476c134 0 214 -118 214 -245c0 -136 -88 -236 -219 -236c-143 0 -227 113 -227 200h87c5 -51 56 -116 142 -116c83 0 131 67 131 155c0 69 -33 159 -134 159c-81 0 -121 -51 -132 -86l-71 23l30 370h350v-84h-275l-16 -177c28 23 70 37 120 37z" />
    <glyph glyph-name="six.tf.case" horiz-adv-x="600" 
d="M310 448c103 0 208 -93 208 -225c0 -131 -102 -228 -225 -228c-125 0 -215 100 -215 225c0 46 12 106 36 154c28 56 144 239 196 326h105l-171 -267s25 15 66 15zM298 79c74 0 130 60 130 144c0 82 -54 141 -128 141s-133 -58 -133 -142c0 -83 57 -143 131 -143z" />
    <glyph glyph-name="seven.tf.case" horiz-adv-x="600" 
d="M93 700h425v-51c-200 -185 -243 -412 -253 -649h-89c10 302 87 512 204 616h-287v84z" />
    <glyph glyph-name="eight.tf.case" horiz-adv-x="600" 
d="M417 372c63 -20 109 -89 109 -171c0 -113 -87 -206 -227 -206s-225 93 -225 205c0 85 49 152 109 173v9c-50 24 -80 87 -80 146c0 99 87 177 197 177s197 -78 197 -177c0 -58 -30 -121 -80 -146v-10zM300 628c-60 0 -108 -43 -108 -105c0 -61 47 -107 107 -107
s109 46 109 108c0 61 -48 104 -108 104zM298 76c88 0 137 67 137 127c0 62 -54 125 -136 125c-84 0 -134 -65 -134 -127c0 -58 45 -125 133 -125z" />
    <glyph glyph-name="nine.tf.case" horiz-adv-x="600" 
d="M277 247c-103 0 -208 93 -208 225c0 131 102 228 225 228c125 0 215 -100 215 -225c0 -46 -12 -106 -36 -154c-28 -56 -144 -239 -196 -326h-105l171 267s-25 -15 -66 -15zM289 616c-74 0 -130 -60 -130 -144c0 -82 54 -141 128 -141s133 58 133 142
c0 83 -57 143 -131 143z" />
    <glyph glyph-name="zero.tosf" horiz-adv-x="510" 
d="M255 555c133 0 232 -110 232 -281c0 -170 -98 -279 -231 -279c-134 0 -233 110 -233 280s99 280 232 280zM255 476c-94 0 -147 -86 -147 -202c0 -54 11 -101 33 -136l192 314c-22 15 -48 24 -78 24zM256 74c94 0 147 82 147 199c0 54 -11 101 -33 137l-191 -313
c22 -15 47 -23 77 -23z" />
    <glyph glyph-name="one.tosf" horiz-adv-x="510" 
d="M328 73h111v-73h-195h-132v73h132v310h-112v66h63c32 0 55 23 55 56v45h77z" />
    <glyph glyph-name="two.tosf" horiz-adv-x="510" 
d="M287 218c-84 -35 -145 -61 -145 -141h298v-77h-385v51c0 127 74 177 161 215c84 36 146 63 146 125c0 52 -44 87 -105 87c-67 0 -117 -43 -117 -115h-84c0 82 60 192 197 192c105 0 191 -65 191 -162c0 -93 -78 -142 -157 -175z" />
    <glyph glyph-name="three.tosf" horiz-adv-x="508" 
d="M346 290c54 -19 91 -70 91 -134c0 -90 -74 -161 -188 -161c-126 0 -200 86 -200 184h78c6 -49 38 -109 122 -109c65 0 105 36 105 90c0 47 -30 94 -122 94h-23v70h19c75 0 112 36 112 81c0 44 -36 74 -95 74c-65 0 -99 -38 -103 -72h-76c0 75 76 148 182 148
c89 0 171 -52 171 -142c0 -54 -30 -92 -73 -115v-8z" />
    <glyph glyph-name="four.tosf" horiz-adv-x="510" 
d="M380 189h99v-73h-99v-116h-77v116h-267v55l227 379h117v-361zM134 189h169v278h-7z" />
    <glyph glyph-name="five.tosf" horiz-adv-x="510" 
d="M271 370c104 0 192 -71 192 -185c0 -111 -84 -190 -202 -190c-131 0 -211 97 -211 180h80c4 -59 60 -105 130 -105c73 0 124 49 124 117c0 63 -45 113 -120 113c-62 0 -103 -34 -120 -64l-71 23l31 291h329v-77h-260l-17 -142c26 25 68 39 115 39z" />
    <glyph glyph-name="six.tosf" horiz-adv-x="510" 
d="M270 364c91 0 181 -63 181 -182c0 -121 -94 -187 -193 -187c-102 0 -195 70 -195 189c0 61 25 112 71 182c40 61 129 184 129 184h93l-155 -204s20 18 69 18zM257 70c67 0 114 41 114 111s-48 112 -114 112s-114 -42 -114 -112s48 -111 114 -111z" />
    <glyph glyph-name="seven.tosf" horiz-adv-x="510" 
d="M69 550h385v-51c-184 -170 -203 -312 -213 -499h-82c10 249 81 389 177 474h-267v76z" />
    <glyph glyph-name="eight.tosf" horiz-adv-x="510" 
d="M350 297c60 -19 99 -74 99 -140c0 -84 -65 -162 -195 -162s-193 78 -193 162c0 66 38 121 98 140v7c-49 21 -76 62 -76 111c0 85 82 140 172 140s172 -55 172 -139c0 -50 -28 -91 -77 -112v-7zM255 489c-56 0 -93 -30 -93 -79c0 -54 44 -81 92 -81c46 0 94 26 94 81
c0 48 -36 79 -93 79zM256 62c78 0 113 50 113 98c0 52 -42 98 -116 98s-112 -47 -112 -97c0 -52 40 -99 115 -99z" />
    <glyph glyph-name="nine.tosf" horiz-adv-x="510" 
d="M239 186c-91 0 -181 63 -181 182c0 121 94 187 193 187c102 0 195 -70 195 -189c0 -61 -25 -112 -71 -182c-40 -61 -129 -184 -129 -184h-93l155 204s-20 -18 -69 -18zM252 480c-67 0 -114 -41 -114 -111s48 -112 114 -112s114 42 114 112s-48 111 -114 111z" />
    <glyph glyph-name="uni2780" unicode="&#x2780;" 
d="M415 -5c-196 0 -355 159 -355 355s159 355 355 355c195 0 355 -159 355 -355s-160 -355 -355 -355zM415 69c154 0 281 126 281 281s-127 281 -281 281c-155 0 -281 -126 -281 -281s126 -281 281 -281zM397 155v258h-89v56h55c22 0 38 16 38 39v32h66l1 -385h-71z" />
    <glyph glyph-name="uni2781" unicode="&#x2781;" 
d="M415 -5c-196 0 -355 159 -355 355s159 355 355 355c195 0 355 -159 355 -355s-160 -355 -355 -355zM415 69c154 0 281 126 281 281s-127 281 -281 281c-155 0 -281 -126 -281 -281s126 -281 281 -281zM440 315c-52 -31 -84 -52 -84 -81h191v-66h-269v36
c0 83 62 122 113 152c43 26 90 48 90 87c0 29 -25 48 -61 48c-44 0 -71 -27 -71 -69h-70c0 57 40 134 138 134c74 0 133 -44 133 -111c0 -66 -56 -98 -110 -130z" />
    <glyph glyph-name="uni2782" unicode="&#x2782;" 
d="M415 -5c-196 0 -355 159 -355 355s159 355 355 355c195 0 355 -159 355 -355s-160 -355 -355 -355zM415 69c154 0 281 126 281 281s-127 281 -281 281c-155 0 -281 -126 -281 -281s126 -281 281 -281zM489 360c36 -11 64 -44 64 -90c0 -63 -52 -116 -135 -116
c-85 0 -138 55 -138 128h67c3 -35 26 -66 72 -66c42 0 65 25 65 57s-22 58 -75 58h-26v57h23c54 0 67 27 67 50c0 29 -22 44 -56 44c-36 0 -56 -16 -59 -40h-66c0 58 54 103 127 103c67 0 121 -38 121 -98c0 -35 -18 -64 -51 -81v-6z" />
    <glyph glyph-name="uni2783" unicode="&#x2783;" 
d="M415 -5c-196 0 -355 159 -355 355s159 355 355 355c195 0 355 -159 355 -355s-160 -355 -355 -355zM415 69c154 0 281 126 281 281s-127 281 -281 281c-155 0 -281 -126 -281 -281s126 -281 281 -281zM496 296h59v-59h-59v-81h-64v81h-187v47l159 257h92v-245zM327 296
h105v156h-9z" />
    <glyph glyph-name="uni2784" unicode="&#x2784;" 
d="M415 -5c-196 0 -355 159 -355 355s159 355 355 355c195 0 355 -159 355 -355s-160 -355 -355 -355zM415 69c154 0 281 126 281 281s-127 281 -281 281c-155 0 -281 -126 -281 -281s126 -281 281 -281zM427 416c70 0 133 -53 133 -133c0 -78 -59 -133 -142 -133
c-91 0 -147 67 -147 125h68c6 -41 44 -61 78 -61c40 0 76 28 76 71c0 39 -31 70 -78 70c-32 0 -56 -15 -68 -37l-60 16l22 204h230v-66h-174l-10 -77c20 13 45 21 72 21z" />
    <glyph glyph-name="uni2785" unicode="&#x2785;" 
d="M415 -5c-196 0 -355 159 -355 355s159 355 355 355c195 0 355 -159 355 -355s-160 -355 -355 -355zM415 69c154 0 281 126 281 281s-127 281 -281 281c-155 0 -281 -126 -281 -281s126 -281 281 -281zM425 417c59 0 124 -44 124 -128s-66 -130 -136 -130
c-71 0 -136 48 -136 135c0 37 12 74 47 128c32 49 90 125 90 125h80l-108 -144c7 8 17 14 39 14zM413 221c42 0 70 29 70 68s-29 68 -70 68s-70 -29 -70 -68s29 -68 70 -68z" />
    <glyph glyph-name="uni2786" unicode="&#x2786;" 
d="M415 -5c-196 0 -355 159 -355 355s159 355 355 355c195 0 355 -159 355 -355s-160 -355 -355 -355zM415 69c154 0 281 126 281 281s-127 281 -281 281c-155 0 -281 -126 -281 -281s126 -281 281 -281zM296 526h269v-36c-120 -112 -130 -201 -133 -349h-73
c5 155 22 243 95 317h-158v68z" />
    <glyph glyph-name="uni2787" unicode="&#x2787;" 
d="M415 -5c-196 0 -355 159 -355 355s159 355 355 355c195 0 355 -159 355 -355s-160 -355 -355 -355zM415 69c154 0 281 126 281 281s-127 281 -281 281c-155 0 -281 -126 -281 -281s126 -281 281 -281zM488 365c42 -14 65 -53 65 -96c0 -62 -46 -115 -137 -115
s-135 53 -135 115c0 43 22 82 64 96v5c-35 15 -49 47 -49 77c0 61 58 98 121 98s120 -37 120 -98c0 -30 -14 -62 -49 -77v-5zM417 484c-32 0 -52 -18 -52 -45c0 -31 26 -46 51 -46s53 15 53 47c0 26 -20 44 -52 44zM416 215c44 0 68 29 68 60c0 29 -22 60 -68 60
c-47 0 -66 -31 -66 -60c0 -31 22 -60 66 -60z" />
    <glyph glyph-name="uni2788" unicode="&#x2788;" 
d="M415 -5c-196 0 -355 159 -355 355s159 355 355 355c195 0 355 -159 355 -355s-160 -355 -355 -355zM415 69c154 0 281 126 281 281s-127 281 -281 281c-155 0 -281 -126 -281 -281s126 -281 281 -281zM412 283c-59 0 -124 44 -124 128s66 130 136 130
c71 0 136 -48 136 -135c0 -37 -12 -74 -47 -128c-32 -49 -90 -125 -90 -125h-80l108 144c-7 -8 -17 -14 -39 -14zM424 479c-42 0 -70 -29 -70 -68s29 -68 70 -68s70 29 70 68s-29 68 -70 68z" />
    <glyph glyph-name="uni2789" unicode="&#x2789;" 
d="M415 -5c-196 0 -355 159 -355 355s159 355 355 355c195 0 355 -159 355 -355s-160 -355 -355 -355zM415 69c154 0 281 126 281 281s-127 281 -281 281c-155 0 -281 -126 -281 -281s126 -281 281 -281zM503 196c-73 0 -120 61 -120 154s47 153 120 153s120 -60 120 -153
s-46 -154 -120 -154zM279 199v194h-70v52h43c18 0 30 12 30 30v25h60l1 -301h-64zM504 259c41 0 54 44 54 88s-13 92 -54 92s-55 -46 -55 -91s14 -89 55 -89z" />
    <glyph glyph-name="uni278A" unicode="&#x278a;" 
d="M415 -5c195 0 355 159 355 355s-160 355 -355 355c-196 0 -355 -159 -355 -355s159 -355 355 -355zM397 155v258h-89v56h55c22 0 38 16 38 39v32h66l1 -385h-71z" />
    <glyph glyph-name="uni278B" unicode="&#x278b;" 
d="M415 -5c195 0 355 159 355 355s-160 355 -355 355c-196 0 -355 -159 -355 -355s159 -355 355 -355zM440 315c-52 -31 -84 -52 -84 -81h191v-66h-269v36c0 83 62 122 113 152c43 26 90 48 90 87c0 29 -25 48 -61 48c-44 0 -71 -27 -71 -69h-70c0 57 40 134 138 134
c74 0 133 -44 133 -111c0 -66 -56 -98 -110 -130z" />
    <glyph glyph-name="uni278C" unicode="&#x278c;" 
d="M415 -5c195 0 355 159 355 355s-160 355 -355 355c-196 0 -355 -159 -355 -355s159 -355 355 -355zM489 360c36 -11 64 -44 64 -90c0 -63 -52 -116 -135 -116c-85 0 -138 55 -138 128h67c3 -35 26 -66 72 -66c42 0 65 25 65 57s-22 58 -75 58h-26v57h23c54 0 67 27 67 50
c0 29 -22 44 -56 44c-36 0 -56 -16 -59 -40h-66c0 58 54 103 127 103c67 0 121 -38 121 -98c0 -35 -18 -64 -51 -81v-6z" />
    <glyph glyph-name="uni278D" unicode="&#x278d;" 
d="M415 -5c195 0 355 159 355 355s-160 355 -355 355c-196 0 -355 -159 -355 -355s159 -355 355 -355zM496 296h59v-59h-59v-81h-64v81h-187v47l159 257h92v-245zM327 296h105v156h-9z" />
    <glyph glyph-name="uni278E" unicode="&#x278e;" 
d="M415 -5c195 0 355 159 355 355s-160 355 -355 355c-196 0 -355 -159 -355 -355s159 -355 355 -355zM427 416c70 0 133 -53 133 -133c0 -78 -59 -133 -142 -133c-91 0 -147 67 -147 125h68c6 -41 44 -61 78 -61c40 0 76 28 76 71c0 39 -31 70 -78 70
c-32 0 -56 -15 -68 -37l-60 16l22 204h230v-66h-174l-10 -77c20 13 45 21 72 21z" />
    <glyph glyph-name="uni278F" unicode="&#x278f;" 
d="M415 -5c195 0 355 159 355 355s-160 355 -355 355c-196 0 -355 -159 -355 -355s159 -355 355 -355zM425 417c59 0 124 -44 124 -128s-66 -130 -136 -130c-71 0 -136 48 -136 135c0 37 12 74 47 128c32 49 90 125 90 125h80l-108 -144c7 8 17 14 39 14zM413 221
c42 0 70 29 70 68s-29 68 -70 68s-70 -29 -70 -68s29 -68 70 -68z" />
    <glyph glyph-name="uni2790" unicode="&#x2790;" 
d="M415 -5c195 0 355 159 355 355s-160 355 -355 355c-196 0 -355 -159 -355 -355s159 -355 355 -355zM296 526h269v-36c-120 -112 -130 -201 -133 -349h-73c5 155 22 243 95 317h-158v68z" />
    <glyph glyph-name="uni2791" unicode="&#x2791;" 
d="M415 -5c195 0 355 159 355 355s-160 355 -355 355c-196 0 -355 -159 -355 -355s159 -355 355 -355zM488 365c42 -14 65 -53 65 -96c0 -62 -46 -115 -137 -115s-135 53 -135 115c0 43 22 82 64 96v5c-35 15 -49 47 -49 77c0 61 58 98 121 98s120 -37 120 -98
c0 -30 -14 -62 -49 -77v-5zM417 484c-32 0 -52 -18 -52 -45c0 -31 26 -46 51 -46s53 15 53 47c0 26 -20 44 -52 44zM416 215c44 0 68 29 68 60c0 29 -22 60 -68 60c-47 0 -66 -31 -66 -60c0 -31 22 -60 66 -60z" />
    <glyph glyph-name="uni2792" unicode="&#x2792;" 
d="M415 -5c195 0 355 159 355 355s-160 355 -355 355c-196 0 -355 -159 -355 -355s159 -355 355 -355zM412 283c-59 0 -124 44 -124 128s66 130 136 130c71 0 136 -48 136 -135c0 -37 -12 -74 -47 -128c-32 -49 -90 -125 -90 -125h-80l108 144c-7 -8 -17 -14 -39 -14z
M424 479c-42 0 -70 -29 -70 -68s29 -68 70 -68s70 29 70 68s-29 68 -70 68z" />
    <glyph glyph-name="uni2793" unicode="&#x2793;" 
d="M415 -5c195 0 355 159 355 355s-160 355 -355 355c-196 0 -355 -159 -355 -355s159 -355 355 -355zM507 196c-73 0 -120 61 -120 154s47 153 120 153s120 -60 120 -153s-46 -154 -120 -154zM275 199v194h-70v52h43c18 0 30 12 30 30v25h60l1 -301h-64zM508 259
c41 0 54 44 54 88s-13 92 -54 92s-55 -46 -55 -91s14 -89 55 -89z" />
    <glyph glyph-name="uni2080" unicode="&#x2080;" horiz-adv-x="380" 
d="M190 -104c-83 0 -150 76 -150 179c0 133 72 188 150 188c98 0 150 -95 150 -188c0 -103 -66 -179 -150 -179zM190 -41c63 0 85 65 85 119c0 64 -28 121 -85 121c-55 0 -84 -57 -84 -121c0 -54 24 -119 84 -119z" />
    <glyph glyph-name="uni2081" unicode="&#x2081;" horiz-adv-x="255" 
d="M134 -100v233h-89v57h55c22 0 38 16 38 41v29h66l1 -360h-71z" />
    <glyph glyph-name="uni2082" unicode="&#x2082;" horiz-adv-x="362" 
d="M207 43c-39 -22 -79 -42 -79 -76h181v-66h-259v36c0 83 60 123 108 147c42 21 85 30 85 67c0 30 -23 49 -58 49c-36 0 -62 -27 -62 -69h-70c0 57 40 131 128 131c72 0 131 -43 131 -106c0 -74 -64 -90 -105 -113z" />
    <glyph glyph-name="uni2083" unicode="&#x2083;" horiz-adv-x="363" 
d="M254 88c38 -12 59 -45 59 -81c0 -62 -47 -110 -131 -110c-83 0 -132 55 -132 128h67c3 -35 21 -66 68 -66c40 0 59 20 59 52c0 22 -17 48 -70 48h-26v57h23c53 0 62 26 62 48c0 19 -22 38 -50 38c-38 0 -52 -21 -55 -40h-63c0 58 52 101 118 101c64 0 117 -41 117 -90
c0 -39 -16 -63 -46 -79v-6z" />
    <glyph glyph-name="uni2084" unicode="&#x2084;" horiz-adv-x="378" 
d="M274 40h59v-59h-59v-81h-62v81h-167v47l139 232h90v-220zM123 40h89v131h-13z" />
    <glyph glyph-name="uni2085" unicode="&#x2085;" horiz-adv-x="379" 
d="M206 148c61 0 123 -45 123 -123c0 -76 -58 -128 -134 -128c-87 0 -145 67 -145 120h68c6 -38 44 -56 75 -56c37 0 69 27 69 66c0 38 -31 60 -69 60c-31 0 -55 -15 -67 -37l-60 16l22 194h220v-66h-164l-10 -69c20 15 46 23 72 23z" />
    <glyph glyph-name="uni2086" unicode="&#x2086;" horiz-adv-x="362" 
d="M188 145c62 0 124 -45 124 -123c0 -70 -66 -125 -131 -125c-66 0 -131 55 -131 125c0 45 14 78 47 128c23 37 85 110 85 110h75l-95 -121s8 6 26 6zM181 -41c42 0 65 32 65 63c0 34 -24 63 -65 63s-65 -29 -65 -63c0 -31 24 -63 65 -63z" />
    <glyph glyph-name="uni2087" unicode="&#x2087;" horiz-adv-x="364" 
d="M50 260h269v-36c-120 -112 -130 -201 -133 -324h-73c5 130 22 218 95 292h-158v68z" />
    <glyph glyph-name="uni2088" unicode="&#x2088;" horiz-adv-x="362" 
d="M252 95c41 -13 60 -54 60 -90c0 -53 -41 -108 -132 -108s-130 55 -130 108c0 36 18 77 59 90v5c-33 15 -44 45 -44 71c0 57 53 92 116 92s115 -35 115 -92c0 -27 -12 -57 -44 -71v-5zM181 205c-31 0 -47 -17 -47 -39c0 -25 20 -40 46 -40c25 0 48 14 48 40
c0 21 -15 39 -47 39zM180 -45c41 0 63 29 63 53c0 23 -19 54 -63 54s-61 -31 -61 -54c0 -24 20 -53 61 -53z" />
    <glyph glyph-name="uni2089" unicode="&#x2089;" horiz-adv-x="362" 
d="M194 15c-62 0 -124 45 -124 123c0 70 66 125 131 125c66 0 131 -55 131 -125c0 -45 -14 -78 -47 -128c-23 -37 -85 -110 -85 -110h-75l95 121s-8 -6 -26 -6zM201 201c-42 0 -65 -32 -65 -63c0 -34 24 -63 65 -63s65 29 65 63c0 31 -24 63 -65 63z" />
    <glyph glyph-name="uni2070" unicode="&#x2070;" horiz-adv-x="380" 
d="M190 336c-83 0 -150 76 -150 179c0 133 72 188 150 188c98 0 150 -95 150 -188c0 -103 -66 -179 -150 -179zM190 399c63 0 85 65 85 119c0 64 -28 121 -85 121c-55 0 -84 -57 -84 -121c0 -54 24 -119 84 -119z" />
    <glyph glyph-name="uni00B9" unicode="&#xb9;" horiz-adv-x="255" 
d="M134 340v233h-89v57h55c22 0 38 16 38 41v29h66l1 -360h-71z" />
    <glyph glyph-name="uni00B2" unicode="&#xb2;" horiz-adv-x="362" 
d="M207 484c-39 -22 -79 -42 -79 -76h181v-66h-259v36c0 83 60 123 108 147c42 21 85 30 85 67c0 30 -23 49 -58 49c-36 0 -62 -27 -62 -69h-70c0 57 40 131 128 131c72 0 131 -43 131 -106c0 -74 -64 -90 -105 -113z" />
    <glyph glyph-name="uni00B3" unicode="&#xb3;" horiz-adv-x="363" 
d="M254 528c38 -12 59 -45 59 -81c0 -62 -47 -110 -131 -110c-83 0 -132 55 -132 128h67c3 -35 21 -66 68 -66c40 0 59 20 59 52c0 22 -17 48 -70 48h-26v57h23c53 0 62 26 62 48c0 19 -22 38 -50 38c-38 0 -52 -21 -55 -40h-63c0 58 52 101 118 101c64 0 117 -41 117 -90
c0 -39 -16 -63 -46 -79v-6z" />
    <glyph glyph-name="uni2074" unicode="&#x2074;" horiz-adv-x="378" 
d="M274 480h59v-59h-59v-81h-62v81h-167v47l139 232h90v-220zM123 480h89v131h-13z" />
    <glyph glyph-name="uni2075" unicode="&#x2075;" horiz-adv-x="379" 
d="M206 588c61 0 123 -45 123 -123c0 -76 -58 -128 -134 -128c-87 0 -145 67 -145 120h68c6 -38 44 -56 75 -56c37 0 69 27 69 66c0 38 -31 60 -69 60c-31 0 -55 -15 -67 -37l-60 16l22 194h220v-66h-164l-10 -69c20 15 46 23 72 23z" />
    <glyph glyph-name="uni2076" unicode="&#x2076;" horiz-adv-x="362" 
d="M188 585c62 0 124 -45 124 -123c0 -70 -66 -125 -131 -125c-66 0 -131 55 -131 125c0 45 14 78 47 128c23 37 85 110 85 110h75l-95 -121s8 6 26 6zM181 399c42 0 65 32 65 63c0 34 -24 63 -65 63s-65 -29 -65 -63c0 -31 24 -63 65 -63z" />
    <glyph glyph-name="uni2077" unicode="&#x2077;" horiz-adv-x="364" 
d="M50 700h269v-36c-120 -112 -130 -201 -133 -324h-73c5 130 22 218 95 292h-158v68z" />
    <glyph glyph-name="uni2078" unicode="&#x2078;" horiz-adv-x="362" 
d="M252 535c41 -13 60 -54 60 -90c0 -53 -41 -108 -132 -108s-130 55 -130 108c0 36 18 77 59 90v5c-33 15 -44 45 -44 71c0 57 53 92 116 92s115 -35 115 -92c0 -27 -12 -57 -44 -71v-5zM181 645c-31 0 -47 -17 -47 -39c0 -25 20 -40 46 -40c25 0 48 14 48 40
c0 21 -15 39 -47 39zM180 395c41 0 63 29 63 53c0 23 -19 54 -63 54s-61 -31 -61 -54c0 -24 20 -53 61 -53z" />
    <glyph glyph-name="uni2079" unicode="&#x2079;" horiz-adv-x="362" 
d="M194 455c-62 0 -124 45 -124 123c0 70 66 125 131 125c66 0 131 -55 131 -125c0 -45 -14 -78 -47 -128c-23 -37 -85 -110 -85 -110h-75l95 121s-8 -6 -26 -6zM201 641c-42 0 -65 -32 -65 -63c0 -34 24 -63 65 -63s65 29 65 63c0 31 -24 63 -65 63z" />
    <glyph glyph-name="zero.dnom" horiz-adv-x="404" 
d="M203 -3c-90 0 -153 76 -153 195s63 196 152 196s152 -77 152 -197c0 -118 -62 -194 -151 -194zM203 64c55 0 83 52 83 127c0 74 -28 128 -84 128s-84 -54 -84 -128s28 -127 85 -127z" />
    <glyph glyph-name="one.dnom" horiz-adv-x="260" 
d="M139 0v258h-89v56h55c22 0 38 16 38 39v32h66l1 -385h-71z" />
    <glyph glyph-name="two.dnom" horiz-adv-x="378" 
d="M212 147c-52 -31 -84 -52 -84 -81h191v-66h-269v36c0 83 62 122 113 152c43 26 90 48 90 87c0 29 -25 48 -61 48c-44 0 -71 -27 -71 -69h-70c0 57 40 134 138 134c74 0 133 -44 133 -111c0 -66 -56 -98 -110 -130z" />
    <glyph glyph-name="three.dnom" horiz-adv-x="373" 
d="M259 203c36 -11 64 -44 64 -90c0 -63 -52 -116 -135 -116c-85 0 -138 55 -138 128h67c3 -35 26 -66 72 -66c42 0 65 25 65 57s-22 58 -75 58h-26v57h23c54 0 67 27 67 50c0 29 -22 44 -56 44c-36 0 -56 -16 -59 -40h-66c0 58 54 103 127 103c67 0 121 -38 121 -98
c0 -35 -18 -64 -51 -81v-6z" />
    <glyph glyph-name="four.dnom" horiz-adv-x="410" 
d="M301 140h59v-59h-59v-81h-64v81h-187v47l159 257h92v-245zM132 140h105v156h-9z" />
    <glyph glyph-name="five.dnom" horiz-adv-x="389" 
d="M206 266c70 0 133 -53 133 -133c0 -78 -59 -133 -142 -133c-91 0 -147 67 -147 125h68c6 -41 44 -61 78 -61c40 0 76 28 76 71c0 39 -31 70 -78 70c-32 0 -56 -15 -68 -37l-60 16l22 204h230v-66h-174l-10 -77c20 13 45 21 72 21z" />
    <glyph glyph-name="six.dnom" horiz-adv-x="372" 
d="M198 255c59 0 124 -44 124 -128s-66 -130 -136 -130c-71 0 -136 48 -136 135c0 37 12 74 47 128c32 49 90 125 90 125h80l-108 -144c7 8 17 14 39 14zM186 59c42 0 70 29 70 68s-29 68 -70 68s-70 -29 -70 -68s29 -68 70 -68z" />
    <glyph glyph-name="seven.dnom" horiz-adv-x="359" 
d="M50 385h269v-36c-120 -112 -130 -201 -133 -349h-73c5 155 22 243 95 317h-158v68z" />
    <glyph glyph-name="eight.dnom" horiz-adv-x="372" 
d="M257 208c42 -14 65 -53 65 -96c0 -62 -46 -115 -137 -115s-135 53 -135 115c0 43 22 82 64 96v5c-35 15 -49 47 -49 77c0 61 58 98 121 98s120 -37 120 -98c0 -30 -14 -62 -49 -77v-5zM186 327c-32 0 -52 -18 -52 -45c0 -31 26 -46 51 -46s53 15 53 47
c0 26 -20 44 -52 44zM185 58c44 0 68 29 68 60c0 29 -22 60 -68 60c-47 0 -66 -31 -66 -60c0 -31 22 -60 66 -60z" />
    <glyph glyph-name="nine.dnom" horiz-adv-x="372" 
d="M174 128c-59 0 -124 44 -124 128s66 130 136 130c71 0 136 -48 136 -135c0 -37 -12 -74 -47 -128c-32 -49 -90 -125 -90 -125h-80l108 144c-7 -8 -17 -14 -39 -14zM186 324c-42 0 -70 -29 -70 -68s29 -68 70 -68s70 29 70 68s-29 68 -70 68z" />
    <glyph glyph-name="zero.numr" horiz-adv-x="404" 
d="M203 252c-90 0 -153 76 -153 195s63 196 152 196s152 -77 152 -197c0 -118 -62 -194 -151 -194zM203 319c55 0 83 52 83 127c0 74 -28 128 -84 128s-84 -54 -84 -128s28 -127 85 -127z" />
    <glyph glyph-name="one.numr" horiz-adv-x="260" 
d="M139 255v258h-89v56h55c22 0 38 16 38 39v32h66l1 -385h-71z" />
    <glyph glyph-name="two.numr" horiz-adv-x="378" 
d="M212 402c-52 -31 -84 -52 -84 -81h191v-66h-269v36c0 83 62 122 113 152c43 26 90 48 90 87c0 29 -25 48 -61 48c-44 0 -71 -27 -71 -69h-70c0 57 40 134 138 134c74 0 133 -44 133 -111c0 -66 -56 -98 -110 -130z" />
    <glyph glyph-name="three.numr" horiz-adv-x="373" 
d="M259 458c36 -11 64 -44 64 -90c0 -63 -52 -116 -135 -116c-85 0 -138 55 -138 128h67c3 -35 26 -66 72 -66c42 0 65 25 65 57s-22 58 -75 58h-26v57h23c54 0 67 27 67 50c0 29 -22 44 -56 44c-36 0 -56 -16 -59 -40h-66c0 58 54 103 127 103c67 0 121 -38 121 -98
c0 -35 -18 -64 -51 -81v-6z" />
    <glyph glyph-name="four.numr" horiz-adv-x="410" 
d="M301 395h59v-59h-59v-81h-64v81h-187v47l159 257h92v-245zM132 395h105v156h-9z" />
    <glyph glyph-name="five.numr" horiz-adv-x="389" 
d="M206 518c70 0 133 -53 133 -133c0 -78 -59 -133 -142 -133c-91 0 -147 67 -147 125h68c6 -41 44 -61 78 -61c40 0 76 28 76 71c0 39 -31 70 -78 70c-32 0 -56 -15 -68 -37l-60 16l22 204h230v-66h-174l-10 -77c20 13 45 21 72 21z" />
    <glyph glyph-name="six.numr" horiz-adv-x="372" 
d="M198 510c59 0 124 -44 124 -128s-66 -130 -136 -130c-71 0 -136 48 -136 135c0 37 12 74 47 128c32 49 90 125 90 125h80l-108 -144c7 8 17 14 39 14zM186 314c42 0 70 29 70 68s-29 68 -70 68s-70 -29 -70 -68s29 -68 70 -68z" />
    <glyph glyph-name="seven.numr" horiz-adv-x="359" 
d="M50 640h269v-36c-120 -112 -130 -201 -133 -349h-73c5 155 22 243 95 317h-158v68z" />
    <glyph glyph-name="eight.numr" horiz-adv-x="372" 
d="M257 463c42 -14 65 -53 65 -96c0 -62 -46 -115 -137 -115s-135 53 -135 115c0 43 22 82 64 96v5c-35 15 -49 47 -49 77c0 61 58 98 121 98s120 -37 120 -98c0 -30 -14 -62 -49 -77v-5zM186 582c-32 0 -52 -18 -52 -45c0 -31 26 -46 51 -46s53 15 53 47
c0 26 -20 44 -52 44zM185 313c44 0 68 29 68 60c0 29 -22 60 -68 60c-47 0 -66 -31 -66 -60c0 -31 22 -60 66 -60z" />
    <glyph glyph-name="nine.numr" horiz-adv-x="372" 
d="M174 385c-59 0 -124 44 -124 128s66 130 136 130c71 0 136 -48 136 -135c0 -37 -12 -74 -47 -128c-32 -49 -90 -125 -90 -125h-80l108 144c-7 -8 -17 -14 -39 -14zM186 581c-42 0 -70 -29 -70 -68s29 -68 70 -68s70 29 70 68s-29 68 -70 68z" />
    <glyph glyph-name="fraction" unicode="&#x2044;" horiz-adv-x="259" 
d="M419 640l-498 -640h-81l498 640h81z" />
    <glyph glyph-name="slash" unicode="/" horiz-adv-x="507" 
d="M477 750l-358 -800h-89l358 800h89z" />
    <glyph glyph-name="backslash" unicode="\" horiz-adv-x="537" 
d="M60 750h89l358 -800h-89z" />
    <glyph glyph-name="periodcentered" unicode="&#xb7;" horiz-adv-x="240" 
d="M120 251c-33 0 -60 27 -60 60c0 34 27 60 60 60s60 -26 60 -60c0 -33 -27 -60 -60 -60z" />
    <glyph glyph-name="bullet" unicode="&#x2022;" horiz-adv-x="240" 
d="M120 251c-33 0 -60 27 -60 60c0 34 27 60 60 60s60 -26 60 -60c0 -33 -27 -60 -60 -60z" />
    <glyph glyph-name="period" unicode="." horiz-adv-x="240" 
d="M120 -5c-33 0 -60 27 -60 60c0 34 27 60 60 60s60 -26 60 -60c0 -33 -27 -60 -60 -60z" />
    <glyph glyph-name="ellipsis" unicode="&#x2026;" horiz-adv-x="840" 
d="M120 -5c-33 0 -60 27 -60 60c0 34 27 60 60 60s60 -26 60 -60c0 -33 -27 -60 -60 -60zM420 -5c-33 0 -60 27 -60 60c0 34 27 60 60 60s60 -26 60 -60c0 -33 -27 -60 -60 -60zM720 -5c-33 0 -60 27 -60 60c0 34 27 60 60 60s60 -26 60 -60c0 -33 -27 -60 -60 -60z" />
    <glyph glyph-name="comma" unicode="," horiz-adv-x="240" 
d="M119 113c40 0 61 -33 61 -80c0 -97 -88 -154 -88 -154l-27 28c31 27 44 62 49 90c-30 2 -54 27 -54 58c0 33 25 58 59 58z" />
    <glyph glyph-name="colon" unicode=":" horiz-adv-x="240" 
d="M120 385c-33 0 -60 27 -60 60c0 34 27 60 60 60s60 -26 60 -60c0 -33 -27 -60 -60 -60zM120 -5c-33 0 -60 27 -60 60c0 34 27 60 60 60s60 -26 60 -60c0 -33 -27 -60 -60 -60z" />
    <glyph glyph-name="semicolon" unicode=";" horiz-adv-x="240" 
d="M120 385c-33 0 -60 27 -60 60c0 34 27 60 60 60s60 -26 60 -60c0 -33 -27 -60 -60 -60zM119 113c40 0 61 -33 61 -80c0 -97 -88 -154 -88 -154l-27 28c31 27 44 62 49 90c-30 2 -54 27 -54 58c0 33 25 58 59 58z" />
    <glyph glyph-name="exclam" unicode="!" horiz-adv-x="260" 
d="M78 700h105l-20 -509h-65zM130 -5c-33 0 -60 27 -60 60c0 34 27 60 60 60s60 -26 60 -60c0 -33 -27 -60 -60 -60z" />
    <glyph glyph-name="exclamdown" unicode="&#xa1;" horiz-adv-x="260" 
d="M130 505c33 0 60 -27 60 -60c0 -34 -27 -60 -60 -60s-60 26 -60 60c0 33 27 60 60 60zM182 -200h-105l20 509h65z" />
    <glyph glyph-name="exclamdown.case" horiz-adv-x="260" 
d="M130 705c33 0 60 -27 60 -60c0 -34 -27 -60 -60 -60s-60 26 -60 60c0 33 27 60 60 60zM182 0h-105l20 509h65z" />
    <glyph glyph-name="exclam.alt" horiz-adv-x="262" 
d="M184 525l-24 -345h-60l-23 345c-1 19 -7 94 -7 120c0 34 27 58 60 58s60 -24 60 -58c0 -26 -5 -101 -6 -120zM132 -5c-33 0 -60 27 -60 60c0 34 27 60 60 60s60 -26 60 -60c0 -33 -27 -60 -60 -60z" />
    <glyph glyph-name="exclamdown.alt" horiz-adv-x="262" 
d="M132 505c33 0 60 -27 60 -60c0 -34 -27 -60 -60 -60s-60 26 -60 60c0 33 27 60 60 60zM184 -25c1 -19 6 -94 6 -120c0 -34 -27 -58 -60 -58s-60 24 -60 58c0 26 6 101 7 120l23 345h60z" />
    <glyph glyph-name="exclamdown.case.alt" horiz-adv-x="262" 
d="M132 703c33 0 60 -27 60 -60c0 -34 -27 -60 -60 -60s-60 26 -60 60c0 33 27 60 60 60zM184 173c1 -19 6 -94 6 -120c0 -34 -27 -58 -60 -58s-60 24 -60 58c0 26 6 101 7 120l23 345h60z" />
    <glyph glyph-name="question" unicode="?" horiz-adv-x="431" 
d="M149 257c0 104 59 147 103 178c33 23 64 48 64 98c0 40 -19 102 -100 102s-96 -63 -101 -97h-82c0 69 42 171 181 171c124 0 184 -81 184 -177c0 -88 -50 -127 -84 -151c-48 -34 -83 -59 -83 -126v-62h-82v64zM197 -5c-33 0 -60 27 -60 60c0 34 27 60 60 60
s60 -26 60 -60c0 -33 -27 -60 -60 -60z" />
    <glyph glyph-name="questiondown" unicode="&#xbf;" horiz-adv-x="431" 
d="M234 505c33 0 60 -27 60 -60c0 -34 -27 -60 -60 -60s-60 26 -60 60c0 33 27 60 60 60zM282 243c0 -104 -59 -147 -103 -178c-33 -23 -64 -48 -64 -98c0 -40 19 -102 100 -102s96 63 101 97h82c0 -69 -42 -171 -181 -171c-124 0 -184 81 -184 177c0 88 50 127 84 151
c48 34 83 59 83 126v62h82v-64z" />
    <glyph glyph-name="questiondown.case" horiz-adv-x="431" 
d="M234 705c33 0 60 -27 60 -60c0 -34 -27 -60 -60 -60s-60 26 -60 60c0 33 27 60 60 60zM282 443c0 -104 -59 -147 -103 -178c-33 -23 -64 -48 -64 -98c0 -40 19 -102 100 -102s96 63 101 97h82c0 -69 -42 -171 -181 -171c-124 0 -184 81 -184 177c0 88 50 127 84 151
c48 34 83 59 83 126v62h82v-64z" />
    <glyph glyph-name="braceleft" unicode="{" horiz-adv-x="338" 
d="M197 419c0 -57 -23 -92 -62 -111v-12c39 -19 62 -54 62 -111v-240c0 -33 20 -54 55 -54h11v-60h-29c-69 0 -112 45 -112 118v236c0 54 -18 90 -72 90v54c54 0 72 36 72 90v236c0 73 43 118 112 118h29v-60h-11c-35 0 -55 -21 -55 -54v-240z" />
    <glyph glyph-name="braceleft.case" horiz-adv-x="328" 
d="M197 462c0 -57 -23 -92 -62 -111v-12c39 -19 62 -54 62 -111v-240c0 -33 20 -54 55 -54h11v-60h-29c-69 0 -112 45 -112 118v236c0 54 -18 90 -72 90v54c54 0 72 36 72 90v236c0 73 43 118 112 118h29v-60h-11c-35 0 -55 -21 -55 -54v-240z" />
    <glyph glyph-name="braceright" unicode="}" horiz-adv-x="328" 
d="M206 419c0 -54 18 -90 72 -90v-54c-54 0 -72 -36 -72 -90v-236c0 -73 -43 -118 -112 -118h-29v60h11c35 0 55 21 55 54v240c0 57 23 92 62 111v12c-39 19 -62 54 -62 111v240c0 33 -20 54 -55 54h-11v60h29c69 0 112 -45 112 -118v-236z" />
    <glyph glyph-name="braceright.case" horiz-adv-x="328" 
d="M206 462c0 -54 18 -90 72 -90v-54c-54 0 -72 -36 -72 -90v-236c0 -73 -43 -118 -112 -118h-29v60h11c35 0 55 21 55 54v240c0 57 23 92 62 111v12c-39 19 -62 54 -62 111v240c0 33 -20 54 -55 54h-11v60h29c69 0 112 -45 112 -118v-236z" />
    <glyph glyph-name="bracketleft" unicode="[" horiz-adv-x="321" 
d="M60 773h171v-73h-93v-796h103v-73h-181v942z" />
    <glyph glyph-name="bracketleft.case" horiz-adv-x="321" 
d="M60 816h171v-73h-93v-796h103v-73h-181v942z" />
    <glyph glyph-name="bracketright" unicode="]" horiz-adv-x="321" 
d="M251 773v-942h-181v73h103v796h-93v73h171z" />
    <glyph glyph-name="bracketright.case" horiz-adv-x="311" 
d="M251 816v-942h-181v73h103v796h-93v73h171z" />
    <glyph glyph-name="parenleft" unicode="(" horiz-adv-x="328" 
d="M273 -114l-55 -55c-104 113 -168 267 -168 479s64 367 168 480l55 -56c-91 -99 -139 -246 -139 -424s49 -325 139 -424z" />
    <glyph glyph-name="parenleft.case" horiz-adv-x="338" 
d="M283 -50l-55 -55c-104 113 -178 277 -178 459s74 347 178 460l55 -56c-91 -99 -144 -256 -144 -404s54 -305 144 -404z" />
    <glyph glyph-name="parenright" unicode=")" horiz-adv-x="328" 
d="M40 -114c90 99 139 246 139 424s-48 325 -139 424l55 56c104 -113 168 -268 168 -480s-64 -366 -168 -479z" />
    <glyph glyph-name="parenright.case" horiz-adv-x="338" 
d="M40 -50c90 99 144 256 144 404s-53 305 -144 404l55 56c104 -113 178 -278 178 -460s-74 -346 -178 -459z" />
    <glyph glyph-name="underscore" unicode="_" horiz-adv-x="555" 
d="M60 0h435v-76h-435v76z" />
    <glyph glyph-name="emdash" unicode="&#x2014;" horiz-adv-x="880" 
d="M820 349v-76h-760v76h760z" />
    <glyph glyph-name="emdash.case" horiz-adv-x="880" 
d="M820 389v-76h-760v76h760z" />
    <glyph glyph-name="endash" unicode="&#x2013;" horiz-adv-x="555" 
d="M60 349h435v-76h-435v76z" />
    <glyph glyph-name="endash.case" horiz-adv-x="555" 
d="M60 389h435v-76h-435v76z" />
    <glyph glyph-name="hyphen" unicode="-" horiz-adv-x="480" 
d="M60 349h360v-76h-360v76z" />
    <glyph glyph-name="hyphen.case" horiz-adv-x="480" 
d="M60 389h360v-76h-360v76z" />
    <glyph glyph-name="uni00AD" unicode="&#xad;" horiz-adv-x="480" 
d="M60 349h360v-76h-360v76z" />
    <glyph glyph-name="uni00AD.case" horiz-adv-x="480" 
d="M60 389h360v-76h-360v76z" />
    <glyph glyph-name="guillemotleft" unicode="&#xab;" horiz-adv-x="596" 
d="M221 97l-161 202l161 202h100l-163 -202l163 -202h-100zM436 97l-161 202l161 202h100l-163 -202l163 -202h-100z" />
    <glyph glyph-name="guillemotleft.case" horiz-adv-x="596" 
d="M221 147l-161 202l161 202h100l-163 -202l163 -202h-100zM436 147l-161 202l161 202h100l-163 -202l163 -202h-100z" />
    <glyph glyph-name="guillemotright" unicode="&#xbb;" horiz-adv-x="596" 
d="M160 97h-100l163 202l-163 202h100l161 -202zM375 97h-100l163 202l-163 202h100l161 -202z" />
    <glyph glyph-name="guillemotright.case" horiz-adv-x="596" 
d="M160 147h-100l163 202l-163 202h100l161 -202zM375 147h-100l163 202l-163 202h100l161 -202z" />
    <glyph glyph-name="guilsinglleft" unicode="&#x2039;" horiz-adv-x="381" 
d="M221 97l-161 202l161 202h100l-163 -202l163 -202h-100z" />
    <glyph glyph-name="guilsinglleft.case" horiz-adv-x="381" 
d="M221 147l-161 202l161 202h100l-163 -202l163 -202h-100z" />
    <glyph glyph-name="guilsinglright" unicode="&#x203a;" horiz-adv-x="381" 
d="M160 97h-100l163 202l-163 202h100l161 -202z" />
    <glyph glyph-name="guilsinglright.case" horiz-adv-x="381" 
d="M160 147h-100l163 202l-163 202h100l161 -202z" />
    <glyph glyph-name="quotedblbase" unicode="&#x201e;" horiz-adv-x="381" 
d="M114 107c37 0 57 -31 57 -76c0 -92 -81 -146 -81 -146l-25 27c28 25 40 59 45 85c-28 2 -50 26 -50 55c0 32 23 55 54 55zM264 107c37 0 57 -31 57 -76c0 -92 -81 -146 -81 -146l-25 27c28 25 40 59 45 85c-28 2 -50 26 -50 55c0 32 23 55 54 55z" />
    <glyph glyph-name="quotedblleft" unicode="&#x201c;" horiz-adv-x="381" 
d="M117 501c-37 0 -57 31 -57 76c0 92 81 146 81 146l25 -27c-28 -25 -40 -59 -45 -85c28 -2 50 -26 50 -55c0 -32 -23 -55 -54 -55zM267 501c-37 0 -57 31 -57 76c0 92 81 146 81 146l25 -27c-28 -25 -40 -59 -45 -85c28 -2 50 -26 50 -55c0 -32 -23 -55 -54 -55z" />
    <glyph glyph-name="quotedblright" unicode="&#x201d;" horiz-adv-x="381" 
d="M114 722c37 0 57 -31 57 -76c0 -92 -81 -146 -81 -146l-25 27c28 25 40 59 45 85c-28 2 -50 26 -50 55c0 32 23 55 54 55zM264 722c37 0 57 -31 57 -76c0 -92 -81 -146 -81 -146l-25 27c28 25 40 59 45 85c-28 2 -50 26 -50 55c0 32 23 55 54 55z" />
    <glyph glyph-name="quoteleft" unicode="&#x2018;" horiz-adv-x="231" 
d="M117 501c-37 0 -57 31 -57 76c0 92 81 146 81 146l25 -27c-28 -25 -40 -59 -45 -85c28 -2 50 -26 50 -55c0 -32 -23 -55 -54 -55z" />
    <glyph glyph-name="quoteright" unicode="&#x2019;" horiz-adv-x="231" 
d="M114 700c37 0 57 -31 57 -76c0 -92 -81 -146 -81 -146l-25 27c28 25 40 59 45 85c-28 2 -50 26 -50 55c0 32 23 55 54 55z" />
    <glyph glyph-name="quotesinglbase" unicode="&#x201a;" horiz-adv-x="231" 
d="M114 107c37 0 57 -31 57 -76c0 -92 -81 -146 -81 -146l-25 27c28 25 40 59 45 85c-28 2 -50 26 -50 55c0 32 23 55 54 55z" />
    <glyph glyph-name="quotedbl" unicode="&#x22;" horiz-adv-x="400" 
d="M165 605l-25 -135h-40l-25 135c-4 19 -7 32 -7 40c0 34 19 58 52 58s52 -24 52 -58c0 -8 -3 -21 -7 -40zM325 605l-25 -135h-40l-25 135c-4 19 -7 32 -7 40c0 34 19 58 52 58s52 -24 52 -58c0 -8 -3 -21 -7 -40z" />
    <glyph glyph-name="quotesingle" unicode="'" horiz-adv-x="240" 
d="M165 605l-25 -135h-40l-25 135c-4 19 -7 32 -7 40c0 34 19 58 52 58s52 -24 52 -58c0 -8 -3 -21 -7 -40z" />
    <glyph glyph-name="bar" unicode="|" horiz-adv-x="242" 
d="M162 770v-910h-82v910h82z" />
    <glyph glyph-name="bar.case" horiz-adv-x="242" 
d="M162 800v-910h-82v910h82z" />
    <glyph glyph-name="brokenbar" unicode="&#xa6;" horiz-adv-x="242" 
d="M80 770h82v-355h-82v355zM80 -140v355h82v-355h-82z" />
    <glyph glyph-name="brokenbar.case" horiz-adv-x="242" 
d="M80 800h82v-355h-82v355zM80 -110v355h82v-355h-82z" />
    <glyph glyph-name="arrowup" unicode="&#x2191;" horiz-adv-x="696" 
d="M646 445l-58 -58l-200 202v-622h-79v623l-201 -203l-58 58l285 285h26z" />
    <glyph glyph-name="arrowdown" unicode="&#x2193;" horiz-adv-x="696" 
d="M588 303l58 -58l-285 -285h-26l-285 285l58 58l200 -202v622h79v-623z" />
    <glyph glyph-name="uni2197" unicode="&#x2197;" horiz-adv-x="657" 
d="M597 552v-404h-81v284l-420 -420l-56 56l421 420h-286v81h405z" />
    <glyph glyph-name="uni2198" unicode="&#x2198;" horiz-adv-x="657" 
d="M580 89h-404v81h284l-420 420l56 56l420 -421v286h81v-405z" />
    <glyph glyph-name="uni2199" unicode="&#x2199;" horiz-adv-x="657" 
d="M77 89l-17 17v405h81v-286l420 421l56 -56l-420 -420h284v-81h-404z" />
    <glyph glyph-name="uni2196" unicode="&#x2196;" horiz-adv-x="657" 
d="M60 552l17 17h405v-81h-286l421 -420l-56 -56l-420 420v-284h-81v404z" />
    <glyph glyph-name="arrowboth" unicode="&#x2194;" horiz-adv-x="1034" 
d="M709 609l285 -285v-26l-285 -285l-58 58l203 201h-623h-51l203 -201l-58 -58l-285 285v26l285 285l58 -58l-202 -200h622h50l-202 200z" />
    <glyph glyph-name="arrowupdn" unicode="&#x2195;" horiz-adv-x="696" 
d="M388 5l200 202l58 -58l-285 -285h-26l-285 285l58 58l201 -203v623v50l-201 -203l-58 58l285 285h26l285 -285l-58 -58l-200 202v-622v-49z" />
    <glyph glyph-name="numbersign" unicode="#" horiz-adv-x="658" 
d="M598 426h-101l-33 -166h92v-74h-107l-37 -186h-81l37 186h-138l-37 -186h-81l37 186h-94v74h109l33 166h-100v74h115l40 200h81l-40 -200h138l40 200h81l-40 -200h86v-74zM383 260l33 166h-138l-33 -166h138z" />
    <glyph glyph-name="ampersand" unicode="&#x26;" horiz-adv-x="683" 
d="M633 0h-116l-72 80c-45 -53 -99 -85 -175 -85c-120 0 -210 81 -210 187c0 84 56 138 124 188c-43 48 -80 100 -80 166c0 87 62 169 177 169c120 0 172 -90 172 -163c0 -81 -65 -136 -140 -187l119 -131l52 106h94l-86 -173zM279 620c-51 0 -85 -38 -85 -81
c0 -41 32 -86 61 -120c59 39 108 68 108 119c0 41 -32 82 -84 82zM268 80c52 0 88 26 118 66l-145 162c-54 -37 -91 -70 -91 -122c0 -60 49 -106 118 -106z" />
    <glyph glyph-name="at" unicode="@" horiz-adv-x="1000" 
d="M500 705c227 0 439 -144 440 -434c0 -134 -60 -256 -179 -256c-42 0 -109 19 -138 77c-27 -47 -75 -77 -152 -77c-115 0 -215 89 -215 240c0 141 100 240 215 240c59 0 102 -24 131 -61h16l17 56h58v-330c0 -36 29 -67 70 -67c73 0 90 98 90 178c0 237 -161 360 -353 360
c-183 0 -353 -144 -353 -378s171 -372 357 -372c63 0 138 16 197 49l51 -52c-73 -46 -163 -71 -248 -71c-217 0 -444 164 -444 449c0 282 222 449 440 449zM476 97c70 0 132 45 132 148c0 113 -61 168 -132 168c-60 0 -132 -60 -132 -158c0 -108 72 -158 132 -158z" />
    <glyph glyph-name="at.case" horiz-adv-x="1000" 
d="M500 794c217 0 439 -164 440 -454c0 -114 -60 -236 -179 -236c-42 0 -109 19 -138 77c-27 -47 -75 -77 -152 -77c-115 0 -215 89 -215 240c0 141 100 240 215 240c59 0 102 -24 131 -61h16l17 56h58v-330c0 -36 29 -67 70 -67c73 0 90 98 90 158c0 237 -171 380 -354 380
c-182 0 -352 -143 -352 -380c0 -232 175 -370 352 -370c70 0 143 16 202 49l51 -52c-73 -46 -161 -71 -252 -71c-213 0 -440 169 -440 444c0 290 222 454 440 454zM476 186c70 0 132 45 132 148c0 113 -61 168 -132 168c-60 0 -132 -60 -132 -158c0 -108 72 -158 132 -158z
" />
    <glyph glyph-name="copyright" unicode="&#xa9;" 
d="M415 -5c-196 0 -355 159 -355 355s159 355 355 355c195 0 355 -159 355 -355s-160 -355 -355 -355zM415 69c154 0 281 126 281 281s-127 281 -281 281c-155 0 -281 -126 -281 -281s126 -281 281 -281zM585 295c-17 -81 -92 -135 -169 -135c-94 0 -180 80 -180 190
s86 190 179 190c78 0 158 -57 172 -140h-74c-18 43 -58 66 -98 66c-63 0 -105 -58 -105 -116c0 -57 40 -116 108 -116c42 0 79 22 93 61h74z" />
    <glyph glyph-name="registered" unicode="&#xae;" 
d="M415 -5c-196 0 -355 159 -355 355s159 355 355 355c195 0 355 -159 355 -355s-160 -355 -355 -355zM415 69c154 0 281 126 281 281s-127 281 -281 281c-155 0 -281 -127 -281 -281c0 -155 126 -281 281 -281zM481 170l-82 132h-37v-132h-69v360h134
c62 0 121 -39 121 -111c0 -55 -34 -94 -78 -110l85 -139h-74zM362 371h58c31 0 55 16 55 45c0 25 -17 47 -50 47h-63v-92z" />
    <glyph glyph-name="section" unicode="&#xa7;" horiz-adv-x="550" 
d="M380 103c52 -20 92 -70 92 -138c0 -102 -92 -165 -196 -165c-127 0 -198 95 -198 178h86c0 -44 47 -95 113 -95c58 0 108 39 108 94c0 76 -97 89 -128 96c-84 18 -197 75 -197 194c0 78 48 133 109 155c-52 21 -92 66 -92 134c0 102 92 165 196 165
c127 0 198 -95 198 -178h-86c0 44 -47 95 -113 95c-57 0 -108 -38 -108 -94c0 -74 87 -89 129 -96c92 -16 197 -73 197 -192c0 -81 -49 -131 -110 -153zM283 151c63 0 118 43 118 104c0 67 -68 115 -135 115c-63 0 -118 -43 -118 -103c0 -67 68 -116 135 -116z" />
    <glyph glyph-name="trademark" unicode="&#x2122;" horiz-adv-x="737" 
d="M40 642v58h246v-58h-92v-292h-62v292h-92zM607 700h90v-350h-59v261h-5l-81 -236h-70l-81 236h-4v-261h-60v350h90l87 -251h6z" />
    <glyph glyph-name="Euro" unicode="&#x20ac;" horiz-adv-x="660" 
d="M424 78c71 0 132 39 155 62l31 -73c-47 -40 -117 -72 -189 -72c-120 0 -242 88 -284 223h-77v71h63c-1 10 -1 20 -1 31c0 13 1 26 2 38h-64v71h80c44 131 163 216 281 216c72 0 142 -32 189 -72l-31 -73c-23 23 -84 62 -155 62c-82 0 -152 -52 -186 -133h307l-29 -71
h-297c-1 -12 -2 -25 -2 -38c0 -11 1 -21 2 -31h276l-30 -71h-230c33 -84 105 -140 189 -140z" />
    <glyph glyph-name="dollar" unicode="$" horiz-adv-x="577" 
d="M517 166c0 -103 -85 -162 -191 -170v-86h-75v89c-118 19 -191 104 -191 193h90c0 -47 41 -90 101 -107v213c-95 38 -173 78 -173 176c0 96 76 157 173 169v87h75v-88c112 -15 173 -98 173 -172h-90c0 33 -29 73 -83 87v-195c86 -32 191 -81 191 -196zM167 481
c0 -45 40 -72 84 -91v169c-49 -8 -84 -36 -84 -78zM326 79c48 5 101 27 101 88c0 51 -36 75 -101 102v-190z" />
    <glyph glyph-name="sterling" unicode="&#xa3;" horiz-adv-x="569" 
d="M214 95v-13h298v-82h-451v81s118 8 118 141c0 20 -5 38 -13 55h-106v79h63c-12 27 -22 58 -22 99c0 143 121 190 209 190c173 0 209 -158 209 -158l-76 -21s-29 100 -133 100c-66 0 -122 -39 -122 -106c0 -36 16 -70 34 -104h211v-79h-176c5 -16 8 -33 8 -50
c0 -69 -34 -113 -51 -132z" />
    <glyph glyph-name="yen" unicode="&#xa5;" horiz-adv-x="607" 
d="M557 640l-171 -228h104v-71h-144v-62h144v-71h-144v-208h-85l-1 208h-143v71h143v62h-143v71h102l-169 228h102l143 -202h16l143 202h103z" />
    <glyph glyph-name="cent" unicode="&#xa2;" horiz-adv-x="591" 
d="M337 149c49 12 86 49 105 97h86c-20 -95 -101 -163 -191 -178v-69h-75v69c-109 19 -202 119 -202 252s93 233 202 252v68h75v-68c92 -15 178 -86 194 -185h-87c-17 51 -55 91 -107 104v-342zM144 320c0 -84 47 -153 118 -171v342c-71 -18 -118 -87 -118 -171z" />
    <glyph glyph-name="currency" unicode="&#xa4;" horiz-adv-x="620" 
d="M527 250c0 -46 -15 -90 -40 -125l73 -72l-53 -53l-72 72c-36 -25 -79 -39 -125 -39s-90 15 -125 39l-73 -72l-52 53l72 72c-25 35 -40 79 -40 125s15 90 40 125l-72 72l52 53l73 -72c35 25 79 39 125 39s89 -14 125 -39l72 72l53 -53l-73 -72c25 -35 40 -79 40 -125z
M176 250c0 -71 58 -134 134 -134c75 0 134 63 134 134s-59 134 -134 134c-76 0 -134 -63 -134 -134z" />
    <glyph glyph-name="florin" unicode="&#x192;" horiz-adv-x="551" 
d="M428 629c-49 0 -70 -42 -77 -85l-18 -115h129l-11 -71h-130l-70 -440c-12 -73 -65 -123 -138 -123c-32 0 -83 10 -83 10l12 72s43 -6 61 -6c49 0 68 42 77 95l64 392h-100l11 71h100l25 153c12 73 64 123 137 123c33 0 84 -10 84 -10l-12 -72s-43 6 -61 6z" />
    <glyph glyph-name="percent" unicode="%" horiz-adv-x="779" 
d="M210 345c-82 0 -150 68 -150 150s68 150 150 150c81 0 150 -68 150 -150s-69 -150 -150 -150zM657 640h-94l-446 -640h94zM210 425c40 0 70 30 70 70s-30 70 -70 70s-70 -30 -70 -70s30 -70 70 -70zM569 -5c-82 0 -150 68 -150 150s68 150 150 150c81 0 150 -68 150 -150
s-69 -150 -150 -150zM569 75c40 0 70 30 70 70s-30 70 -70 70s-70 -30 -70 -70s30 -70 70 -70z" />
    <glyph glyph-name="perthousand" unicode="&#x2030;" horiz-adv-x="1126" 
d="M210 345c-82 0 -150 68 -150 150s68 150 150 150c81 0 150 -68 150 -150s-69 -150 -150 -150zM657 640h-94l-446 -640h94zM210 425c40 0 70 30 70 70s-30 70 -70 70s-70 -30 -70 -70s30 -70 70 -70zM569 -5c-82 0 -150 68 -150 150s68 150 150 150c81 0 150 -68 150 -150
s-69 -150 -150 -150zM926 -5c-82 0 -150 68 -150 150s68 150 150 150c81 0 150 -68 150 -150s-69 -150 -150 -150zM569 75c40 0 70 30 70 70s-30 70 -70 70s-70 -30 -70 -70s30 -70 70 -70zM926 75c40 0 70 30 70 70s-30 70 -70 70s-70 -30 -70 -70s30 -70 70 -70z" />
    <glyph glyph-name="approxequal" unicode="&#x2248;" horiz-adv-x="620" 
d="M560 452c0 0 -43 -119 -186 -95c-62 10 -109 42 -156 46c-64 6 -88 -44 -88 -44l-70 30s46 115 186 95c66 -9 108 -42 156 -46c64 -6 88 44 88 44zM560 272c0 0 -43 -119 -186 -95c-62 10 -109 42 -156 46c-64 6 -88 -44 -88 -44l-70 30s46 115 186 95
c66 -9 108 -42 156 -46c64 -6 88 44 88 44z" />
    <glyph glyph-name="asciitilde" unicode="~" horiz-adv-x="656" 
d="M596 328c0 0 -54 -133 -199 -105c-75 14 -115 60 -168 66c-66 7 -94 -54 -94 -54l-75 30s57 129 199 105c77 -13 114 -60 168 -66c66 -7 94 54 94 54z" />
    <glyph glyph-name="divide" unicode="&#xf7;" horiz-adv-x="595" 
d="M298 427c-33 0 -60 27 -60 60c0 34 27 60 60 60s60 -26 60 -60c0 -33 -27 -60 -60 -60zM60 335h475v-76h-475v76zM298 47c-33 0 -60 27 -60 60c0 34 27 60 60 60s60 -26 60 -60c0 -33 -27 -60 -60 -60z" />
    <glyph glyph-name="emptyset" unicode="&#x2205;" horiz-adv-x="680" 
d="M577 479c40 -51 63 -115 63 -184c0 -166 -134 -300 -300 -300c-69 0 -133 23 -184 63l-58 -59l-53 53l58 58c-39 51 -63 115 -63 185c0 166 134 300 300 300c69 0 133 -23 184 -63l58 58l53 -53zM340 521c-125 0 -226 -101 -226 -226c0 -49 16 -95 42 -132l315 316
c-37 26 -82 42 -131 42zM340 69c124 0 226 101 226 226c0 49 -16 94 -42 131l-315 -315c37 -27 82 -42 131 -42z" />
    <glyph glyph-name="equal" unicode="=" horiz-adv-x="595" 
d="M60 415h475v-76h-475v76zM60 255h475v-76h-475v76z" />
    <glyph glyph-name="greater" unicode="&#x3e;" horiz-adv-x="550" 
d="M70 605l430 -273v-60l-430 -272v105l307 188v18l-307 189v105z" />
    <glyph glyph-name="greaterequal" unicode="&#x2265;" horiz-adv-x="535" 
d="M60 605l415 -206v-70l-415 -205v98l296 135v14l-296 136v98zM60 0v76h415v-76h-415z" />
    <glyph glyph-name="less" unicode="&#x3c;" horiz-adv-x="550" 
d="M480 605v-105l-307 -189v-18l307 -188v-105l-430 272v60z" />
    <glyph glyph-name="lessequal" unicode="&#x2264;" horiz-adv-x="535" 
d="M475 605v-98l-296 -136v-14l296 -135v-98l-415 205v70zM475 0h-415v76h415v-76z" />
    <glyph glyph-name="infinity" unicode="&#x221e;" horiz-adv-x="791" 
d="M578 505c89 0 173 -63 173 -169s-83 -168 -173 -168c-66 0 -125 34 -180 103h-9c-58 -66 -109 -103 -177 -103c-88 0 -172 62 -172 168s84 169 173 169c66 0 125 -35 180 -104h8c58 69 111 104 177 104zM123 335c0 -61 47 -89 90 -89c47 0 85 34 142 89
c-52 51 -90 90 -141 90c-44 0 -91 -29 -91 -90zM578 246c43 0 90 28 90 89s-47 90 -91 90c-51 0 -88 -41 -141 -90c55 -54 92 -89 142 -89z" />
    <glyph glyph-name="integral" unicode="&#x222b;" horiz-adv-x="527" 
d="M467 682l-20 -60s-21 13 -39 13c-32 0 -54 -28 -57 -51l-100 -666c-11 -73 -58 -123 -117 -123c-46 0 -74 23 -74 23l20 60s21 -13 39 -13c32 0 52 28 57 61l100 656c11 73 57 123 117 123c46 0 74 -23 74 -23z" />
    <glyph glyph-name="logicalnot" unicode="&#xac;" horiz-adv-x="596" 
d="M536 179h-76l-1 160h-399v76h475v-27z" />
    <glyph glyph-name="uni00B5" unicode="&#xb5;" horiz-adv-x="579" 
d="M411 500h88v-500h-58l-18 57h-12c-19 -22 -64 -62 -144 -62c-42 0 -78 11 -106 32v-227h-81v700h88v-241c0 -91 18 -188 110 -188c68 0 133 52 133 144v285z" />
    <glyph glyph-name="minus" unicode="&#x2212;" horiz-adv-x="480" 
d="M60 349h360v-76h-360v76z" />
    <glyph glyph-name="multiply" unicode="&#xd7;" horiz-adv-x="632" 
d="M562 484l-188 -188l188 -188l-58 -58l-188 188l-188 -188l-58 58l188 188l-188 188l58 58l188 -188l188 188z" />
    <glyph glyph-name="notequal" unicode="&#x2260;" horiz-adv-x="595" 
d="M535 339h-175l-59 -84h234v-76h-287l-73 -104l-44 31l51 73h-122v76h175l58 84h-233v76h286l73 104l45 -32l-51 -72h122v-76z" />
    <glyph glyph-name="partialdiff" unicode="&#x2202;" horiz-adv-x="600" 
d="M540 332c0 -248 -106 -337 -232 -337c-137 0 -248 104 -248 246c0 145 115 254 243 254c85 0 140 -49 140 -49c-12 101 -41 200 -151 214c-91 11 -126 -51 -126 -51l-78 32s62 113 204 102c185 -14 248 -219 248 -411zM298 77c93 0 154 82 154 172c0 91 -62 164 -151 164
c-91 0 -153 -78 -153 -170c0 -93 62 -166 150 -166z" />
    <glyph glyph-name="plus" unicode="+" horiz-adv-x="555" 
d="M495 350v-76h-178v-180h-78v180h-179v76h179v179h78v-179h178z" />
    <glyph glyph-name="plusminus" unicode="&#xb1;" horiz-adv-x="535" 
d="M307 388h168v-76h-167v-173h-80v173h-168v76h168v170h79v-170zM60 0v76h415v-76h-415z" />
    <glyph glyph-name="product" unicode="&#x220f;" horiz-adv-x="700" 
d="M80 700h540v-787h-93v700h-354v-700h-93v787z" />
    <glyph glyph-name="radical" unicode="&#x221a;" horiz-adv-x="712" 
d="M508 800h184v-76h-121l-263 -724h-123l-145 340h92l108 -253h9z" />
    <glyph glyph-name="summation" unicode="&#x2211;" horiz-adv-x="601" 
d="M50 633v67h501v-87h-366l257 -306l-257 -307h366v-87h-501v67l280 327z" />
    <glyph glyph-name="lozenge" unicode="&#x25ca;" horiz-adv-x="660" 
d="M330 580l290 -290l-290 -290l-290 290zM330 470l-180 -180l180 -180l180 180z" />
    <glyph glyph-name="degree" unicode="&#xb0;" horiz-adv-x="356" 
d="M178 407c-65 0 -118 53 -118 118s53 118 118 118c64 0 118 -53 118 -118s-54 -118 -118 -118zM178 475c28 0 50 22 50 50s-22 50 -50 50s-50 -22 -50 -50s22 -50 50 -50z" />
    <glyph glyph-name="asciicircum" unicode="^" horiz-adv-x="555" 
d="M400 360l-114 216h-16l-115 -216h-95l188 340h60l187 -340h-95z" />
    <glyph glyph-name="uni2731" unicode="&#x2731;" horiz-adv-x="547" 
d="M477 225l-40 -68l-128 79l4 -151h-79l4 151l-129 -79l-38 68l132 72l-133 72l40 68l128 -79l-4 151h79l-4 -151l129 79l38 -68l-132 -72z" />
    <glyph glyph-name="asterisk" unicode="*" horiz-adv-x="409" 
d="M359 488l-33 -56l-92 57l3 -109h-66l3 108l-92 -56l-32 56l96 52l-96 52l33 56l91 -57l-3 109h66l-3 -109l92 56l32 -56l-95 -51z" />
    <glyph glyph-name="uni2051" unicode="&#x2051;" horiz-adv-x="409" 
d="M359 488l-33 -56l-92 57l3 -109h-66l3 108l-92 -56l-32 56l96 52l-96 52l33 56l91 -57l-3 109h66l-3 -109l92 56l32 -56l-95 -51zM359 108l-33 -56l-92 57l3 -109h-66l3 108l-92 -56l-32 56l96 52l-96 52l33 56l91 -57l-3 109h66l-3 -109l92 56l32 -56l-95 -51z" />
    <glyph glyph-name="uni2042" unicode="&#x2042;" horiz-adv-x="809" 
d="M559 488l-33 -56l-92 57l3 -109h-66l3 108l-92 -56l-32 56l96 52l-96 52l33 56l91 -57l-3 109h66l-3 -109l92 56l32 -56l-95 -51zM349 108l-33 -56l-92 57l3 -109h-66l3 108l-92 -56l-32 56l96 52l-96 52l33 56l91 -57l-3 109h66l-3 -109l92 56l32 -56l-95 -51zM769 108
l-33 -56l-92 57l3 -109h-66l3 108l-92 -56l-32 56l96 52l-96 52l33 56l91 -57l-3 109h66l-3 -109l92 56l32 -56l-95 -51z" />
    <glyph glyph-name="uni2113" unicode="&#x2113;" horiz-adv-x="431" 
d="M208 159c0 -66 48 -84 89 -84c46 0 94 24 94 24v-72s-44 -32 -109 -32c-93 0 -158 65 -158 156v80c-51 -8 -84 -4 -84 -4v70s41 3 84 12v151c0 112 42 185 140 185c103 0 132 -87 132 -149c0 -83 -52 -191 -188 -243v-94zM264 569c-47 0 -56 -54 -56 -109v-121
c74 39 112 103 112 158c0 39 -20 72 -56 72z" />
    <glyph glyph-name="dagger" unicode="&#x2020;" horiz-adv-x="560" 
d="M490 500v-76h-169v-564h-82v564h-169v76h169v200h82v-200h169z" />
    <glyph glyph-name="daggerdbl" unicode="&#x2021;" horiz-adv-x="560" 
d="M490 424h-169v-288h169v-76h-169v-200h-82v200h-169v76h169v288h-169v76h169v200h82v-200h169v-76z" />
    <glyph glyph-name="paragraph" unicode="&#xb6;" horiz-adv-x="639" 
d="M60 512c0 78 45 139 107 167c31 14 64 21 100 21h312v-72h-80v-828h-73v828h-84v-828h-75v523c-53 0 -104 17 -142 49c-40 30 -65 81 -65 140z" />
    <glyph glyph-name="uni0326" unicode="&#x326;" horiz-adv-x="0" 
d="M-135 -45c36 0 55 -30 55 -72c0 -88 -79 -139 -79 -139l-25 25c28 25 40 56 45 81c-27 2 -49 25 -49 52c0 30 22 53 53 53z" />
    <glyph glyph-name="acute" unicode="&#xb4;" horiz-adv-x="325" 
d="M138 680h107l-104 -125h-61z" />
    <glyph glyph-name="breve" unicode="&#x2d8;" horiz-adv-x="421" 
d="M341 700c0 -60 -49 -127 -129 -127s-132 67 -132 127h72c0 -22 20 -57 59 -57s57 35 57 57h73z" />
    <glyph glyph-name="caron" unicode="&#x2c7;" horiz-adv-x="441" 
d="M280 710h81l-99 -154h-83l-99 154h81l53 -90h13z" />
    <glyph glyph-name="cedilla" unicode="&#xb8;" horiz-adv-x="372" 
d="M155 5h65l-30 -45c46 10 102 -17 102 -75c0 -50 -43 -90 -106 -90c-78 0 -106 61 -106 61l48 27s18 -31 57 -31c29 0 43 16 43 33c0 16 -13 32 -43 32c-24 0 -42 -10 -42 -10l-28 36z" />
    <glyph glyph-name="circumflex" unicode="&#x2c6;" horiz-adv-x="441" 
d="M280 556l-53 90h-13l-53 -90h-81l99 154h83l99 -154h-81z" />
    <glyph glyph-name="dieresis" unicode="&#xa8;" horiz-adv-x="440" 
d="M135 551c-30 0 -55 25 -55 55c0 31 25 55 55 55s55 -24 55 -55c0 -30 -25 -55 -55 -55zM305 551c-30 0 -55 25 -55 55c0 31 25 55 55 55s55 -24 55 -55c0 -30 -25 -55 -55 -55z" />
    <glyph glyph-name="dotaccent" unicode="&#x2d9;" horiz-adv-x="289" 
d="M145 577c-36 0 -65 29 -65 64c0 36 29 64 65 64c35 0 64 -28 64 -64c0 -35 -29 -64 -64 -64z" />
    <glyph glyph-name="grave" unicode="`" horiz-adv-x="325" 
d="M187 680l58 -125h-61l-104 125h107z" />
    <glyph glyph-name="hungarumlaut" unicode="&#x2dd;" horiz-adv-x="451" 
d="M148 680h93l-94 -125h-67zM278 680h93l-94 -125h-67z" />
    <glyph glyph-name="macron" unicode="&#xaf;" horiz-adv-x="490" 
d="M80 650h330v-70h-330v70z" />
    <glyph glyph-name="ogonek" unicode="&#x2db;" horiz-adv-x="320" 
d="M159 15l50 -15s-60 -32 -60 -86s63 -60 88 -49l3 -60s-22 -11 -51 -11c-52 0 -109 36 -109 104c0 81 79 117 79 117z" />
    <glyph glyph-name="ring" unicode="&#x2da;" horiz-adv-x="352" 
d="M176 535c-53 0 -96 43 -96 95s43 95 96 95c52 0 96 -43 96 -95s-44 -95 -96 -95zM176 591c21 0 38 18 38 39s-17 39 -38 39c-22 0 -38 -18 -38 -39s16 -39 38 -39z" />
    <glyph glyph-name="tilde" unicode="&#x2dc;" horiz-adv-x="490" 
d="M410 635c0 0 -38 -101 -125 -84c-43 8 -67 39 -98 43c-38 4 -54 -35 -54 -35l-53 23s41 100 125 85c42 -8 66 -39 97 -43c38 -5 55 35 55 35z" />
    <glyph glyph-name="oneSansSerifCircled.ss01" 
d="M415 -5c-196 0 -355 159 -355 355s159 355 355 355c195 0 355 -159 355 -355s-160 -355 -355 -355zM415 29c176 0 319 144 319 321s-143 321 -319 321c-177 0 -319 -144 -319 -321s142 -321 319 -321zM397 155v258h-89v56h55c22 0 38 16 38 39v32h66l1 -385h-71z" />
    <glyph glyph-name="twoSansSerifCircled.ss01" 
d="M415 -5c-196 0 -355 159 -355 355s159 355 355 355c195 0 355 -159 355 -355s-160 -355 -355 -355zM415 29c176 0 319 144 319 321s-143 321 -319 321c-177 0 -319 -144 -319 -321s142 -321 319 -321zM440 315c-52 -31 -84 -52 -84 -81h191v-66h-269v36
c0 83 62 122 113 152c43 26 90 48 90 87c0 29 -25 48 -61 48c-44 0 -71 -27 -71 -69h-70c0 57 40 134 138 134c74 0 133 -44 133 -111c0 -66 -56 -98 -110 -130z" />
    <glyph glyph-name="threeSansSerifCircled.ss01" 
d="M415 -5c-196 0 -355 159 -355 355s159 355 355 355c195 0 355 -159 355 -355s-160 -355 -355 -355zM415 29c176 0 319 144 319 321s-143 321 -319 321c-177 0 -319 -144 -319 -321s142 -321 319 -321zM489 360c36 -11 64 -44 64 -90c0 -63 -52 -116 -135 -116
c-85 0 -138 55 -138 128h67c3 -35 26 -66 72 -66c42 0 65 25 65 57s-22 58 -75 58h-26v57h23c54 0 67 27 67 50c0 29 -22 44 -56 44c-36 0 -56 -16 -59 -40h-66c0 58 54 103 127 103c67 0 121 -38 121 -98c0 -35 -18 -64 -51 -81v-6z" />
    <glyph glyph-name="fourSansSerifCircled.ss01" 
d="M415 -5c-196 0 -355 159 -355 355s159 355 355 355c195 0 355 -159 355 -355s-160 -355 -355 -355zM415 29c176 0 319 144 319 321s-143 321 -319 321c-177 0 -319 -144 -319 -321s142 -321 319 -321zM496 296h59v-59h-59v-81h-64v81h-187v47l159 257h92v-245zM327 296
h105v156h-9z" />
    <glyph glyph-name="fiveSansSerifCircled.ss01" 
d="M415 -5c-196 0 -355 159 -355 355s159 355 355 355c195 0 355 -159 355 -355s-160 -355 -355 -355zM415 29c176 0 319 144 319 321s-143 321 -319 321c-177 0 -319 -144 -319 -321s142 -321 319 -321zM427 416c70 0 133 -53 133 -133c0 -78 -59 -133 -142 -133
c-91 0 -147 67 -147 125h68c6 -41 44 -61 78 -61c40 0 76 28 76 71c0 39 -31 70 -78 70c-32 0 -56 -15 -68 -37l-60 16l22 204h230v-66h-174l-10 -77c20 13 45 21 72 21z" />
    <glyph glyph-name="sixSansSerifCircled.ss01" 
d="M415 -5c-196 0 -355 159 -355 355s159 355 355 355c195 0 355 -159 355 -355s-160 -355 -355 -355zM415 29c176 0 319 144 319 321s-143 321 -319 321c-177 0 -319 -144 -319 -321s142 -321 319 -321zM425 417c59 0 124 -44 124 -128s-66 -130 -136 -130
c-71 0 -136 48 -136 135c0 37 12 74 47 128c32 49 90 125 90 125h80l-108 -144c7 8 17 14 39 14zM413 221c42 0 70 29 70 68s-29 68 -70 68s-70 -29 -70 -68s29 -68 70 -68z" />
    <glyph glyph-name="sevenSansSerifCircled.ss01" 
d="M415 -5c-196 0 -355 159 -355 355s159 355 355 355c195 0 355 -159 355 -355s-160 -355 -355 -355zM415 29c176 0 319 144 319 321s-143 321 -319 321c-177 0 -319 -144 -319 -321s142 -321 319 -321zM296 526h269v-36c-120 -112 -130 -201 -133 -349h-73
c5 155 22 243 95 317h-158v68z" />
    <glyph glyph-name="eightSansSerifCircled.ss01" 
d="M415 -5c-196 0 -355 159 -355 355s159 355 355 355c195 0 355 -159 355 -355s-160 -355 -355 -355zM415 29c176 0 319 144 319 321s-143 321 -319 321c-177 0 -319 -144 -319 -321s142 -321 319 -321zM488 365c42 -14 65 -53 65 -96c0 -62 -46 -115 -137 -115
s-135 53 -135 115c0 43 22 82 64 96v5c-35 15 -49 47 -49 77c0 61 58 98 121 98s120 -37 120 -98c0 -30 -14 -62 -49 -77v-5zM417 484c-32 0 -52 -18 -52 -45c0 -31 26 -46 51 -46s53 15 53 47c0 26 -20 44 -52 44zM416 215c44 0 68 29 68 60c0 29 -22 60 -68 60
c-47 0 -66 -31 -66 -60c0 -31 22 -60 66 -60z" />
    <glyph glyph-name="nineSansSerifCircled.ss01" 
d="M415 -5c-196 0 -355 159 -355 355s159 355 355 355c195 0 355 -159 355 -355s-160 -355 -355 -355zM415 29c176 0 319 144 319 321s-143 321 -319 321c-177 0 -319 -144 -319 -321s142 -321 319 -321zM412 283c-59 0 -124 44 -124 128s66 130 136 130
c71 0 136 -48 136 -135c0 -37 -12 -74 -47 -128c-32 -49 -90 -125 -90 -125h-80l108 144c-7 -8 -17 -14 -39 -14zM424 479c-42 0 -70 -29 -70 -68s29 -68 70 -68s70 29 70 68s-29 68 -70 68z" />
    <glyph glyph-name="tenSansSerifCircled.ss01" 
d="M415 -5c-196 0 -355 159 -355 355s159 355 355 355c195 0 355 -159 355 -355s-160 -355 -355 -355zM415 29c176 0 319 144 319 321s-143 321 -319 321c-177 0 -319 -144 -319 -321s142 -321 319 -321zM503 196c-73 0 -120 61 -120 154s47 153 120 153s120 -60 120 -153
s-46 -154 -120 -154zM279 199v194h-70v52h43c18 0 30 12 30 30v25h60l1 -301h-64zM504 259c41 0 54 44 54 88s-13 92 -54 92s-55 -46 -55 -91s14 -89 55 -89z" />
    <glyph glyph-name="onehalf.ss01" horiz-adv-x="806" 
d="M139 255v258h-89v56h55c22 0 38 16 38 39v32h66l1 -385h-71zM648 640l-498 -640h-40l498 640h40zM640 147c-52 -31 -84 -52 -84 -81h191v-66h-269v36c0 83 62 122 113 152c43 26 90 48 90 87c0 29 -25 48 -61 48c-44 0 -71 -27 -71 -69h-70c0 57 40 134 138 134
c74 0 133 -44 133 -111c0 -66 -56 -98 -110 -130z" />
    <glyph glyph-name="uni2153.ss01" horiz-adv-x="801" 
d="M139 255v258h-89v56h55c22 0 38 16 38 39v32h66l1 -385h-71zM648 640l-498 -640h-40l498 640h40zM687 203c36 -11 64 -44 64 -90c0 -63 -52 -116 -135 -116c-85 0 -138 55 -138 128h67c3 -35 26 -66 72 -66c42 0 65 25 65 57s-22 58 -75 58h-26v57h23c54 0 67 27 67 50
c0 29 -22 44 -56 44c-36 0 -56 -16 -59 -40h-66c0 58 54 103 127 103c67 0 121 -38 121 -98c0 -35 -18 -64 -51 -81v-6z" />
    <glyph glyph-name="uni2154.ss01" horiz-adv-x="889" 
d="M212 402c-52 -31 -84 -52 -84 -81h191v-66h-269v36c0 83 62 122 113 152c43 26 90 48 90 87c0 29 -25 48 -61 48c-44 0 -71 -27 -71 -69h-70c0 57 40 134 138 134c74 0 133 -44 133 -111c0 -66 -56 -98 -110 -130zM736 640l-498 -640h-40l498 640h40zM775 203
c36 -11 64 -44 64 -90c0 -63 -52 -116 -135 -116c-85 0 -138 55 -138 128h67c3 -35 26 -66 72 -66c42 0 65 25 65 57s-22 58 -75 58h-26v57h23c54 0 67 27 67 50c0 29 -22 44 -56 44c-36 0 -56 -16 -59 -40h-66c0 58 54 103 127 103c67 0 121 -38 121 -98
c0 -35 -18 -64 -51 -81v-6z" />
    <glyph glyph-name="onequarter.ss01" horiz-adv-x="758" 
d="M139 255v258h-89v56h55c22 0 38 16 38 39v32h66l1 -385h-71zM648 640l-498 -640h-40l498 640h40zM649 140h59v-59h-59v-81h-64v81h-187v47l159 257h92v-245zM480 140h105v156h-9z" />
    <glyph glyph-name="threequarters.ss01" horiz-adv-x="811" 
d="M259 458c36 -11 64 -44 64 -90c0 -63 -52 -116 -135 -116c-85 0 -138 55 -138 128h67c3 -35 26 -66 72 -66c42 0 65 25 65 57s-22 58 -75 58h-26v57h23c54 0 67 27 67 50c0 29 -22 44 -56 44c-36 0 -56 -16 -59 -40h-66c0 58 54 103 127 103c67 0 121 -38 121 -98
c0 -35 -18 -64 -51 -81v-6zM701 640l-498 -640h-40l498 640h40zM702 140h59v-59h-59v-81h-64v81h-187v47l159 257h92v-245zM533 140h105v156h-9z" />
    <glyph glyph-name="fraction.ss01" horiz-adv-x="218" 
d="M378 640l-498 -640h-40l498 640h40z" />
    <glyph glyph-name="slash.ss01" horiz-adv-x="454" 
d="M424 750l-358 -800h-35l358 800h35z" />
    <glyph glyph-name="backslash.ss01" horiz-adv-x="483" 
d="M60 750h35l358 -800h-35z" />
    <glyph glyph-name="exclam.ss01" horiz-adv-x="260" 
d="M112 700h37l-4 -509h-29zM130 -5c-33 0 -60 27 -60 60c0 34 27 60 60 60s60 -26 60 -60c0 -33 -27 -60 -60 -60z" />
    <glyph glyph-name="exclamdown.ss01" horiz-adv-x="260" 
d="M130 505c33 0 60 -27 60 -60c0 -34 -27 -60 -60 -60s-60 26 -60 60c0 33 27 60 60 60zM112 -200l4 509h29l4 -509h-37z" />
    <glyph glyph-name="exclamdown.case.ss01" horiz-adv-x="260" 
d="M130 705c33 0 60 -27 60 -60c0 -34 -27 -60 -60 -60s-60 26 -60 60c0 33 27 60 60 60zM112 0l4 509h29l4 -509h-37z" />
    <glyph glyph-name="question.ss01" horiz-adv-x="405" 
d="M162 257c0 82 39 133 80 168c49 41 93 78 93 141c0 40 -28 109 -129 109c-121 0 -134 -93 -140 -137h-33c0 69 42 171 171 171c114 0 168 -77 168 -141c0 -81 -51 -121 -100 -163c-56 -48 -74 -95 -74 -150v-62h-36v64zM187 -5c-33 0 -60 27 -60 60c0 34 27 60 60 60
s60 -26 60 -60c0 -33 -27 -60 -60 -60z" />
    <glyph glyph-name="questiondown.ss01" horiz-adv-x="405" 
d="M218 505c33 0 60 -27 60 -60c0 -34 -27 -60 -60 -60s-60 26 -60 60c0 33 27 60 60 60zM243 243c0 -82 -39 -133 -80 -168c-49 -41 -93 -78 -93 -141c0 -40 28 -109 129 -109c121 0 134 93 140 137h33c0 -69 -42 -171 -171 -171c-114 0 -168 77 -168 141
c0 81 51 121 100 163c56 48 74 95 74 150v62h36v-64z" />
    <glyph glyph-name="questiondown.case.ss01" horiz-adv-x="405" 
d="M218 709c33 0 60 -27 60 -60c0 -34 -27 -60 -60 -60s-60 26 -60 60c0 33 27 60 60 60zM243 447c0 -82 -39 -133 -80 -168c-49 -41 -93 -78 -93 -141c0 -40 28 -109 129 -109c121 0 134 93 140 137h33c0 -69 -42 -171 -171 -171c-114 0 -168 77 -168 141
c0 81 51 121 100 163c56 48 74 95 74 150v62h36v-64z" />
    <glyph glyph-name="braceleft.ss01" horiz-adv-x="312" 
d="M161 419c0 -55 -20 -93 -58 -112v-10c38 -19 58 -57 58 -112v-268c0 -43 20 -54 65 -54h11v-32h-29c-59 0 -80 35 -80 78v276c0 54 -31 100 -78 100v34c47 0 77 46 77 100v276c0 43 22 78 81 78h29v-32h-11c-45 0 -65 -11 -65 -54v-268z" />
    <glyph glyph-name="braceleft.case.ss01" horiz-adv-x="312" 
d="M161 467c0 -55 -20 -93 -58 -112v-10c38 -19 58 -57 58 -112v-268c0 -43 20 -54 65 -54h11v-32h-29c-59 0 -80 35 -80 78v276c0 54 -31 100 -78 100v34c47 0 77 46 77 100v276c0 43 22 78 81 78h29v-32h-11c-45 0 -65 -11 -65 -54v-268z" />
    <glyph glyph-name="braceright.ss01" horiz-adv-x="302" 
d="M175 419c0 -54 30 -100 77 -100v-34c-47 0 -78 -46 -78 -100v-276c0 -43 -21 -78 -80 -78h-29v32h11c45 0 65 11 65 54v268c0 55 20 93 58 112v10c-38 19 -58 57 -58 112v268c0 43 -20 54 -65 54h-11v32h29c59 0 81 -35 81 -78v-276z" />
    <glyph glyph-name="braceright.case.ss01" horiz-adv-x="302" 
d="M175 467c0 -54 30 -100 77 -100v-34c-47 0 -78 -46 -78 -100v-276c0 -43 -21 -78 -80 -78h-29v32h11c45 0 65 11 65 54v268c0 55 20 93 58 112v10c-38 19 -58 57 -58 112v268c0 43 -20 54 -65 54h-11v32h29c59 0 81 -35 81 -78v-276z" />
    <glyph glyph-name="bracketleft.ss01" horiz-adv-x="301" 
d="M60 773h151v-32h-117v-878h127v-32h-161v942z" />
    <glyph glyph-name="bracketleft.case.ss01" horiz-adv-x="301" 
d="M60 821h151v-32h-117v-878h127v-32h-161v942z" />
    <glyph glyph-name="bracketright.ss01" horiz-adv-x="301" 
d="M231 773v-942h-161v32h127v878h-117v32h151z" />
    <glyph glyph-name="bracketright.case.ss01" horiz-adv-x="301" 
d="M231 821v-942h-161v32h127v878h-117v32h151z" />
    <glyph glyph-name="parenleft.ss01" horiz-adv-x="285" 
d="M225 -149l-22 -20c-94 113 -158 277 -158 479s64 367 158 480l22 -21c-91 -109 -142 -281 -142 -459s51 -350 142 -459z" />
    <glyph glyph-name="parenleft.case.ss01" horiz-adv-x="285" 
d="M225 -125l-22 -20c-94 113 -158 277 -158 479s64 367 158 480l22 -21c-91 -109 -142 -281 -142 -459s51 -350 142 -459z" />
    <glyph glyph-name="parenright.ss01" horiz-adv-x="285" 
d="M40 -149c91 109 142 281 142 459s-51 350 -142 459l22 21c94 -113 158 -278 158 -480s-64 -366 -158 -479z" />
    <glyph glyph-name="parenright.case.ss01" horiz-adv-x="285" 
d="M40 -125c91 109 142 281 142 459s-51 350 -142 459l22 21c94 -113 158 -278 158 -480s-64 -366 -158 -479z" />
    <glyph glyph-name="underscore.ss01" horiz-adv-x="555" 
d="M60 0h435v-32h-435v32z" />
    <glyph glyph-name="emdash.ss01" horiz-adv-x="880" 
d="M820 327v-32h-760v32h760z" />
    <glyph glyph-name="emdash.case.ss01" horiz-adv-x="880" 
d="M820 367v-32h-760v32h760z" />
    <glyph glyph-name="endash.ss01" horiz-adv-x="555" 
d="M60 327h435v-32h-435v32z" />
    <glyph glyph-name="endash.case.ss01" horiz-adv-x="555" 
d="M60 367h435v-32h-435v32z" />
    <glyph glyph-name="hyphen.ss01" horiz-adv-x="480" 
d="M60 327h360v-32h-360v32z" />
    <glyph glyph-name="hyphen.case.ss01" horiz-adv-x="480" 
d="M60 367h360v-32h-360v32z" />
    <glyph glyph-name="uni00AD.ss01" horiz-adv-x="480" 
d="M60 327h360v-32h-360v32z" />
    <glyph glyph-name="uni00AD.case.ss01" horiz-adv-x="480" 
d="M60 367h360v-32h-360v32z" />
    <glyph glyph-name="guillemotleft.ss01" horiz-adv-x="520" 
d="M224 96l-164 202l164 202h51l-163 -202l163 -202h-51zM409 96l-164 202l164 202h51l-163 -202l163 -202h-51z" />
    <glyph glyph-name="guillemotleft.case.ss01" horiz-adv-x="520" 
d="M224 147l-164 202l164 202h51l-163 -202l163 -202h-51zM409 147l-164 202l164 202h51l-163 -202l163 -202h-51z" />
    <glyph glyph-name="guillemotright.ss01" horiz-adv-x="520" 
d="M111 96h-51l163 202l-163 202h51l164 -202zM296 96h-51l163 202l-163 202h51l164 -202z" />
    <glyph glyph-name="guillemotright.case.ss01" horiz-adv-x="520" 
d="M111 147h-51l163 202l-163 202h51l164 -202zM296 147h-51l163 202l-163 202h51l164 -202z" />
    <glyph glyph-name="guilsinglleft.ss01" horiz-adv-x="335" 
d="M224 96l-164 202l164 202h51l-163 -202l163 -202h-51z" />
    <glyph glyph-name="guilsinglleft.case.ss01" horiz-adv-x="335" 
d="M224 147l-164 202l164 202h51l-163 -202l163 -202h-51z" />
    <glyph glyph-name="guilsinglright.ss01" horiz-adv-x="335" 
d="M111 96h-51l163 202l-163 202h51l164 -202z" />
    <glyph glyph-name="guilsinglright.case.ss01" horiz-adv-x="335" 
d="M111 147h-51l163 202l-163 202h51l164 -202z" />
    <glyph glyph-name="quotedbl.ss01" horiz-adv-x="319" 
d="M103 470h-22l-13 201c-1 22 9 32 24 32s25 -10 24 -32zM238 470h-22l-13 201c-1 22 9 32 24 32s25 -10 24 -32z" />
    <glyph glyph-name="quotesingle.ss01" horiz-adv-x="184" 
d="M103 470h-22l-13 201c-1 22 9 32 24 32s25 -10 24 -32z" />
    <glyph glyph-name="bar.ss01" horiz-adv-x="194" 
d="M114 770v-910h-34v910h34z" />
    <glyph glyph-name="bar.case.ss01" horiz-adv-x="194" 
d="M114 770v-910h-34v910h34z" />
    <glyph glyph-name="brokenbar.ss01" horiz-adv-x="194" 
d="M80 770h34v-355h-34v355zM80 -140v355h34v-355h-34z" />
    <glyph glyph-name="brokenbar.case.ss01" horiz-adv-x="194" 
d="M80 770h34v-355h-34v355zM80 -140v355h34v-355h-34z" />
    <glyph glyph-name="arrowup.ss01" horiz-adv-x="696" 
d="M646 445l-25 -25l-256 259v-712h-34v712l-256 -259l-25 25l285 285h26z" />
    <glyph glyph-name="arrowright.ss01" horiz-adv-x="863" 
d="M538 609l285 -285v-26l-285 -285l-25 25l259 256h-712v34h712l-259 256z" />
    <glyph glyph-name="arrowdown.ss01" horiz-adv-x="696" 
d="M621 270l25 -25l-285 -285h-26l-285 285l25 25l256 -259v712h34v-712z" />
    </font>
</defs>
</svg>
