<?xml version="1.0" standalone="no"?>
<!DOCTYPE svg PUBLIC "-//W3C//DTD SVG 1.1//EN" "http://www.w3.org/Graphics/SVG/1.1/DTD/svg11.dtd" >
<svg xmlns="http://www.w3.org/2000/svg" xmlns:xlink="http://www.w3.org/1999/xlink" version="1.1">
<metadata>
Created by FontForge 20190801 at Tue Sep 12 17:49:39 2017
 By Jimmy Wärting
Copyright \(c\) 2017 by Good Type Foundry Kenneth Knutsen. All rights reserved.
</metadata>
<defs>
<font id="Adieu-Black" horiz-adv-x="0" >
  <font-face 
    font-family="Adieu Black"
    font-weight="900"
    font-stretch="normal"
    units-per-em="1000"
    panose-1="0 0 10 0 0 0 0 0 0 0"
    ascent="800"
    descent="-200"
    x-height="500"
    cap-height="700"
    bbox="-1053 -532 1711 1021"
    underline-thickness="50"
    underline-position="-100"
    stemh="172"
    stemv="202"
    unicode-range="U+0020-25CA"
  />
<missing-glyph horiz-adv-x="843" 
d="M422 -11c-203 0 -362 167 -362 362s163 361 362 361c195 0 361 -162 361 -361c0 -202 -167 -362 -361 -362zM422 63c159 0 287 128 287 288s-128 287 -287 287c-160 0 -288 -127 -288 -287s128 -288 288 -288zM329 394c-37 0 -66 28 -66 64c0 35 29 63 66 63
c35 0 64 -28 64 -63c0 -36 -29 -64 -64 -64zM521 394c-36 0 -63 28 -63 64c0 35 27 63 63 63s65 -28 65 -63c0 -36 -29 -64 -65 -64zM422 151c-122 0 -218 73 -218 188l64 9c4 -51 39 -114 154 -114c113 0 152 63 154 114l63 -9c0 -116 -99 -188 -217 -188z" />
    <glyph glyph-name=".notdef" horiz-adv-x="843" 
d="M422 -11c-203 0 -362 167 -362 362s163 361 362 361c195 0 361 -162 361 -361c0 -202 -167 -362 -361 -362zM422 63c159 0 287 128 287 288s-128 287 -287 287c-160 0 -288 -127 -288 -287s128 -288 288 -288zM329 394c-37 0 -66 28 -66 64c0 35 29 63 66 63
c35 0 64 -28 64 -63c0 -36 -29 -64 -64 -64zM521 394c-36 0 -63 28 -63 64c0 35 27 63 63 63s65 -28 65 -63c0 -36 -29 -64 -65 -64zM422 151c-122 0 -218 73 -218 188l64 9c4 -51 39 -114 154 -114c113 0 152 63 154 114l63 -9c0 -116 -99 -188 -217 -188z" />
    <glyph glyph-name="A" unicode="A" horiz-adv-x="1105" 
d="M25 0l419 700h217l419 -700h-239l-66 118h-445l-66 -118h-239zM426 290h253l-126 228z" />
    <glyph glyph-name="Aacute" unicode="&#xc1;" horiz-adv-x="1105" 
d="M529 744v80l287 186v-102zM25 0l419 700h217l419 -700h-239l-66 118h-445l-66 -118h-239zM426 290h253l-126 228z" />
    <glyph glyph-name="Abreve" unicode="&#x102;" horiz-adv-x="1105" 
d="M553 751c-122 0 -212 59 -213 149h105c2 -55 46 -81 108 -81c64 0 106 26 110 81h103c-1 -90 -77 -149 -213 -149zM25 0l419 700h217l419 -700h-239l-66 118h-445l-66 -118h-239zM426 290h253l-126 228z" />
    <glyph glyph-name="Acircumflex" unicode="&#xc2;" horiz-adv-x="1105" 
d="M840 755l-287 164l-287 -164v80l287 186l287 -186v-80zM661 700l419 -700h-239l-66 118h-445l-66 -118h-239l419 700h217zM426 290h253l-126 228z" />
    <glyph glyph-name="Adieresis" unicode="&#xc4;" horiz-adv-x="1105" 
d="M412 738c-58 0 -99 34 -99 85s41 85 99 85c64 0 99 -34 99 -85s-35 -85 -99 -85zM702 738c-58 0 -99 34 -99 85s41 85 99 85c64 0 99 -34 99 -85s-35 -85 -99 -85zM25 0l419 700h217l419 -700h-239l-66 118h-445l-66 -118h-239zM426 290h253l-126 228z" />
    <glyph glyph-name="Agrave" unicode="&#xc0;" horiz-adv-x="1105" 
d="M559 744l-287 164v102l287 -186v-80zM25 0l419 700h217l419 -700h-239l-66 118h-445l-66 -118h-239zM426 290h253l-126 228z" />
    <glyph glyph-name="Amacron" unicode="&#x100;" horiz-adv-x="1105" 
d="M287 846v54h532v-54h-532zM25 0l419 700h217l419 -700h-239l-66 118h-445l-66 -118h-239zM426 290h253l-126 228z" />
    <glyph glyph-name="Aogonek" unicode="&#x104;" horiz-adv-x="1105" 
d="M1019 -107c28 0 57 3 84 9l-3 -116c-36 -11 -75 -16 -112 -16c-120 0 -230 54 -230 140c0 35 19 76 64 121l1 1l-48 86h-445l-66 -118h-239l419 700h217l419 -700h-162c-19 -20 -27 -36 -27 -50c0 -39 60 -57 128 -57zM426 290h253l-126 228z" />
    <glyph glyph-name="Aring" unicode="&#xc5;" horiz-adv-x="1105" 
d="M553 738c-136 0 -253 41 -253 103s117 103 253 103c150 0 253 -41 253 -103s-103 -103 -253 -103zM553 789c51 0 91 18 91 51c0 36 -37 53 -91 53c-51 0 -89 -17 -89 -52s38 -52 89 -52zM25 0l419 700h217l419 -700h-239l-66 118h-445l-66 -118h-239zM426 290h253
l-126 228z" />
    <glyph glyph-name="Atilde" unicode="&#xc3;" horiz-adv-x="1105" 
d="M638 772c-72 0 -94 72 -135 72c-36 0 -61 -23 -62 -71h-61c1 78 52 130 123 130c64 0 86 -72 135 -72c37 0 62 22 63 71h60c-1 -79 -52 -130 -123 -130zM25 0l419 700h217l419 -700h-239l-66 118h-445l-66 -118h-239zM426 290h253l-126 228z" />
    <glyph glyph-name="AE" unicode="&#xc6;" horiz-adv-x="1455" 
d="M1385 528h-443v-91h434v-163h-434v-102h443v-172h-645v118h-331l-95 -118h-289l609 700h751v-172zM547 290h193v239z" />
    <glyph glyph-name="B" unicode="B" horiz-adv-x="926" 
d="M80 0v700h535c145 0 225 -78 225 -185c0 -103 -76 -152 -194 -159c131 -3 217 -61 217 -170c0 -112 -90 -186 -226 -186h-557zM283 435h297c33 0 58 9 58 46s-25 47 -58 47h-298zM284 173h318c33 0 58 12 58 49s-25 54 -58 54h-319z" />
    <glyph glyph-name="C" unicode="C" horiz-adv-x="924" 
d="M462 -16c-253 0 -422 146 -422 366s169 366 422 366s422 -128 422 -321h-204c-9 101 -96 149 -218 149c-132 0 -220 -66 -220 -194s88 -194 220 -194c123 0 210 48 218 149h204c0 -193 -169 -321 -422 -321z" />
    <glyph glyph-name="Cacute" unicode="&#x106;" horiz-adv-x="924" 
d="M438 744v80l287 186v-102zM462 -16c-253 0 -422 146 -422 366s169 366 422 366s422 -128 422 -321h-204c-9 101 -96 149 -218 149c-132 0 -220 -66 -220 -194s88 -194 220 -194c123 0 210 48 218 149h204c0 -193 -169 -321 -422 -321z" />
    <glyph glyph-name="Ccaron" unicode="&#x10c;" horiz-adv-x="924" 
d="M749 941l-287 -186l-287 186v80l287 -164l287 164v-80zM462 156c123 0 210 48 218 149h204c0 -193 -169 -321 -422 -321s-422 146 -422 366s169 366 422 366s422 -128 422 -321h-204c-9 101 -96 149 -218 149c-132 0 -220 -66 -220 -194s88 -194 220 -194z" />
    <glyph glyph-name="Ccedilla" unicode="&#xc7;" horiz-adv-x="924" 
d="M884 305c0 -172 -134 -292 -342 -316l-30 -59c180 -13 293 -49 293 -107c0 -62 -170 -109 -426 -110v55c160 1 232 23 232 55c0 34 -72 55 -232 58v53l30 52c-223 19 -369 160 -369 364c0 220 169 366 422 366s422 -128 422 -321h-204c-9 101 -96 149 -218 149
c-132 0 -220 -66 -220 -194s88 -194 220 -194c123 0 210 48 218 149h204z" />
    <glyph glyph-name="Cdotaccent" unicode="&#x10a;" horiz-adv-x="924" 
d="M471 738c-58 0 -99 34 -99 85s41 85 99 85c64 0 99 -34 99 -85s-35 -85 -99 -85zM462 -16c-253 0 -422 146 -422 366s169 366 422 366s422 -128 422 -321h-204c-9 101 -96 149 -218 149c-132 0 -220 -66 -220 -194s88 -194 220 -194c123 0 210 48 218 149h204
c0 -193 -169 -321 -422 -321z" />
    <glyph glyph-name="D" unicode="D" horiz-adv-x="865" 
d="M80 0v700h337c253 0 408 -121 408 -350c0 -232 -156 -350 -408 -350h-337zM282 172h135c140 0 206 56 206 178c0 125 -69 178 -206 178h-135v-356z" />
    <glyph glyph-name="Eth" unicode="&#xd0;" horiz-adv-x="865" 
d="M417 700c253 0 408 -121 408 -350c0 -232 -156 -350 -408 -350h-337v264h-60v173h60v263h337zM417 172c140 0 206 56 206 178c0 125 -69 178 -206 178h-135v-91h238v-173h-238v-92h135z" />
    <glyph glyph-name="Dcaron" unicode="&#x10e;" horiz-adv-x="865" 
d="M735 941l-287 -186l-287 186v80l287 -164l287 164v-80zM417 700c253 0 408 -121 408 -350c0 -232 -156 -350 -408 -350h-337v700h337zM417 172c140 0 206 56 206 178c0 125 -69 178 -206 178h-135v-356h135z" />
    <glyph glyph-name="Dcroat" unicode="&#x110;" horiz-adv-x="865" 
d="M417 700c253 0 408 -121 408 -350c0 -232 -156 -350 -408 -350h-337v264h-60v173h60v263h337zM417 172c140 0 206 56 206 178c0 125 -69 178 -206 178h-135v-91h238v-173h-238v-92h135z" />
    <glyph glyph-name="E" unicode="E" horiz-adv-x="855" 
d="M80 0v700h705v-172h-503v-91h494v-163h-494v-102h503v-172h-705z" />
    <glyph glyph-name="Eacute" unicode="&#xc9;" horiz-adv-x="855" 
d="M404 744v80l287 186v-102zM80 0v700h705v-172h-503v-91h494v-163h-494v-102h503v-172h-705z" />
    <glyph glyph-name="Ecaron" unicode="&#x11a;" horiz-adv-x="855" 
d="M715 941l-287 -186l-287 186v80l287 -164l287 164v-80zM785 528h-503v-91h494v-163h-494v-102h503v-172h-705v700h705v-172z" />
    <glyph glyph-name="Ecircumflex" unicode="&#xca;" horiz-adv-x="855" 
d="M715 755l-287 164l-287 -164v80l287 186l287 -186v-80zM785 528h-503v-91h494v-163h-494v-102h503v-172h-705v700h705v-172z" />
    <glyph glyph-name="Edieresis" unicode="&#xcb;" horiz-adv-x="855" 
d="M287 738c-58 0 -99 34 -99 85s41 85 99 85c64 0 99 -34 99 -85s-35 -85 -99 -85zM577 738c-58 0 -99 34 -99 85s41 85 99 85c64 0 99 -34 99 -85s-35 -85 -99 -85zM80 0v700h705v-172h-503v-91h494v-163h-494v-102h503v-172h-705z" />
    <glyph glyph-name="Edotaccent" unicode="&#x116;" horiz-adv-x="855" 
d="M428 738c-58 0 -99 34 -99 85s41 85 99 85c64 0 99 -34 99 -85s-35 -85 -99 -85zM80 0v700h705v-172h-503v-91h494v-163h-494v-102h503v-172h-705z" />
    <glyph glyph-name="Egrave" unicode="&#xc8;" horiz-adv-x="855" 
d="M434 744l-287 164v102l287 -186v-80zM80 0v700h705v-172h-503v-91h494v-163h-494v-102h503v-172h-705z" />
    <glyph glyph-name="Emacron" unicode="&#x112;" horiz-adv-x="855" 
d="M162 846v54h532v-54h-532zM80 0v700h705v-172h-503v-91h494v-163h-494v-102h503v-172h-705z" />
    <glyph glyph-name="Eogonek" unicode="&#x118;" horiz-adv-x="855" 
d="M785 528h-503v-91h494v-163h-494v-102h503v-172h-302c-19 -20 -27 -36 -27 -50c0 -39 60 -57 128 -57c28 0 57 3 84 9l-3 -116c-36 -11 -75 -16 -112 -16c-120 0 -230 54 -230 140c0 27 11 57 37 90h-280v700h705v-172z" />
    <glyph glyph-name="F" unicode="F" horiz-adv-x="765" 
d="M80 0v700h645v-172h-443v-91h434v-163h-434v-274h-202z" />
    <glyph glyph-name="G" unicode="G" horiz-adv-x="954" 
d="M472 -16c-253 0 -422 146 -422 366s169 366 422 366c240 0 421 -109 421 -272h-211c0 72 -84 100 -210 100c-132 0 -220 -66 -220 -194s88 -194 220 -194c94 0 184 24 212 97h-317v140h537v-393h-116l-15 149c-51 -114 -164 -165 -301 -165z" />
    <glyph glyph-name="Gbreve" unicode="&#x11e;" horiz-adv-x="954" 
d="M472 751c-122 0 -212 59 -213 149h105c2 -55 46 -81 108 -81c64 0 106 26 110 81h103c-1 -90 -77 -149 -213 -149zM472 -16c-253 0 -422 146 -422 366s169 366 422 366c240 0 421 -109 421 -272h-211c0 72 -84 100 -210 100c-132 0 -220 -66 -220 -194s88 -194 220 -194
c94 0 184 24 212 97h-317v140h537v-393h-116l-15 149c-51 -114 -164 -165 -301 -165z" />
    <glyph glyph-name="Gcommaaccent" unicode="&#x122;" horiz-adv-x="954" 
d="M472 -16c-253 0 -422 146 -422 366s169 366 422 366c240 0 421 -109 421 -272h-211c0 72 -84 100 -210 100c-132 0 -220 -66 -220 -194s88 -194 220 -194c94 0 184 24 212 97h-317v140h537v-393h-116l-15 149c-51 -114 -164 -165 -301 -165zM338 -350l63 270h170
l-113 -270h-120z" />
    <glyph glyph-name="Gdotaccent" unicode="&#x120;" horiz-adv-x="954" 
d="M472 738c-58 0 -99 34 -99 85s41 85 99 85c64 0 99 -34 99 -85s-35 -85 -99 -85zM472 -16c-253 0 -422 146 -422 366s169 366 422 366c240 0 421 -109 421 -272h-211c0 72 -84 100 -210 100c-132 0 -220 -66 -220 -194s88 -194 220 -194c94 0 184 24 212 97h-317v140h537
v-393h-116l-15 149c-51 -114 -164 -165 -301 -165z" />
    <glyph glyph-name="H" unicode="H" horiz-adv-x="975" 
d="M80 0v700h202v-248h411v248h202v-700h-202v279h-411v-279h-202z" />
    <glyph glyph-name="Hbar" unicode="&#x126;" horiz-adv-x="975" 
d="M954 642v-133h-59v-509h-202v279h-411v-279h-202v509h-59v133h59v58h202v-58h411v58h202v-58h59zM693 452v57h-411v-57h411z" />
    <glyph glyph-name="I" unicode="I" horiz-adv-x="362" 
d="M80 0v700h202v-700h-202z" />
    <glyph glyph-name="Iacute" unicode="&#xcd;" horiz-adv-x="362" 
d="M157 744v80l287 186v-102zM80 0v700h202v-700h-202z" />
    <glyph glyph-name="Icircumflex" unicode="&#xce;" horiz-adv-x="362" 
d="M181 1021l287 -186v-80l-287 164l-287 -164v80zM80 0v700h202v-700h-202z" />
    <glyph glyph-name="Idieresis" unicode="&#xcf;" horiz-adv-x="362" 
d="M40 738c-58 0 -99 34 -99 85s41 85 99 85c64 0 99 -34 99 -85s-35 -85 -99 -85zM330 738c-58 0 -99 34 -99 85s41 85 99 85c64 0 99 -34 99 -85s-35 -85 -99 -85zM80 0v700h202v-700h-202z" />
    <glyph glyph-name="Idotaccent" unicode="&#x130;" horiz-adv-x="362" 
d="M184 738c-58 0 -99 34 -99 85s41 85 99 85c64 0 99 -34 99 -85s-35 -85 -99 -85zM80 0v700h202v-700h-202z" />
    <glyph glyph-name="Igrave" unicode="&#xcc;" horiz-adv-x="362" 
d="M187 744l-287 164v102l287 -186v-80zM80 0v700h202v-700h-202z" />
    <glyph glyph-name="Imacron" unicode="&#x12a;" horiz-adv-x="362" 
d="M-85 846v54h532v-54h-532zM80 0v700h202v-700h-202z" />
    <glyph glyph-name="Iogonek" unicode="&#x12e;" horiz-adv-x="362" 
d="M289 -107c28 0 57 3 84 9l-3 -116c-36 -11 -75 -16 -112 -16c-120 0 -230 54 -230 140c0 32 16 68 52 108v682h202v-700h-94c-19 -20 -27 -36 -27 -50c0 -39 60 -57 128 -57z" />
    <glyph glyph-name="J" unicode="J" horiz-adv-x="815" 
d="M393 -16c-206 0 -343 95 -343 355h203c0 -138 56 -183 140 -183s140 45 140 183v189h-390v172h592v-361c0 -260 -137 -355 -342 -355z" />
    <glyph glyph-name="K" unicode="K" horiz-adv-x="972" 
d="M80 0v700h202v-316l328 316h300l-278 -246l310 -454h-281l-195 307l-184 -162v-145h-202z" />
    <glyph glyph-name="Kcommaaccent" unicode="&#x136;" horiz-adv-x="972" 
d="M80 0v700h202v-316l328 316h300l-278 -246l310 -454h-281l-195 307l-184 -162v-145h-202zM318 -350l63 270h170l-113 -270h-120z" />
    <glyph glyph-name="L" unicode="L" horiz-adv-x="755" 
d="M80 0v700h202v-528h443v-172h-645z" />
    <glyph glyph-name="Lacute" unicode="&#x139;" horiz-adv-x="755" 
d="M80 744v80l287 186v-102zM80 0v700h202v-528h443v-172h-645z" />
    <glyph glyph-name="Lcaron" unicode="&#x13d;" horiz-adv-x="755" 
d="M80 0v700h202v-528h443v-172h-645zM338 429l63 270h170l-113 -270h-120z" />
    <glyph glyph-name="Lcommaaccent" unicode="&#x13b;" horiz-adv-x="755" 
d="M80 0v700h202v-528h443v-172h-645zM256 -350l63 270h170l-113 -270h-120z" />
    <glyph glyph-name="Lslash" unicode="&#x141;" horiz-adv-x="755" 
d="M282 172h443v-172h-645v244l-10 -6l-65 114l75 43v305h202v-189l188 108l66 -113l-254 -146v-188z" />
    <glyph glyph-name="M" unicode="M" horiz-adv-x="1042" 
d="M80 0v700h161l280 -417l280 417h161v-700h-202v334l-218 -334h-42l-218 334v-334h-202z" />
    <glyph glyph-name="N" unicode="N" horiz-adv-x="978" 
d="M80 0v700h159l457 -386v386h202v-700h-160l-456 386v-386h-202z" />
    <glyph glyph-name="Nacute" unicode="&#x143;" horiz-adv-x="978" 
d="M465 744v80l287 186v-102zM80 0v700h159l457 -386v386h202v-700h-160l-456 386v-386h-202z" />
    <glyph glyph-name="Ncaron" unicode="&#x147;" horiz-adv-x="978" 
d="M776 941l-287 -186l-287 186v80l287 -164l287 164v-80zM696 700h202v-700h-160l-456 386v-386h-202v700h159l457 -386v386z" />
    <glyph glyph-name="Ncommaaccent" unicode="&#x145;" horiz-adv-x="978" 
d="M80 0v700h159l457 -386v386h202v-700h-160l-456 386v-386h-202zM345 -350l63 270h170l-113 -270h-120z" />
    <glyph glyph-name="Eng" unicode="&#x14a;" horiz-adv-x="978" 
d="M696 700h202v-700c0 -160 -86 -200 -428 -200v89c196 0 290 27 290 70c0 13 -7 26 -22 41l-456 386v-386h-202v700h159l457 -386v386z" />
    <glyph glyph-name="Ntilde" unicode="&#xd1;" horiz-adv-x="978" 
d="M574 772c-72 0 -94 72 -135 72c-36 0 -61 -23 -62 -71h-61c1 78 52 130 123 130c64 0 86 -72 135 -72c37 0 62 22 63 71h60c-1 -79 -52 -130 -123 -130zM80 0v700h159l457 -386v386h202v-700h-160l-456 386v-386h-202z" />
    <glyph glyph-name="O" unicode="O" horiz-adv-x="965" 
d="M482 -16c-273 0 -442 146 -442 366s169 366 442 366c274 0 443 -146 443 -366s-169 -366 -443 -366zM482 156c153 0 241 66 241 194s-88 194 -241 194c-152 0 -240 -66 -240 -194s88 -194 240 -194z" />
    <glyph glyph-name="Oacute" unicode="&#xd3;" horiz-adv-x="965" 
d="M459 744v80l287 186v-102zM482 -16c-273 0 -442 146 -442 366s169 366 442 366c274 0 443 -146 443 -366s-169 -366 -443 -366zM482 156c153 0 241 66 241 194s-88 194 -241 194c-152 0 -240 -66 -240 -194s88 -194 240 -194z" />
    <glyph glyph-name="Ocircumflex" unicode="&#xd4;" horiz-adv-x="965" 
d="M770 755l-287 164l-287 -164v80l287 186l287 -186v-80zM482 716c274 0 443 -146 443 -366s-169 -366 -443 -366c-273 0 -442 146 -442 366s169 366 442 366zM482 156c153 0 241 66 241 194s-88 194 -241 194c-152 0 -240 -66 -240 -194s88 -194 240 -194z" />
    <glyph glyph-name="Odieresis" unicode="&#xd6;" horiz-adv-x="965" 
d="M342 738c-58 0 -99 34 -99 85s41 85 99 85c64 0 99 -34 99 -85s-35 -85 -99 -85zM632 738c-58 0 -99 34 -99 85s41 85 99 85c64 0 99 -34 99 -85s-35 -85 -99 -85zM482 -16c-273 0 -442 146 -442 366s169 366 442 366c274 0 443 -146 443 -366s-169 -366 -443 -366z
M482 156c153 0 241 66 241 194s-88 194 -241 194c-152 0 -240 -66 -240 -194s88 -194 240 -194z" />
    <glyph glyph-name="Ograve" unicode="&#xd2;" horiz-adv-x="965" 
d="M489 744l-287 164v102l287 -186v-80zM482 -16c-273 0 -442 146 -442 366s169 366 442 366c274 0 443 -146 443 -366s-169 -366 -443 -366zM482 156c153 0 241 66 241 194s-88 194 -241 194c-152 0 -240 -66 -240 -194s88 -194 240 -194z" />
    <glyph glyph-name="Ohungarumlaut" unicode="&#x150;" horiz-adv-x="965" 
d="M347 744v80l287 186v-102zM597 744v80l287 186v-102zM482 -16c-273 0 -442 146 -442 366s169 366 442 366c274 0 443 -146 443 -366s-169 -366 -443 -366zM482 156c153 0 241 66 241 194s-88 194 -241 194c-152 0 -240 -66 -240 -194s88 -194 240 -194z" />
    <glyph glyph-name="Omacron" unicode="&#x14c;" horiz-adv-x="965" 
d="M217 846v54h532v-54h-532zM482 -16c-273 0 -442 146 -442 366s169 366 442 366c274 0 443 -146 443 -366s-169 -366 -443 -366zM482 156c153 0 241 66 241 194s-88 194 -241 194c-152 0 -240 -66 -240 -194s88 -194 240 -194z" />
    <glyph glyph-name="Oslash" unicode="&#xd8;" horiz-adv-x="965" 
d="M984 700l-142 -119c54 -61 83 -140 83 -231c0 -220 -169 -366 -443 -366c-109 0 -201 23 -272 65l-58 -49h-171l142 119c-54 61 -83 140 -83 231c0 220 169 366 442 366c109 0 201 -23 273 -65l58 49h171zM242 350c0 -42 10 -78 28 -107l335 282c-34 13 -75 19 -123 19
c-152 0 -240 -66 -240 -194zM723 350c0 42 -10 78 -28 107l-335 -282c34 -13 75 -19 122 -19c153 0 241 66 241 194z" />
    <glyph glyph-name="Otilde" unicode="&#xd5;" horiz-adv-x="965" 
d="M568 772c-72 0 -94 72 -135 72c-36 0 -61 -23 -62 -71h-61c1 78 52 130 123 130c64 0 86 -72 135 -72c37 0 62 22 63 71h60c-1 -79 -52 -130 -123 -130zM482 -16c-273 0 -442 146 -442 366s169 366 442 366c274 0 443 -146 443 -366s-169 -366 -443 -366zM482 156
c153 0 241 66 241 194s-88 194 -241 194c-152 0 -240 -66 -240 -194s88 -194 240 -194z" />
    <glyph glyph-name="OE" unicode="&#x152;" horiz-adv-x="1515" 
d="M1445 528h-503v-91h494v-163h-494v-102h503v-172h-705v40c-69 -36 -157 -56 -258 -56c-273 0 -442 146 -442 366s169 366 442 366c101 0 189 -20 258 -56v40h705v-172zM482 156c153 0 241 66 241 194s-88 194 -241 194c-152 0 -240 -66 -240 -194s88 -194 240 -194z" />
    <glyph glyph-name="P" unicode="P" horiz-adv-x="870" 
d="M80 0v700h515c145 0 235 -97 235 -214c0 -142 -100 -213 -235 -213h-313v-273h-202zM281 435h289c37 0 58 14 58 51s-21 52 -58 52h-289v-103z" />
    <glyph glyph-name="Thorn" unicode="&#xde;" horiz-adv-x="830" 
d="M575 500c145 0 235 -97 235 -214c0 -142 -100 -213 -235 -213h-309v-73h-206v700h205v-200h310zM550 235c37 0 58 14 58 51s-21 52 -58 52h-284v-103h284z" />
    <glyph glyph-name="Q" unicode="Q" horiz-adv-x="985" 
d="M996 145l-107 -171l-116 86c-74 -49 -173 -76 -291 -76c-273 0 -442 146 -442 366s169 366 442 366c274 0 443 -146 443 -366c0 -56 -11 -107 -31 -152zM482 156c51 0 95 7 130 22l-125 92l66 106l163 -85c5 18 7 38 7 59c0 128 -88 194 -241 194
c-152 0 -240 -66 -240 -194s88 -194 240 -194z" />
    <glyph glyph-name="R" unicode="R" horiz-adv-x="941" 
d="M80 0v700h565c145 0 225 -78 225 -185c0 -112 -90 -176 -225 -176h-72c172 -11 237 -111 348 -339h-266c-130 233 -154 282 -264 282h-110l1 -282h-202zM281 435h329c38 0 58 14 58 51s-20 52 -58 52h-330z" />
    <glyph glyph-name="Racute" unicode="&#x154;" horiz-adv-x="941" 
d="M428 744v80l287 186v-102zM80 0v700h565c145 0 225 -78 225 -185c0 -112 -90 -176 -225 -176h-72c172 -11 237 -111 348 -339h-266c-130 233 -154 282 -264 282h-110l1 -282h-202zM281 435h329c38 0 58 14 58 51s-20 52 -58 52h-330z" />
    <glyph glyph-name="Rcaron" unicode="&#x158;" horiz-adv-x="941" 
d="M739 941l-287 -186l-287 186v80l287 -164l287 164v-80zM573 339c172 -11 237 -111 348 -339h-266c-130 233 -154 282 -264 282h-110l1 -282h-202v700h565c145 0 225 -78 225 -185c0 -112 -90 -176 -225 -176h-72zM281 435h329c38 0 58 14 58 51s-20 52 -58 52h-330z" />
    <glyph glyph-name="Rcommaaccent" unicode="&#x156;" horiz-adv-x="941" 
d="M80 0v700h565c145 0 225 -78 225 -185c0 -112 -90 -176 -225 -176h-72c172 -11 237 -111 348 -339h-266c-130 233 -154 282 -264 282h-110l1 -282h-202zM281 435h329c38 0 58 14 58 51s-20 52 -58 52h-330zM310 -350l63 270h170l-113 -270h-120z" />
    <glyph glyph-name="S" unicode="S" horiz-adv-x="886" 
d="M448 -16c-247 0 -411 98 -408 247h216c-1 -26 34 -72 174 -75c109 -2 213 6 213 60c0 100 -587 -38 -587 262c0 144 150 238 374 238c230 0 388 -98 390 -247h-216c1 26 -23 73 -157 75c-100 2 -188 -6 -188 -60c0 -108 587 17 587 -262c0 -144 -159 -238 -398 -238z" />
    <glyph glyph-name="Sacute" unicode="&#x15a;" horiz-adv-x="886" 
d="M414 744v80l287 186v-102zM448 -16c-247 0 -411 98 -408 247h216c-1 -26 34 -72 174 -75c109 -2 213 6 213 60c0 100 -587 -38 -587 262c0 144 150 238 374 238c230 0 388 -98 390 -247h-216c1 26 -23 73 -157 75c-100 2 -188 -6 -188 -60c0 -108 587 17 587 -262
c0 -144 -159 -238 -398 -238z" />
    <glyph glyph-name="Scaron" unicode="&#x160;" horiz-adv-x="886" 
d="M725 941l-287 -186l-287 186v80l287 -164l287 164v-80zM259 484c0 -108 587 17 587 -262c0 -144 -159 -238 -398 -238c-247 0 -411 98 -408 247h216c-1 -26 34 -72 174 -75c109 -2 213 6 213 60c0 100 -587 -38 -587 262c0 144 150 238 374 238c230 0 388 -98 390 -247
h-216c1 26 -23 73 -157 75c-100 2 -188 -6 -188 -60z" />
    <glyph glyph-name="Scedilla" unicode="&#x15e;" horiz-adv-x="886" 
d="M846 222c0 -132 -133 -222 -339 -236l-29 -56c180 -13 293 -49 293 -107c0 -62 -170 -109 -426 -110v55c160 1 232 23 232 55c0 34 -72 55 -232 58v53l30 53c-206 17 -338 110 -335 244h216c-1 -26 34 -72 174 -75c109 -2 213 6 213 60c0 100 -587 -38 -587 262
c0 144 150 238 374 238c230 0 388 -98 390 -247h-216c1 26 -23 73 -157 75c-100 2 -188 -6 -188 -60c0 -108 587 17 587 -262z" />
    <glyph glyph-name="Scommaaccent" unicode="&#x218;" horiz-adv-x="886" 
d="M448 -16c-247 0 -411 98 -408 247h216c-1 -26 34 -72 174 -75c109 -2 213 6 213 60c0 100 -587 -38 -587 262c0 144 150 238 374 238c230 0 388 -98 390 -247h-216c1 26 -23 73 -157 75c-100 2 -188 -6 -188 -60c0 -108 587 17 587 -262c0 -144 -159 -238 -398 -238z
M319 -350l63 270h170l-113 -270h-120z" />
    <glyph glyph-name="T" unicode="T" horiz-adv-x="873" 
d="M335 0v528h-310v172h823v-172h-311v-528h-202z" />
    <glyph glyph-name="Tbar" unicode="&#x166;" horiz-adv-x="873" 
d="M848 528h-311v-111h150v-173h-150v-244h-202v244h-148v173h148v111h-310v172h823v-172z" />
    <glyph glyph-name="Tcaron" unicode="&#x164;" horiz-adv-x="873" 
d="M724 941l-287 -186l-287 186v80l287 -164l287 164v-80zM25 700h823v-172h-311v-528h-202v528h-310v172z" />
    <glyph glyph-name="uni0162" unicode="&#x162;" horiz-adv-x="873" 
d="M537 0h-73l-36 -70c180 -13 293 -49 293 -107c0 -62 -170 -109 -426 -110v55c160 1 232 23 232 55c0 34 -72 55 -232 58v53l40 70v524h-310v172h823v-172h-311v-528z" />
    <glyph glyph-name="uni021A" unicode="&#x21a;" horiz-adv-x="873" 
d="M335 0v528h-310v172h823v-172h-311v-528h-202zM284 -350l63 270h170l-113 -270h-120z" />
    <glyph glyph-name="U" unicode="U" horiz-adv-x="924" 
d="M462 -16c-229 0 -382 82 -382 380v336h202v-366c0 -112 69 -170 180 -170s180 58 180 170v366h202v-336c0 -298 -153 -380 -382 -380z" />
    <glyph glyph-name="Uacute" unicode="&#xda;" horiz-adv-x="924" 
d="M438 744v80l287 186v-102zM462 -16c-229 0 -382 82 -382 380v336h202v-366c0 -112 69 -170 180 -170s180 58 180 170v366h202v-336c0 -298 -153 -380 -382 -380z" />
    <glyph glyph-name="Ucircumflex" unicode="&#xdb;" horiz-adv-x="924" 
d="M749 755l-287 164l-287 -164v80l287 186l287 -186v-80zM642 700h202v-336c0 -298 -153 -380 -382 -380s-382 82 -382 380v336h202v-366c0 -112 69 -170 180 -170s180 58 180 170v366z" />
    <glyph glyph-name="Udieresis" unicode="&#xdc;" horiz-adv-x="924" 
d="M321 738c-58 0 -99 34 -99 85s41 85 99 85c64 0 99 -34 99 -85s-35 -85 -99 -85zM611 738c-58 0 -99 34 -99 85s41 85 99 85c64 0 99 -34 99 -85s-35 -85 -99 -85zM462 -16c-229 0 -382 82 -382 380v336h202v-366c0 -112 69 -170 180 -170s180 58 180 170v366h202v-336
c0 -298 -153 -380 -382 -380z" />
    <glyph glyph-name="Ugrave" unicode="&#xd9;" horiz-adv-x="924" 
d="M468 744l-287 164v102l287 -186v-80zM462 -16c-229 0 -382 82 -382 380v336h202v-366c0 -112 69 -170 180 -170s180 58 180 170v366h202v-336c0 -298 -153 -380 -382 -380z" />
    <glyph glyph-name="Uhungarumlaut" unicode="&#x170;" horiz-adv-x="924" 
d="M326 744v80l287 186v-102zM576 744v80l287 186v-102zM462 -16c-229 0 -382 82 -382 380v336h202v-366c0 -112 69 -170 180 -170s180 58 180 170v366h202v-336c0 -298 -153 -380 -382 -380z" />
    <glyph glyph-name="Umacron" unicode="&#x16a;" horiz-adv-x="924" 
d="M196 846v54h532v-54h-532zM462 -16c-229 0 -382 82 -382 380v336h202v-366c0 -112 69 -170 180 -170s180 58 180 170v366h202v-336c0 -298 -153 -380 -382 -380z" />
    <glyph glyph-name="Uogonek" unicode="&#x172;" horiz-adv-x="924" 
d="M642 700h202v-336c0 -266 -122 -360 -311 -377c-11 -14 -16 -26 -16 -37c0 -39 60 -57 128 -57c28 0 57 3 84 9l-3 -116c-36 -11 -75 -16 -112 -16c-120 0 -230 54 -230 140c0 23 8 48 26 76c-200 12 -330 103 -330 378v336h202v-366c0 -112 69 -170 180 -170
s180 58 180 170v366z" />
    <glyph glyph-name="Uring" unicode="&#x16e;" horiz-adv-x="924" 
d="M462 738c-136 0 -253 41 -253 103s117 103 253 103c150 0 253 -41 253 -103s-103 -103 -253 -103zM462 789c51 0 91 18 91 51c0 36 -37 53 -91 53c-51 0 -89 -17 -89 -52s38 -52 89 -52zM462 -16c-229 0 -382 82 -382 380v336h202v-366c0 -112 69 -170 180 -170
s180 58 180 170v366h202v-336c0 -298 -153 -380 -382 -380z" />
    <glyph glyph-name="V" unicode="V" horiz-adv-x="1080" 
d="M394 0l-369 700h239l276 -554l276 554h239l-369 -700h-292z" />
    <glyph glyph-name="W" unicode="W" horiz-adv-x="1281" 
d="M284 0l-259 700h229l146 -416l126 416h229l127 -416l145 416h229l-259 -700h-242l-114 350l-115 -350h-242z" />
    <glyph glyph-name="Wacute" unicode="&#x1e82;" horiz-adv-x="1281" 
d="M617 744v80l287 186v-102zM284 0l-259 700h229l146 -416l126 416h229l127 -416l145 416h229l-259 -700h-242l-114 350l-115 -350h-242z" />
    <glyph glyph-name="Wcircumflex" unicode="&#x174;" horiz-adv-x="1281" 
d="M928 755l-287 164l-287 -164v80l287 186l287 -186v-80zM1027 700h229l-259 -700h-242l-114 350l-115 -350h-242l-259 700h229l146 -416l126 416h229l127 -416z" />
    <glyph glyph-name="Wdieresis" unicode="&#x1e84;" horiz-adv-x="1281" 
d="M500 738c-58 0 -99 34 -99 85s41 85 99 85c64 0 99 -34 99 -85s-35 -85 -99 -85zM790 738c-58 0 -99 34 -99 85s41 85 99 85c64 0 99 -34 99 -85s-35 -85 -99 -85zM284 0l-259 700h229l146 -416l126 416h229l127 -416l145 416h229l-259 -700h-242l-114 350l-115 -350
h-242z" />
    <glyph glyph-name="Wgrave" unicode="&#x1e80;" horiz-adv-x="1281" 
d="M647 744l-287 164v102l287 -186v-80zM284 0l-259 700h229l146 -416l126 416h229l127 -416l145 416h229l-259 -700h-242l-114 350l-115 -350h-242z" />
    <glyph glyph-name="X" unicode="X" horiz-adv-x="945" 
d="M25 0l306 354l-301 346h279l166 -191l166 191h279l-306 -352l301 -348h-276l-169 194l-169 -194h-276z" />
    <glyph glyph-name="Y" unicode="Y" horiz-adv-x="1070" 
d="M434 0v226l-409 474h249l261 -311l261 311h249l-409 -473v-227h-202z" />
    <glyph glyph-name="Yacute" unicode="&#xdd;" horiz-adv-x="1070" 
d="M511 744v80l287 186v-102zM434 0v226l-409 474h249l261 -311l261 311h249l-409 -473v-227h-202z" />
    <glyph glyph-name="Ycircumflex" unicode="&#x176;" horiz-adv-x="1070" 
d="M822 755l-287 164l-287 -164v80l287 186l287 -186v-80zM796 700h249l-409 -473v-227h-202v226l-409 474h249l261 -311z" />
    <glyph glyph-name="Ydieresis" unicode="&#x178;" horiz-adv-x="1070" 
d="M394 738c-58 0 -99 34 -99 85s41 85 99 85c64 0 99 -34 99 -85s-35 -85 -99 -85zM684 738c-58 0 -99 34 -99 85s41 85 99 85c64 0 99 -34 99 -85s-35 -85 -99 -85zM434 0v226l-409 474h249l261 -311l261 311h249l-409 -473v-227h-202z" />
    <glyph glyph-name="Ygrave" unicode="&#x1ef2;" horiz-adv-x="1070" 
d="M541 744l-287 164v102l287 -186v-80zM434 0v226l-409 474h249l261 -311l261 311h249l-409 -473v-227h-202z" />
    <glyph glyph-name="Z" unicode="Z" horiz-adv-x="913" 
d="M35 0v132l485 396h-477v172h825v-130l-483 -398h493v-172h-843z" />
    <glyph glyph-name="Zacute" unicode="&#x179;" horiz-adv-x="913" 
d="M418 744v80l287 186v-102zM35 0v132l485 396h-477v172h825v-130l-483 -398h493v-172h-843z" />
    <glyph glyph-name="Zcaron" unicode="&#x17d;" horiz-adv-x="913" 
d="M729 941l-287 -186l-287 186v80l287 -164l287 164v-80zM385 172h493v-172h-843v132l485 396h-477v172h825v-130z" />
    <glyph glyph-name="Zdotaccent" unicode="&#x17b;" horiz-adv-x="913" 
d="M442 738c-58 0 -99 34 -99 85s41 85 99 85c64 0 99 -34 99 -85s-35 -85 -99 -85zM35 0v132l485 396h-477v172h825v-130l-483 -398h493v-172h-843z" />
    <glyph glyph-name="A.001" horiz-adv-x="1105" 
d="M25 0l379 700h297l379 -700h-229l-59 118h-479l-59 -118h-229zM398 290h309l-155 310z" />
    <glyph glyph-name="B.001" horiz-adv-x="926" 
d="M80 0v700h535c145 0 225 -78 225 -185c0 -112 -90 -150 -225 -150h-41v-20h63c136 0 226 -47 226 -159s-90 -186 -226 -186h-557zM283 435h297c33 0 58 9 58 46s-25 47 -58 47h-298zM284 173h318c33 0 58 12 58 49s-25 54 -58 54h-319z" />
    <glyph glyph-name="C.001" horiz-adv-x="847" 
d="M512 -16c-303 0 -472 146 -472 366s169 366 472 366c118 -1 203 -14 295 -54v-182c-81 41 -189 64 -295 64c-182 0 -270 -66 -270 -194s88 -194 270 -194c106 0 214 23 295 64v-182c-92 -40 -177 -53 -295 -54z" />
    <glyph glyph-name="G.001" horiz-adv-x="927" 
d="M522 -16c-303 0 -472 146 -472 366s169 366 472 366c118 -1 243 -14 335 -54v-182c-76 38 -220 64 -335 64c-182 0 -270 -66 -270 -194s88 -194 270 -194c57 0 119 6 185 16v92h-328v163h498v-369c-58 -41 -173 -74 -355 -74z" />
    <glyph glyph-name="J.001" horiz-adv-x="722" 
d="M300 -16c-118 1 -203 14 -295 54v192c94 -47 201 -74 295 -74c84 0 140 45 140 183v361h202v-361c0 -260 -137 -355 -342 -355z" />
    <glyph glyph-name="K.001" horiz-adv-x="972" 
d="M80 0v700h202v-331l308 331h300l-262 -239l314 -461h-281l-198 312c-60 -50 -143 -105 -181 -122v-190h-202z" />
    <glyph glyph-name="R.001" horiz-adv-x="931" 
d="M80 0v700h565c145 0 225 -78 225 -185c0 -112 -90 -176 -225 -176h-105v-21c197 0 263 -76 381 -318h-266c-130 233 -154 282 -264 282h-110l1 -282h-202zM281 435h329c38 0 58 14 58 51s-20 52 -58 52h-330z" />
    <glyph glyph-name="S.001" horiz-adv-x="879" 
d="M433 -15c-161 0 -309 47 -367 74v185c66 -35 229 -87 351 -87c159 0 220 28 220 77c0 124 -597 -73 -597 260c0 161 188 221 388 221c121 0 258 -13 351 -54v-182c-78 39 -236 64 -336 64c-138 0 -201 -30 -201 -68c0 -108 597 70 597 -259c0 -183 -220 -231 -406 -231z
" />
    <glyph glyph-name="a" unicode="a" horiz-adv-x="694" 
d="M226 -16c-74 0 -186 16 -186 132c0 110 131 161 402 178c0 28 -37 47 -92 47c-78 0 -180 -22 -247 -51v172c84 31 199 54 287 54c186 0 254 -94 254 -234v-282h-192l19 179h-12c-30 -137 -80 -195 -233 -195zM320 120c56 0 124 28 122 96c-115 -7 -194 -22 -194 -60
c0 -23 33 -36 72 -36z" />
    <glyph glyph-name="aacute" unicode="&#xe1;" horiz-adv-x="694" 
d="M362 544v80l287 186v-102zM226 -16c-74 0 -186 16 -186 132c0 110 131 161 402 178c0 28 -37 47 -92 47c-78 0 -180 -22 -247 -51v172c84 31 199 54 287 54c186 0 254 -94 254 -234v-282h-192l19 179h-12c-30 -137 -80 -195 -233 -195zM320 120c56 0 124 28 122 96
c-115 -7 -194 -22 -194 -60c0 -23 33 -36 72 -36z" />
    <glyph glyph-name="abreve" unicode="&#x103;" horiz-adv-x="694" 
d="M386 551c-122 0 -212 59 -213 149h105c2 -55 46 -81 108 -81c64 0 106 26 110 81h103c-1 -90 -77 -149 -213 -149zM226 -16c-74 0 -186 16 -186 132c0 110 131 161 402 178c0 28 -37 47 -92 47c-78 0 -180 -22 -247 -51v172c84 31 199 54 287 54c186 0 254 -94 254 -234
v-282h-192l19 179h-12c-30 -137 -80 -195 -233 -195zM320 120c56 0 124 28 122 96c-115 -7 -194 -22 -194 -60c0 -23 33 -36 72 -36z" />
    <glyph glyph-name="acircumflex" unicode="&#xe2;" horiz-adv-x="694" 
d="M386 821l287 -186v-80l-287 164l-287 -164v80zM390 516c186 0 254 -94 254 -234v-282h-192l19 179h-12c-30 -137 -80 -195 -233 -195c-74 0 -186 16 -186 132c0 110 131 161 402 178c0 28 -37 47 -92 47c-78 0 -180 -22 -247 -51v172c84 31 199 54 287 54zM320 120
c56 0 124 28 122 96c-115 -7 -194 -22 -194 -60c0 -23 33 -36 72 -36z" />
    <glyph glyph-name="adieresis" unicode="&#xe4;" horiz-adv-x="694" 
d="M245 538c-58 0 -99 34 -99 85s41 85 99 85c64 0 99 -34 99 -85s-35 -85 -99 -85zM535 538c-58 0 -99 34 -99 85s41 85 99 85c64 0 99 -34 99 -85s-35 -85 -99 -85zM226 -16c-74 0 -186 16 -186 132c0 110 131 161 402 178c0 28 -37 47 -92 47c-78 0 -180 -22 -247 -51
v172c84 31 199 54 287 54c186 0 254 -94 254 -234v-282h-192l19 179h-12c-30 -137 -80 -195 -233 -195zM320 120c56 0 124 28 122 96c-115 -7 -194 -22 -194 -60c0 -23 33 -36 72 -36z" />
    <glyph glyph-name="agrave" unicode="&#xe0;" horiz-adv-x="694" 
d="M392 544l-287 164v102l287 -186v-80zM226 -16c-74 0 -186 16 -186 132c0 110 131 161 402 178c0 28 -37 47 -92 47c-78 0 -180 -22 -247 -51v172c84 31 199 54 287 54c186 0 254 -94 254 -234v-282h-192l19 179h-12c-30 -137 -80 -195 -233 -195zM320 120
c56 0 124 28 122 96c-115 -7 -194 -22 -194 -60c0 -23 33 -36 72 -36z" />
    <glyph glyph-name="amacron" unicode="&#x101;" horiz-adv-x="694" 
d="M120 646v54h532v-54h-532zM226 -16c-74 0 -186 16 -186 132c0 110 131 161 402 178c0 28 -37 47 -92 47c-78 0 -180 -22 -247 -51v172c84 31 199 54 287 54c186 0 254 -94 254 -234v-282h-192l19 179h-12c-30 -137 -80 -195 -233 -195zM320 120c56 0 124 28 122 96
c-115 -7 -194 -22 -194 -60c0 -23 33 -36 72 -36z" />
    <glyph glyph-name="aogonek" unicode="&#x105;" horiz-adv-x="694" 
d="M661 -107c28 0 57 3 84 9l-3 -116c-36 -11 -75 -16 -112 -16c-120 0 -230 54 -230 140c0 32 16 70 54 111l17 158h-12c-30 -137 -80 -195 -233 -195c-74 0 -186 16 -186 132c0 110 131 161 402 178c0 28 -37 47 -92 47c-78 0 -180 -22 -247 -51v172c84 31 199 54 287 54
c186 0 254 -94 254 -234v-282h-84c-19 -20 -27 -36 -27 -50c0 -39 60 -57 128 -57zM320 120c56 0 124 28 122 96c-115 -7 -194 -22 -194 -60c0 -23 33 -36 72 -36z" />
    <glyph glyph-name="aring" unicode="&#xe5;" horiz-adv-x="694" 
d="M386 538c-136 0 -253 41 -253 103s117 103 253 103c150 0 253 -41 253 -103s-103 -103 -253 -103zM386 589c51 0 91 18 91 51c0 36 -37 53 -91 53c-51 0 -89 -17 -89 -52s38 -52 89 -52zM226 -16c-74 0 -186 16 -186 132c0 110 131 161 402 178c0 28 -37 47 -92 47
c-78 0 -180 -22 -247 -51v172c84 31 199 54 287 54c186 0 254 -94 254 -234v-282h-192l19 179h-12c-30 -137 -80 -195 -233 -195zM320 120c56 0 124 28 122 96c-115 -7 -194 -22 -194 -60c0 -23 33 -36 72 -36z" />
    <glyph glyph-name="atilde" unicode="&#xe3;" horiz-adv-x="694" 
d="M471 572c-72 0 -94 72 -135 72c-36 0 -61 -23 -62 -71h-61c1 78 52 130 123 130c64 0 86 -72 135 -72c37 0 62 22 63 71h60c-1 -79 -52 -130 -123 -130zM226 -16c-74 0 -186 16 -186 132c0 110 131 161 402 178c0 28 -37 47 -92 47c-78 0 -180 -22 -247 -51v172
c84 31 199 54 287 54c186 0 254 -94 254 -234v-282h-192l19 179h-12c-30 -137 -80 -195 -233 -195zM320 120c56 0 124 28 122 96c-115 -7 -194 -22 -194 -60c0 -23 33 -36 72 -36z" />
    <glyph glyph-name="ae" unicode="&#xe6;" horiz-adv-x="1091" 
d="M226 -16c-74 0 -186 16 -186 132c0 154 295 163 410 161c0 57 -45 64 -100 64c-78 0 -180 -22 -247 -51v172c84 31 199 54 287 54c81 0 136 -18 172 -50c50 32 114 50 188 50c179 0 298 -91 301 -227v-82h-402c17 -44 66 -68 151 -68c122 0 172 31 229 55v-161
c-78 -29 -139 -49 -279 -49c-143 0 -248 66 -286 174c-16 -112 -101 -174 -238 -174zM644 277l212 5c-5 50 -51 72 -106 72c-51 0 -95 -25 -106 -77zM322 119c53 1 117 28 120 89c-80 0 -194 -3 -194 -52c0 -24 34 -37 74 -37z" />
    <glyph glyph-name="b" unicode="b" horiz-adv-x="786" 
d="M495 -16c-128 0 -228 72 -249 179h-12l22 -163h-206v700h202v-362h4c22 107 117 178 237 178c152 0 253 -105 253 -262c0 -162 -100 -270 -251 -270zM414 146c69 0 140 30 140 106c0 75 -71 102 -140 102c-70 0 -142 -27 -142 -102c0 -76 72 -106 142 -106z" />
    <glyph glyph-name="c" unicode="c" horiz-adv-x="609" 
d="M331 -16c-181 0 -291 106 -291 266c0 161 103 266 292 266c90 0 157 -18 237 -54v-170c-57 34 -126 62 -211 62c-79 0 -126 -43 -126 -104s50 -104 129 -104c84 0 153 27 208 61v-169c-81 -36 -139 -54 -238 -54z" />
    <glyph glyph-name="cacute" unicode="&#x107;" horiz-adv-x="609" 
d="M308 544v80l287 186v-102zM331 -16c-181 0 -291 106 -291 266c0 161 103 266 292 266c90 0 157 -18 237 -54v-170c-57 34 -126 62 -211 62c-79 0 -126 -43 -126 -104s50 -104 129 -104c84 0 153 27 208 61v-169c-81 -36 -139 -54 -238 -54z" />
    <glyph glyph-name="ccaron" unicode="&#x10d;" horiz-adv-x="609" 
d="M332 657l287 164v-80l-287 -186l-287 186v80zM40 250c0 161 103 266 292 266c90 0 157 -18 237 -54v-170c-57 34 -126 62 -211 62c-79 0 -126 -43 -126 -104s50 -104 129 -104c84 0 153 27 208 61v-169c-81 -36 -139 -54 -238 -54c-181 0 -291 106 -291 266z" />
    <glyph glyph-name="ccedilla" unicode="&#xe7;" horiz-adv-x="609" 
d="M379 -70c180 -13 293 -49 293 -107c0 -62 -170 -109 -426 -110v55c160 1 232 23 232 55c0 34 -72 55 -232 58v53l31 53c-149 20 -237 120 -237 263c0 161 103 266 292 266c90 0 157 -18 237 -54v-170c-57 34 -126 62 -211 62c-79 0 -126 -43 -126 -104s50 -104 129 -104
c84 0 153 27 208 61v-169c-57 -25 -103 -42 -160 -49z" />
    <glyph glyph-name="cdotaccent" unicode="&#x10b;" horiz-adv-x="609" 
d="M332 538c-58 0 -99 34 -99 85s41 85 99 85c64 0 99 -34 99 -85s-35 -85 -99 -85zM331 -16c-181 0 -291 106 -291 266c0 161 103 266 292 266c90 0 157 -18 237 -54v-170c-57 34 -126 62 -211 62c-79 0 -126 -43 -126 -104s50 -104 129 -104c84 0 153 27 208 61v-169
c-81 -36 -139 -54 -238 -54z" />
    <glyph glyph-name="d" unicode="d" horiz-adv-x="786" 
d="M291 -16c-151 0 -251 108 -251 270c0 157 101 262 253 262c120 0 215 -71 237 -178h4v362h202v-700h-206l22 163h-12c-21 -107 -121 -179 -249 -179zM372 146c70 0 142 30 142 106c0 75 -72 102 -142 102c-69 0 -140 -27 -140 -102c0 -76 71 -106 140 -106z" />
    <glyph glyph-name="eth" unicode="&#xf0;" horiz-adv-x="837" 
d="M807 616l-82 -24c51 -63 81 -141 81 -230c0 -255 -165 -374 -410 -374c-233 0 -366 93 -366 234c0 136 98 238 319 238c129 0 208 -60 254 -117c1 6 1 13 1 19c0 52 -23 119 -61 177l-176 -51l-28 99l127 37c-38 29 -81 47 -127 47l4 84c112 0 213 -30 292 -82l143 41z
M405 160c94 0 154 46 181 110c-56 25 -140 45 -212 45c-91 0 -141 -29 -141 -78c0 -53 76 -77 172 -77z" />
    <glyph glyph-name="dcaron" unicode="&#x10f;" horiz-adv-x="1040" 
d="M291 -16c-151 0 -251 108 -251 270c0 157 101 262 253 262c120 0 215 -71 237 -178h4v362h202v-700h-206l22 163h-12c-21 -107 -121 -179 -249 -179zM777 429l63 270h170l-113 -270h-120zM372 146c70 0 142 30 142 106c0 75 -72 102 -142 102c-69 0 -140 -27 -140 -102
c0 -76 71 -106 140 -106z" />
    <glyph glyph-name="dcroat" unicode="&#x111;" horiz-adv-x="796" 
d="M796 639v-103h-60v-536h-206l22 163h-12c-21 -107 -121 -179 -249 -179c-151 0 -251 108 -251 270c0 157 101 262 253 262c120 0 215 -71 237 -178h4v198h-196v103h196v61h202v-61h60zM372 146c70 0 142 30 142 106c0 75 -72 102 -142 102c-69 0 -140 -27 -140 -102
c0 -76 71 -106 140 -106z" />
    <glyph glyph-name="e" unicode="e" horiz-adv-x="682" 
d="M341 -16c-181 0 -301 106 -301 266s120 266 301 266c179 0 298 -91 301 -227v-82h-402c17 -44 66 -68 151 -68c122 0 172 31 229 55v-161c-78 -29 -139 -49 -279 -49zM235 277l212 5c-5 50 -51 72 -106 72c-51 0 -95 -25 -106 -77z" />
    <glyph glyph-name="eacute" unicode="&#xe9;" horiz-adv-x="682" 
d="M317 544v80l287 186v-102zM341 -16c-181 0 -301 106 -301 266s120 266 301 266c179 0 298 -91 301 -227v-82h-402c17 -44 66 -68 151 -68c122 0 172 31 229 55v-161c-78 -29 -139 -49 -279 -49zM235 277l212 5c-5 50 -51 72 -106 72c-51 0 -95 -25 -106 -77z" />
    <glyph glyph-name="ecaron" unicode="&#x11b;" horiz-adv-x="682" 
d="M628 741l-287 -186l-287 186v80l287 -164l287 164v-80zM642 289v-82h-402c17 -44 66 -68 151 -68c122 0 172 31 229 55v-161c-78 -29 -139 -49 -279 -49c-181 0 -301 106 -301 266s120 266 301 266c179 0 298 -91 301 -227zM235 277l212 5c-5 50 -51 72 -106 72
c-51 0 -95 -25 -106 -77z" />
    <glyph glyph-name="ecircumflex" unicode="&#xea;" horiz-adv-x="682" 
d="M628 555l-287 164l-287 -164v80l287 186l287 -186v-80zM642 289v-82h-402c17 -44 66 -68 151 -68c122 0 172 31 229 55v-161c-78 -29 -139 -49 -279 -49c-181 0 -301 106 -301 266s120 266 301 266c179 0 298 -91 301 -227zM235 277l212 5c-5 50 -51 72 -106 72
c-51 0 -95 -25 -106 -77z" />
    <glyph glyph-name="edieresis" unicode="&#xeb;" horiz-adv-x="682" 
d="M200 538c-58 0 -99 34 -99 85s41 85 99 85c64 0 99 -34 99 -85s-35 -85 -99 -85zM490 538c-58 0 -99 34 -99 85s41 85 99 85c64 0 99 -34 99 -85s-35 -85 -99 -85zM341 -16c-181 0 -301 106 -301 266s120 266 301 266c179 0 298 -91 301 -227v-82h-402
c17 -44 66 -68 151 -68c122 0 172 31 229 55v-161c-78 -29 -139 -49 -279 -49zM235 277l212 5c-5 50 -51 72 -106 72c-51 0 -95 -25 -106 -77z" />
    <glyph glyph-name="edotaccent" unicode="&#x117;" horiz-adv-x="682" 
d="M341 538c-58 0 -99 34 -99 85s41 85 99 85c64 0 99 -34 99 -85s-35 -85 -99 -85zM341 -16c-181 0 -301 106 -301 266s120 266 301 266c179 0 298 -91 301 -227v-82h-402c17 -44 66 -68 151 -68c122 0 172 31 229 55v-161c-78 -29 -139 -49 -279 -49zM235 277l212 5
c-5 50 -51 72 -106 72c-51 0 -95 -25 -106 -77z" />
    <glyph glyph-name="egrave" unicode="&#xe8;" horiz-adv-x="682" 
d="M361 544l-287 164v102l287 -186v-80zM341 -16c-181 0 -301 106 -301 266s120 266 301 266c179 0 298 -91 301 -227v-82h-402c17 -44 66 -68 151 -68c122 0 172 31 229 55v-161c-78 -29 -139 -49 -279 -49zM235 277l212 5c-5 50 -51 72 -106 72c-51 0 -95 -25 -106 -77z
" />
    <glyph glyph-name="emacron" unicode="&#x113;" horiz-adv-x="682" 
d="M75 646v54h532v-54h-532zM341 -16c-181 0 -301 106 -301 266s120 266 301 266c179 0 298 -91 301 -227v-82h-402c17 -44 66 -68 151 -68c122 0 172 31 229 55v-161c-78 -29 -139 -49 -279 -49zM235 277l212 5c-5 50 -51 72 -106 72c-51 0 -95 -25 -106 -77z" />
    <glyph glyph-name="eogonek" unicode="&#x119;" horiz-adv-x="682" 
d="M642 289v-82h-402c17 -44 66 -68 151 -68c122 0 172 31 229 55v-161c-68 -25 -123 -44 -230 -48c-10 -13 -14 -25 -14 -35c0 -39 60 -57 128 -57c28 0 57 3 84 9l-3 -116c-36 -11 -75 -16 -112 -16c-120 0 -230 54 -230 140c0 24 9 51 29 80c-142 23 -232 121 -232 260
c0 160 120 266 301 266c179 0 298 -91 301 -227zM235 277l212 5c-5 50 -51 72 -106 72c-51 0 -95 -25 -106 -77z" />
    <glyph glyph-name="f" unicode="f" horiz-adv-x="413" 
d="M87 0v352h-57v148h57v20c0 143 20 190 150 190c42 0 77 -3 151 -17v-123c-13 1 -24 1 -34 1c-61 0 -65 -15 -65 -71h99v-138h-99v-362h-202z" />
    <glyph glyph-name="g" unicode="g" horiz-adv-x="804" 
d="M404 -200c-100 0 -202 10 -280 29v168c34 -17 127 -35 233 -35c142 0 180 36 189 179v6c-27 -96 -123 -143 -245 -143c-151 0 -251 88 -251 250c0 157 101 262 253 262c120 0 215 -71 237 -178h17l-16 162h203v-440c0 -182 -138 -260 -340 -260zM382 146
c70 0 142 30 142 106c0 75 -72 102 -142 102c-69 0 -140 -27 -140 -102c0 -76 71 -106 140 -106z" />
    <glyph glyph-name="gbreve" unicode="&#x11f;" horiz-adv-x="804" 
d="M444 551c-122 0 -212 59 -213 149h105c2 -55 46 -81 108 -81c64 0 106 26 110 81h103c-1 -90 -77 -149 -213 -149zM404 -200c-100 0 -202 10 -280 29v168c34 -17 127 -35 233 -35c142 0 180 36 189 179v6c-27 -96 -123 -143 -245 -143c-151 0 -251 88 -251 250
c0 157 101 262 253 262c120 0 215 -71 237 -178h17l-16 162h203v-440c0 -182 -138 -260 -340 -260zM382 146c70 0 142 30 142 106c0 75 -72 102 -142 102c-69 0 -140 -27 -140 -102c0 -76 71 -106 140 -106z" />
    <glyph glyph-name="gcommaaccent" unicode="&#x123;" horiz-adv-x="804" 
d="M404 -200c-100 0 -202 10 -280 29v168c34 -17 127 -35 233 -35c142 0 180 36 189 179v6c-27 -96 -123 -143 -245 -143c-151 0 -251 88 -251 250c0 157 101 262 253 262c120 0 215 -71 237 -178h17l-16 162h203v-440c0 -182 -138 -260 -340 -260zM382 146
c70 0 142 30 142 106c0 75 -72 102 -142 102c-69 0 -140 -27 -140 -102c0 -76 71 -106 140 -106zM238 -532l63 270h170l-113 -270h-120z" />
    <glyph glyph-name="gdotaccent" unicode="&#x121;" horiz-adv-x="804" 
d="M444 538c-58 0 -99 34 -99 85s41 85 99 85c64 0 99 -34 99 -85s-35 -85 -99 -85zM404 -200c-100 0 -202 10 -280 29v168c34 -17 127 -35 233 -35c142 0 180 36 189 179v6c-27 -96 -123 -143 -245 -143c-151 0 -251 88 -251 250c0 157 101 262 253 262
c120 0 215 -71 237 -178h17l-16 162h203v-440c0 -182 -138 -260 -340 -260zM382 146c70 0 142 30 142 106c0 75 -72 102 -142 102c-69 0 -140 -27 -140 -102c0 -76 71 -106 140 -106z" />
    <glyph glyph-name="h" unicode="h" horiz-adv-x="748" 
d="M50 0v700h216l-20 -406h10c26 164 93 222 251 222c140 -2 201 -50 201 -299v-217h-202v200c0 131 -33 164 -115 164c-81 0 -139 -85 -139 -196v-168h-202z" />
    <glyph glyph-name="hbar" unicode="&#x127;" horiz-adv-x="748" 
d="M507 516c140 -2 201 -50 201 -299v-217h-202v200c0 131 -33 164 -115 164c-81 0 -139 -85 -139 -196v-168h-202v536h-35v103h35v61h216l-3 -61h210v-103h-215l-12 -242h10c26 164 93 222 251 222z" />
    <glyph glyph-name="i" unicode="i" horiz-adv-x="302" 
d="M150 541c-76 0 -117 28 -117 103s41 103 117 103s119 -28 119 -103s-40 -103 -119 -103zM51 0v500h202v-500h-202z" />
    <glyph glyph-name="dotlessi" unicode="&#x131;" horiz-adv-x="228" 
d="M13 0v500h202v-500h-202z" />
    <glyph glyph-name="iacute" unicode="&#xed;" horiz-adv-x="228" 
d="M91 542v80l287 186v-102zM13 0v500h202v-500h-202z" />
    <glyph glyph-name="icircumflex" unicode="&#xee;" horiz-adv-x="228" 
d="M115 819l287 -186v-80l-287 164l-287 -164v80zM13 0v500h202v-500h-202z" />
    <glyph glyph-name="idieresis" unicode="&#xef;" horiz-adv-x="228" 
d="M-26 536c-58 0 -99 34 -99 85s41 85 99 85c64 0 99 -34 99 -85s-35 -85 -99 -85zM264 536c-58 0 -99 34 -99 85s41 85 99 85c64 0 99 -34 99 -85s-35 -85 -99 -85zM13 0v500h202v-500h-202z" />
    <glyph glyph-name="i.loclTRK" horiz-adv-x="228" 
d="M115 536c-58 0 -99 34 -99 85s41 85 99 85c64 0 99 -34 99 -85s-35 -85 -99 -85zM13 0v500h202v-500h-202z" />
    <glyph glyph-name="igrave" unicode="&#xec;" horiz-adv-x="228" 
d="M121 542l-287 164v102l287 -186v-80zM13 0v500h202v-500h-202z" />
    <glyph glyph-name="imacron" unicode="&#x12b;" horiz-adv-x="228" 
d="M-151 644v54h532v-54h-532zM13 0v500h202v-500h-202z" />
    <glyph glyph-name="iogonek" unicode="&#x12f;" horiz-adv-x="302" 
d="M150 541c-76 0 -117 28 -117 103s41 103 117 103s119 -28 119 -103s-40 -103 -119 -103zM264 -107c28 0 57 3 84 9l-3 -116c-36 -11 -75 -16 -112 -16c-120 0 -230 54 -230 140c0 31 14 66 48 104v486h202v-500h-90c-19 -20 -27 -36 -27 -50c0 -39 60 -57 128 -57z" />
    <glyph glyph-name="j" unicode="j" horiz-adv-x="329" 
d="M160 541c-76 0 -117 28 -117 103s41 103 117 103s119 -28 119 -103s-40 -103 -119 -103zM-39 -200v110c66 0 99 36 99 80v510h202v-510c0 -119 -107 -190 -301 -190z" />
    <glyph glyph-name="k" unicode="k" horiz-adv-x="722" 
d="M50 0v700h202v-354l156 154h278l-190 -170l206 -330h-251l-110 193l-89 -79v-114h-202z" />
    <glyph glyph-name="kcommaaccent" unicode="&#x137;" horiz-adv-x="722" 
d="M50 0v700h202v-354l156 154h278l-190 -170l206 -330h-251l-110 193l-89 -79v-114h-202zM204 -350l63 270h170l-113 -270h-120z" />
    <glyph glyph-name="l" unicode="l" horiz-adv-x="302" 
d="M50 0v700h202v-700h-202z" />
    <glyph glyph-name="lacute" unicode="&#x13a;" horiz-adv-x="302" 
d="M128 744v80l287 186v-102zM50 0v700h202v-700h-202z" />
    <glyph glyph-name="lcaron" unicode="&#x13e;" horiz-adv-x="512" 
d="M50 0v700h202v-700h-202zM269 429l63 270h170l-113 -270h-120z" />
    <glyph glyph-name="lcommaaccent" unicode="&#x13c;" horiz-adv-x="302" 
d="M50 0v700h202v-700h-202zM3 -350l63 270h170l-113 -270h-120z" />
    <glyph glyph-name="lslash" unicode="&#x142;" horiz-adv-x="591" 
d="M561 506l-140 -81v-425h-202v309l-124 -71l-65 114l189 109v239h202v-123l74 42z" />
    <glyph glyph-name="m" unicode="m" horiz-adv-x="1214" 
d="M50 0v500h216l-20 -206h10c26 164 93 222 251 222c124 -2 182 -41 195 -222h10c26 164 93 222 251 222c140 -2 201 -50 201 -299v-217h-202v200c0 131 -33 164 -115 164c-81 0 -139 -85 -139 -196v-168h-202v200c0 131 -33 164 -115 164c-81 0 -139 -85 -139 -196v-168
h-202z" />
    <glyph glyph-name="n" unicode="n" horiz-adv-x="758" 
d="M50 0v500h216l-20 -206h10c26 164 93 222 251 222c140 -2 201 -50 201 -299v-217h-202v200c0 131 -33 164 -115 164c-81 0 -139 -85 -139 -196v-168h-202z" />
    <glyph glyph-name="nacute" unicode="&#x144;" horiz-adv-x="758" 
d="M367 544v80l287 186v-102zM50 0v500h216l-20 -206h10c26 164 93 222 251 222c140 -2 201 -50 201 -299v-217h-202v200c0 131 -33 164 -115 164c-81 0 -139 -85 -139 -196v-168h-202z" />
    <glyph glyph-name="ncaron" unicode="&#x148;" horiz-adv-x="758" 
d="M678 741l-287 -186l-287 186v80l287 -164l287 164v-80zM507 516c140 -2 201 -50 201 -299v-217h-202v200c0 131 -33 164 -115 164c-81 0 -139 -85 -139 -196v-168h-202v500h216l-20 -206h10c26 164 93 222 251 222z" />
    <glyph glyph-name="ncommaaccent" unicode="&#x146;" horiz-adv-x="758" 
d="M50 0v500h216l-20 -206h10c26 164 93 222 251 222c140 -2 201 -50 201 -299v-217h-202v200c0 131 -33 164 -115 164c-81 0 -139 -85 -139 -196v-168h-202zM228 -350l63 270h170l-113 -270h-120z" />
    <glyph glyph-name="eng" unicode="&#x14b;" horiz-adv-x="758" 
d="M507 516c140 -2 201 -50 201 -299v-217c-1 -171 -48 -200 -459 -200v89c181 0 257 7 257 79v32v200c0 131 -33 164 -115 164c-81 0 -139 -85 -139 -196v-168h-202v500h216l-20 -206h10c26 164 93 222 251 222z" />
    <glyph glyph-name="ntilde" unicode="&#xf1;" horiz-adv-x="758" 
d="M476 572c-72 0 -94 72 -135 72c-36 0 -61 -23 -62 -71h-61c1 78 52 130 123 130c64 0 86 -72 135 -72c37 0 62 22 63 71h60c-1 -79 -52 -130 -123 -130zM50 0v500h216l-20 -206h10c26 164 93 222 251 222c140 -2 201 -50 201 -299v-217h-202v200c0 131 -33 164 -115 164
c-81 0 -139 -85 -139 -196v-168h-202z" />
    <glyph glyph-name="o" unicode="o" horiz-adv-x="722" 
d="M361 -16c-193 0 -321 106 -321 266s128 266 321 266s321 -106 321 -266s-128 -266 -321 -266zM361 146c77 0 129 42 129 104s-52 104 -129 104s-129 -42 -129 -104s52 -104 129 -104z" />
    <glyph glyph-name="oacute" unicode="&#xf3;" horiz-adv-x="722" 
d="M338 544v80l287 186v-102zM361 -16c-193 0 -321 106 -321 266s128 266 321 266s321 -106 321 -266s-128 -266 -321 -266zM361 146c77 0 129 42 129 104s-52 104 -129 104s-129 -42 -129 -104s52 -104 129 -104z" />
    <glyph glyph-name="ocircumflex" unicode="&#xf4;" horiz-adv-x="722" 
d="M649 555l-287 164l-287 -164v80l287 186l287 -186v-80zM361 516c193 0 321 -106 321 -266s-128 -266 -321 -266s-321 106 -321 266s128 266 321 266zM361 146c77 0 129 42 129 104s-52 104 -129 104s-129 -42 -129 -104s52 -104 129 -104z" />
    <glyph glyph-name="odieresis" unicode="&#xf6;" horiz-adv-x="722" 
d="M221 538c-58 0 -99 34 -99 85s41 85 99 85c64 0 99 -34 99 -85s-35 -85 -99 -85zM511 538c-58 0 -99 34 -99 85s41 85 99 85c64 0 99 -34 99 -85s-35 -85 -99 -85zM361 -16c-193 0 -321 106 -321 266s128 266 321 266s321 -106 321 -266s-128 -266 -321 -266zM361 146
c77 0 129 42 129 104s-52 104 -129 104s-129 -42 -129 -104s52 -104 129 -104z" />
    <glyph glyph-name="ograve" unicode="&#xf2;" horiz-adv-x="722" 
d="M368 544l-287 164v102l287 -186v-80zM361 -16c-193 0 -321 106 -321 266s128 266 321 266s321 -106 321 -266s-128 -266 -321 -266zM361 146c77 0 129 42 129 104s-52 104 -129 104s-129 -42 -129 -104s52 -104 129 -104z" />
    <glyph glyph-name="ohungarumlaut" unicode="&#x151;" horiz-adv-x="722" 
d="M226 544v80l287 186v-102zM476 544v80l287 186v-102zM361 -16c-193 0 -321 106 -321 266s128 266 321 266s321 -106 321 -266s-128 -266 -321 -266zM361 146c77 0 129 42 129 104s-52 104 -129 104s-129 -42 -129 -104s52 -104 129 -104z" />
    <glyph glyph-name="omacron" unicode="&#x14d;" horiz-adv-x="722" 
d="M105 646v54h532v-54h-532zM361 -16c-193 0 -321 106 -321 266s128 266 321 266s321 -106 321 -266s-128 -266 -321 -266zM361 146c77 0 129 42 129 104s-52 104 -129 104s-129 -42 -129 -104s52 -104 129 -104z" />
    <glyph glyph-name="oslash" unicode="&#xf8;" horiz-adv-x="722" 
d="M744 500l-113 -95c33 -42 51 -95 51 -155c0 -160 -128 -266 -321 -266c-71 0 -132 14 -183 40l-28 -24h-171l112 95c-33 42 -51 95 -51 155c0 160 128 266 321 266c71 0 133 -14 183 -40l29 24h171zM232 250c0 -12 2 -23 5 -33l159 134c-11 2 -23 3 -35 3
c-77 0 -129 -42 -129 -104zM490 250c0 11 -2 22 -5 32l-158 -133c11 -2 22 -3 34 -3c77 0 129 42 129 104z" />
    <glyph glyph-name="otilde" unicode="&#xf5;" horiz-adv-x="722" 
d="M447 572c-72 0 -94 72 -135 72c-36 0 -61 -23 -62 -71h-61c1 78 52 130 123 130c64 0 86 -72 135 -72c37 0 62 22 63 71h60c-1 -79 -52 -130 -123 -130zM361 -16c-193 0 -321 106 -321 266s128 266 321 266s321 -106 321 -266s-128 -266 -321 -266zM361 146
c77 0 129 42 129 104s-52 104 -129 104s-129 -42 -129 -104s52 -104 129 -104z" />
    <glyph glyph-name="oe" unicode="&#x153;" horiz-adv-x="1134" 
d="M1094 289v-82h-402c17 -44 66 -68 151 -68c122 0 172 31 229 55v-161c-78 -29 -139 -49 -279 -49c-85 0 -157 24 -209 65c-56 -41 -132 -65 -223 -65c-193 0 -321 106 -321 266s128 266 321 266c91 0 167 -24 223 -65c52 41 124 65 209 65c179 0 298 -91 301 -227z
M361 146c77 0 129 42 129 104s-52 104 -129 104s-129 -42 -129 -104s52 -104 129 -104zM687 277l212 5c-5 50 -51 72 -106 72c-51 0 -95 -25 -106 -77z" />
    <glyph glyph-name="p" unicode="p" horiz-adv-x="786" 
d="M495 516c151 0 251 -108 251 -270c0 -157 -101 -262 -253 -262c-120 0 -215 71 -237 178h-4v-362h-202v700h206l-22 -163h12c21 107 121 179 249 179zM414 354c-70 0 -142 -30 -142 -106c0 -75 72 -102 142 -102c69 0 140 27 140 102c0 76 -71 106 -140 106z" />
    <glyph glyph-name="thorn" unicode="&#xfe;" horiz-adv-x="716" 
d="M465 516c140 0 221 -101 221 -270s-83 -262 -223 -262c-104 0 -202 56 -227 178h-4v-362h-202v900h206l-22 -363h12c25 125 133 179 239 179zM359 155c69 0 125 18 125 93c0 76 -56 97 -125 97c-70 0 -127 -21 -127 -97c0 -75 57 -93 127 -93z" />
    <glyph glyph-name="q" unicode="q" horiz-adv-x="786" 
d="M291 516c128 0 228 -72 249 -179h12l-22 163h206v-700h-202v362h-4c-22 -107 -117 -178 -237 -178c-152 0 -253 105 -253 262c0 162 100 270 251 270zM372 354c-69 0 -140 -30 -140 -106c0 -75 71 -102 140 -102c70 0 142 27 142 102c0 76 -72 106 -142 106z" />
    <glyph glyph-name="r" unicode="r" horiz-adv-x="541" 
d="M50 0v500h216l-20 -206h10c26 164 103 222 260 222v-172c-180 0 -264 -15 -264 -176v-168h-202z" />
    <glyph glyph-name="racute" unicode="&#x155;" horiz-adv-x="541" 
d="M267 544v80l287 186v-102zM50 0v500h216l-20 -206h10c26 164 103 222 260 222v-172c-180 0 -264 -15 -264 -176v-168h-202z" />
    <glyph glyph-name="rcaron" unicode="&#x159;" horiz-adv-x="541" 
d="M291 657l287 164v-80l-287 -186l-287 186v80zM256 294c26 164 103 222 260 222v-172c-180 0 -264 -15 -264 -176v-168h-202v500h216l-20 -206h10z" />
    <glyph glyph-name="rcommaaccent" unicode="&#x157;" horiz-adv-x="541" 
d="M50 0v500h216l-20 -206h10c26 164 103 222 260 222v-172c-180 0 -264 -15 -264 -176v-168h-202zM0 -350l63 270h170l-113 -270h-120z" />
    <glyph glyph-name="s" unicode="s" horiz-adv-x="664" 
d="M330 -16c-77 0 -185 15 -268 39v169c84 -32 150 -43 238 -43c92 0 132 6 132 24c0 65 -392 -40 -392 169c0 120 118 174 294 174c60 0 163 -11 250 -28v-169c-71 15 -145 26 -220 26c-92 0 -132 -6 -132 -21c0 -47 392 50 392 -168c0 -123 -118 -172 -294 -172z" />
    <glyph glyph-name="sacute" unicode="&#x15b;" horiz-adv-x="664" 
d="M308 544v80l287 186v-102zM330 -16c-77 0 -185 15 -268 39v169c84 -32 150 -43 238 -43c92 0 132 6 132 24c0 65 -392 -40 -392 169c0 120 118 174 294 174c60 0 163 -11 250 -28v-169c-71 15 -145 26 -220 26c-92 0 -132 -6 -132 -21c0 -47 392 50 392 -168
c0 -123 -118 -172 -294 -172z" />
    <glyph glyph-name="scaron" unicode="&#x161;" horiz-adv-x="664" 
d="M619 741l-287 -186l-287 186v80l287 -164l287 164v-80zM232 324c0 -47 392 50 392 -168c0 -123 -118 -172 -294 -172c-77 0 -185 15 -268 39v169c84 -32 150 -43 238 -43c92 0 132 6 132 24c0 65 -392 -40 -392 169c0 120 118 174 294 174c60 0 163 -11 250 -28v-169
c-71 15 -145 26 -220 26c-92 0 -132 -6 -132 -21z" />
    <glyph glyph-name="scedilla" unicode="&#x15f;" horiz-adv-x="664" 
d="M362 -70c180 -13 293 -49 293 -107c0 -62 -170 -109 -426 -110v55c160 1 232 23 232 55c0 34 -72 55 -232 58v53l31 53c-65 6 -138 19 -198 36v169c84 -32 150 -43 238 -43c92 0 132 6 132 24c0 65 -392 -40 -392 169c0 120 118 174 294 174c60 0 163 -11 250 -28v-169
c-71 15 -145 26 -220 26c-92 0 -132 -6 -132 -21c0 -47 392 50 392 -168c0 -108 -91 -159 -233 -170z" />
    <glyph glyph-name="scommaaccent" unicode="&#x219;" horiz-adv-x="664" 
d="M330 -16c-77 0 -185 15 -268 39v169c84 -32 150 -43 238 -43c92 0 132 6 132 24c0 65 -392 -40 -392 169c0 120 118 174 294 174c60 0 163 -11 250 -28v-169c-71 15 -145 26 -220 26c-92 0 -132 -6 -132 -21c0 -47 392 50 392 -168c0 -123 -118 -172 -294 -172zM207 -341
l63 270h170l-113 -270h-120z" />
    <glyph glyph-name="germandbls" unicode="&#xdf;" horiz-adv-x="858" 
d="M468 348c245 -8 350 -57 350 -161c0 -170 -170 -205 -412 -203c-34 1 -67 2 -101 4v171c32 -2 64 -3 91 -3c138 0 229 14 229 52c0 39 -62 61 -320 79v123c280 20 300 42 300 72c0 55 -126 63 -210 63h-163v-545h-202v700h375c213 0 393 -7 393 -175
c0 -118 -99 -168 -330 -168v-9z" />
    <glyph glyph-name="t" unicode="t" horiz-adv-x="418" 
d="M237 -10c-130 0 -150 47 -150 190v172h-57v148h77v120l182 20v-140h99v-148h-99v-142c0 -62 0 -82 59 -82c11 0 24 1 40 2v-120c-52 -14 -97 -20 -151 -20z" />
    <glyph glyph-name="tbar" unicode="&#x167;" horiz-adv-x="418" 
d="M389 317v-143h-99c2 -34 12 -46 58 -46c11 0 24 1 40 2v-120c-52 -14 -97 -20 -151 -20c-128 0 -149 46 -150 184h-57v143h57v35h-57v148h77v120l182 20v-140h99v-148h-99v-35h100z" />
    <glyph glyph-name="tcaron" unicode="&#x165;" horiz-adv-x="659" 
d="M396 429l63 270h170l-113 -270h-120zM237 -10c-130 0 -150 47 -150 190v172h-57v148h77v120l182 20v-140h99v-148h-99v-142c0 -62 0 -82 59 -82c11 0 24 1 40 2v-120c-52 -14 -97 -20 -151 -20z" />
    <glyph glyph-name="uni0163" unicode="&#x163;" horiz-adv-x="418" 
d="M236 -70c180 -13 293 -49 293 -107c0 -62 -170 -109 -426 -110v55c160 1 232 23 232 55c0 34 -72 55 -232 58v53l41 72c-48 23 -57 76 -57 174v172h-57v148h77v120l182 20v-140h99v-148h-99v-142c0 -62 0 -82 59 -82c11 0 24 1 40 2v-120c-42 -11 -79 -17 -121 -19z" />
    <glyph glyph-name="uni021B" unicode="&#x21b;" horiz-adv-x="418" 
d="M237 -10c-130 0 -150 47 -150 190v172h-57v148h77v120l182 20v-140h99v-148h-99v-142c0 -62 0 -82 59 -82c11 0 24 1 40 2v-120c-52 -14 -97 -20 -151 -20zM88 -341l63 270h170l-113 -270h-120z" />
    <glyph glyph-name="u" unicode="u" horiz-adv-x="758" 
d="M708 500v-500h-216l20 206h-10c-26 -164 -93 -222 -251 -222c-140 2 -201 50 -201 299v217h202v-200c0 -131 33 -164 115 -164c81 0 139 85 139 196v168h202z" />
    <glyph glyph-name="uacute" unicode="&#xfa;" horiz-adv-x="758" 
d="M339 544v80l287 186v-102zM708 500v-500h-216l20 206h-10c-26 -164 -93 -222 -251 -222c-140 2 -201 50 -201 299v217h202v-200c0 -131 33 -164 115 -164c81 0 139 85 139 196v168h202z" />
    <glyph glyph-name="ucircumflex" unicode="&#xfb;" horiz-adv-x="758" 
d="M650 555l-287 164l-287 -164v80l287 186l287 -186v-80zM506 500h202v-500h-216l20 206h-10c-26 -164 -93 -222 -251 -222c-140 2 -201 50 -201 299v217h202v-200c0 -131 33 -164 115 -164c81 0 139 85 139 196v168z" />
    <glyph glyph-name="udieresis" unicode="&#xfc;" horiz-adv-x="758" 
d="M222 538c-58 0 -99 34 -99 85s41 85 99 85c64 0 99 -34 99 -85s-35 -85 -99 -85zM512 538c-58 0 -99 34 -99 85s41 85 99 85c64 0 99 -34 99 -85s-35 -85 -99 -85zM708 500v-500h-216l20 206h-10c-26 -164 -93 -222 -251 -222c-140 2 -201 50 -201 299v217h202v-200
c0 -131 33 -164 115 -164c81 0 139 85 139 196v168h202z" />
    <glyph glyph-name="ugrave" unicode="&#xf9;" horiz-adv-x="758" 
d="M369 544l-287 164v102l287 -186v-80zM708 500v-500h-216l20 206h-10c-26 -164 -93 -222 -251 -222c-140 2 -201 50 -201 299v217h202v-200c0 -131 33 -164 115 -164c81 0 139 85 139 196v168h202z" />
    <glyph glyph-name="uhungarumlaut" unicode="&#x171;" horiz-adv-x="758" 
d="M227 544v80l287 186v-102zM477 544v80l287 186v-102zM708 500v-500h-216l20 206h-10c-26 -164 -93 -222 -251 -222c-140 2 -201 50 -201 299v217h202v-200c0 -131 33 -164 115 -164c81 0 139 85 139 196v168h202z" />
    <glyph glyph-name="umacron" unicode="&#x16b;" horiz-adv-x="758" 
d="M114 646v54h532v-54h-532zM708 500v-500h-216l20 206h-10c-26 -164 -93 -222 -251 -222c-140 2 -201 50 -201 299v217h202v-200c0 -131 33 -164 115 -164c81 0 139 85 139 196v168h202z" />
    <glyph glyph-name="uogonek" unicode="&#x173;" horiz-adv-x="758" 
d="M701 -107c28 0 57 3 84 9l-3 -116c-36 -11 -75 -16 -112 -16c-120 0 -230 54 -230 140c0 32 16 70 54 111l18 185h-10c-26 -164 -93 -222 -251 -222c-140 2 -201 50 -201 299v217h202v-200c0 -131 33 -164 115 -164c81 0 139 85 139 196v168h202v-500h-108
c-19 -20 -27 -36 -27 -50c0 -39 60 -57 128 -57z" />
    <glyph glyph-name="uring" unicode="&#x16f;" horiz-adv-x="758" 
d="M363 538c-136 0 -253 41 -253 103s117 103 253 103c150 0 253 -41 253 -103s-103 -103 -253 -103zM363 589c51 0 91 18 91 51c0 36 -37 53 -91 53c-51 0 -89 -17 -89 -52s38 -52 89 -52zM708 500v-500h-216l20 206h-10c-26 -164 -93 -222 -251 -222
c-140 2 -201 50 -201 299v217h202v-200c0 -131 33 -164 115 -164c81 0 139 85 139 196v168h202z" />
    <glyph glyph-name="v" unicode="v" horiz-adv-x="820" 
d="M289 0l-264 500h219l166 -315l166 315h219l-264 -500h-242z" />
    <glyph glyph-name="w" unicode="w" horiz-adv-x="1121" 
d="M239 0l-214 500h209l114 -270l108 270h199l116 -276l116 276h209l-214 -500h-222l-102 250l-97 -250h-222z" />
    <glyph glyph-name="wacute" unicode="&#x1e83;" horiz-adv-x="1121" 
d="M531 544v80l287 186v-102zM239 0l-214 500h209l114 -270l108 270h199l116 -276l116 276h209l-214 -500h-222l-102 250l-97 -250h-222z" />
    <glyph glyph-name="wcircumflex" unicode="&#x175;" horiz-adv-x="1121" 
d="M842 555l-287 164l-287 -164v80l287 186l287 -186v-80zM887 500h209l-214 -500h-222l-102 250l-97 -250h-222l-214 500h209l114 -270l108 270h199l116 -276z" />
    <glyph glyph-name="wdieresis" unicode="&#x1e85;" horiz-adv-x="1121" 
d="M408 538c-58 0 -99 34 -99 85s41 85 99 85c64 0 99 -34 99 -85s-35 -85 -99 -85zM698 538c-58 0 -99 34 -99 85s41 85 99 85c64 0 99 -34 99 -85s-35 -85 -99 -85zM239 0l-214 500h209l114 -270l108 270h199l116 -276l116 276h209l-214 -500h-222l-102 250l-97 -250h-222
z" />
    <glyph glyph-name="wgrave" unicode="&#x1e81;" horiz-adv-x="1121" 
d="M561 544l-287 164v102l287 -186v-80zM239 0l-214 500h209l114 -270l108 270h199l116 -276l116 276h209l-214 -500h-222l-102 250l-97 -250h-222z" />
    <glyph glyph-name="x" unicode="x" horiz-adv-x="838" 
d="M25 0l257 251l-256 249h254l139 -136l140 136h254l-267 -259l247 -241h-253l-131 128l-131 -128h-253z" />
    <glyph glyph-name="y" unicode="y" horiz-adv-x="806" 
d="M184 -200l111 211l-270 489h232l148 -280l147 280h229l-369 -700h-228z" />
    <glyph glyph-name="yacute" unicode="&#xfd;" horiz-adv-x="806" 
d="M389 544v80l287 186v-102zM184 -200l111 211l-270 489h232l148 -280l147 280h229l-369 -700h-228z" />
    <glyph glyph-name="ycircumflex" unicode="&#x177;" horiz-adv-x="806" 
d="M700 555l-287 164l-287 -164v80l287 186l287 -186v-80zM552 500h229l-369 -700h-228l111 211l-270 489h232l148 -280z" />
    <glyph glyph-name="ydieresis" unicode="&#xff;" horiz-adv-x="806" 
d="M272 538c-58 0 -99 34 -99 85s41 85 99 85c64 0 99 -34 99 -85s-35 -85 -99 -85zM562 538c-58 0 -99 34 -99 85s41 85 99 85c64 0 99 -34 99 -85s-35 -85 -99 -85zM184 -200l111 211l-270 489h232l148 -280l147 280h229l-369 -700h-228z" />
    <glyph glyph-name="ygrave" unicode="&#x1ef3;" horiz-adv-x="806" 
d="M419 544l-287 164v102l287 -186v-80zM184 -200l111 211l-270 489h232l148 -280l147 280h229l-369 -700h-228z" />
    <glyph glyph-name="z" unicode="z" horiz-adv-x="723" 
d="M30 0v112l315 236h-307v152h655v-110l-313 -238h303v-152h-653z" />
    <glyph glyph-name="zacute" unicode="&#x17a;" horiz-adv-x="723" 
d="M349 544v80l287 186v-102zM30 0v112l315 236h-307v152h655v-110l-313 -238h303v-152h-653z" />
    <glyph glyph-name="zcaron" unicode="&#x17e;" horiz-adv-x="723" 
d="M660 741l-287 -186l-287 186v80l287 -164l287 164v-80zM693 500v-110l-313 -238h303v-152h-653v112l315 236h-307v152h655z" />
    <glyph glyph-name="zdotaccent" unicode="&#x17c;" horiz-adv-x="723" 
d="M373 538c-58 0 -99 34 -99 85s41 85 99 85c64 0 99 -34 99 -85s-35 -85 -99 -85zM30 0v112l315 236h-307v152h655v-110l-313 -238h303v-152h-653z" />
    <glyph glyph-name="c.001" horiz-adv-x="682" 
d="M341 -16c-181 0 -301 106 -301 266s120 266 301 266c180 0 300 -95 300 -237h-204c-9 43 -47 72 -96 72c-59 0 -99 -40 -99 -101s40 -101 99 -101c52 0 91 32 98 80h203c0 -147 -120 -245 -301 -245z" />
    <glyph glyph-name="e.001" horiz-adv-x="685" 
d="M437 175h208c0 -128 -128 -191 -304 -191c-181 0 -301 106 -301 266s120 266 301 266c179 0 298 -91 301 -227v-82h-394c13 -44 49 -68 103 -68c59 0 86 16 86 36zM341 361c-51 0 -88 -30 -97 -84l193 4c-3 52 -41 80 -96 80z" />
    <glyph glyph-name="g.001" horiz-adv-x="803" 
d="M402 -200c-210 0 -330 76 -330 190h202c0 -30 47 -50 118 -50c126 0 150 45 150 194c-32 -87 -125 -130 -241 -130c-151 0 -251 88 -251 250c0 157 101 262 253 262c120 0 215 -71 237 -178h13l-15 162h203l2 -440c0 -162 -110 -260 -341 -260zM382 146
c70 0 142 30 142 106c0 75 -72 102 -142 102c-69 0 -140 -27 -140 -102c0 -76 71 -106 140 -106z" />
    <glyph glyph-name="uni0410" unicode="&#x410;" horiz-adv-x="1105" 
d="M25 0l419 700h217l419 -700h-239l-66 118h-445l-66 -118h-239zM426 290h253l-126 228z" />
    <glyph glyph-name="uni0411" unicode="&#x411;" horiz-adv-x="870" 
d="M595 427c135 0 235 -71 235 -213c0 -117 -90 -214 -235 -214h-515v700h653v-172h-451v-101h313zM570 162c37 0 58 15 58 52s-21 51 -58 51h-289v-103h289z" />
    <glyph glyph-name="uni0412" unicode="&#x412;" horiz-adv-x="926" 
d="M80 0v700h535c145 0 225 -78 225 -185c0 -103 -76 -152 -194 -159c131 -3 217 -61 217 -170c0 -112 -90 -186 -226 -186h-557zM283 435h297c33 0 58 9 58 46s-25 47 -58 47h-298zM284 173h318c33 0 58 12 58 49s-25 54 -58 54h-319z" />
    <glyph glyph-name="uni0413" unicode="&#x413;" horiz-adv-x="733" 
d="M80 0v700h643v-172h-441v-528h-202z" />
    <glyph glyph-name="uni0414" unicode="&#x414;" horiz-adv-x="927" 
d="M12 -103v205c66 0 107 27 111 81l47 517h635v-598h102v-205h-202v103h-491v-103h-202zM324 172h279v356h-245l-31 -336z" />
    <glyph glyph-name="uni0415" unicode="&#x415;" horiz-adv-x="855" 
d="M80 0v700h705v-172h-503v-91h494v-163h-494v-102h503v-172h-705z" />
    <glyph glyph-name="uni0401" unicode="&#x401;" horiz-adv-x="855" 
d="M287 738c-58 0 -99 34 -99 85s41 85 99 85c64 0 99 -34 99 -85s-35 -85 -99 -85zM577 738c-58 0 -99 34 -99 85s41 85 99 85c64 0 99 -34 99 -85s-35 -85 -99 -85zM80 0v700h705v-172h-503v-91h494v-163h-494v-102h503v-172h-705z" />
    <glyph glyph-name="uni0416" unicode="&#x416;" horiz-adv-x="1508" 
d="M10 0l434 354l-424 346h284l349 -305v305h202v-305l349 305h284l-424 -346l434 -354h-294l-349 305v-305h-202v305l-349 -305h-294z" />
    <glyph glyph-name="uni0417" unicode="&#x417;" horiz-adv-x="798" 
d="M356 -16c-119 1 -244 14 -326 44v172c68 -29 216 -44 316 -44c138 0 229 14 229 52c0 48 -91 70 -507 90v101c459 22 487 48 487 83c0 49 -126 63 -210 63c-99 0 -246 -17 -315 -45v172c84 31 229 45 325 45c213 0 393 -24 393 -192c0 -172 -299 -168 -330 -168v-9
c59 -2 350 11 350 -161c0 -170 -170 -205 -412 -203z" />
    <glyph glyph-name="uni0418" unicode="&#x418;" horiz-adv-x="978" 
d="M898 0h-202v386l-456 -386h-160v700h202v-386l457 386h159v-700z" />
    <glyph glyph-name="uni0419" unicode="&#x419;" horiz-adv-x="978" 
d="M489 751c-122 0 -212 59 -213 149h105c2 -55 46 -81 108 -81c64 0 106 26 110 81h103c-1 -90 -77 -149 -213 -149zM898 0h-202v386l-456 -386h-160v700h202v-386l457 386h159v-700z" />
    <glyph glyph-name="uni041A" unicode="&#x41a;" horiz-adv-x="935" 
d="M80 0v700h202v-305l349 305h284l-424 -346l434 -354h-294l-349 305v-305h-202z" />
    <glyph glyph-name="uni041B" unicode="&#x41b;" horiz-adv-x="895" 
d="M53 -16c-14 0 -28 0 -43 1l7 80c5 0 10 -1 15 -1c56 0 87 32 91 82l47 554h635v-700h-202v528h-245l-31 -373c-10 -110 -107 -171 -274 -171z" />
    <glyph glyph-name="uni041C" unicode="&#x41c;" horiz-adv-x="1042" 
d="M80 0v700h161l280 -417l280 417h161v-700h-202v334l-218 -334h-42l-218 334v-334h-202z" />
    <glyph glyph-name="uni041D" unicode="&#x41d;" horiz-adv-x="975" 
d="M80 0v700h202v-248h411v248h202v-700h-202v279h-411v-279h-202z" />
    <glyph glyph-name="uni041E" unicode="&#x41e;" horiz-adv-x="965" 
d="M482 -16c-273 0 -442 146 -442 366s169 366 442 366c274 0 443 -146 443 -366s-169 -366 -443 -366zM482 156c153 0 241 66 241 194s-88 194 -241 194c-152 0 -240 -66 -240 -194s88 -194 240 -194z" />
    <glyph glyph-name="uni041F" unicode="&#x41f;" horiz-adv-x="825" 
d="M80 0v700h665v-700h-202v528h-261v-528h-202z" />
    <glyph glyph-name="uni0420" unicode="&#x420;" horiz-adv-x="870" 
d="M80 0v700h515c145 0 235 -97 235 -214c0 -142 -100 -213 -235 -213h-313v-273h-202zM281 435h289c37 0 58 14 58 51s-21 52 -58 52h-289v-103z" />
    <glyph glyph-name="uni0421" unicode="&#x421;" horiz-adv-x="924" 
d="M462 -16c-253 0 -422 146 -422 366s169 366 422 366s422 -128 422 -321h-204c-9 101 -96 149 -218 149c-132 0 -220 -66 -220 -194s88 -194 220 -194c123 0 210 48 218 149h204c0 -193 -169 -321 -422 -321z" />
    <glyph glyph-name="uni0422" unicode="&#x422;" horiz-adv-x="873" 
d="M335 0v528h-310v172h823v-172h-311v-528h-202z" />
    <glyph glyph-name="uni0423" unicode="&#x423;" horiz-adv-x="806" 
d="M184 -1l111 211l-270 489h232l148 -280l147 280h229l-369 -700h-228z" />
    <glyph glyph-name="uni0424" unicode="&#x424;" horiz-adv-x="722" 
d="M682 355c0 -142 -101 -242 -260 -262v-93h-122v93c-159 20 -260 120 -260 262s101 242 260 262v83h122v-83c159 -20 260 -120 260 -262zM232 355c0 -44 26 -77 68 -94v188c-42 -17 -68 -50 -68 -94zM422 261c42 17 68 50 68 94s-26 77 -68 94v-188z" />
    <glyph glyph-name="uni0425" unicode="&#x425;" horiz-adv-x="945" 
d="M25 0l306 354l-301 346h279l166 -191l166 191h279l-306 -352l301 -348h-276l-169 194l-169 -194h-276z" />
    <glyph glyph-name="uni0427" unicode="&#x427;" horiz-adv-x="748" 
d="M698 700v-700h-216l20 406h-10c-26 -164 -93 -222 -251 -222c-140 2 -201 50 -201 299v217h202v-200c0 -131 33 -164 115 -164c81 0 139 85 139 196v168h202z" />
    <glyph glyph-name="uni0426" unicode="&#x426;" horiz-adv-x="827" 
d="M605 -103v103h-515v700h202v-528h191v528h202v-528h122v-275h-202z" />
    <glyph glyph-name="uni0428" unicode="&#x428;" horiz-adv-x="1168" 
d="M90 0v700h202v-528h191v528h202v-528h191v528h202v-700h-988z" />
    <glyph glyph-name="uni0429" unicode="&#x429;" horiz-adv-x="1220" 
d="M998 -103v103h-908v700h202v-528h191v528h202v-528h191v528h202v-528h122v-275h-202z" />
    <glyph glyph-name="uni042C" unicode="&#x42c;" horiz-adv-x="870" 
d="M80 700h202v-273h313c135 0 235 -71 235 -213c0 -117 -90 -214 -235 -214h-515v700zM281 265v-103h289c37 0 58 15 58 52s-21 51 -58 51h-289z" />
    <glyph glyph-name="uni042A" unicode="&#x42a;" horiz-adv-x="870" 
d="M595 427c135 0 235 -71 235 -213c0 -117 -90 -214 -235 -214h-515v598h-110v102h312v-273h313zM570 162c37 0 58 15 58 52s-21 51 -58 51h-289v-103h289z" />
    <glyph glyph-name="uni042B" unicode="&#x42b;" horiz-adv-x="1255" 
d="M80 700h202v-273h313c135 0 235 -71 235 -213c0 -117 -90 -214 -235 -214h-515v700zM963 0v700h202v-700h-202zM281 265v-103h289c37 0 58 15 58 52s-21 51 -58 51h-289z" />
    <glyph glyph-name="uni042D" unicode="&#x42d;" horiz-adv-x="924" 
d="M462 716c253 0 422 -146 422 -366s-169 -366 -422 -366s-422 128 -422 321h204c8 -101 95 -149 218 -149c98 0 171 36 203 107h-284v172h285c-31 72 -105 109 -204 109c-122 0 -209 -48 -218 -149h-204c0 193 169 321 422 321z" />
    <glyph glyph-name="uni042E" unicode="&#x42e;" horiz-adv-x="1345" 
d="M862 716c274 0 443 -146 443 -366s-169 -366 -443 -366c-235 0 -393 108 -432 279h-138v-263h-202v700h202v-265h137c39 172 197 281 433 281zM862 156c153 0 241 66 241 194s-88 194 -241 194c-152 0 -240 -66 -240 -194s88 -194 240 -194z" />
    <glyph glyph-name="uni042F" unicode="&#x42f;" horiz-adv-x="941" 
d="M861 0h-202l1 282h-110c-110 0 -134 -49 -264 -282h-266c111 228 176 328 348 339h-72c-135 0 -225 64 -225 176c0 107 80 185 225 185h565v-700zM660 435l1 103h-330c-38 0 -58 -15 -58 -52s20 -51 58 -51h329z" />
    <glyph glyph-name="uni0430" unicode="&#x430;" horiz-adv-x="694" 
d="M226 -16c-74 0 -186 16 -186 132c0 110 131 161 402 178c0 28 -37 47 -92 47c-78 0 -180 -22 -247 -51v172c84 31 199 54 287 54c186 0 254 -94 254 -234v-282h-192l19 179h-12c-30 -137 -80 -195 -233 -195zM320 120c56 0 124 28 122 96c-115 -7 -194 -22 -194 -60
c0 -23 33 -36 72 -36z" />
    <glyph glyph-name="uni0431" unicode="&#x431;" horiz-adv-x="856" 
d="M450 -12c-245 0 -410 119 -410 374c0 232 179 353 439 353c170 0 226 2 283 12v-185c-65 -15 -168 0 -279 0c-156 0 -241 -64 -241 -185c53 52 136 103 255 103c221 0 319 -102 319 -238c0 -141 -133 -234 -366 -234zM441 160c96 0 172 24 172 77c0 49 -50 78 -141 78
c-72 0 -156 -20 -212 -45c27 -64 87 -110 181 -110z" />
    <glyph glyph-name="uni0432" unicode="&#x432;" horiz-adv-x="793" 
d="M90 0v500h425c158 0 225 -40 225 -135c0 -70 -55 -104 -184 -109c144 -3 207 -39 207 -120c0 -95 -68 -136 -226 -136h-447zM292 295h108c97 0 138 15 138 49c0 38 -41 54 -138 54h-109zM293 103h129c97 0 138 18 138 59c0 35 -41 54 -138 54h-130z" />
    <glyph glyph-name="uni0433" unicode="&#x433;" horiz-adv-x="600" 
d="M90 0v500h473v-172h-271v-328h-202z" />
    <glyph glyph-name="uni0434" unicode="&#x434;" horiz-adv-x="897" 
d="M12 -103v205c66 0 106 27 111 81l28 317h624v-398h102v-205h-202v103h-461v-103h-202zM324 172h249v156h-234l-12 -136z" />
    <glyph glyph-name="uni0435" unicode="&#x435;" horiz-adv-x="682" 
d="M341 -16c-181 0 -301 106 -301 266s120 266 301 266c179 0 298 -91 301 -227v-82h-402c17 -44 66 -68 151 -68c122 0 172 31 229 55v-161c-78 -29 -139 -49 -279 -49zM235 277l212 5c-5 50 -51 72 -106 72c-51 0 -95 -25 -106 -77z" />
    <glyph glyph-name="uni0451" unicode="&#x451;" horiz-adv-x="682" 
d="M200 538c-58 0 -99 34 -99 85s41 85 99 85c64 0 99 -34 99 -85s-35 -85 -99 -85zM490 538c-58 0 -99 34 -99 85s41 85 99 85c64 0 99 -34 99 -85s-35 -85 -99 -85zM341 -16c-181 0 -301 106 -301 266s120 266 301 266c179 0 298 -91 301 -227v-82h-402
c17 -44 66 -68 151 -68c122 0 172 31 229 55v-161c-78 -29 -139 -49 -279 -49zM235 277l212 5c-5 50 -51 72 -106 72c-51 0 -95 -25 -106 -77z" />
    <glyph glyph-name="uni0436" unicode="&#x436;" horiz-adv-x="1268" 
d="M10 0l397 251l-387 249h264l249 -168v168h202v-168l249 168h264l-387 -249l397 -251h-274l-249 168v-168h-202v168l-249 -168h-274z" />
    <glyph glyph-name="uni0437" unicode="&#x437;" horiz-adv-x="818" 
d="M385 -15c-125 0 -259 12 -345 44v172c68 -29 216 -44 316 -44c139 0 199 10 199 32c0 19 -95 28 -477 45v35c366 14 457 22 457 44c0 21 -54 30 -180 30c-99 0 -246 -17 -315 -45v172c84 31 229 45 325 45c213 0 393 -24 393 -129c0 -132 -299 -128 -330 -128v-9
c59 -2 350 11 350 -121c0 -107 -161 -143 -393 -143z" />
    <glyph glyph-name="uni0438" unicode="&#x438;" horiz-adv-x="928" 
d="M90 0v500h202v-273l387 273h159v-500h-202v276l-386 -276h-160z" />
    <glyph glyph-name="uni0439" unicode="&#x439;" horiz-adv-x="928" 
d="M469 551c-122 0 -212 59 -213 149h105c2 -55 46 -81 108 -81c64 0 106 26 110 81h103c-1 -90 -77 -149 -213 -149zM90 0v500h202v-273l387 273h159v-500h-202v276l-386 -276h-160z" />
    <glyph glyph-name="uni043A" unicode="&#x43a;" horiz-adv-x="795" 
d="M80 0v500h202v-168l249 168h264l-387 -249l397 -251h-274l-249 168v-168h-202z" />
    <glyph glyph-name="uni043B" unicode="&#x43b;" horiz-adv-x="782" 
d="M59 -13c-13 0 -27 0 -42 1l-3 80c66 0 102 27 106 81l30 351h542v-500h-202v328h-152l-14 -170c-10 -110 -99 -171 -265 -171z" />
    <glyph glyph-name="uni043C" unicode="&#x43c;" horiz-adv-x="1042" 
d="M90 0v500h181l250 -277l250 277h181v-500h-202v233l-218 -233h-22l-218 229v-229h-202z" />
    <glyph glyph-name="uni043D" unicode="&#x43d;" horiz-adv-x="855" 
d="M90 0v500h202v-153h271v153h202v-500h-202v175h-271v-175h-202z" />
    <glyph glyph-name="uni043E" unicode="&#x43e;" horiz-adv-x="722" 
d="M361 -16c-193 0 -321 106 -321 266s128 266 321 266s321 -106 321 -266s-128 -266 -321 -266zM361 146c77 0 129 42 129 104s-52 104 -129 104s-129 -42 -129 -104s52 -104 129 -104z" />
    <glyph glyph-name="uni043F" unicode="&#x43f;" horiz-adv-x="775" 
d="M80 0v500h615v-500h-202v318h-211v-318h-202z" />
    <glyph glyph-name="uni0440" unicode="&#x440;" horiz-adv-x="786" 
d="M495 516c151 0 251 -108 251 -270c0 -157 -101 -262 -253 -262c-120 0 -215 71 -237 178h-4v-362h-202v700h206l-22 -163h12c21 107 121 179 249 179zM414 354c-70 0 -142 -30 -142 -106c0 -75 72 -102 142 -102c69 0 140 27 140 102c0 76 -71 106 -140 106z" />
    <glyph glyph-name="uni0441" unicode="&#x441;" horiz-adv-x="609" 
d="M331 -16c-181 0 -291 106 -291 266c0 161 103 266 292 266c90 0 157 -18 237 -54v-170c-57 34 -126 62 -211 62c-79 0 -126 -43 -126 -104s50 -104 129 -104c84 0 153 27 208 61v-169c-81 -36 -139 -54 -238 -54z" />
    <glyph glyph-name="uni0442" unicode="&#x442;" horiz-adv-x="713" 
d="M256 0v328h-231v172h663v-172h-230v-328h-202z" />
    <glyph glyph-name="uni0443" unicode="&#x443;" horiz-adv-x="806" 
d="M184 -200l111 211l-270 489h232l148 -280l147 280h229l-369 -700h-228z" />
    <glyph glyph-name="uni0444" unicode="&#x444;" horiz-adv-x="722" 
d="M682 250c0 -142 -101 -242 -260 -262v-84h-122v84c-159 20 -260 120 -260 262s101 242 260 262v92h122v-92c159 -20 260 -120 260 -262zM232 250c0 -44 26 -77 68 -94v188c-42 -17 -68 -50 -68 -94zM422 156c42 17 68 50 68 94s-26 77 -68 94v-188z" />
    <glyph glyph-name="uni0445" unicode="&#x445;" horiz-adv-x="838" 
d="M25 0l257 251l-256 249h254l139 -136l140 136h254l-267 -259l247 -241h-253l-131 128l-131 -128h-253z" />
    <glyph glyph-name="uni0447" unicode="&#x447;" horiz-adv-x="748" 
d="M482 0l17 336h-7c-26 -164 -93 -222 -251 -222c-140 2 -201 50 -201 299v87h202v-70c0 -131 33 -164 115 -164c81 0 139 85 139 196v38h202v-500h-216z" />
    <glyph glyph-name="uni0446" unicode="&#x446;" horiz-adv-x="807" 
d="M585 -103v103h-495v500h202v-328h171v328h202v-328h122v-275h-202z" />
    <glyph glyph-name="uni0448" unicode="&#x448;" horiz-adv-x="1128" 
d="M90 0v500h202v-328h171v328h202v-328h171v328h202v-500h-948z" />
    <glyph glyph-name="uni0449" unicode="&#x449;" horiz-adv-x="1180" 
d="M958 -103v103h-868v500h202v-328h171v328h202v-328h171v328h202v-328h122v-275h-202z" />
    <glyph glyph-name="uni044C" unicode="&#x44c;" horiz-adv-x="840" 
d="M80 0v700h202v-273h273c135 0 235 -71 235 -213c0 -117 -90 -214 -235 -214h-475zM282 162h248c37 0 58 15 58 52s-21 51 -58 51h-248v-103z" />
    <glyph glyph-name="uni044A" unicode="&#x44a;" horiz-adv-x="840" 
d="M80 0v528h-110v172h312v-273h273c135 0 235 -71 235 -213c0 -117 -90 -214 -235 -214h-475zM282 162h248c37 0 58 15 58 52s-21 51 -58 51h-248v-103z" />
    <glyph glyph-name="uni044B" unicode="&#x44b;" horiz-adv-x="1225" 
d="M90 0v700h202v-273h273c135 0 235 -71 235 -213c0 -117 -90 -214 -235 -214h-475zM933 0v700h202v-700h-202zM292 162h248c37 0 58 15 58 52s-21 51 -58 51h-248v-103z" />
    <glyph glyph-name="uni044D" unicode="&#x44d;" horiz-adv-x="609" 
d="M277 516c189 0 292 -105 292 -266c0 -160 -110 -266 -291 -266c-99 0 -157 18 -238 54v169c55 -34 124 -61 208 -61c54 0 95 20 115 53h-191v102h192c-19 33 -59 53 -113 53c-85 0 -154 -28 -211 -62v170c80 36 147 54 237 54z" />
    <glyph glyph-name="uni044E" unicode="&#x44e;" horiz-adv-x="982" 
d="M621 516c193 0 321 -106 321 -266s-128 -266 -321 -266c-156 0 -269 69 -307 180h-62v-164h-202v500h202v-164h62c38 111 151 180 307 180zM621 146c77 0 129 42 129 104s-52 104 -129 104s-129 -42 -129 -104s52 -104 129 -104z" />
    <glyph glyph-name="uni044F" unicode="&#x44f;" horiz-adv-x="811" 
d="M30 0c117 147 183 192 333 199h-57c-158 0 -225 44 -225 156c0 105 67 145 225 145h415v-500h-202l1 162h-38c-50 0 -84 -9 -214 -162h-238zM421 285h99l1 93h-100c-97 0 -138 1 -138 -42c0 -50 41 -51 138 -51z" />
    <glyph glyph-name="zero" unicode="0" horiz-adv-x="965" 
d="M482 -16c-273 0 -442 146 -442 366s169 366 442 366c274 0 443 -146 443 -366s-169 -366 -443 -366zM482 156c153 0 241 66 241 194s-88 194 -241 194c-152 0 -240 -66 -240 -194s88 -194 240 -194z" />
    <glyph glyph-name="one" unicode="1" horiz-adv-x="643" 
d="M361 0v539l-351 -218v201l411 178h142v-700h-202z" />
    <glyph glyph-name="two" unicode="2" horiz-adv-x="842" 
d="M30 0v139c252 119 579 230 579 325c0 57 -62 75 -200 75c-101 0 -288 -23 -329 -39v180c59 19 236 35 357 35c248 0 375 -42 375 -209c0 -200 -338 -292 -559 -334h529v-172h-752z" />
    <glyph glyph-name="three" unicode="3" horiz-adv-x="798" 
d="M356 -16c-119 1 -244 14 -326 44v172c68 -29 216 -44 316 -44c138 0 229 14 229 52c0 48 -91 70 -507 90v101c459 22 487 48 487 83c0 49 -126 63 -210 63c-99 0 -246 -17 -315 -45v172c84 31 229 45 325 45c213 0 393 -24 393 -192c0 -172 -299 -168 -330 -168v-9
c59 -2 350 11 350 -161c0 -170 -170 -205 -412 -203z" />
    <glyph glyph-name="four" unicode="4" horiz-adv-x="858" 
d="M552 0v109h-542v134l442 457h302v-419h89v-172h-89v-109h-202zM237 281h315v352z" />
    <glyph glyph-name="five" unicode="5" horiz-adv-x="802" 
d="M347 -16c-89 0 -252 15 -317 41v183c54 -25 219 -50 314 -50c129 0 216 14 216 68c0 56 -50 83 -187 83c-115 0 -231 -23 -304 -33v424h655v-172h-500v-109c71 24 138 35 223 35c152 0 315 -35 315 -228c0 -155 -169 -242 -415 -242z" />
    <glyph glyph-name="six" unicode="6" horiz-adv-x="856" 
d="M450 -12c-245 0 -410 119 -410 374c0 232 179 353 439 353c123 0 208 -21 283 -58v-185c-63 35 -149 70 -279 70c-149 0 -241 -62 -241 -180v-5c53 52 136 103 255 103c221 0 319 -102 319 -238c0 -141 -133 -234 -366 -234zM441 160c96 0 172 24 172 77
c0 49 -50 78 -141 78c-72 0 -156 -20 -212 -45c27 -64 87 -110 181 -110z" />
    <glyph glyph-name="seven" unicode="7" horiz-adv-x="830" 
d="M61 0l442 528h-493v172h810v-89l-477 -611h-282z" />
    <glyph glyph-name="eight" unicode="8" horiz-adv-x="866" 
d="M433 -20c-246 -3 -403 72 -403 203c0 118 140 151 238 161c-90 15 -218 58 -218 177c0 125 151 192 383 192c207 0 383 -62 383 -192c0 -119 -128 -162 -218 -177c98 -10 238 -43 238 -161c0 -130 -171 -206 -403 -203zM433 428c175 0 180 37 180 63c0 49 -96 60 -180 60
s-180 -11 -180 -60c0 -26 -5 -63 180 -63zM432 142c136 0 201 19 201 58c0 35 -17 61 -200 61s-200 -26 -200 -61c0 -38 61 -58 199 -58z" />
    <glyph glyph-name="nine" unicode="9" horiz-adv-x="856" 
d="M406 714c245 0 410 -119 410 -374c0 -232 -179 -353 -439 -353c-123 0 -208 21 -283 58v185c63 -35 149 -70 279 -70c149 0 241 62 241 180v5c-53 -52 -136 -103 -255 -103c-221 0 -319 102 -319 238c0 141 133 234 366 234zM415 542c-96 0 -172 -24 -172 -77
c0 -49 50 -78 141 -78c72 0 156 20 212 45c-27 64 -87 110 -181 110z" />
    <glyph glyph-name="zero.tf" horiz-adv-x="945" 
d="M472 -16c-273 0 -432 146 -432 366s164 366 432 366c274 0 433 -143 433 -366c0 -220 -159 -366 -433 -366zM473 11c273 0 405 144 405 341c0 196 -135 337 -405 337c-262 0 -406 -144 -406 -341c0 -196 147 -337 406 -337zM472 123c-169 0 -274 91 -274 227
c0 137 105 228 274 228c170 0 275 -91 275 -228c0 -136 -105 -227 -275 -227zM472 230c95 0 150 41 150 120c0 80 -55 121 -150 121c-94 0 -149 -41 -149 -121c0 -79 55 -120 149 -120z" />
    <glyph glyph-name="one.tf" horiz-adv-x="945" 
d="M472 -16c-273 0 -432 146 -432 366s164 366 432 366c274 0 433 -143 433 -366c0 -220 -159 -366 -433 -366zM472 11c273 0 405 144 405 341c0 196 -135 337 -405 337c-262 0 -406 -144 -406 -341c0 -196 147 -337 406 -337zM449 133v335l-218 -136v125l255 111h89v-435
h-126z" />
    <glyph glyph-name="two.tf" horiz-adv-x="945" 
d="M472 -16c-273 0 -432 146 -432 366c0 218 164 366 432 366c274 0 433 -143 433 -366c0 -220 -159 -366 -433 -366zM472 11c273 0 405 144 405 341c0 196 -135 337 -405 337c-262 0 -406 -144 -406 -341c0 -196 147 -337 406 -337zM245 136v86c156 74 359 143 359 202
c0 35 -38 47 -124 47c-63 0 -179 -15 -204 -25v112c36 12 146 22 221 22c154 0 233 -26 233 -130c0 -124 -210 -181 -347 -207h329v-107h-467z" />
    <glyph glyph-name="three.tf" horiz-adv-x="945" 
d="M472 -16c-273 0 -432 146 -432 366c0 218 164 366 432 366c274 0 433 -143 433 -366c0 -220 -159 -366 -433 -366zM472 11c273 0 405 144 405 341c0 196 -135 337 -405 337c-262 0 -406 -144 -406 -341c0 -196 147 -337 406 -337zM477 123c-74 1 -151 9 -202 27v107
c42 -18 134 -27 196 -27c86 0 142 9 142 32c0 30 -56 44 -315 56v63c285 13 303 30 303 51c0 31 -79 39 -131 39c-61 0 -153 -10 -195 -28v107c52 19 142 28 201 28c133 0 244 -15 244 -119c0 -107 -185 -104 -204 -104v-6c36 -1 217 7 217 -100c0 -105 -106 -127 -256 -126
z" />
    <glyph glyph-name="four.tf" horiz-adv-x="945" 
d="M472 -16c-273 0 -432 146 -432 366c0 218 164 366 432 366c274 0 433 -143 433 -366c0 -220 -159 -366 -433 -366zM472 11c273 0 405 144 405 341c0 196 -135 337 -405 337c-262 0 -406 -144 -406 -341c0 -196 147 -337 406 -337zM529 133v68h-337v83l275 284h187v-261
h55v-106h-55v-68h-125zM333 307h196v219z" />
    <glyph glyph-name="five.tf" horiz-adv-x="945" 
d="M472 -16c-273 0 -432 146 -432 366c0 218 164 366 432 366c274 0 433 -143 433 -366c0 -220 -159 -366 -433 -366zM472 11c273 0 405 144 405 341c0 196 -135 337 -405 337c-262 0 -406 -144 -406 -341c0 -196 147 -337 406 -337zM453 119c-55 0 -156 9 -196 26v113
c33 -15 136 -31 195 -31c80 0 134 9 134 42c0 35 -31 52 -116 52c-72 0 -144 -14 -189 -21v264h407v-107h-311v-68c44 15 86 22 139 22c94 0 195 -22 195 -142c0 -96 -105 -150 -258 -150z" />
    <glyph glyph-name="six.tf" horiz-adv-x="945" 
d="M472 -16c-273 0 -432 146 -432 366c0 218 164 366 432 366c274 0 433 -143 433 -366c0 -220 -159 -366 -433 -366zM472 11c273 0 405 144 405 341c0 196 -135 337 -405 337c-262 0 -406 -144 -406 -341c0 -196 147 -337 406 -337zM483 126c-152 0 -254 73 -254 232
c0 144 111 219 272 219c77 0 130 -13 176 -36v-115c-39 22 -92 44 -173 44c-93 0 -150 -39 -150 -112v-3c33 32 85 64 159 64c137 0 198 -64 198 -148c0 -88 -83 -145 -228 -145zM478 232c59 0 107 15 107 48c0 31 -31 49 -88 49c-45 0 -97 -13 -132 -28
c17 -40 54 -69 113 -69z" />
    <glyph glyph-name="seven.tf" horiz-adv-x="945" 
d="M472 -16c-273 0 -432 146 -432 366c0 218 164 366 432 366c274 0 433 -143 433 -366c0 -220 -159 -366 -433 -366zM472 11c273 0 405 144 405 341c0 196 -135 337 -405 337c-262 0 -406 -144 -406 -341c0 -196 147 -337 406 -337zM284 133l274 328h-306v107h503v-56
l-296 -379h-175z" />
    <glyph glyph-name="eight.tf" horiz-adv-x="945" 
d="M472 -16c-273 0 -432 146 -432 366c0 218 164 366 432 366c274 0 433 -143 433 -366c0 -220 -159 -366 -433 -366zM473 11c273 0 405 144 405 341c0 196 -135 337 -405 337c-262 0 -406 -144 -406 -341c0 -196 147 -337 406 -337zM473 120c-153 -2 -250 44 -250 126
c0 73 87 93 147 100c-55 9 -135 36 -135 109c0 78 94 120 238 120c128 0 238 -39 238 -120c0 -73 -80 -100 -136 -109c61 -7 148 -27 148 -100c0 -81 -106 -128 -250 -126zM473 398c109 0 112 23 112 39c0 30 -60 37 -112 37s-112 -7 -112 -37c0 -16 -3 -39 112 -39z
M472 220c85 0 125 12 125 36c0 22 -11 38 -124 38c-114 0 -124 -16 -124 -38c0 -23 38 -36 123 -36z" />
    <glyph glyph-name="nine.tf" horiz-adv-x="945" 
d="M472 -16c-273 0 -432 146 -432 366c0 218 164 366 432 366c274 0 433 -143 433 -366c0 -220 -159 -366 -433 -366zM473 11c273 0 405 144 405 341c0 196 -135 337 -405 337c-262 0 -406 -144 -406 -341c0 -196 147 -337 406 -337zM484 576c152 0 255 -74 255 -232
c0 -144 -111 -219 -273 -219c-76 0 -129 13 -176 36v115c39 -22 93 -44 174 -44c92 0 149 39 149 112v3c-33 -32 -84 -64 -158 -64c-137 0 -198 64 -198 148c0 88 82 145 227 145zM490 470c-60 0 -107 -15 -107 -48c0 -31 31 -49 87 -49c45 0 97 13 132 28
c-17 40 -54 69 -112 69z" />
    <glyph glyph-name="fraction" unicode="&#x2044;" horiz-adv-x="1083" 
d="M40 -100l832 900h171l-832 -900h-171z" />
    <glyph glyph-name="onehalf" unicode="&#xbd;" horiz-adv-x="1734" 
d="M419 -22l688 744h141l-688 -744h-141zM280 161v368l-240 -149v138l281 121h97v-478h-138zM1159 61v95c173 81 396 157 396 222c0 39 -42 51 -137 51c-69 0 -196 -16 -224 -26v122c40 13 161 24 243 24c170 0 257 -28 257 -142c0 -137 -231 -200 -382 -229h361v-117h-514z
" />
    <glyph glyph-name="onequarter" unicode="&#xbc;" horiz-adv-x="1603" 
d="M420 -22l688 744h141l-688 -744h-141zM280 161v368l-240 -149v138l281 121h97v-478h-138zM1330 61v74h-370v92l302 312h206v-286h61v-118h-61v-74h-138zM1115 253h215v240z" />
    <glyph glyph-name="threequarters" unicode="&#xbe;" horiz-adv-x="1610" 
d="M427 -22l688 744h141l-688 -744h-141zM263 150c-81 1 -167 10 -223 30v118c47 -20 148 -30 216 -30c95 0 157 9 157 35c0 33 -62 48 -347 62v69c314 15 333 32 333 56c0 34 -86 43 -143 43c-68 0 -168 -11 -216 -30v117c58 21 157 31 222 31c146 0 269 -17 269 -131
c0 -118 -204 -115 -226 -115v-6c41 -2 240 7 240 -110c0 -116 -117 -140 -282 -139zM1337 58v74h-370v92l302 312h206v-286h61v-118h-61v-74h-138zM1122 250h215v240z" />
    <glyph glyph-name="oneeighth" unicode="&#x215b;" horiz-adv-x="1704" 
d="M420 -22l688 744h141l-688 -744h-141zM280 161v368l-240 -149v138l281 121h97v-478h-138zM1389 47c-168 -2 -276 50 -276 139c0 81 96 103 163 110c-61 10 -149 40 -149 121c0 85 103 131 262 131c141 0 261 -42 261 -131c0 -81 -87 -111 -149 -121
c67 -7 163 -29 163 -110c0 -89 -117 -141 -275 -139zM1389 353c119 0 123 26 123 43c0 34 -66 41 -123 41c-58 0 -123 -7 -123 -41c0 -17 -4 -43 123 -43zM1388 158c93 0 137 13 137 40c0 24 -11 41 -136 41s-137 -17 -137 -41c0 -26 42 -40 136 -40z" />
    <glyph glyph-name="threeeighths" unicode="&#x215c;" horiz-adv-x="1711" 
d="M416 -22l688 744h141l-688 -744h-141zM263 150c-81 1 -167 10 -223 30v118c47 -20 148 -30 216 -30c95 0 157 9 157 35c0 33 -62 48 -347 62v69c314 15 333 32 333 56c0 34 -86 43 -143 43c-68 0 -168 -11 -216 -30v117c58 21 157 31 222 31c146 0 269 -17 269 -131
c0 -118 -204 -115 -226 -115v-6c41 -2 240 7 240 -110c0 -116 -117 -140 -282 -139zM1396 44c-168 -2 -276 50 -276 139c0 81 96 103 163 110c-61 10 -149 40 -149 121c0 85 103 131 262 131c141 0 261 -42 261 -131c0 -81 -87 -111 -149 -121c67 -7 163 -29 163 -110
c0 -89 -117 -141 -275 -139zM1396 350c119 0 123 26 123 43c0 34 -66 41 -123 41c-58 0 -123 -7 -123 -41c0 -17 -4 -43 123 -43zM1395 155c93 0 137 13 137 40c0 24 -11 41 -136 41s-137 -17 -137 -41c0 -26 42 -40 136 -40z" />
    <glyph glyph-name="fiveeighths" unicode="&#x215d;" horiz-adv-x="1751" 
d="M460 -22l688 744h141l-688 -744h-141zM257 147c-61 0 -172 10 -217 28v125c37 -17 150 -34 215 -34c88 0 147 9 147 46c0 39 -34 57 -127 57c-79 0 -158 -16 -208 -22v289h447v-117h-341v-75c48 17 94 24 152 24c104 0 215 -24 215 -156c0 -106 -115 -165 -283 -165z
M1436 44c-168 -2 -276 50 -276 139c0 81 96 103 163 110c-61 10 -149 40 -149 121c0 85 103 131 262 131c141 0 261 -42 261 -131c0 -81 -87 -111 -149 -121c67 -7 163 -29 163 -110c0 -89 -117 -141 -275 -139zM1436 350c119 0 123 26 123 43c0 34 -66 41 -123 41
c-58 0 -123 -7 -123 -41c0 -17 -4 -43 123 -43zM1435 155c93 0 137 13 137 40c0 24 -11 41 -136 41s-137 -17 -137 -41c0 -26 42 -40 136 -40z" />
    <glyph glyph-name="seveneighths" unicode="&#x215e;" horiz-adv-x="1618" 
d="M314 -22l688 744h141l-688 -744h-141zM62 158l302 361h-337v117h553v-61l-326 -417h-192zM1303 44c-168 -2 -276 50 -276 139c0 81 96 103 163 110c-61 10 -149 40 -149 121c0 85 103 131 262 131c141 0 261 -42 261 -131c0 -81 -87 -111 -149 -121
c67 -7 163 -29 163 -110c0 -89 -117 -141 -275 -139zM1303 350c119 0 123 26 123 43c0 34 -66 41 -123 41c-58 0 -123 -7 -123 -41c0 -17 -4 -43 123 -43zM1302 155c93 0 137 13 137 40c0 24 -11 41 -136 41s-137 -17 -137 -41c0 -26 42 -40 136 -40z" />
    <glyph glyph-name="asterisk" unicode="*" horiz-adv-x="615" 
d="M248 194l33 195l-128 -158l-83 75l174 117l-214 -30v108l214 -30l-174 117l83 76l128 -159l-33 195h118l-32 -195l128 159l83 -76l-175 -117l215 30v-108l-215 30l175 -117l-83 -75l-128 158l32 -195h-118z" />
    <glyph glyph-name="backslash" unicode="\" horiz-adv-x="1063" 
d="M862 0l-832 700h171l832 -700h-171z" />
    <glyph glyph-name="periodcentered" unicode="&#xb7;" horiz-adv-x="285" 
d="M142 236c-69 0 -112 39 -112 107s43 107 112 107s113 -39 113 -107s-41 -107 -113 -107z" />
    <glyph glyph-name="bullet" unicode="&#x2022;" horiz-adv-x="647" 
d="M322 75c-180 0 -293 102 -293 279c0 178 113 280 293 280s295 -102 295 -280c0 -177 -107 -279 -295 -279z" />
    <glyph glyph-name="colon" unicode=":" horiz-adv-x="305" 
d="M142 296c-69 0 -112 39 -112 107s43 107 112 107s113 -39 113 -107s-41 -107 -113 -107zM142 -10c-69 0 -112 39 -112 107s43 107 112 107s113 -39 113 -107s-41 -107 -113 -107z" />
    <glyph glyph-name="comma" unicode="," horiz-adv-x="293" 
d="M30 -169l63 270h170l-113 -270h-120z" />
    <glyph glyph-name="ellipsis" unicode="&#x2026;" horiz-adv-x="905" 
d="M142 -10c-69 0 -112 39 -112 107s43 107 112 107s113 -39 113 -107s-41 -107 -113 -107zM442 -10c-69 0 -112 39 -112 107s43 107 112 107s113 -39 113 -107s-41 -107 -113 -107zM742 -10c-69 0 -112 39 -112 107s43 107 112 107s113 -39 113 -107s-41 -107 -113 -107z
" />
    <glyph glyph-name="exclam" unicode="!" horiz-adv-x="325" 
d="M72 294l-10 406h202l-10 -406h-182zM152 -10c-69 0 -112 39 -112 107s43 107 112 107s113 -39 113 -107s-41 -107 -113 -107z" />
    <glyph glyph-name="exclamdown" unicode="&#xa1;" horiz-adv-x="305" 
d="M152 517c72 0 113 -39 113 -107s-44 -107 -113 -107s-112 39 -112 107s43 107 112 107zM72 213h182l10 -406h-202z" />
    <glyph glyph-name="numbersign" unicode="#" horiz-adv-x="1009" 
d="M959 373h-154l-13 -63h157l-20 -127h-165l-39 -183h-171l39 183h-227l-39 -183h-171l39 183h-165l20 127h173l13 63h-176l20 127h184l43 200h171l-43 -200h227l43 200h171l-43 -200h146zM621 310l13 63h-227l-13 -63h227z" />
    <glyph glyph-name="period" unicode="." horiz-adv-x="285" 
d="M142 -10c-69 0 -112 39 -112 107s43 107 112 107s113 -39 113 -107s-41 -107 -113 -107z" />
    <glyph glyph-name="question" unicode="?" horiz-adv-x="728" 
d="M189 232c-1 9 -1 18 -1 26c0 225 267 119 267 206c0 57 -62 75 -200 75c-67 0 -170 -10 -245 -21v179c82 11 196 18 280 18c244 0 368 -44 368 -209c0 -275 -308 -165 -308 -274h-161zM269 -10c-69 0 -112 39 -112 107s43 107 112 107s113 -39 113 -107
s-41 -107 -113 -107z" />
    <glyph glyph-name="questiondown" unicode="&#xbf;" horiz-adv-x="742" 
d="M443 517c69 0 112 -39 112 -107s-43 -107 -112 -107s-113 39 -113 107s41 107 113 107zM523 275c1 -9 1 -18 1 -26c0 -225 -267 -119 -267 -206c0 -57 62 -75 200 -75c67 0 170 10 245 21v-179c-82 -11 -196 -18 -280 -18c-244 0 -368 44 -368 209c0 275 308 165 308 274
h161z" />
    <glyph glyph-name="quotedbl" unicode="&#x22;" horiz-adv-x="425" 
d="M47 430l-17 270h170l-33 -270h-120zM242 430l-17 270h170l-33 -270h-120z" />
    <glyph glyph-name="quotesingle" unicode="'" horiz-adv-x="230" 
d="M47 430l-17 270h170l-33 -270h-120z" />
    <glyph glyph-name="semicolon" unicode=";" horiz-adv-x="293" 
d="M164 296c-69 0 -112 39 -112 107s43 107 112 107s113 -39 113 -107s-41 -107 -113 -107zM30 -169l63 270h170l-113 -270h-120z" />
    <glyph glyph-name="slash" unicode="/" horiz-adv-x="1063" 
d="M30 0l832 700h171l-832 -700h-171z" />
    <glyph glyph-name="underscore" unicode="_" horiz-adv-x="1060" 
d="M30 0v173h1000v-173h-1000z" />
    <glyph glyph-name="braceleft" unicode="{" horiz-adv-x="705" 
d="M675 -80c-300 0 -365 65 -365 203c0 127 -94 192 -280 192v68c187 3 242 74 242 185c0 142 61 209 366 209v-62c-149 0 -207 -31 -207 -147c0 -99 -11 -189 -213 -218c192 -9 250 -99 250 -227c0 -111 62 -142 207 -142v-61z" />
    <glyph glyph-name="braceright" unicode="}" horiz-adv-x="705" 
d="M30 -80v61c145 0 207 31 207 142c0 128 58 218 250 227c-202 29 -213 119 -213 218c0 116 -58 147 -207 147v62c305 0 366 -67 366 -209c0 -111 55 -182 242 -185v-68c-186 0 -280 -65 -280 -192c0 -138 -65 -203 -365 -203z" />
    <glyph glyph-name="bracketleft" unicode="[" horiz-adv-x="513" 
d="M483 558h-251v-606h251v-142h-453v890h453v-142z" />
    <glyph glyph-name="bracketright" unicode="]" horiz-adv-x="513" 
d="M483 700v-890h-453v142h251v606h-251v142h453z" />
    <glyph glyph-name="parenleft" unicode="(" horiz-adv-x="470" 
d="M420 -137c-234 1 -370 196 -370 487s136 486 370 487v-176c-131 -1 -218 -125 -218 -311s87 -310 218 -311v-176z" />
    <glyph glyph-name="parenright" unicode=")" horiz-adv-x="470" 
d="M50 -137v176c143 1 218 89 218 311s-75 310 -218 311v176c234 -1 370 -196 370 -487s-136 -486 -370 -487z" />
    <glyph glyph-name="emdash" unicode="&#x2014;" horiz-adv-x="1060" 
d="M30 244v173h1000v-173h-1000z" />
    <glyph glyph-name="endash" unicode="&#x2013;" horiz-adv-x="560" 
d="M30 244v173h500v-173h-500z" />
    <glyph glyph-name="hyphen" unicode="-" horiz-adv-x="460" 
d="M30 244v173h400v-173h-400z" />
    <glyph glyph-name="guillemotleft" unicode="&#xab;" horiz-adv-x="885" 
d="M476 500l-214 -250l214 -250h-240l-206 250l206 250h240zM855 500l-214 -250l214 -250h-240l-206 250l206 250h240z" />
    <glyph glyph-name="guillemotright" unicode="&#xbb;" horiz-adv-x="885" 
d="M270 500l206 -250l-206 -250h-240l214 250l-214 250h240zM649 500l206 -250l-206 -250h-240l214 250l-214 250h240z" />
    <glyph glyph-name="guilsinglleft" unicode="&#x2039;" horiz-adv-x="506" 
d="M476 500l-214 -250l214 -250h-240l-206 250l206 250h240z" />
    <glyph glyph-name="guilsinglright" unicode="&#x203a;" horiz-adv-x="506" 
d="M270 500l206 -250l-206 -250h-240l214 250l-214 250h240z" />
    <glyph glyph-name="quotedblbase" unicode="&#x201e;" horiz-adv-x="293" 
d="M93 101h170l-113 -270h-120z" />
    <glyph glyph-name="quotedblleft" unicode="&#x201c;" horiz-adv-x="515" 
d="M263 700l-63 -270h-170l113 270h120zM485 700l-63 -270h-170l113 270h120z" />
    <glyph glyph-name="quotedblright" unicode="&#x201d;" horiz-adv-x="515" 
d="M30 430l63 270h170l-113 -270h-120zM252 430l63 270h170l-113 -270h-120z" />
    <glyph glyph-name="quoteleft" unicode="&#x2018;" horiz-adv-x="293" 
d="M263 700l-63 -270h-170l113 270h120z" />
    <glyph glyph-name="quoteright" unicode="&#x2019;" horiz-adv-x="293" 
d="M30 430l63 270h170l-113 -270h-120z" />
    <glyph glyph-name="quotesinglbase" unicode="&#x201a;" horiz-adv-x="293" 
d="M30 -169l63 270h170l-113 -270h-120z" />
    <glyph glyph-name="space" unicode=" " horiz-adv-x="300" 
 />
    <glyph glyph-name="cent" unicode="&#xa2;" horiz-adv-x="589" 
d="M348 444c-79 0 -126 -43 -126 -104s50 -104 129 -104c84 0 153 27 208 61v-169c-49 -22 -90 -37 -137 -46v-112h-202v117c-120 32 -190 125 -190 253c0 129 66 222 190 254v106h202v-103c46 -8 89 -24 137 -45v-170c-57 34 -126 62 -211 62z" />
    <glyph glyph-name="currency" unicode="&#xa4;" horiz-adv-x="720" 
d="M173 5l-143 143l85 85c-14 29 -21 61 -21 97c0 39 8 73 25 103l-89 89l143 143l120 -120c21 3 43 5 66 5c25 0 47 -2 68 -5l120 120l143 -143l-88 -88c15 -30 22 -65 22 -104c0 -36 -6 -69 -19 -97l85 -85l-143 -143l-111 111c-23 -4 -49 -6 -77 -6c-27 0 -51 2 -74 7z
M359 251c65 0 98 30 98 79s-33 79 -98 79s-98 -30 -98 -79s33 -79 98 -79z" />
    <glyph glyph-name="dollar" unicode="$" horiz-adv-x="863" 
d="M846 222c0 -129 -127 -217 -324 -235v-97h-202v104c-174 28 -282 116 -280 237h216c-1 -26 34 -72 174 -75c109 -2 213 6 213 60c0 100 -587 -38 -587 262c0 119 102 204 264 230v127h202v-125c179 -22 296 -113 298 -241h-216c1 26 -23 73 -157 75
c-100 2 -188 -6 -188 -60c0 -108 587 17 587 -262z" />
    <glyph glyph-name="Euro" unicode="&#x20ac;" horiz-adv-x="1017" 
d="M562 156c123 0 210 48 218 149h204c0 -193 -169 -321 -422 -321c-203 0 -351 94 -403 244h-129v103h110v19c0 7 0 14 1 21h-111v103h130c52 149 200 242 402 242c253 0 422 -128 422 -321h-204c-9 101 -96 149 -218 149c-79 0 -142 -24 -180 -70h278v-103h-317
c-1 -7 -1 -14 -1 -21c0 -6 0 -13 1 -19h317v-103h-280c38 -48 102 -72 182 -72z" />
    <glyph glyph-name="sterling" unicode="&#xa3;" horiz-adv-x="902" 
d="M85 0v169c36 20 58 39 69 59h-104v103h105l-12 40h-93v103h71c-1 10 -1 21 -1 32c0 167 127 209 375 209c121 0 298 -16 357 -35v-180c-41 16 -228 39 -329 39c-130 0 -192 -16 -199 -65h446v-103h-446l-4 -40h450v-103h-482c-16 -26 -38 -49 -69 -65h626v-163h-760z" />
    <glyph glyph-name="yen" unicode="&#xa5;" horiz-adv-x="1030" 
d="M1045 700l-291 -336h136v-103h-225l-29 -34v-6h254v-103h-254v-118h-202v118h-254v103h254v5l-30 35h-224v103h135l-290 336h249l261 -311l261 311h249z" />
    <glyph glyph-name="dollar.001" horiz-adv-x="863" 
d="M310 -110v102c-114 14 -210 47 -254 67v185c66 -35 229 -87 351 -87c159 0 220 28 220 77c0 124 -597 -73 -597 260c0 131 125 196 280 215v126h202v-123c94 -5 188 -20 257 -51v-182c-78 39 -236 64 -336 64c-138 0 -201 -30 -201 -68c0 -108 597 70 597 -259
c0 -154 -156 -213 -317 -227v-99h-202z" />
    <glyph glyph-name="Euro.001" horiz-adv-x="927" 
d="M602 -16c-243 0 -399 94 -452 244h-120v103h100v19c0 7 0 14 1 21h-101v103h121c53 149 209 242 451 242c118 -1 203 -14 295 -54v-182c-81 41 -189 64 -295 64c-109 0 -184 -24 -227 -70h365v-103h-407l-1 -21c0 -6 0 -13 1 -19h407v-103h-367c43 -48 119 -72 229 -72
c106 0 214 23 295 64v-182c-92 -40 -177 -53 -295 -54z" />
    <glyph glyph-name="plus" unicode="+" horiz-adv-x="580" 
d="M204 71v173h-174v173h173v174h173v-174h174v-173h-173v-173h-173z" />
    <glyph glyph-name="minus" unicode="&#x2212;" horiz-adv-x="580" 
d="M30 244v173h520v-173h-520z" />
    <glyph glyph-name="multiply" unicode="&#xd7;" horiz-adv-x="600" 
d="M168 86l-123 122l122 123l-122 122l122 123l123 -123l122 123l123 -122l-123 -123l123 -123l-123 -122l-122 122z" />
    <glyph glyph-name="divide" unicode="&#xf7;" horiz-adv-x="600" 
d="M292 449c-69 0 -112 39 -112 107s43 107 112 107s113 -39 113 -107s-41 -107 -113 -107zM30 244v173h520v-173h-520zM292 -10c-69 0 -112 39 -112 107s43 107 112 107s113 -39 113 -107s-41 -107 -113 -107z" />
    <glyph glyph-name="equal" unicode="=" horiz-adv-x="580" 
d="M30 367v173h520v-173h-520zM30 114v173h520v-173h-520z" />
    <glyph glyph-name="notequal" unicode="&#x2260;" horiz-adv-x="580" 
d="M34 20l52 94h-56v173h153l44 80h-197v173h293l45 80h171l-45 -80h56v-173h-152l-44 -80h196v-173h-293l-52 -94h-171z" />
    <glyph glyph-name="greater" unicode="&#x3e;" horiz-adv-x="506" 
d="M30 0l214 250l-214 250h240l206 -250l-206 -250h-240z" />
    <glyph glyph-name="less" unicode="&#x3c;" horiz-adv-x="506" 
d="M236 0l-206 250l206 250h240l-214 -250l214 -250h-240z" />
    <glyph glyph-name="greaterequal" unicode="&#x2265;" horiz-adv-x="600" 
d="M33 204l259 141l-259 141h291l249 -141l-249 -141h-291zM30 0v133h520v-133h-520z" />
    <glyph glyph-name="lessequal" unicode="&#x2264;" horiz-adv-x="600" 
d="M279 204l-249 141l249 141h291l-259 -141l259 -141h-291zM53 0v133h520v-133h-520z" />
    <glyph glyph-name="plusminus" unicode="&#xb1;" horiz-adv-x="600" 
d="M225 196v130h-130v130h130v130h130v-130h130v-130h-130v-130h-130zM30 0v133h520v-133h-520z" />
    <glyph glyph-name="approxequal" unicode="&#x2248;" horiz-adv-x="441" 
d="M288 310c-72 0 -94 72 -135 72c-36 0 -61 -23 -62 -71h-61c1 78 52 130 123 130c64 0 86 -72 135 -72c37 0 62 22 63 71h60c-1 -79 -52 -130 -123 -130zM288 140c-72 0 -94 72 -135 72c-36 0 -61 -23 -62 -71h-61c1 78 52 130 123 130c64 0 86 -72 135 -72
c37 0 62 22 63 71h60c-1 -79 -52 -130 -123 -130z" />
    <glyph glyph-name="asciitilde" unicode="~" horiz-adv-x="441" 
d="M288 310c-72 0 -94 72 -135 72c-36 0 -61 -23 -62 -71h-61c1 78 52 130 123 130c64 0 86 -72 135 -72c37 0 62 22 63 71h60c-1 -79 -52 -130 -123 -130z" />
    <glyph glyph-name="logicalnot" unicode="&#xac;" horiz-adv-x="670" 
d="M467 76v168h-437v173h610v-341h-173z" />
    <glyph glyph-name="emptyset" unicode="&#x2205;" horiz-adv-x="702" 
d="M739 500l-110 -93c34 -42 53 -96 53 -157c0 -160 -128 -266 -321 -266c-72 0 -135 15 -186 42l-125 -106l-76 80l115 97c-31 42 -49 94 -49 153c0 160 128 266 321 266c69 0 130 -14 180 -39l117 99zM232 250c0 -10 1 -20 4 -29l156 131c-10 1 -20 2 -31 2
c-77 0 -129 -42 -129 -104zM490 250c0 13 -2 24 -6 35l-161 -135c12 -3 24 -4 38 -4c77 0 129 42 129 104z" />
    <glyph glyph-name="infinity" unicode="&#x221e;" horiz-adv-x="988" 
d="M278 77c-151 0 -248 110 -248 228c0 122 103 236 250 236c129 0 202 -66 214 -167c12 105 90 167 214 167c147 0 250 -114 250 -236c0 -118 -97 -228 -248 -228c-131 0 -204 58 -216 157c-12 -99 -85 -157 -216 -157zM288 222c54 6 82 39 82 83c0 47 -32 81 -90 81
c-52 0 -87 -36 -87 -81c0 -48 39 -87 95 -83zM700 222c56 -4 95 35 95 83c0 45 -35 81 -87 81c-58 0 -90 -34 -90 -81c0 -44 28 -77 82 -83z" />
    <glyph glyph-name="integral" unicode="&#x222b;" horiz-adv-x="712" 
d="M10 -140l13 58c61 0 121 38 132 84l138 587c19 79 119 142 409 142l-13 -58c-61 0 -121 -37 -132 -84l-138 -587c-19 -78 -119 -142 -409 -142z" />
    <glyph glyph-name="product" unicode="&#x220f;" horiz-adv-x="790" 
d="M109 -170v697h-79v173h730v-173h-79v-697h-202v697h-168v-697h-202z" />
    <glyph glyph-name="summation" unicode="&#x2211;" horiz-adv-x="790" 
d="M30 0v173l299 167l-299 187v173h730v-173h-458l299 -187l-299 -167h458v-173h-730z" />
    <glyph glyph-name="radical" unicode="&#x221a;" horiz-adv-x="1109" 
d="M269 0l-264 501h219l166 -316l271 515h418v-173h-290l-278 -527h-242z" />
    <glyph glyph-name="partialdiff" unicode="&#x2202;" horiz-adv-x="836" 
d="M396 -12c-233 0 -366 93 -366 234c0 136 98 238 319 238c129 0 208 -60 254 -117c1 153 -118 265 -260 265v147c260 0 463 -161 463 -393c0 -255 -165 -374 -410 -374zM405 160c94 0 154 46 181 110c-56 25 -140 45 -212 45c-91 0 -141 -29 -141 -78
c0 -53 76 -77 172 -77z" />
    <glyph glyph-name="percent" unicode="%" horiz-adv-x="1039" 
d="M259 460c-112 0 -209 50 -209 125s97 125 209 125c124 0 209 -50 209 -125s-85 -125 -209 -125zM110 0l688 700h141l-688 -700h-141zM259 522c42 0 75 21 75 61c0 43 -30 65 -75 65c-42 0 -74 -21 -74 -63s32 -63 74 -63zM780 -10c-112 0 -209 50 -209 125
s97 125 209 125c124 0 209 -50 209 -125s-85 -125 -209 -125zM780 52c42 0 75 21 75 61c0 43 -30 65 -75 65c-42 0 -74 -21 -74 -63s32 -63 74 -63z" />
    <glyph glyph-name="perthousand" unicode="&#x2030;" horiz-adv-x="1519" 
d="M259 460c-112 0 -209 50 -209 125s97 125 209 125c124 0 209 -50 209 -125s-85 -125 -209 -125zM110 0l688 700h141l-688 -700h-141zM259 522c42 0 75 21 75 61c0 43 -30 65 -75 65c-42 0 -74 -21 -74 -63s32 -63 74 -63zM780 -10c-112 0 -209 50 -209 125
s97 125 209 125c124 0 209 -50 209 -125s-85 -125 -209 -125zM1260 -10c-112 0 -209 50 -209 125s97 125 209 125c124 0 209 -50 209 -125s-85 -125 -209 -125zM780 52c42 0 75 21 75 61c0 43 -30 65 -75 65c-42 0 -74 -21 -74 -63s32 -63 74 -63zM1260 52c42 0 75 21 75 61
c0 43 -30 65 -75 65c-42 0 -74 -21 -74 -63s32 -63 74 -63z" />
    <glyph glyph-name="arrowup" unicode="&#x2191;" horiz-adv-x="561" 
d="M194 -58v504l-164 -140l1 200l250 206l250 -206v-200l-164 140v-504h-173z" />
    <glyph glyph-name="arrowright" unicode="&#x2192;" horiz-adv-x="830" 
d="M30 417h504l-140 164l200 -1l206 -250l-206 -250h-200l140 164h-504v173z" />
    <glyph glyph-name="arrowdown" unicode="&#x2193;" horiz-adv-x="561" 
d="M367 699v-504l164 140l-1 -200l-250 -206l-250 206v200l164 -140v504h173z" />
    <glyph glyph-name="arrowleft" unicode="&#x2190;" horiz-adv-x="830" 
d="M800 243h-504l140 -164l-200 1l-206 250l206 250h200l-140 -164h504v-173z" />
    <glyph glyph-name="lozenge" unicode="&#x25ca;" horiz-adv-x="726" 
d="M236 0l-206 250l206 250h254l206 -250l-206 -250h-254zM363 132l101 118l-101 118l-101 -118z" />
    <glyph glyph-name="at" unicode="@" horiz-adv-x="1073" 
d="M536 725c301 0 487 -168 487 -373c0 -97 -48 -187 -164 -230h-226l15 147h-9c-25 -112 -66 -160 -192 -160c-61 0 -153 13 -153 108c0 91 108 133 331 147c0 23 -31 39 -76 39c-64 0 -148 -19 -203 -42v141c69 26 163 45 236 45c153 0 209 -78 209 -193v-203
c75 55 98 112 98 201c0 150 -129 254 -353 254c-223 0 -352 -97 -352 -284s129 -284 352 -284c65 0 122 8 171 25v-124c-52 -13 -109 -20 -171 -20c-300 0 -486 161 -486 403s186 403 486 403zM524 221c46 0 102 23 101 79c-95 -6 -160 -18 -160 -50c0 -19 27 -29 59 -29z
" />
    <glyph glyph-name="ampersand" unicode="&#x26;" horiz-adv-x="980" 
d="M365 -12c-119 0 -325 32 -325 198c0 122 104 206 226 208l-163 156v150h625v-200h-277l194 -185c46 45 83 92 105 127l142 -150c-26 -48 -57 -89 -92 -125l175 -167h-298l-49 47c-88 -41 -182 -59 -263 -59zM372 180c33 0 66 7 98 19l-158 151c-77 -1 -126 -34 -126 -73
c0 -67 74 -97 186 -97z" />
    <glyph glyph-name="paragraph" unicode="&#xb6;" horiz-adv-x="939" 
d="M394 -180v453h-129c-135 0 -235 71 -235 213c0 117 90 214 235 214h335v-880h-206zM707 -180v880h202v-880h-202z" />
    <glyph glyph-name="section" unicode="&#xa7;" horiz-adv-x="644" 
d="M320 0c-77 0 -185 15 -268 39v169c84 -32 180 -43 268 -43c55 0 92 8 92 19c0 70 -382 -35 -382 184c0 31 11 55 29 72c-18 21 -29 49 -29 86c0 110 118 164 294 164c60 0 163 -11 250 -28v-169c-71 15 -175 26 -250 26c-55 0 -92 -8 -92 -21c0 -47 382 50 382 -188
c0 -29 -10 -51 -26 -68c16 -23 26 -52 26 -90c0 -103 -118 -152 -294 -152zM350 322c34 0 60 5 62 18c1 19 -38 27 -92 31c-15 1 -27 2 -37 2c-44 0 -50 -10 -51 -20c-1 -16 30 -25 88 -30c10 -1 20 -1 30 -1z" />
    <glyph glyph-name="copyright" unicode="&#xa9;" horiz-adv-x="965" 
d="M482 -16c-273 0 -432 146 -432 366s164 366 432 366c274 0 433 -143 433 -366c0 -220 -159 -366 -433 -366zM482 11c273 0 405 144 405 341c0 196 -135 337 -405 337c-262 0 -406 -144 -406 -341c0 -196 147 -337 406 -337zM487 85c-181 0 -301 106 -301 266
s120 266 301 266c180 0 300 -95 300 -237h-204c-9 43 -47 72 -96 72c-59 0 -99 -40 -99 -101s40 -101 99 -101c52 0 91 32 98 80h203c0 -147 -120 -245 -301 -245z" />
    <glyph glyph-name="registered" unicode="&#xae;" horiz-adv-x="965" 
d="M482 -16c-273 0 -432 146 -432 366s164 366 432 366c274 0 433 -143 433 -366c0 -220 -159 -366 -433 -366zM482 11c273 0 405 144 405 341c0 196 -135 337 -405 337c-262 0 -406 -144 -406 -341c0 -196 147 -337 406 -337zM253 133v435h350c91 0 140 -49 140 -115
c0 -70 -56 -110 -140 -110h-44c107 -6 147 -68 216 -210h-165c-81 145 -96 175 -164 175h-69l1 -175h-125zM377 403h205c23 0 36 9 36 32s-13 32 -36 32h-205v-64z" />
    <glyph glyph-name="trademark" unicode="&#x2122;" horiz-adv-x="1308" 
d="M276 222v361h-212v117h562v-117h-212v-361h-138zM670 222v478h110l191 -285l191 285h110v-478h-138v228l-149 -228h-28l-149 228v-228h-138z" />
    <glyph glyph-name="degree" unicode="&#xb0;" horiz-adv-x="518" 
d="M259 460c-112 0 -209 50 -209 125s97 125 209 125c124 0 209 -50 209 -125s-85 -125 -209 -125zM259 522c42 0 75 21 75 61c0 43 -30 65 -75 65c-42 0 -74 -21 -74 -63s32 -63 74 -63z" />
    <glyph glyph-name="bar" unicode="|" horiz-adv-x="322" 
d="M60 -170v890h202v-890h-202z" />
    <glyph glyph-name="brokenbar" unicode="&#xa6;" horiz-adv-x="322" 
d="M60 313v407h202v-407h-202zM60 -170v418h202v-418h-202z" />
    <glyph glyph-name="dagger" unicode="&#x2020;" horiz-adv-x="580" 
d="M189 -170v496h-159v173h159v221h202v-221h159v-173h-159v-496h-202z" />
    <glyph glyph-name="daggerdbl" unicode="&#x2021;" horiz-adv-x="600" 
d="M189 -170v170h-159v173h159v153h-159v173h159v221h202v-221h159v-173h-159v-153h159v-173h-159v-170h-202z" />
    <glyph glyph-name="asciicircum" unicode="^" horiz-adv-x="560" 
d="M30 317v118l250 274l250 -274v-118l-250 242z" />
    <glyph glyph-name="uni0308" unicode="&#x308;" 
d="M-439 538c-58 0 -99 34 -99 85s41 85 99 85c64 0 99 -34 99 -85s-35 -85 -99 -85zM-149 538c-58 0 -99 34 -99 85s41 85 99 85c64 0 99 -34 99 -85s-35 -85 -99 -85z" />
    <glyph glyph-name="uni0307" unicode="&#x307;" 
d="M-149 538c-58 0 -99 34 -99 85s41 85 99 85c64 0 99 -34 99 -85s-35 -85 -99 -85z" />
    <glyph glyph-name="gravecomb" unicode="&#x300;" 
d="M-50 544l-287 164v102l287 -186v-80z" />
    <glyph glyph-name="acutecomb" unicode="&#x301;" 
d="M-337 544v80l287 186v-102z" />
    <glyph glyph-name="uni030B" unicode="&#x30b;" 
d="M-587 544v80l287 186v-102zM-337 544v80l287 186v-102z" />
    <glyph glyph-name="uni0302" unicode="&#x302;" 
d="M-337 821l287 -186v-80l-287 164l-287 -164v80z" />
    <glyph glyph-name="uni030C" unicode="&#x30c;" 
d="M-337 657l287 164v-80l-287 -186l-287 186v80z" />
    <glyph glyph-name="uni0306" unicode="&#x306;" 
d="M-263 551c-122 0 -212 59 -213 149h105c2 -55 46 -81 108 -81c64 0 106 26 110 81h103c-1 -90 -77 -149 -213 -149z" />
    <glyph glyph-name="uni030A" unicode="&#x30a;" 
d="M-303 538c-136 0 -253 41 -253 103s117 103 253 103c150 0 253 -41 253 -103s-103 -103 -253 -103zM-303 589c51 0 91 18 91 51c0 36 -37 53 -91 53c-51 0 -89 -17 -89 -52s38 -52 89 -52z" />
    <glyph glyph-name="tildecomb" unicode="&#x303;" 
d="M-173 572c-72 0 -94 72 -135 72c-36 0 -61 -23 -62 -71h-61c1 78 52 130 123 130c64 0 86 -72 135 -72c37 0 62 22 63 71h60c-1 -79 -52 -130 -123 -130z" />
    <glyph glyph-name="uni0304" unicode="&#x304;" 
d="M-582 646v54h532v-54h-532z" />
    <glyph glyph-name="uni0312" unicode="&#x312;" 
d="M-50 798l-63 -270h-170l113 270h120z" />
    <glyph glyph-name="uni0326" unicode="&#x326;" 
d="M-283 -341l63 270h170l-113 -270h-120z" />
    <glyph glyph-name="uni0327" unicode="&#x327;" 
d="M-343 -70c180 -13 293 -49 293 -107c0 -62 -170 -109 -426 -110v55c160 1 232 23 232 55c0 34 -72 55 -232 58v53l58 101h129z" />
    <glyph glyph-name="uni0328" unicode="&#x328;" 
d="M-165 -230c-120 0 -230 54 -230 140c0 35 19 76 64 121c22 22 44 30 62 30c29 0 51 -21 51 -38c0 -4 -2 -8 -5 -11c-27 -25 -39 -45 -39 -62c0 -39 60 -57 128 -57c28 0 57 3 84 9l-3 -116c-36 -11 -75 -16 -112 -16z" />
    <glyph glyph-name="uni0335" unicode="&#x335;" 
d="M-550 244v173h500v-173h-500z" />
    <glyph glyph-name="uni0336" unicode="&#x336;" 
d="M-1050 244v173h1000v-173h-1000z" />
    <glyph glyph-name="uni0337" unicode="&#x337;" 
d="M-815 0l594 500h171l-594 -500h-171z" />
    <glyph glyph-name="uni0338" unicode="&#x338;" 
d="M-1053 0l832 700h171l-832 -700h-171z" />
    <glyph glyph-name="acute" unicode="&#xb4;" horiz-adv-x="387" 
d="M50 544v80l287 186v-102z" />
    <glyph glyph-name="breve" unicode="&#x2d8;" horiz-adv-x="526" 
d="M263 551c-122 0 -212 59 -213 149h105c2 -55 46 -81 108 -81c64 0 106 26 110 81h103c-1 -90 -77 -149 -213 -149z" />
    <glyph glyph-name="caron" unicode="&#x2c7;" horiz-adv-x="674" 
d="M337 657l287 164v-80l-287 -186l-287 186v80z" />
    <glyph glyph-name="cedilla" unicode="&#xb8;" horiz-adv-x="526" 
d="M183 -70c180 -13 293 -49 293 -107c0 -62 -170 -109 -426 -110v55c160 1 232 23 232 55c0 34 -72 55 -232 58v53l58 101h129z" />
    <glyph glyph-name="circumflex" unicode="&#x2c6;" horiz-adv-x="674" 
d="M337 821l287 -186v-80l-287 164l-287 -164v80z" />
    <glyph glyph-name="dieresis" unicode="&#xa8;" horiz-adv-x="588" 
d="M149 538c-58 0 -99 34 -99 85s41 85 99 85c64 0 99 -34 99 -85s-35 -85 -99 -85zM439 538c-58 0 -99 34 -99 85s41 85 99 85c64 0 99 -34 99 -85s-35 -85 -99 -85z" />
    <glyph glyph-name="dotaccent" unicode="&#x2d9;" horiz-adv-x="298" 
d="M149 538c-58 0 -99 34 -99 85s41 85 99 85c64 0 99 -34 99 -85s-35 -85 -99 -85z" />
    <glyph glyph-name="grave" unicode="`" horiz-adv-x="387" 
d="M337 544l-287 164v102l287 -186v-80z" />
    <glyph glyph-name="hungarumlaut" unicode="&#x2dd;" horiz-adv-x="637" 
d="M50 544v80l287 186v-102zM300 544v80l287 186v-102z" />
    <glyph glyph-name="macron" unicode="&#xaf;" horiz-adv-x="632" 
d="M50 646v54h532v-54h-532z" />
    <glyph glyph-name="ogonek" unicode="&#x2db;" horiz-adv-x="445" 
d="M280 -230c-120 0 -230 54 -230 140c0 35 19 76 64 121c22 22 44 30 62 30c29 0 51 -21 51 -38c0 -4 -2 -8 -5 -11c-27 -25 -39 -45 -39 -62c0 -39 60 -57 128 -57c28 0 57 3 84 9l-3 -116c-36 -11 -75 -16 -112 -16z" />
    <glyph glyph-name="ring" unicode="&#x2da;" horiz-adv-x="606" 
d="M303 538c-136 0 -253 41 -253 103s117 103 253 103c150 0 253 -41 253 -103s-103 -103 -253 -103zM303 589c51 0 91 18 91 51c0 36 -37 53 -91 53c-51 0 -89 -17 -89 -52s38 -52 89 -52z" />
    <glyph glyph-name="tilde" unicode="&#x2dc;" horiz-adv-x="481" 
d="M308 572c-72 0 -94 72 -135 72c-36 0 -61 -23 -62 -71h-61c1 78 52 130 123 130c64 0 86 -72 135 -72c37 0 62 22 63 71h60c-1 -79 -52 -130 -123 -130z" />
    <glyph glyph-name="brevecombcy" 
d="M-237 551c-122 0 -212 59 -213 149h105c2 -55 46 -81 108 -81c64 0 106 26 110 81h103c-1 -90 -77 -149 -213 -149z" />
    </font>
</defs>
</svg>
