{
  "accessors": [
    {
      "bufferView": 2,
      "componentType": 5126,
      "count": 3067,
      "max": [
        78.423515319824219,
        145.78157043457031,
        135.16978454589844
      ],
      "min": [
        -78.337608337402344,
        -75.893661499023438,
        -155.32818603515625
      ],
      "type": "VEC3"
    },
    {
      "bufferView": 2,
      "byteOffset": 36804,
      "componentType": 5126,
      "count": 3067,
      "max": [
        1,
        1,
        1
      ],
      "min": [
        -1,
        -1,
        -1
      ],
      "type": "VEC3"
    },
    {
      "bufferView": 1,
      "componentType": 5126,
      "count": 3067,
      "max": [
        0.9917566180229187,
        0.99176144599914551
      ],
      "min": [
        0.0082434043288230896,
        0.0082385540008544922
      ],
      "type": "VEC2"
    },
    {
      "bufferView": 0,
      "componentType": 5125,
      "count": 9207,
      "max": [
        3066
      ],
      "min": [
        0
      ],
      "type": "SCALAR"
    },
    {
      "bufferView": 2,
      "byteOffset": 73608,
      "componentType": 5126,
      "count": 121,
      "max": [
        52.925437927246094,
        0,
        27.087196350097656
      ],
      "min": [
        -52.925434112548828,
        0,
        -27.087198257446289
      ],
      "type": "VEC3"
    },
    {
      "bufferView": 2,
      "byteOffset": 75060,
      "componentType": 5126,
      "count": 121,
      "max": [
        0,
        1,
        -0
      ],
      "min": [
        0,
        1,
        -0
      ],
      "type": "VEC3"
    },
    {
      "bufferView": 1,
      "byteOffset": 24536,
      "componentType": 5126,
      "count": 121,
      "max": [
        0.99294686317443848,
        0.98640197515487671
      ],
      "min": [
        0.0070530986413359642,
        0.013598084449768066
      ],
      "type": "VEC2"
    },
    {
      "bufferView": 0,
      "byteOffset": 36828,
      "componentType": 5125,
      "count": 600,
      "max": [
        120
      ],
      "min": [
        0
      ],
      "type": "SCALAR"
    }
  ],
  "asset": {
    "extras": {
      "author": "Luc.Miramont (https://sketchfab.com/Luc.Miramont)",
      "license": "CC-BY-4.0 (http://creativecommons.org/licenses/by/4.0/)",
      "source": "https://sketchfab.com/3d-models/head-serge-d7d762025d8a4bc4882b6eec667a4753",
      "title": "Head Serge"
    },
    "generator": "Sketchfab-8.20.0",
    "version": "2.0"
  },
  "bufferViews": [
    {
      "buffer": 0,
      "byteLength": 39228,
      "byteOffset": 0,
      "name": "floatBufferViews",
      "target": 34963
    },
    {
      "buffer": 0,
      "byteLength": 25504,
      "byteOffset": 39228,
      "byteStride": 8,
      "name": "floatBufferViews",
      "target": 34962
    },
    {
      "buffer": 0,
      "byteLength": 76512,
      "byteOffset": 64732,
      "byteStride": 12,
      "name": "floatBufferViews",
      "target": 34962
    }
  ],
  "buffers": [
    {
      "byteLength": 141244,
      "uri": "scene.bin"
    }
  ],
  "images": [
    {
      "uri": "textures/tete_baseColor.jpeg"
    },
    {
      "uri": "textures/tete_metallicRoughness.png"
    }
  ],
  "materials": [
    {
      "doubleSided": true,
      "name": "tete",
      "occlusionTexture": {
        "index": 1,
        "strength": 1,
        "texCoord": 0
      },
      "pbrMetallicRoughness": {
        "baseColorFactor": [
          1,
          1,
          1,
          1
        ],
        "baseColorTexture": {
          "index": 0,
          "texCoord": 0
        },
        "metallicFactor": 0,
        "metallicRoughnessTexture": {
          "index": 1,
          "texCoord": 0
        },
        "roughnessFactor": 1
      }
    },
    {
      "doubleSided": true,
      "emissiveFactor": [
        1,
        1,
        1
      ],
      "name": "Plane",
      "pbrMetallicRoughness": {
        "baseColorFactor": [
          1,
          1,
          1,
          1
        ],
        "metallicFactor": 0,
        "roughnessFactor": 1
      }
    }
  ],
  "meshes": [
    {
      "name": "tete_tete_0",
      "primitives": [
        {
          "attributes": {
            "NORMAL": 1,
            "POSITION": 0,
            "TEXCOORD_0": 2
          },
          "indices": 3,
          "material": 0,
          "mode": 4
        }
      ]
    },
    {
      "name": "Plane_1_Plane_0",
      "primitives": [
        {
          "attributes": {
            "NORMAL": 5,
            "POSITION": 4,
            "TEXCOORD_0": 6
          },
          "indices": 7,
          "material": 1,
          "mode": 4
        }
      ]
    }
  ],
  "nodes": [
    {
      "children": [
        1
      ],
      "name": "RootNode (gltf orientation matrix)",
      "rotation": [
        -0.70710678118654746,
        -0,
        -0,
        0.70710678118654757
      ]
    },
    {
      "children": [
        2
      ],
      "name": "RootNode (model correction matrix)"
    },
    {
      "children": [
        3
      ],
      "matrix": [
        1,
        0,
        0,
        0,
        0,
        0,
        1,
        0,
        0,
        -1,
        0,
        0,
        0,
        0,
        0,
        1
      ],
      "name": "4ca82bf9fdfe422cbd4883f18d21933b.fbx"
    },
    {
      "children": [
        4,
        6
      ],
      "name": "RootNode"
    },
    {
      "children": [
        5
      ],
      "matrix": [
        1,
        0,
        0,
        0,
        0,
        1,
        0,
        0,
        0,
        0,
        1,
        0,
        -0.42537114024162292,
        70.255905151367188,
        14.829829216003418,
        1
      ],
      "name": "tete"
    },
    {
      "mesh": 0,
      "name": "tete_tete_0"
    },
    {
      "children": [
        7
      ],
      "matrix": [
        1,
        0,
        0,
        0,
        0,
        0.31380826972986431,
        -0.94948637159737515,
        0,
        0,
        0.94948637159737515,
        0.31380826972986431,
        0,
        0,
        28.301279067993164,
        137.24996948242188,
        1
      ],
      "name": "Plane_1"
    },
    {
      "mesh": 1,
      "name": "Plane_1_Plane_0"
    }
  ],
  "samplers": [
    {
      "magFilter": 9729,
      "minFilter": 9987,
      "wrapS": 10497,
      "wrapT": 10497
    }
  ],
  "scene": 0,
  "scenes": [
    {
      "name": "OSG_Scene",
      "nodes": [
        0
      ]
    }
  ],
  "textures": [
    {
      "sampler": 0,
      "source": 0
    },
    {
      "sampler": 0,
      "source": 1
    }
  ]
}

